<svg width="158" height="49" viewBox="0 0 158 49" fill="none" xmlns="http://www.w3.org/2000/svg">
<rect width="158" height="49" rx="9" fill="#EC7505"/>
<path d="M49.5257 31V17.0606H52.4728V28.5701H58.4488V31H49.5257ZM72.6672 24.0303C72.6672 25.5504 72.3791 26.8436 71.8028 27.9099C71.2311 28.9762 70.4506 29.7907 69.4614 30.3534C68.4768 30.9115 67.3696 31.1906 66.1399 31.1906C64.9012 31.1906 63.7895 30.9092 62.8048 30.3466C61.8202 29.7839 61.042 28.9694 60.4703 27.9031C59.8985 26.8368 59.6127 25.5458 59.6127 24.0303C59.6127 22.5102 59.8985 21.217 60.4703 20.1507C61.042 19.0844 61.8202 18.2721 62.8048 17.714C63.7895 17.1514 64.9012 16.87 66.1399 16.87C67.3696 16.87 68.4768 17.1514 69.4614 17.714C70.4506 18.2721 71.2311 19.0844 71.8028 20.1507C72.3791 21.217 72.6672 22.5102 72.6672 24.0303ZM69.6792 24.0303C69.6792 23.0457 69.5318 22.2153 69.2368 21.5392C68.9464 20.8631 68.5358 20.3503 68.0049 20.0009C67.474 19.6516 66.8523 19.4769 66.1399 19.4769C65.4275 19.4769 64.8059 19.6516 64.275 20.0009C63.7441 20.3503 63.3312 20.8631 63.0363 21.5392C62.7458 22.2153 62.6006 23.0457 62.6006 24.0303C62.6006 25.015 62.7458 25.8453 63.0363 26.5214C63.3312 27.1975 63.7441 27.7103 64.275 28.0597C64.8059 28.4091 65.4275 28.5837 66.1399 28.5837C66.8523 28.5837 67.474 28.4091 68.0049 28.0597C68.5358 27.7103 68.9464 27.1975 69.2368 26.5214C69.5318 25.8453 69.6792 25.015 69.6792 24.0303ZM84.0934 21.5664C83.9981 21.2352 83.8642 20.9425 83.6918 20.6884C83.5194 20.4297 83.3084 20.2119 83.0588 20.035C82.8138 19.8535 82.5325 19.7151 82.2148 19.6198C81.9017 19.5245 81.5546 19.4769 81.1735 19.4769C80.4611 19.4769 79.8349 19.6538 79.2949 20.0078C78.7595 20.3617 78.342 20.8767 78.0425 21.5528C77.7431 22.2244 77.5933 23.0457 77.5933 24.0167C77.5933 24.9877 77.7408 25.8136 78.0357 26.4942C78.3307 27.1748 78.7481 27.6944 79.2881 28.0529C79.8281 28.4068 80.4656 28.5837 81.2007 28.5837C81.8677 28.5837 82.4372 28.4658 82.9091 28.2298C83.3855 27.9893 83.7485 27.6513 83.9981 27.2157C84.2522 26.7801 84.3792 26.2651 84.3792 25.6706L84.9782 25.7591H81.3845V23.5402H87.2175V25.2963C87.2175 26.5214 86.9589 27.5741 86.4416 28.4544C85.9243 29.3302 85.2119 30.0063 84.3044 30.4827C83.3969 30.9546 82.3578 31.1906 81.1871 31.1906C79.8803 31.1906 78.7323 30.9024 77.7431 30.3262C76.7539 29.7454 75.9825 28.9218 75.4289 27.8555C74.8799 26.7846 74.6053 25.5141 74.6053 24.0439C74.6053 22.9141 74.7687 21.9067 75.0954 21.0219C75.4266 20.1325 75.8895 19.3793 76.4839 18.7622C77.0783 18.1451 77.7703 17.6754 78.5598 17.3533C79.3494 17.0311 80.2047 16.87 81.1258 16.87C81.9154 16.87 82.6504 16.9857 83.3311 17.2172C84.0117 17.444 84.6152 17.7662 85.1416 18.1837C85.6725 18.6011 86.1058 19.098 86.4416 19.6742C86.7773 20.246 86.9929 20.8767 87.0882 21.5664H84.0934ZM92.3784 17.0606V31H89.4313V17.0606H92.3784ZM106.462 17.0606V31H103.917L97.8524 22.2266H97.7503V31H94.8032V17.0606H97.3896L103.406 25.8272H103.529V17.0606H106.462Z" fill="white"/>
</svg>
