<svg width="9" height="9" viewBox="0 0 9 9" fill="none" xmlns="http://www.w3.org/2000/svg">
<g clip-path="url(#clip0_118_437)">
<path d="M8.0906 3.43134L4.9406 6.59072C4.9031 6.62822 4.86248 6.65484 4.81873 6.67059C4.77498 6.68634 4.7281 6.69409 4.6781 6.69384C4.6281 6.69384 4.58123 6.68597 4.53748 6.67022C4.49373 6.65447 4.4531 6.62797 4.4156 6.59072L1.25623 3.43134C1.16873 3.34384 1.12498 3.23447 1.12498 3.10322C1.12498 2.97197 1.17186 2.85947 1.26561 2.76572C1.35936 2.67197 1.46873 2.62509 1.59373 2.62509C1.71873 2.62509 1.82811 2.67197 1.92186 2.76572L4.6781 5.52197L7.43435 2.76572C7.52185 2.67822 7.62973 2.63447 7.75798 2.63447C7.88623 2.63447 7.9971 2.68134 8.0906 2.77509C8.18435 2.86884 8.23123 2.97822 8.23123 3.10322C8.23123 3.22822 8.18435 3.33759 8.0906 3.43134Z" fill="black"/>
<path d="M8.09061 0.862496L4.94061 4.02187C4.90312 4.05937 4.86249 4.08599 4.81874 4.10174C4.77499 4.11749 4.72812 4.12524 4.67812 4.12499C4.62812 4.12499 4.58124 4.11712 4.53749 4.10137C4.49374 4.08562 4.45312 4.05912 4.41562 4.02187L1.25624 0.862496C1.16874 0.774996 1.12499 0.665621 1.12499 0.534371C1.12499 0.403121 1.17187 0.290621 1.26562 0.196872C1.35937 0.103122 1.46874 0.0562468 1.59374 0.0562468C1.71874 0.0562468 1.82812 0.103122 1.92187 0.196872L4.67812 2.95312L7.43436 0.196872C7.52186 0.109372 7.62974 0.0656214 7.75799 0.0656214C7.88624 0.0656214 7.99711 0.112496 8.09061 0.206247C8.18436 0.299996 8.23124 0.409371 8.23124 0.534371C8.23124 0.659371 8.18436 0.768746 8.09061 0.862496Z" fill="black"/>
</g>
<defs>
<clipPath id="clip0_118_437">
<rect width="9" height="9" fill="white" transform="matrix(0 -1 1 0 -7.62939e-06 9)"/>
</clipPath>
</defs>
</svg>
