<svg width="20" height="20" viewBox="0 0 20 20" fill="none" xmlns="http://www.w3.org/2000/svg">
<g clip-path="url(#clip0_150_11)">
<path d="M10.026 18.64C10.0297 18.6402 10.0333 18.6402 10.037 18.64H10.027H10.026ZM9.829 18.516L9.832 1.47798L9.762 1.54798L4.94 6.31598C4.80931 6.44448 4.63328 6.51633 4.45 6.51598H1.968C1.82187 6.55169 1.69278 6.63728 1.603 6.75798C1.473 6.91398 1.396 7.14598 1.383 7.44798L1.382 12.859C1.392 13.049 1.456 13.193 1.585 13.322C1.708 13.444 1.928 13.531 2.207 13.56H4.511C4.694 13.56 4.87 13.631 4.999 13.759L9.829 18.516ZM10.207 0.0189805C10.79 0.11598 11.16 0.54098 11.212 1.18398V18.84L11.207 18.925C11.129 19.528 10.745 19.957 10.14 19.999C9.689 20.029 9.269 19.862 8.888 19.515L4.224 14.92L2.142 14.918C1.498 14.858 0.976 14.651 0.602 14.278C0.231822 13.9114 0.0163582 13.4167 0 12.896L0 7.41998C0.027 6.81398 0.2 6.29998 0.532 5.89798C0.847412 5.50132 1.30102 5.23844 1.802 5.16198L1.907 5.15398H4.165L8.77 0.59998C9.198 0.15598 9.683 -0.0680195 10.207 0.0199805V0.0189805ZM16.417 2.24598C18.602 3.61798 20 6.57598 20 9.86198C20 13.147 18.602 16.105 16.418 17.477C16.2633 17.5742 16.0766 17.6069 15.898 17.568C15.7195 17.5291 15.5633 17.4218 15.463 17.269C15.4143 17.1937 15.3811 17.1094 15.3654 17.0211C15.3496 16.9328 15.3516 16.8422 15.3713 16.7547C15.3909 16.6672 15.4278 16.5845 15.4798 16.5114C15.5318 16.4383 15.5978 16.3763 15.674 16.329C17.428 15.227 18.617 12.711 18.617 9.86198C18.617 7.01198 17.428 4.49598 15.674 3.39398C15.5978 3.34669 15.5318 3.28469 15.4798 3.21159C15.4278 3.13849 15.3909 3.05577 15.3713 2.96825C15.3516 2.88074 15.3496 2.79018 15.3654 2.70188C15.3811 2.61358 15.4143 2.52931 15.463 2.45398C15.5633 2.30147 15.7193 2.19429 15.8976 2.15541C16.0759 2.11653 16.2624 2.14904 16.417 2.24598ZM14.116 4.93198C15.476 5.93898 16.313 7.81198 16.313 9.86198C16.313 12.027 15.378 13.99 13.893 14.946C13.7393 15.0448 13.553 15.0794 13.3741 15.0424C13.1951 15.0054 13.0379 14.8997 12.936 14.748C12.8863 14.6732 12.8521 14.5893 12.8353 14.5011C12.8184 14.4129 12.8193 14.3223 12.838 14.2345C12.8566 14.1467 12.8925 14.0635 12.9437 13.9897C12.9949 13.916 13.0603 13.8532 13.136 13.805C14.204 13.119 14.93 11.593 14.93 9.86198C14.93 8.21798 14.276 6.75398 13.285 6.02098C13.2125 5.96797 13.1514 5.90102 13.1052 5.82406C13.0589 5.7471 13.0285 5.66167 13.0158 5.5728C13.003 5.48394 13.0081 5.39341 13.0308 5.30655C13.0536 5.21969 13.0934 5.13824 13.148 5.06698C13.2599 4.92268 13.4237 4.82779 13.6045 4.80257C13.7854 4.77735 13.9689 4.82379 14.116 4.93198Z" fill="black"/>
</g>
<defs>
<clipPath id="clip0_150_11">
<rect width="20" height="20" fill="white"/>
</clipPath>
</defs>
</svg>
