<svg width="6" height="20" viewBox="0 0 6 20" fill="none" xmlns="http://www.w3.org/2000/svg">
<path d="M3.00105 7.79999C2.71201 7.79999 2.4258 7.85692 2.15876 7.96753C1.89172 8.07814 1.64909 8.24026 1.44471 8.44465C1.24033 8.64903 1.0782 8.89166 0.96759 9.1587C0.856979 9.42574 0.800049 9.71195 0.800049 10.001C0.800049 10.29 0.856979 10.5762 0.96759 10.8433C1.0782 11.1103 1.24033 11.3529 1.44471 11.5573C1.64909 11.7617 1.89172 11.9238 2.15876 12.0344C2.4258 12.1451 2.71201 12.202 3.00105 12.202C3.58479 12.2019 4.14457 11.9698 4.55724 11.557C4.96992 11.1441 5.20168 10.5842 5.20155 10.0005C5.20142 9.41675 4.9694 8.85697 4.55654 8.44429C4.14368 8.03162 3.58379 7.79986 3.00005 7.79999H3.00105ZM3.00105 5.19999C3.28996 5.19986 3.57601 5.14282 3.84288 5.03214C4.10974 4.92146 4.3522 4.7593 4.55639 4.55492C4.76059 4.35053 4.92253 4.10793 5.03297 3.84097C5.14341 3.574 5.20018 3.2879 5.20005 2.99899C5.19992 2.71008 5.14288 2.42403 5.0322 2.15716C4.92152 1.89029 4.75936 1.64784 4.55498 1.44365C4.35059 1.23945 4.108 1.07751 3.84103 0.96707C3.57406 0.856631 3.28796 0.799857 2.99905 0.799988C2.41557 0.800253 1.8561 1.03229 1.44371 1.44506C1.03131 1.85783 0.799784 2.41751 0.800049 3.00099C0.800314 3.58446 1.03235 4.14394 1.44512 4.55633C1.85789 4.96872 2.41757 5.20025 3.00105 5.19999ZM3.00105 14.8C2.41731 14.8 1.85747 15.0319 1.44471 15.4446C1.03194 15.8574 0.800049 16.4172 0.800049 17.001C0.800049 17.5847 1.03194 18.1446 1.44471 18.5573C1.85747 18.9701 2.41731 19.202 3.00105 19.202C3.58479 19.202 4.14462 18.9701 4.55739 18.5573C4.97016 18.1446 5.20205 17.5847 5.20205 17.001C5.20205 16.4172 4.97016 15.8574 4.55739 15.4446C4.14462 15.0319 3.58479 14.8 3.00105 14.8Z" fill="black"/>
</svg>
