<svg width="316" height="51" viewBox="0 0 316 51" fill="none" xmlns="http://www.w3.org/2000/svg">
<rect width="316" height="51" rx="10" fill="url(#paint0_linear_1277_1429)"/>
<rect x="0.5" y="0.5" width="315" height="50" rx="9.5" stroke="black" stroke-opacity="0.25"/>
<path d="M30.248 24.3984C30.248 24.9958 30.104 25.5558 29.816 26.0784C29.5387 26.6011 29.096 27.0224 28.488 27.3424C27.8907 27.6624 27.1333 27.8224 26.216 27.8224H24.344V32.1104H22.104V20.9424H26.216C27.08 20.9424 27.816 21.0918 28.424 21.3904C29.032 21.6891 29.4853 22.0998 29.784 22.6224C30.0933 23.1451 30.248 23.7371 30.248 24.3984ZM26.12 26.0144C26.7387 26.0144 27.1973 25.8758 27.496 25.5984C27.7947 25.3104 27.944 24.9104 27.944 24.3984C27.944 23.3104 27.336 22.7664 26.12 22.7664H24.344V26.0144H26.12ZM34.0784 24.6224C34.3664 24.1531 34.7397 23.7851 35.1984 23.5184C35.6677 23.2518 36.201 23.1184 36.7984 23.1184V25.4704H36.2064C35.5024 25.4704 34.969 25.6358 34.6064 25.9664C34.2544 26.2971 34.0784 26.8731 34.0784 27.6944V32.1104H31.8384V23.2464H34.0784V24.6224ZM42.2431 32.2544C41.3898 32.2544 40.6218 32.0678 39.9391 31.6944C39.2565 31.3104 38.7178 30.7718 38.3231 30.0784C37.9391 29.3851 37.7471 28.5851 37.7471 27.6784C37.7471 26.7718 37.9445 25.9718 38.3391 25.2784C38.7445 24.5851 39.2938 24.0518 39.9871 23.6784C40.6805 23.2944 41.4538 23.1024 42.3071 23.1024C43.1605 23.1024 43.9338 23.2944 44.6271 23.6784C45.3205 24.0518 45.8645 24.5851 46.2591 25.2784C46.6645 25.9718 46.8671 26.7718 46.8671 27.6784C46.8671 28.5851 46.6591 29.3851 46.2431 30.0784C45.8378 30.7718 45.2831 31.3104 44.5791 31.6944C43.8858 32.0678 43.1071 32.2544 42.2431 32.2544ZM42.2431 30.3024C42.6485 30.3024 43.0271 30.2064 43.3791 30.0144C43.7418 29.8118 44.0298 29.5131 44.2431 29.1184C44.4565 28.7238 44.5631 28.2438 44.5631 27.6784C44.5631 26.8358 44.3391 26.1904 43.8911 25.7424C43.4538 25.2838 42.9151 25.0544 42.2751 25.0544C41.6351 25.0544 41.0965 25.2838 40.6591 25.7424C40.2325 26.1904 40.0191 26.8358 40.0191 27.6784C40.0191 28.5211 40.2271 29.1718 40.6431 29.6304C41.0698 30.0784 41.6031 30.3024 42.2431 30.3024ZM59.5183 23.1184C60.6063 23.1184 61.4809 23.4544 62.1423 24.1264C62.8143 24.7878 63.1503 25.7158 63.1503 26.9104V32.1104H60.9103V27.2144C60.9103 26.5211 60.7343 25.9931 60.3823 25.6304C60.0303 25.2571 59.5503 25.0704 58.9423 25.0704C58.3343 25.0704 57.8489 25.2571 57.4863 25.6304C57.1343 25.9931 56.9583 26.5211 56.9583 27.2144V32.1104H54.7183V27.2144C54.7183 26.5211 54.5423 25.9931 54.1903 25.6304C53.8383 25.2571 53.3583 25.0704 52.7503 25.0704C52.1316 25.0704 51.6409 25.2571 51.2783 25.6304C50.9263 25.9931 50.7503 26.5211 50.7503 27.2144V32.1104H48.5103V23.2464H50.7503V24.3184C51.0383 23.9451 51.4063 23.6518 51.8543 23.4384C52.3129 23.2251 52.8143 23.1184 53.3583 23.1184C54.0516 23.1184 54.6703 23.2678 55.2143 23.5664C55.7583 23.8544 56.1796 24.2704 56.4783 24.8144C56.7663 24.3024 57.1823 23.8918 57.7263 23.5824C58.2809 23.2731 58.8783 23.1184 59.5183 23.1184ZM69.2119 32.2544C68.3585 32.2544 67.5905 32.0678 66.9079 31.6944C66.2252 31.3104 65.6865 30.7718 65.2919 30.0784C64.9079 29.3851 64.7159 28.5851 64.7159 27.6784C64.7159 26.7718 64.9132 25.9718 65.3079 25.2784C65.7132 24.5851 66.2625 24.0518 66.9559 23.6784C67.6492 23.2944 68.4225 23.1024 69.2759 23.1024C70.1292 23.1024 70.9025 23.2944 71.5959 23.6784C72.2892 24.0518 72.8332 24.5851 73.2279 25.2784C73.6332 25.9718 73.8359 26.7718 73.8359 27.6784C73.8359 28.5851 73.6279 29.3851 73.2119 30.0784C72.8065 30.7718 72.2519 31.3104 71.5479 31.6944C70.8545 32.0678 70.0759 32.2544 69.2119 32.2544ZM69.2119 30.3024C69.6172 30.3024 69.9959 30.2064 70.3479 30.0144C70.7105 29.8118 70.9985 29.5131 71.2119 29.1184C71.4252 28.7238 71.5319 28.2438 71.5319 27.6784C71.5319 26.8358 71.3079 26.1904 70.8599 25.7424C70.4225 25.2838 69.8839 25.0544 69.2439 25.0544C68.6039 25.0544 68.0652 25.2838 67.6279 25.7424C67.2012 26.1904 66.9879 26.8358 66.9879 27.6784C66.9879 28.5211 67.1959 29.1718 67.6119 29.6304C68.0385 30.0784 68.5719 30.3024 69.2119 30.3024ZM83.1955 20.9424C84.3688 20.9424 85.3982 21.1718 86.2835 21.6304C87.1795 22.0891 87.8675 22.7451 88.3475 23.5984C88.8382 24.4411 89.0835 25.4224 89.0835 26.5424C89.0835 27.6624 88.8382 28.6438 88.3475 29.4864C87.8675 30.3184 87.1795 30.9638 86.2835 31.4224C85.3982 31.8811 84.3688 32.1104 83.1955 32.1104H79.2915V20.9424H83.1955ZM83.1155 30.2064C84.2888 30.2064 85.1955 29.8864 85.8355 29.2464C86.4755 28.6064 86.7955 27.7051 86.7955 26.5424C86.7955 25.3798 86.4755 24.4731 85.8355 23.8224C85.1955 23.1611 84.2888 22.8304 83.1155 22.8304H81.5315V30.2064H83.1155ZM91.8963 22.1904C91.5016 22.1904 91.1709 22.0678 90.9043 21.8224C90.6483 21.5664 90.5203 21.2518 90.5203 20.8784C90.5203 20.5051 90.6483 20.1958 90.9043 19.9504C91.1709 19.6944 91.5016 19.5664 91.8963 19.5664C92.2909 19.5664 92.6163 19.6944 92.8723 19.9504C93.1389 20.1958 93.2723 20.5051 93.2723 20.8784C93.2723 21.2518 93.1389 21.5664 92.8723 21.8224C92.6163 22.0678 92.2909 22.1904 91.8963 22.1904ZM93.0003 23.2464V32.1104H90.7603V23.2464H93.0003ZM98.6854 23.1024C99.3467 23.1024 99.928 23.2358 100.429 23.5024C100.931 23.7584 101.325 24.0944 101.613 24.5104V23.2464H103.869V32.1744C103.869 32.9958 103.704 33.7264 103.373 34.3664C103.043 35.0171 102.547 35.5291 101.885 35.9024C101.224 36.2864 100.424 36.4784 99.4854 36.4784C98.2267 36.4784 97.192 36.1851 96.3814 35.5984C95.5814 35.0118 95.128 34.2118 95.0214 33.1984H97.2454C97.3627 33.6038 97.6134 33.9238 97.9974 34.1584C98.392 34.4038 98.8667 34.5264 99.4214 34.5264C100.072 34.5264 100.6 34.3291 101.005 33.9344C101.411 33.5504 101.613 32.9638 101.613 32.1744V30.7984C101.325 31.2144 100.925 31.5611 100.413 31.8384C99.912 32.1158 99.336 32.2544 98.6854 32.2544C97.9387 32.2544 97.256 32.0624 96.6374 31.6784C96.0187 31.2944 95.528 30.7558 95.1654 30.0624C94.8134 29.3584 94.6374 28.5531 94.6374 27.6464C94.6374 26.7504 94.8134 25.9558 95.1654 25.2624C95.528 24.5691 96.0134 24.0358 96.6214 23.6624C97.24 23.2891 97.928 23.1024 98.6854 23.1024ZM101.613 27.6784C101.613 27.1344 101.507 26.6704 101.293 26.2864C101.08 25.8918 100.792 25.5931 100.429 25.3904C100.067 25.1771 99.6774 25.0704 99.2614 25.0704C98.8454 25.0704 98.4614 25.1718 98.1094 25.3744C97.7574 25.5771 97.4694 25.8758 97.2454 26.2704C97.032 26.6544 96.9254 27.1131 96.9254 27.6464C96.9254 28.1798 97.032 28.6491 97.2454 29.0544C97.4694 29.4491 97.7574 29.7531 98.1094 29.9664C98.472 30.1798 98.856 30.2864 99.2614 30.2864C99.6774 30.2864 100.067 30.1851 100.429 29.9824C100.792 29.7691 101.08 29.4704 101.293 29.0864C101.507 28.6918 101.613 28.2224 101.613 27.6784ZM114.425 23.2464V32.1104H112.169V30.9904C111.881 31.3744 111.502 31.6784 111.033 31.9024C110.574 32.1158 110.073 32.2224 109.529 32.2224C108.836 32.2224 108.222 32.0784 107.689 31.7904C107.156 31.4918 106.734 31.0598 106.425 30.4944C106.126 29.9184 105.977 29.2358 105.977 28.4464V23.2464H108.217V28.1264C108.217 28.8304 108.393 29.3744 108.745 29.7584C109.097 30.1318 109.577 30.3184 110.185 30.3184C110.804 30.3184 111.289 30.1318 111.641 29.7584C111.993 29.3744 112.169 28.8304 112.169 28.1264V23.2464H114.425ZM121.547 23.1184C122.603 23.1184 123.457 23.4544 124.107 24.1264C124.758 24.7878 125.083 25.7158 125.083 26.9104V32.1104H122.843V27.2144C122.843 26.5104 122.667 25.9718 122.315 25.5984C121.963 25.2144 121.483 25.0224 120.875 25.0224C120.257 25.0224 119.766 25.2144 119.403 25.5984C119.051 25.9718 118.875 26.5104 118.875 27.2144V32.1104H116.635V23.2464H118.875V24.3504C119.174 23.9664 119.553 23.6678 120.011 23.4544C120.481 23.2304 120.993 23.1184 121.547 23.1184ZM126.637 27.6464C126.637 26.7504 126.813 25.9558 127.165 25.2624C127.528 24.5691 128.013 24.0358 128.621 23.6624C129.24 23.2891 129.928 23.1024 130.685 23.1024C131.347 23.1024 131.923 23.2358 132.413 23.5024C132.915 23.7691 133.315 24.1051 133.613 24.5104V23.2464H135.869V32.1104H133.613V30.8144C133.325 31.2304 132.925 31.5771 132.413 31.8544C131.912 32.1211 131.331 32.2544 130.669 32.2544C129.923 32.2544 129.24 32.0624 128.621 31.6784C128.013 31.2944 127.528 30.7558 127.165 30.0624C126.813 29.3584 126.637 28.5531 126.637 27.6464ZM133.613 27.6784C133.613 27.1344 133.507 26.6704 133.293 26.2864C133.08 25.8918 132.792 25.5931 132.429 25.3904C132.067 25.1771 131.677 25.0704 131.261 25.0704C130.845 25.0704 130.461 25.1718 130.109 25.3744C129.757 25.5771 129.469 25.8758 129.245 26.2704C129.032 26.6544 128.925 27.1131 128.925 27.6464C128.925 28.1798 129.032 28.6491 129.245 29.0544C129.469 29.4491 129.757 29.7531 130.109 29.9664C130.472 30.1798 130.856 30.2864 131.261 30.2864C131.677 30.2864 132.067 30.1851 132.429 29.9824C132.792 29.7691 133.08 29.4704 133.293 29.0864C133.507 28.6918 133.613 28.2224 133.613 27.6784ZM143.305 32.1104L140.297 28.3344V32.1104H138.057V20.2704H140.297V27.0064L143.273 23.2464H146.185L142.281 27.6944L146.217 32.1104H143.305ZM146.825 27.6464C146.825 26.7504 147.001 25.9558 147.353 25.2624C147.716 24.5691 148.201 24.0358 148.809 23.6624C149.428 23.2891 150.116 23.1024 150.873 23.1024C151.534 23.1024 152.11 23.2358 152.601 23.5024C153.102 23.7691 153.502 24.1051 153.801 24.5104V23.2464H156.057V32.1104H153.801V30.8144C153.513 31.2304 153.113 31.5771 152.601 31.8544C152.1 32.1211 151.518 32.2544 150.857 32.2544C150.11 32.2544 149.428 32.0624 148.809 31.6784C148.201 31.2944 147.716 30.7558 147.353 30.0624C147.001 29.3584 146.825 28.5531 146.825 27.6464ZM153.801 27.6784C153.801 27.1344 153.694 26.6704 153.481 26.2864C153.268 25.8918 152.98 25.5931 152.617 25.3904C152.254 25.1771 151.865 25.0704 151.449 25.0704C151.033 25.0704 150.649 25.1718 150.297 25.3744C149.945 25.5771 149.657 25.8758 149.433 26.2704C149.22 26.6544 149.113 27.1131 149.113 27.6464C149.113 28.1798 149.22 28.6491 149.433 29.0544C149.657 29.4491 149.945 29.7531 150.297 29.9664C150.66 30.1798 151.044 30.2864 151.449 30.2864C151.865 30.2864 152.254 30.1851 152.617 29.9824C152.98 29.7691 153.268 29.4704 153.481 29.0864C153.694 28.6918 153.801 28.2224 153.801 27.6784ZM163.157 23.1184C164.213 23.1184 165.066 23.4544 165.717 24.1264C166.367 24.7878 166.693 25.7158 166.693 26.9104V32.1104H164.453V27.2144C164.453 26.5104 164.277 25.9718 163.925 25.5984C163.573 25.2144 163.093 25.0224 162.485 25.0224C161.866 25.0224 161.375 25.2144 161.013 25.5984C160.661 25.9718 160.485 26.5104 160.485 27.2144V32.1104H158.245V23.2464H160.485V24.3504C160.783 23.9664 161.162 23.6678 161.621 23.4544C162.09 23.2304 162.602 23.1184 163.157 23.1184Z" fill="black"/>
<path d="M183.372 30.4667L191.759 21.7252" stroke="#D84A05" stroke-width="2" stroke-linecap="round" stroke-linejoin="round"/>
<path d="M184.071 23.1821C184.457 23.1821 184.77 22.8559 184.77 22.4536C184.77 22.0513 184.457 21.7252 184.071 21.7252C183.685 21.7252 183.372 22.0513 183.372 22.4536C183.372 22.8559 183.685 23.1821 184.071 23.1821Z" stroke="#D84A05" stroke-width="2" stroke-linecap="round" stroke-linejoin="round"/>
<path d="M191.06 30.4667C191.446 30.4667 191.759 30.1405 191.759 29.7382C191.759 29.3359 191.446 29.0097 191.06 29.0097C190.674 29.0097 190.361 29.3359 190.361 29.7382C190.361 30.1405 190.674 30.4667 191.06 30.4667Z" stroke="#D84A05" stroke-width="2" stroke-linecap="round" stroke-linejoin="round"/>
<path d="M177.78 19.1027C177.78 18.2526 178.104 17.4373 178.681 16.8362C179.258 16.2351 180.04 15.8974 180.856 15.8974H182.254C183.066 15.897 183.844 15.5618 184.42 14.965L185.399 13.9452C185.685 13.6456 186.024 13.4079 186.399 13.2457C186.773 13.0835 187.174 13 187.58 13C187.985 13 188.386 13.0835 188.761 13.2457C189.135 13.4079 189.475 13.6456 189.76 13.9452L190.739 14.965C191.315 15.5618 192.094 15.897 192.906 15.8974H194.304C195.119 15.8974 195.902 16.2351 196.478 16.8362C197.055 17.4373 197.379 18.2526 197.379 19.1027V20.5596C197.38 21.4059 197.701 22.2177 198.274 22.8178L199.252 23.8376C199.54 24.1355 199.768 24.4896 199.923 24.8797C200.079 25.2697 200.159 25.688 200.159 26.1104C200.159 26.5329 200.079 26.9511 199.923 27.3412C199.768 27.7312 199.54 28.0854 199.252 28.3832L198.274 29.4031C197.701 30.0032 197.38 30.815 197.379 31.6613V33.1182C197.379 33.9683 197.055 34.7835 196.478 35.3846C195.902 35.9857 195.119 36.3234 194.304 36.3234H192.906C192.094 36.3239 191.315 36.6591 190.739 37.2559L189.76 38.2757C189.475 38.5752 189.135 38.813 188.761 38.9752C188.386 39.1374 187.985 39.2209 187.58 39.2209C187.174 39.2209 186.773 39.1374 186.399 38.9752C186.024 38.813 185.685 38.5752 185.399 38.2757L184.42 37.2559C183.844 36.6591 183.066 36.3239 182.254 36.3234H180.856C180.04 36.3234 179.258 35.9857 178.681 35.3846C178.104 34.7835 177.78 33.9683 177.78 33.1182V31.6613C177.78 30.815 177.458 30.0032 176.885 29.4031L175.907 28.3832C175.619 28.0854 175.391 27.7312 175.236 27.3412C175.08 26.9511 175 26.5329 175 26.1104C175 25.688 175.08 25.2697 175.236 24.8797C175.391 24.4896 175.619 24.1355 175.907 23.8376L176.885 22.8178C177.458 22.2177 177.78 21.4059 177.78 20.5596V19.1027Z" stroke="#D84A05" stroke-width="2" stroke-linecap="round" stroke-linejoin="round"/>
<defs>
<linearGradient id="paint0_linear_1277_1429" x1="17.6115" y1="17.5" x2="376.861" y2="11.555" gradientUnits="userSpaceOnUse">
<stop offset="0.292861" stop-color="white"/>
<stop offset="1" stop-color="#EC7505"/>
</linearGradient>
</defs>
</svg>
