<svg width="316" height="51" viewBox="0 0 316 51" fill="none" xmlns="http://www.w3.org/2000/svg">
<rect width="316" height="51" rx="10" fill="url(#paint0_linear_1108_525)"/>
<rect x="0.5" y="0.5" width="315" height="50" rx="9.5" stroke="black" stroke-opacity="0.25"/>
<path d="M29.0894 29.871H24.6394L23.903 32H21.55L25.5678 20.811H28.177L32.1948 32H29.8257L29.0894 29.871ZM28.4811 28.0782L26.8644 23.4041L25.2476 28.0782H28.4811ZM35.9376 24.4126C36.2257 24.0071 36.6205 23.6709 37.1221 23.4041C37.6343 23.1267 38.2159 22.9879 38.8669 22.9879C39.6246 22.9879 40.3075 23.1747 40.9158 23.5482C41.5348 23.9217 42.0203 24.4553 42.3725 25.1489C42.7353 25.8319 42.9167 26.6269 42.9167 27.534C42.9167 28.4411 42.7353 29.2468 42.3725 29.9511C42.0203 30.6447 41.5348 31.1836 40.9158 31.5678C40.3075 31.952 39.6246 32.1441 38.8669 32.1441C38.2159 32.1441 37.6397 32.0107 37.1381 31.7439C36.6472 31.4771 36.247 31.1409 35.9376 30.7354V36.2259H33.6966V23.132H35.9376V24.4126ZM40.6277 27.534C40.6277 27.0004 40.5156 26.5415 40.2915 26.1574C40.0781 25.7625 39.79 25.4637 39.4271 25.261C39.075 25.0582 38.6908 24.9568 38.2746 24.9568C37.8691 24.9568 37.4849 25.0635 37.1221 25.277C36.7699 25.4797 36.4818 25.7785 36.2577 26.1734C36.0443 26.5682 35.9376 27.0324 35.9376 27.566C35.9376 28.0996 36.0443 28.5638 36.2577 28.9586C36.4818 29.3535 36.7699 29.6576 37.1221 29.871C37.4849 30.0738 37.8691 30.1752 38.2746 30.1752C38.6908 30.1752 39.075 30.0685 39.4271 29.855C39.79 29.6416 40.0781 29.3375 40.2915 28.9426C40.5156 28.5478 40.6277 28.0782 40.6277 27.534ZM46.7862 24.4126C47.0743 24.0071 47.4692 23.6709 47.9707 23.4041C48.483 23.1267 49.0646 22.9879 49.7155 22.9879C50.4732 22.9879 51.1562 23.1747 51.7644 23.5482C52.3834 23.9217 52.8689 24.4553 53.2211 25.1489C53.5839 25.8319 53.7653 26.6269 53.7653 27.534C53.7653 28.4411 53.5839 29.2468 53.2211 29.9511C52.8689 30.6447 52.3834 31.1836 51.7644 31.5678C51.1562 31.952 50.4732 32.1441 49.7155 32.1441C49.0646 32.1441 48.4883 32.0107 47.9867 31.7439C47.4958 31.4771 47.0957 31.1409 46.7862 30.7354V36.2259H44.5452V23.132H46.7862V24.4126ZM51.4763 27.534C51.4763 27.0004 51.3643 26.5415 51.1402 26.1574C50.9267 25.7625 50.6386 25.4637 50.2758 25.261C49.9236 25.0582 49.5394 24.9568 49.1232 24.9568C48.7177 24.9568 48.3336 25.0635 47.9707 25.277C47.6186 25.4797 47.3304 25.7785 47.1063 26.1734C46.8929 26.5682 46.7862 27.0324 46.7862 27.566C46.7862 28.0996 46.8929 28.5638 47.1063 28.9586C47.3304 29.3535 47.6186 29.6576 47.9707 29.871C48.3336 30.0738 48.7177 30.1752 49.1232 30.1752C49.5394 30.1752 49.9236 30.0685 50.2758 29.855C50.6386 29.6416 50.9267 29.3375 51.1402 28.9426C51.3643 28.5478 51.4763 28.0782 51.4763 27.534ZM57.6348 20.1547V32H55.3938V20.1547H57.6348ZM68.3328 23.132L62.8423 36.1939H60.4572L62.3781 31.7759L58.8245 23.132H61.3376L63.6266 29.3268L65.9477 23.132H68.3328ZM81.5027 24.2845C81.5027 24.8821 81.3586 25.4424 81.0705 25.9653C80.793 26.4882 80.3502 26.9097 79.7419 27.2299C79.1443 27.55 78.3866 27.7101 77.4689 27.7101H75.596V32H73.355V20.827H77.4689C78.3332 20.827 79.0696 20.9764 79.6779 21.2752C80.2861 21.574 80.7397 21.9848 81.0385 22.5077C81.3479 23.0306 81.5027 23.6229 81.5027 24.2845ZM77.3728 25.9013C77.9918 25.9013 78.4506 25.7625 78.7494 25.4851C79.0482 25.1969 79.1976 24.7968 79.1976 24.2845C79.1976 23.196 78.5894 22.6518 77.3728 22.6518H75.596V25.9013H77.3728ZM85.3348 24.5086C85.6229 24.0391 85.9964 23.6709 86.4553 23.4041C86.9248 23.1373 87.4584 23.004 88.056 23.004V25.357H87.4637C86.7594 25.357 86.2258 25.5224 85.863 25.8532C85.5108 26.1841 85.3348 26.7603 85.3348 27.582V32H83.0938V23.132H85.3348V24.5086ZM93.5032 32.1441C92.6495 32.1441 91.8811 31.9573 91.1982 31.5838C90.5152 31.1996 89.9763 30.6607 89.5814 29.9671C89.1973 29.2734 89.0052 28.4731 89.0052 27.566C89.0052 26.6589 89.2026 25.8586 89.5974 25.1649C90.0029 24.4713 90.5525 23.9377 91.2462 23.5642C91.9398 23.18 92.7135 22.9879 93.5672 22.9879C94.4209 22.9879 95.1946 23.18 95.8883 23.5642C96.5819 23.9377 97.1262 24.4713 97.521 25.1649C97.9265 25.8586 98.1293 26.6589 98.1293 27.566C98.1293 28.4731 97.9212 29.2734 97.505 29.9671C97.0995 30.6607 96.5446 31.1996 95.8402 31.5838C95.1466 31.9573 94.3676 32.1441 93.5032 32.1441ZM93.5032 30.1912C93.9087 30.1912 94.2875 30.0951 94.6397 29.9031C95.0025 29.7003 95.2907 29.4015 95.5041 29.0067C95.7175 28.6118 95.8242 28.1316 95.8242 27.566C95.8242 26.723 95.6001 26.0773 95.1519 25.6291C94.7144 25.1703 94.1755 24.9408 93.5352 24.9408C92.8949 24.9408 92.356 25.1703 91.9185 25.6291C91.4916 26.0773 91.2782 26.723 91.2782 27.566C91.2782 28.4091 91.4863 29.06 91.9025 29.5189C92.3293 29.9671 92.8629 30.1912 93.5032 30.1912ZM110.786 23.004C111.875 23.004 112.75 23.3401 113.411 24.0124C114.084 24.674 114.42 25.6025 114.42 26.7977V32H112.179V27.1018C112.179 26.4082 112.003 25.8799 111.65 25.5171C111.298 25.1436 110.818 24.9568 110.21 24.9568C109.602 24.9568 109.116 25.1436 108.753 25.5171C108.401 25.8799 108.225 26.4082 108.225 27.1018V32H105.984V27.1018C105.984 26.4082 105.808 25.8799 105.456 25.5171C105.104 25.1436 104.623 24.9568 104.015 24.9568C103.396 24.9568 102.905 25.1436 102.542 25.5171C102.19 25.8799 102.014 26.4082 102.014 27.1018V32H99.7731V23.132H102.014V24.2045C102.302 23.831 102.67 23.5375 103.119 23.3241C103.578 23.1107 104.079 23.004 104.623 23.004C105.317 23.004 105.936 23.1534 106.48 23.4522C107.024 23.7403 107.446 24.1565 107.745 24.7007C108.033 24.1885 108.449 23.7776 108.993 23.4682C109.548 23.1587 110.146 23.004 110.786 23.004ZM120.484 32.1441C119.63 32.1441 118.862 31.9573 118.179 31.5838C117.496 31.1996 116.957 30.6607 116.562 29.9671C116.178 29.2734 115.986 28.4731 115.986 27.566C115.986 26.6589 116.183 25.8586 116.578 25.1649C116.984 24.4713 117.533 23.9377 118.227 23.5642C118.921 23.18 119.694 22.9879 120.548 22.9879C121.402 22.9879 122.175 23.18 122.869 23.5642C123.563 23.9377 124.107 24.4713 124.502 25.1649C124.907 25.8586 125.11 26.6589 125.11 27.566C125.11 28.4731 124.902 29.2734 124.486 29.9671C124.08 30.6607 123.525 31.1996 122.821 31.5838C122.127 31.9573 121.348 32.1441 120.484 32.1441ZM120.484 30.1912C120.89 30.1912 121.268 30.0951 121.621 29.9031C121.983 29.7003 122.272 29.4015 122.485 29.0067C122.698 28.6118 122.805 28.1316 122.805 27.566C122.805 26.723 122.581 26.0773 122.133 25.6291C121.695 25.1703 121.156 24.9408 120.516 24.9408C119.876 24.9408 119.337 25.1703 118.899 25.6291C118.472 26.0773 118.259 26.723 118.259 27.566C118.259 28.4091 118.467 29.06 118.883 29.5189C119.31 29.9671 119.844 30.1912 120.484 30.1912Z" fill="black"/>
<path d="M142.219 30.6534L150.607 22.3189" stroke="#D84A05" stroke-width="2" stroke-linecap="round" stroke-linejoin="round"/>
<path d="M142.918 23.708C143.304 23.708 143.617 23.397 143.617 23.0135C143.617 22.6299 143.304 22.3189 142.918 22.3189C142.532 22.3189 142.219 22.6299 142.219 23.0135C142.219 23.397 142.532 23.708 142.918 23.708Z" stroke="#D84A05" stroke-width="2" stroke-linecap="round" stroke-linejoin="round"/>
<path d="M149.907 30.6534C150.293 30.6534 150.606 30.3424 150.606 29.9589C150.606 29.5753 150.293 29.2643 149.907 29.2643C149.521 29.2643 149.208 29.5753 149.208 29.9589C149.208 30.3424 149.521 30.6534 149.907 30.6534Z" stroke="#D84A05" stroke-width="2" stroke-linecap="round" stroke-linejoin="round"/>
<path d="M136.627 19.8185C136.627 19.008 136.951 18.2307 137.528 17.6576C138.105 17.0845 138.887 16.7625 139.703 16.7625H141.101C141.913 16.7621 142.692 16.4425 143.267 15.8735L144.246 14.9012C144.532 14.6156 144.872 14.3889 145.246 14.2343C145.62 14.0796 146.021 14 146.427 14C146.832 14 147.233 14.0796 147.608 14.2343C147.982 14.3889 148.322 14.6156 148.608 14.9012L149.586 15.8735C150.162 16.4425 150.941 16.7621 151.753 16.7625H153.151C153.966 16.7625 154.749 17.0845 155.326 17.6576C155.902 18.2307 156.226 19.008 156.226 19.8185V21.2076C156.227 22.0145 156.548 22.7885 157.121 23.3607L158.1 24.333C158.387 24.617 158.615 24.9547 158.771 25.3266C158.926 25.6984 159.006 26.0972 159.006 26.5C159.006 26.9028 158.926 27.3016 158.771 27.6734C158.615 28.0453 158.387 28.383 158.1 28.667L157.121 29.6393C156.548 30.2115 156.227 30.9855 156.226 31.7924V33.1815C156.226 33.992 155.902 34.7693 155.326 35.3424C154.749 35.9155 153.966 36.2375 153.151 36.2375H151.753C150.941 36.2379 150.162 36.5575 149.586 37.1265L148.608 38.0988C148.322 38.3844 147.982 38.6111 147.608 38.7657C147.233 38.9204 146.832 39 146.427 39C146.021 39 145.62 38.9204 145.246 38.7657C144.872 38.6111 144.532 38.3844 144.246 38.0988L143.267 37.1265C142.692 36.5575 141.913 36.2379 141.101 36.2375H139.703C138.887 36.2375 138.105 35.9155 137.528 35.3424C136.951 34.7693 136.627 33.992 136.627 33.1815V31.7924C136.627 30.9855 136.305 30.2115 135.733 29.6393L134.754 28.667C134.467 28.383 134.239 28.0453 134.083 27.6734C133.927 27.3016 133.847 26.9028 133.847 26.5C133.847 26.0972 133.927 25.6984 134.083 25.3266C134.239 24.9547 134.467 24.617 134.754 24.333L135.733 23.3607C136.305 22.7885 136.627 22.0145 136.627 21.2076V19.8185Z" stroke="#D84A05" stroke-width="2" stroke-linecap="round" stroke-linejoin="round"/>
<defs>
<linearGradient id="paint0_linear_1108_525" x1="17.6115" y1="17.5" x2="376.861" y2="11.555" gradientUnits="userSpaceOnUse">
<stop offset="0.292861" stop-color="white"/>
<stop offset="1" stop-color="#EC7505"/>
</linearGradient>
</defs>
</svg>
