<svg width="51" height="51" viewBox="0 0 51 51" fill="none" xmlns="http://www.w3.org/2000/svg">
<rect width="51" height="51" rx="6.8" fill="white"/>
<path d="M40.9108 13.0807V13.1035L32.0768 42.2373C31.9431 42.7105 31.6679 43.1315 31.2881 43.4438C30.9082 43.7561 30.442 43.9447 29.9518 43.9844C29.882 43.9905 29.8122 43.9935 29.7424 43.9935C29.2831 43.9949 28.8329 43.8649 28.4451 43.6188C28.0573 43.3727 27.7479 43.0208 27.5536 42.6046L22.1333 31.1615C22.0798 31.0483 22.0626 30.9213 22.0841 30.7979C22.1056 30.6746 22.1646 30.5609 22.2532 30.4724L30.9445 21.7796C31.1626 21.55 31.2824 21.2443 31.2784 20.9277C31.2743 20.611 31.1467 20.3085 30.9228 20.0846C30.6989 19.8607 30.3964 19.7331 30.0797 19.729C29.7631 19.725 29.4574 19.8448 29.2278 20.0629L20.5229 28.7542C20.4344 28.8428 20.3207 28.9018 20.1973 28.9233C20.074 28.9448 19.947 28.9276 19.8338 28.8741L8.44981 23.4811C8.00271 23.2763 7.62646 22.9434 7.36868 22.5245C7.11091 22.1057 6.98322 21.6198 7.00177 21.1284C7.02649 20.6233 7.20935 20.1388 7.52449 19.7433C7.83963 19.3478 8.27112 19.0614 8.75794 18.9245L37.8918 10.0905H37.9145C38.3294 9.97398 38.7677 9.9699 39.1846 10.0787C39.6015 10.1875 39.982 10.4052 40.2869 10.7096C40.5919 11.0139 40.8104 11.3939 40.9201 11.8106C41.0297 12.2273 41.0265 12.6657 40.9108 13.0807Z" fill="#073F67"/>
</svg>
