<svg width="314" height="98" viewBox="0 0 314 98" fill="none" xmlns="http://www.w3.org/2000/svg">
<g clip-path="url(#clip0_1344_813)">
<rect width="314" height="98" rx="14" fill="#118EEA"/>
<path d="M338.4 44.34V44.49L280.2 236.43C279.319 239.548 277.506 242.321 275.003 244.378C272.501 246.436 269.429 247.679 266.2 247.94C265.74 247.98 265.28 248 264.82 248C261.794 248.009 258.828 247.153 256.273 245.532C253.718 243.91 251.68 241.592 250.4 238.85L214.69 163.46C214.338 162.714 214.224 161.878 214.366 161.065C214.507 160.252 214.896 159.503 215.48 158.92L272.74 101.65C274.177 100.138 274.966 98.1235 274.94 96.0374C274.913 93.9513 274.072 91.9582 272.597 90.483C271.122 89.0078 269.129 88.1672 267.043 88.1405C264.957 88.1138 262.943 88.903 261.43 90.34L204.08 147.6C203.497 148.184 202.748 148.573 201.935 148.714C201.123 148.856 200.286 148.743 199.54 148.39L124.54 112.86C121.595 111.511 119.116 109.317 117.417 106.558C115.719 103.799 114.878 100.598 115 97.36C115.163 94.0323 116.368 90.8401 118.444 88.2345C120.52 85.6289 123.363 83.7418 126.57 82.84L318.51 24.64H318.66C321.393 23.8722 324.281 23.8453 327.027 24.562C329.774 25.2787 332.281 26.7133 334.29 28.7184C336.299 30.7236 337.739 33.2273 338.461 35.9725C339.183 38.7177 339.162 41.6056 338.4 44.34Z" fill="black"/>
</g>
<defs>
<clipPath id="clip0_1344_813">
<rect width="314" height="98" rx="14" fill="white"/>
</clipPath>
</defs>
</svg>
