<svg width="35" height="35" viewBox="0 0 35 35" fill="none" xmlns="http://www.w3.org/2000/svg">
<path fill-rule="evenodd" clip-rule="evenodd" d="M8.76815 26.5397V32.5611C3.52738 29.5479 0 23.9055 0 17.4421C0 12.5296 2.03757 8.0915 5.31632 4.92147C5.17494 5.74879 5.09933 6.62126 5.09933 7.52274C5.09933 11.5621 6.6175 15.0194 8.76815 16.4403V22.947H8.51822C7.52612 22.947 6.72186 23.7513 6.72186 24.7434C6.72186 25.7355 7.52612 26.5397 8.51822 26.5397H8.76815ZM12.9611 26.5397V34.2917C14.4086 34.6781 15.9302 34.8841 17.5 34.8841C20.3268 34.8841 22.9971 34.2161 25.3605 33.0298H20.745H20.5133C18.5291 33.0298 16.9205 31.4213 16.9205 29.4371C16.9205 27.8369 15.6234 26.5397 14.0232 26.5397H12.9611ZM30.2048 29.4371C33.1769 26.311 35 22.0887 35 17.4421C35 7.80907 27.165 0 17.5 0C16.5649 0 15.6469 0.0730993 14.7515 0.213877C16.0081 1.97627 16.8046 4.59678 16.8046 7.52274C16.8046 11.6707 15.2038 15.2047 12.9611 16.5504V22.947H14.0232C15.6233 22.947 16.9205 21.6498 16.9205 20.0497C16.9205 18.0655 18.5291 16.457 20.5133 16.457H20.745H31.0017C31.9938 16.457 32.798 17.2612 32.798 18.2533C32.798 19.2454 31.9938 20.0497 31.0017 20.0497H22.1937C21.3936 20.0497 20.745 20.6983 20.745 21.4983C20.745 22.2984 21.3936 22.947 22.1937 22.947H31.0017C31.9938 22.947 32.798 23.7513 32.798 24.7434C32.798 25.7355 31.9938 26.5397 31.0017 26.5397H22.1937C21.3936 26.5397 20.745 27.1883 20.745 27.9884C20.745 28.7885 21.3936 29.4371 22.1937 29.4371H30.2048Z" fill="#EC7505"/>
</svg>
