<svg width="48" height="48" viewBox="0 0 48 48" fill="none" xmlns="http://www.w3.org/2000/svg">
<path d="M42 19.5H40.4306C40.0537 15.4029 38.1597 11.5944 35.12 8.82153C32.0804 6.04866 28.1144 4.51147 24 4.51147C19.8856 4.51147 15.9196 6.04866 12.88 8.82153C9.8403 11.5944 7.94627 15.4029 7.56937 19.5H6C5.60218 19.5 5.22064 19.658 4.93934 19.9393C4.65804 20.2206 4.5 20.6022 4.5 21C4.50659 24.5672 5.4883 28.0648 7.33896 31.1144C9.18962 34.164 11.8388 36.6496 15 38.3025V39C15 39.7956 15.3161 40.5587 15.8787 41.1213C16.4413 41.6839 17.2044 42 18 42H30C30.7956 42 31.5587 41.6839 32.1213 41.1213C32.6839 40.5587 33 39.7956 33 39V38.3025C36.1612 36.6496 38.8104 34.164 40.661 31.1144C42.5117 28.0648 43.4934 24.5672 43.5 21C43.5 20.6022 43.342 20.2206 43.0607 19.9393C42.7794 19.658 42.3978 19.5 42 19.5ZM32.5275 10.5431C32.8713 10.8244 33.2006 11.1212 33.5156 11.4337C29.5226 12.8384 26.2228 15.7253 24.3 19.4962H18.7687C19.7063 16.8683 21.4323 14.5939 23.7109 12.9837C25.9896 11.3735 28.7098 10.5061 31.5 10.5C31.8431 10.5 32.1862 10.5169 32.5275 10.5431ZM27.7725 19.5C29.5911 16.7717 32.3424 14.8003 35.5106 13.9556C36.5465 15.6406 37.1964 17.534 37.4137 19.5H27.7725ZM24 7.5C25.2037 7.50079 26.4019 7.66286 27.5625 7.98187C24.7358 8.68307 22.1439 10.117 20.048 12.1392C17.9521 14.1613 16.4263 16.7002 15.6244 19.5H10.5862C10.9583 16.2016 12.5312 13.1555 15.0051 10.9424C17.4789 8.72928 20.6807 7.50394 24 7.5Z" fill="#D84A05"/>
</svg>
