<svg width="56" height="56" viewBox="0 0 56 56" fill="none" xmlns="http://www.w3.org/2000/svg">
<g filter="url(#filter0_d_1319_819)">
<circle cx="28" cy="26" r="24" fill="white"/>
</g>
<path d="M31.5394 38.5649L19.7444 26.8049C19.6044 26.6649 19.505 26.5132 19.4462 26.3499C19.3874 26.1865 19.3585 26.0115 19.3594 25.8249C19.3594 25.6382 19.3888 25.4632 19.4476 25.2999C19.5064 25.1365 19.6053 24.9849 19.7444 24.8449L31.5394 13.0499C31.8661 12.7232 32.2744 12.5599 32.7644 12.5599C33.2544 12.5599 33.6744 12.7349 34.0244 13.0849C34.3744 13.4349 34.5494 13.8432 34.5494 14.3099C34.5494 14.7765 34.3744 15.1849 34.0244 15.5349L23.7344 25.8249L34.0244 36.1149C34.3511 36.4415 34.5144 36.8443 34.5144 37.3231C34.5144 37.8019 34.3394 38.2158 33.9894 38.5649C33.6394 38.9149 33.2311 39.0899 32.7644 39.0899C32.2977 39.0899 31.8894 38.9149 31.5394 38.5649Z" fill="#D84A05"/>
<defs>
<filter id="filter0_d_1319_819" x="0.160001" y="0.0800004" width="55.68" height="55.68" filterUnits="userSpaceOnUse" color-interpolation-filters="sRGB">
<feFlood flood-opacity="0" result="BackgroundImageFix"/>
<feColorMatrix in="SourceAlpha" type="matrix" values="0 0 0 0 0 0 0 0 0 0 0 0 0 0 0 0 0 0 127 0" result="hardAlpha"/>
<feOffset dy="1.92"/>
<feGaussianBlur stdDeviation="1.92"/>
<feComposite in2="hardAlpha" operator="out"/>
<feColorMatrix type="matrix" values="0 0 0 0 0 0 0 0 0 0 0 0 0 0 0 0 0 0 0.25 0"/>
<feBlend mode="normal" in2="BackgroundImageFix" result="effect1_dropShadow_1319_819"/>
<feBlend mode="normal" in="SourceGraphic" in2="effect1_dropShadow_1319_819" result="shape"/>
</filter>
</defs>
</svg>
