<svg width="100" height="101" viewBox="0 0 100 101" fill="none" xmlns="http://www.w3.org/2000/svg">
<circle cx="50" cy="50.0044" r="50" fill="#0DA714"/>
<path d="M41.8748 62.103L33.0552 53.2834C32.58 52.8082 31.9354 52.5412 31.2633 52.5412C30.5913 52.5412 29.9467 52.8082 29.4715 53.2834C28.9962 53.7587 28.7292 54.4032 28.7292 55.0753C28.7292 55.4081 28.7948 55.7376 28.9221 56.0451C29.0495 56.3525 29.2362 56.6319 29.4715 56.8672L40.0956 67.4913C41.0869 68.4826 42.6881 68.4826 43.6794 67.4913L70.5702 40.6005C71.0454 40.1253 71.3124 39.4807 71.3124 38.8086C71.3124 38.1365 71.0454 37.492 70.5702 37.0168C70.095 36.5415 69.4504 36.2745 68.7783 36.2745C68.1063 36.2745 67.4617 36.5415 66.9865 37.0168L41.8748 62.103Z" fill="#FFF1F1"/>
</svg>
