<svg width="60" height="59" viewBox="0 0 60 59" fill="none" xmlns="http://www.w3.org/2000/svg">
<g filter="url(#filter0_d_1319_820)">
<g filter="url(#filter1_d_1319_820)">
<circle cx="30" cy="27" r="24" fill="white"/>
</g>
<path d="M33.5394 39.5649L21.7444 27.8049C21.6044 27.6649 21.505 27.5132 21.4462 27.3499C21.3874 27.1865 21.3585 27.0115 21.3594 26.8249C21.3594 26.6382 21.3888 26.4632 21.4476 26.2999C21.5064 26.1365 21.6053 25.9849 21.7444 25.8449L33.5394 14.0499C33.8661 13.7232 34.2744 13.5599 34.7644 13.5599C35.2544 13.5599 35.6744 13.7349 36.0244 14.0849C36.3744 14.4349 36.5494 14.8432 36.5494 15.3099C36.5494 15.7765 36.3744 16.1849 36.0244 16.5349L25.7344 26.8249L36.0244 37.1149C36.3511 37.4415 36.5144 37.8443 36.5144 38.3231C36.5144 38.8019 36.3394 39.2158 35.9894 39.5649C35.6394 39.9149 35.2311 40.0899 34.7644 40.0899C34.2977 40.0899 33.8894 39.9149 33.5394 39.5649Z" fill="#D84A05"/>
</g>
<defs>
<filter id="filter0_d_1319_820" x="0.666667" y="0.333333" width="58.6667" height="58.6667" filterUnits="userSpaceOnUse" color-interpolation-filters="sRGB">
<feFlood flood-opacity="0" result="BackgroundImageFix"/>
<feColorMatrix in="SourceAlpha" type="matrix" values="0 0 0 0 0 0 0 0 0 0 0 0 0 0 0 0 0 0 127 0" result="hardAlpha"/>
<feOffset dy="2.66667"/>
<feGaussianBlur stdDeviation="2.66667"/>
<feComposite in2="hardAlpha" operator="out"/>
<feColorMatrix type="matrix" values="0 0 0 0 0 0 0 0 0 0 0 0 0 0 0 0 0 0 0.25 0"/>
<feBlend mode="normal" in2="BackgroundImageFix" result="effect1_dropShadow_1319_820"/>
<feBlend mode="normal" in="SourceGraphic" in2="effect1_dropShadow_1319_820" result="shape"/>
</filter>
<filter id="filter1_d_1319_820" x="2.16" y="1.08" width="55.68" height="55.68" filterUnits="userSpaceOnUse" color-interpolation-filters="sRGB">
<feFlood flood-opacity="0" result="BackgroundImageFix"/>
<feColorMatrix in="SourceAlpha" type="matrix" values="0 0 0 0 0 0 0 0 0 0 0 0 0 0 0 0 0 0 127 0" result="hardAlpha"/>
<feOffset dy="1.92"/>
<feGaussianBlur stdDeviation="1.92"/>
<feComposite in2="hardAlpha" operator="out"/>
<feColorMatrix type="matrix" values="0 0 0 0 0 0 0 0 0 0 0 0 0 0 0 0 0 0 0.25 0"/>
<feBlend mode="normal" in2="BackgroundImageFix" result="effect1_dropShadow_1319_820"/>
<feBlend mode="normal" in="SourceGraphic" in2="effect1_dropShadow_1319_820" result="shape"/>
</filter>
</defs>
</svg>
