<svg width="32" height="33" viewBox="0 0 32 33" fill="none" xmlns="http://www.w3.org/2000/svg">
<circle cx="15.5556" cy="16.5" r="15.5556" fill="#EC7505"/>
<path d="M8.00147 9.87804C8.00147 9.61137 8.09036 9.38915 8.26813 9.21137C8.44591 9.03359 8.66813 8.9447 8.9348 8.9447H12.5348C12.7422 8.9447 12.9238 9.01137 13.0797 9.1447C13.2355 9.27804 13.3354 9.44841 13.3792 9.65581L14.0015 12.7225C14.0311 12.9299 14.0124 13.1411 13.9455 13.3563C13.8785 13.5714 13.7787 13.7453 13.6459 13.878L11.557 15.9669C12.2385 17.0928 13.0459 18.1225 13.9792 19.0558C14.9126 19.9891 15.9126 20.7669 16.9792 21.3891L19.157 19.2558C19.2904 19.1225 19.4424 19.0371 19.613 18.9998C19.7837 18.9625 19.9724 18.9589 20.1792 18.9891L23.2904 19.5669C23.4978 19.5966 23.6681 19.6928 23.8015 19.8558C23.9348 20.0188 24.0015 20.204 24.0015 20.4114V24.0114C24.0015 24.278 23.9126 24.5003 23.7348 24.678C23.557 24.8558 23.3348 24.9447 23.0681 24.9447C21.157 24.9447 19.2939 24.5186 17.4788 23.6665C15.6637 22.8143 14.0563 21.6884 12.6566 20.2887C11.2569 18.889 10.1309 17.2816 9.2788 15.4665C8.42665 13.6514 8.00087 11.7886 8.00147 9.87804Z" fill="white"/>
</svg>
