<svg width="73" height="74" viewBox="0 0 73 74" fill="none" xmlns="http://www.w3.org/2000/svg">
<g filter="url(#filter0_d_1348_2527)">
<g filter="url(#filter1_d_1348_2527)">
<circle cx="36.5" cy="35.5" r="32.5" fill="#FFFEFE"/>
</g>
<mask id="mask0_1348_2527" style="mask-type:alpha" maskUnits="userSpaceOnUse" x="4" y="3" width="65" height="65">
<circle cx="36.5" cy="35.5" r="32.5" fill="#FFFEFE"/>
</mask>
<g mask="url(#mask0_1348_2527)">
<path d="M-47.4313 73.507C-39.793 78.1431 -1.21156 99.4242 11.3863 93.0548C26.6546 85.3252 42.7773 70.4052 48.2178 61.4233C51.2615 56.3892 26.0741 41.9502 22.765 46.1218C17.5567 52.7566 4.02994 64.9813 1.57505 66.8556C-0.879826 68.7299 -27.5186 63.0074 -42.422 61.9956C-55.8492 61.0584 -52.8138 70.2725 -47.4313 73.507Z" fill="#DD6A57"/>
<path d="M56.9831 49.5388C54.6941 55.2945 45.3722 65.2301 42.2289 66.7644C39.0857 68.2987 21.6444 53.0553 21.8683 49.4559C22.0923 45.8565 31.3064 27.0634 36.7967 23.945C42.287 20.8267 59.3633 43.5426 56.9831 49.5388Z" fill="#DD6A57"/>
<path d="M22.8733 45.9479C22.8733 45.9479 22.9645 37.8866 20.6672 31.1688C18.7431 25.5127 15.2349 17.3435 18.2372 16.1907C24.391 13.8271 33.1241 34.2126 33.1241 34.2126C33.1241 34.2126 35.5292 43.8247 29.6408 46.7026C28.5528 47.2128 27.3449 47.4123 26.1506 47.2791C24.9564 47.1459 23.8221 46.6852 22.8733 45.9479Z" fill="#DD6A57"/>
<path d="M29.3168 30.4139C29.8559 33.6567 33.364 31.1686 33.364 31.1686C33.364 31.1686 29.1758 35.9623 31.0169 39.0889C32.8083 42.0912 36.9385 38.9397 37.2371 38.7157C37.0215 38.9728 33.2894 43.4845 35.4623 46.4287C37.6352 49.3729 41.3341 45.5994 41.5663 45.3671C41.4336 45.674 39.7666 49.7544 41.9312 51.6204C45.655 54.8134 50.2247 44.4963 53.9651 43.2191C53.9651 43.2191 56.8678 49.3397 56.9839 49.5056C56.9839 49.5056 61.5122 39.7773 59.472 34.7929C59.1901 34.0651 58.6681 33.4555 57.9924 33.0648C57.3167 32.6742 56.5279 32.5261 55.7565 32.6449C55.7565 32.6449 57.5645 29.6675 55.9224 27.2873C55.093 26.0764 52.3728 26.3418 52.3728 26.3418C52.3728 26.3418 53.7246 23.9035 52.1322 21.8799C50.8633 20.2212 48.3587 20.7852 48.3587 20.7852C48.3587 20.7852 48.5577 17.841 46.7 16.6384C43.0757 14.1089 28.164 23.4806 29.3168 30.4139Z" fill="#DD6A57"/>
<path d="M47.9773 20.8017C47.9883 20.8017 47.9989 20.7973 48.0066 20.7895C48.0144 20.7818 48.0188 20.7712 48.0188 20.7602C48.0188 20.7492 48.0144 20.7387 48.0066 20.7309C47.9989 20.7231 47.9883 20.7188 47.9773 20.7188C42.0779 22.6565 36.9084 26.3448 33.1568 31.293C33.0407 31.4589 33.2481 31.716 33.4139 31.5584C37.7229 27.2877 42.6284 23.6645 47.9773 20.8017Z" fill="#263238"/>
<path d="M52.4553 26.2672C52.5134 26.2672 52.4553 26.1345 52.3973 26.1594C46.5918 28.1332 40.3468 32.5868 36.9796 38.6826C36.8635 38.8899 36.9796 39.1968 37.1206 38.9645C39.675 35.0832 47.4046 28.8713 52.4553 26.2672Z" fill="#263238"/>
<path d="M41.4756 45.8724C44.934 40.1499 49.877 36.1192 55.5746 32.7106C55.6493 32.6609 55.5746 32.5613 55.5082 32.5862C52.2821 33.4985 48.8734 36.0529 46.4269 38.259C44.0997 40.2584 42.3356 42.8316 41.3098 45.7231C41.2351 45.8641 41.4093 45.9885 41.4756 45.8724Z" fill="#263238"/>
<path d="M33.2471 31.1687C33.1145 31.3595 33.5457 31.3512 33.413 31.5419C32.8574 32.3713 29.9629 37.6211 31.4475 39.1636C32.6334 40.3994 35.1215 39.653 35.9591 38.9978L38.0823 37.3391L36.6724 39.6364C36.0311 40.6583 35.5631 41.7792 35.2873 42.9538C35.1289 43.4858 35.0847 44.0452 35.1576 44.5955C35.2305 45.1458 35.4188 45.6744 35.7103 46.1468C35.9833 46.5752 36.394 46.8981 36.8747 47.0624C37.3555 47.2267 37.8778 47.2226 38.356 47.0508C39.4325 46.6321 40.3835 45.9439 41.1177 45.052L43.2325 42.6635L42.0217 45.5994C41.6843 46.4152 41.453 47.2709 41.3333 48.1455C41.1782 48.9845 41.2763 49.8506 41.6153 50.6336C41.7804 50.9736 42.0371 51.2609 42.3564 51.4631C42.6758 51.6653 43.0453 51.7744 43.4233 51.7781C44.2646 51.655 45.0547 51.2987 45.704 50.7497C47.1245 49.5703 48.4526 48.2838 49.6766 46.9015C50.3235 46.2214 50.9621 45.5414 51.6422 44.8862C52.2829 44.1962 53.0632 43.6506 53.9312 43.2855C53.1195 43.7369 52.4039 44.3426 51.8246 45.0686C51.2109 45.7653 50.6221 46.4868 50.0332 47.2084C48.8809 48.7062 47.5927 50.0943 46.185 51.3551C45.4304 52.047 44.4912 52.5051 43.4813 52.6738C42.9207 52.7036 42.3634 52.5698 41.8775 52.2885C41.3915 52.0073 40.9979 51.5908 40.7445 51.0897C40.3037 50.1487 40.1536 49.0977 40.3132 48.0709C40.4317 47.0923 40.677 46.1332 41.043 45.2179L41.947 45.7653C41.0953 46.8351 39.9769 47.6617 38.7043 48.1621C37.9922 48.4235 37.2103 48.4235 36.4982 48.1621C35.8053 47.8901 35.2101 47.4162 34.7898 46.802C34.4214 46.2043 34.1836 45.5354 34.0921 44.8393C34.0006 44.1432 34.0575 43.4356 34.259 42.763C34.5852 41.4856 35.1174 40.2699 35.8347 39.1636L36.5397 39.8022C35.4449 40.6316 32.7578 41.7429 30.6679 40.0594C28.3042 37.3971 32.4261 32.1225 33.2471 31.1687Z" fill="#263238"/>
<path d="M33.3804 31.1685C32.7611 31.4425 32.1041 31.6215 31.4314 31.6993C31.1634 31.7395 30.8895 31.7068 30.6385 31.6046C30.3875 31.5025 30.1687 31.3346 30.0049 31.1187C29.7168 30.5912 29.5818 29.9938 29.6151 29.3937C29.6151 28.7302 29.6732 28.0418 29.7478 27.3203C29.3349 27.9244 29.0525 28.608 28.9185 29.3273C28.822 29.7188 28.8039 30.1255 28.8651 30.524C28.9263 30.9225 29.0656 31.305 29.2751 31.6495C29.5444 32.0045 29.9143 32.2704 30.3366 32.4125C30.7409 32.5246 31.1681 32.5246 31.5724 32.4125C32.2908 32.1982 32.9235 31.7629 33.3804 31.1685Z" fill="#263238"/>
</g>
</g>
<defs>
<filter id="filter0_d_1348_2527" x="0" y="1" width="73" height="73" filterUnits="userSpaceOnUse" color-interpolation-filters="sRGB">
<feFlood flood-opacity="0" result="BackgroundImageFix"/>
<feColorMatrix in="SourceAlpha" type="matrix" values="0 0 0 0 0 0 0 0 0 0 0 0 0 0 0 0 0 0 127 0" result="hardAlpha"/>
<feOffset dy="2"/>
<feGaussianBlur stdDeviation="2"/>
<feComposite in2="hardAlpha" operator="out"/>
<feColorMatrix type="matrix" values="0 0 0 0 0 0 0 0 0 0 0 0 0 0 0 0 0 0 0.25 0"/>
<feBlend mode="normal" in2="BackgroundImageFix" result="effect1_dropShadow_1348_2527"/>
<feBlend mode="normal" in="SourceGraphic" in2="effect1_dropShadow_1348_2527" result="shape"/>
</filter>
<filter id="filter1_d_1348_2527" x="0" y="0" width="73" height="73" filterUnits="userSpaceOnUse" color-interpolation-filters="sRGB">
<feFlood flood-opacity="0" result="BackgroundImageFix"/>
<feColorMatrix in="SourceAlpha" type="matrix" values="0 0 0 0 0 0 0 0 0 0 0 0 0 0 0 0 0 0 127 0" result="hardAlpha"/>
<feOffset dy="1"/>
<feGaussianBlur stdDeviation="2"/>
<feComposite in2="hardAlpha" operator="out"/>
<feColorMatrix type="matrix" values="0 0 0 0 0 0 0 0 0 0 0 0 0 0 0 0 0 0 0.25 0"/>
<feBlend mode="normal" in2="BackgroundImageFix" result="effect1_dropShadow_1348_2527"/>
<feBlend mode="normal" in="SourceGraphic" in2="effect1_dropShadow_1348_2527" result="shape"/>
</filter>
</defs>
</svg>
