<svg width="73" height="73" viewBox="0 0 73 73" fill="none" xmlns="http://www.w3.org/2000/svg">
<g filter="url(#filter0_d_1348_1799)">
<circle cx="36.5" cy="35.5" r="32.5" fill="#FFFEFE"/>
</g>
<path d="M53.0289 18.4867C53.0289 18.4867 52.4445 23.2931 52.2271 26.9352C52.0097 30.5774 54.0391 42.7406 53.4638 46.9671C52.8885 51.1936 52.209 56 52.209 56L20.1 55.0532C20.1 55.0532 15.7874 48.9739 16.023 48.8244C16.2585 48.6749 20.5938 18.1198 20.5938 18.1198C20.5938 18.1198 19.7195 15.4969 21.3231 15.1345C22.9268 14.7721 49.6767 14.917 53.0289 18.4867Z" fill="#C69D90"/>
<g opacity="0.3">
<path d="M52.345 19.6464C52.6667 20.5524 51.8377 21.5672 50.8909 21.8118C49.9441 22.0564 48.9475 21.771 48.0053 21.5128C40.6355 19.4961 32.9582 18.8497 25.355 19.6056C24.8422 19.7086 24.3105 19.6614 23.8239 19.4697C23.3709 19.2296 23.09 18.5637 23.4252 18.1742C30.397 17.4765 41.0879 18.4369 52.345 19.6464Z" fill="black"/>
</g>
<path d="M25.1235 50.3873C25.2076 50.3746 25.2931 50.3746 25.3772 50.3873L26.093 50.4462L28.7159 50.6953C30.9356 50.8947 34.0024 51.1257 37.3954 51.2571C40.7884 51.3885 43.8643 51.3885 46.0931 51.3567L48.7296 51.3069H49.4453C49.528 51.2954 49.6118 51.2954 49.6945 51.3069C49.6148 51.3293 49.5326 51.3415 49.4499 51.3431L48.7341 51.393C48.109 51.4383 47.2075 51.4836 46.0976 51.5198C43.8689 51.5923 40.7884 51.6195 37.3864 51.4881C33.9843 51.3567 30.9175 51.1031 28.7023 50.8584C27.5924 50.7361 26.6955 50.6229 26.0794 50.5323L25.3727 50.4281L25.1235 50.3873Z" fill="#895F53"/>
<path d="M30.9312 45.0372C31.1172 45.0374 31.3026 45.0586 31.4838 45.1006L32.9742 45.3453C34.2335 45.5537 35.9731 45.8255 37.9029 46.0655C39.8327 46.3056 41.5903 46.4642 42.8588 46.5684L44.3673 46.6952C44.5536 46.6986 44.739 46.7229 44.9199 46.7677C44.7356 46.7961 44.5487 46.8037 44.3627 46.7904C44.0049 46.7904 43.4884 46.7904 42.8497 46.7405C41.5722 46.6816 39.81 46.5457 37.8666 46.2875C35.9233 46.0293 34.1837 45.7666 32.947 45.5174C32.3173 45.3906 31.8145 45.2773 31.4657 45.1958C31.2821 45.1633 31.1028 45.1101 30.9312 45.0372Z" fill="#895F53"/>
<path d="M16 49.2909C16.2174 49.1414 20.6116 18.1197 20.6116 18.1197C20.6116 18.1197 19.7373 15.4968 21.3409 15.1344H21.3908C21.8438 15.5104 22.4463 16.1944 22.256 17.0416C21.9933 18.1967 21.4587 18.1967 21.1824 18.1967C20.906 18.1967 21.0465 23.9046 21.3364 26.2375C21.6263 28.5705 22.6003 35.4562 22.0204 39.7552C21.4406 44.0542 20.0997 55.0622 20.0997 55.0622L16 49.2909Z" fill="#895F53"/>
<path d="M34.7905 51.076C34.7905 51.076 34.863 52.8246 35.3704 53.5177C35.7328 54.0069 35.7418 54.7317 40.6479 55.452C45.5539 56.1723 52.0681 55.7148 53.8394 55.1123C55.6106 54.5098 56.3535 53.3003 56.4804 52.7974C56.6072 52.2946 56.8111 51.1666 56.8111 51.1666L35.4927 50.4735L34.7905 51.076Z" fill="#FF9A6C"/>
<g opacity="0.3">
<path d="M56.3535 50.3286L34.7905 51.0262C34.7995 51.3572 34.8313 51.6872 34.8857 52.0138L35.4111 52.195C35.5091 52.2291 35.5998 52.2813 35.6784 52.349C36.1314 52.7703 36.2628 53.5132 36.8426 53.7986C37.5629 54.152 38.4327 53.5676 39.239 53.6718C40.2447 53.8032 40.8789 54.9629 41.8982 54.9311C42.7408 54.904 43.3478 54.0251 44.1949 54.0251C45.042 54.0251 45.5902 54.7273 46.3784 54.836C47.5834 55.0036 48.6208 53.6854 49.8167 53.93C50.3739 54.0342 50.8042 54.4555 51.3524 54.5869C52.1406 54.7726 52.9379 54.3151 53.554 53.8213C54.1701 53.3275 54.7816 52.7477 55.5834 52.6208H56.5347L56.8609 50.9583L56.3535 50.3286Z" fill="black"/>
</g>
<path d="M34.7137 49.1145C34.2489 49.1104 33.7918 49.2325 33.3909 49.4678C33.2014 49.5766 33.0576 49.7503 32.986 49.9567C32.9145 50.1632 32.9199 50.3885 33.0013 50.5913C33.1419 50.771 33.3233 50.9145 33.5306 51.0098C33.7378 51.1051 33.9648 51.1496 34.1927 51.1394C34.6614 51.1139 35.1289 51.2074 35.5518 51.4112C36.1407 51.7917 36.2177 52.657 36.8564 52.9696C37.5767 53.3184 38.4465 52.734 39.2528 52.8382C40.2585 52.9695 40.8927 54.1338 41.9119 54.0975C42.7545 54.0703 43.3616 53.1915 44.2087 53.1915C45.0558 53.1915 45.6039 53.8937 46.3922 54.0024C47.5971 54.17 48.6345 52.8472 49.8305 53.0737C50.3876 53.1734 50.818 53.5992 51.3661 53.7261C52.1544 53.9163 52.9517 53.4588 53.5677 52.965C54.1838 52.4712 54.7954 51.8914 55.5972 51.76C56.0499 51.7348 56.5036 51.7348 56.9562 51.76C57.1767 51.7682 57.3959 51.7225 57.5947 51.627C57.7936 51.5315 57.9663 51.3891 58.0978 51.2119C58.1818 51.0002 58.1893 50.7658 58.119 50.5491C58.0487 50.3325 57.905 50.1471 57.7127 50.025C57.3081 49.7643 56.8525 49.5928 56.3764 49.5222" fill="#455A64"/>
<path opacity="0.3" d="M34.5371 49.1146C34.5371 49.1146 35.4431 52.9968 45.5859 52.7069C55.7287 52.417 55.9325 50.8949 56.3674 49.8349C56.8023 48.7748 34.5371 49.1146 34.5371 49.1146Z" fill="black"/>
<path d="M35.0488 46.9039C35.0488 46.9039 33.726 48.5936 35.3342 49.9571C36.9423 51.3206 38.5052 52.1949 46.0115 52.2221C53.5178 52.2493 54.9583 51.1213 55.9459 50.324C56.9334 49.5268 57.0331 48.1632 56.4804 47.606C55.9277 47.0488 34.632 46.7 34.6728 46.7272C34.7944 46.7937 34.92 46.8527 35.0488 46.9039Z" fill="#AE7461"/>
<path opacity="0.3" d="M34.6592 47.6695C34.6592 47.6695 46.0522 51.2935 47.8416 53.1463C47.8416 53.1463 54.8496 48.7884 56.6797 47.9096L56.1089 46.9039L34.9219 47.1033C34.8056 47.2773 34.717 47.4683 34.6592 47.6695Z" fill="black"/>
<path d="M34.3647 44.3806C34.1427 44.4214 32 45.3319 32 45.3319V46.4282C32 46.4282 43.8325 48.8201 47.8552 52.2312C47.8552 52.2312 54.0387 47.529 58.9855 46.4282V45.5222L56.1406 44.3851L34.3647 44.3806Z" fill="#FFBB6A"/>
<path d="M32.0317 45.554H32.1087L32.3262 45.5947L33.1778 45.7669L33.4678 45.8257L33.7849 45.9073L34.5051 46.084C34.6365 46.1157 34.7724 46.1429 34.9083 46.1836L35.3296 46.3014L36.2356 46.5596C37.5176 46.9492 39.0261 47.4656 40.6751 48.0908C42.324 48.7159 44.0998 49.477 45.9344 50.3558C46.6004 50.6684 47.2482 50.9855 47.8642 51.3026H47.8325C49.2957 50.3286 50.7272 49.4906 52.0409 48.7748C53.3547 48.0591 54.5687 47.4702 55.597 47.0217L55.973 46.8541L56.3309 46.7046L56.9923 46.4373C57.4091 46.2833 57.7669 46.1429 58.0614 46.0432L58.7409 45.8212L58.9176 45.7669H58.981L58.9221 45.7895L58.7454 45.8484L58.0659 46.0794C57.776 46.1836 57.4181 46.3241 57.0059 46.4781L56.3445 46.7499L55.9866 46.8994L55.6106 47.067C54.5868 47.52 53.3818 48.1134 52.0681 48.8292C50.7544 49.5449 49.3229 50.3875 47.8642 51.3615C47.2527 51.0489 46.6004 50.7318 45.9344 50.4192C44.1224 49.5585 42.3104 48.802 40.6796 48.1542C39.0488 47.5064 37.5312 47.0126 36.2537 46.6185L35.3477 46.3558L34.9264 46.2335L34.5278 46.1338L33.8075 45.9526L33.4904 45.871L33.196 45.8076L32.3534 45.631L32.1314 45.5811L32.0317 45.554Z" fill="#263238"/>
<path d="M46.3152 43.1121C44.1227 43.2752 40.0004 45.3772 43.484 48.4214C46.9676 51.4655 51.6743 48.9831 52.1545 46.8993C52.5305 45.2549 50.4059 42.8041 46.3152 43.1121Z" fill="#FF725E"/>
<g opacity="0.3">
<path d="M46.3152 43.1121C44.1227 43.2752 40.0004 45.3772 43.484 48.4214C46.9676 51.4655 51.6743 48.9831 52.1545 46.8993C52.5305 45.2549 50.4059 42.8041 46.3152 43.1121Z" fill="black"/>
</g>
<path d="M46.3152 42.7724C44.1227 42.9355 40.0004 45.0374 43.484 48.0816C46.9676 51.1258 51.6743 48.6433 52.1545 46.5595C52.5305 44.9015 50.4059 42.4507 46.3152 42.7724Z" fill="#FF725E"/>
<g opacity="0.3">
<path d="M43.6424 45.0647C43.4023 44.8382 43.9278 43.8189 45.7715 43.3976C47.6152 42.9763 48.9969 43.5697 48.8565 43.7691C48.716 43.9684 48.4669 44.965 46.6911 45.2413C45.0376 45.4905 43.9278 45.341 43.6424 45.0647Z" fill="black"/>
</g>
<g opacity="0.3">
<path d="M50.0613 44.6162C50.3286 44.512 51.9413 45.6898 51.1258 46.8359C50.3104 47.982 49.2459 48.6796 48.503 48.4531C47.76 48.2266 47.5063 46.9809 48.0771 46.1066C48.5869 45.4348 49.2741 44.9186 50.0613 44.6162Z" fill="black"/>
</g>
<g opacity="0.3">
<path d="M43.1122 45.8618C43.2798 45.6444 45.3772 45.5855 46.3739 46.1065C47.3705 46.6274 47.7329 48.3443 47.4611 48.6705C47.1893 48.9966 44.9877 48.4802 44.1405 47.8822C43.2934 47.2843 42.8631 46.188 43.1122 45.8618Z" fill="black"/>
</g>
<path d="M44.3176 44.3082C44.0096 44.5076 44.9201 45.2142 45.0605 45.0421C45.201 44.87 44.5622 44.1316 44.3176 44.3082Z" fill="#FF725E"/>
<path d="M45.296 43.8189C45.1193 43.8642 45.5587 45.1779 45.9845 45.0692C46.4103 44.9605 45.604 43.7464 45.296 43.8189Z" fill="#FF725E"/>
<path d="M46.4779 43.5969C46.3012 43.6467 46.5142 44.4757 46.8675 44.4486C47.2208 44.4214 46.6546 43.5471 46.4779 43.5969Z" fill="#FF725E"/>
<path d="M47.7647 43.4973C47.3388 43.4973 47.4068 44.6525 47.7647 44.6796C48.1225 44.7068 48.349 43.4973 47.7647 43.4973Z" fill="#FF725E"/>
<path d="M45.3549 46.2108C45.2915 46.0658 43.6199 46.2108 43.7603 46.5143C43.9008 46.8178 45.4908 46.5188 45.3549 46.2108Z" fill="#FF725E"/>
<path d="M46.6637 47.2481C46.863 47.2753 46.8177 48.4395 46.3466 48.2945C45.8754 48.1496 46.4598 47.2254 46.6637 47.2481Z" fill="#FF725E"/>
<path d="M46.102 46.7226C46.3013 46.8268 45.2323 48 44.666 47.7509C44.0997 47.5017 45.9072 46.6138 46.102 46.7226Z" fill="#FF725E"/>
<path d="M49.024 45.9434C49.0829 45.6716 50.9039 45.9434 50.7771 46.2197C50.6503 46.4961 48.956 46.3239 49.024 45.9434Z" fill="#FF725E"/>
<path d="M49.3321 45.4905C49.4408 45.6627 50.6051 45.4905 50.4692 45.2504C50.3332 45.0103 49.2279 45.332 49.3321 45.4905Z" fill="#FF725E"/>
<path d="M48.5892 46.3964C48.5076 46.487 49.7987 47.2254 49.8983 47.0125C49.998 46.7996 48.793 46.188 48.5892 46.3964Z" fill="#FF725E"/>
<path d="M48.1226 46.7317C47.8372 46.8586 48.2313 47.8461 48.5756 47.7782C48.9199 47.7102 48.5303 46.5551 48.1226 46.7317Z" fill="#FF725E"/>
<path d="M46.0114 42.9265C46.0114 42.9265 45.803 42.9673 45.4769 43.0488C45.3183 43.0941 45.128 43.153 44.9287 43.23C44.7171 43.311 44.5113 43.4064 44.3126 43.5154C44.1244 43.6229 43.9442 43.7441 43.7736 43.8778C43.6435 43.9808 43.5209 44.0928 43.4066 44.213C43.2164 44.4169 43.1303 44.5573 43.1167 44.5528C43.1316 44.5179 43.1498 44.4846 43.1711 44.4531C43.1937 44.4214 43.2164 44.3852 43.2526 44.3399C43.2888 44.2946 43.3206 44.2493 43.3659 44.1995C43.4756 44.0722 43.5969 43.9555 43.7283 43.8506C43.8996 43.7143 44.0814 43.5917 44.2719 43.4837C44.4739 43.3726 44.6827 43.2742 44.897 43.1893C45.0823 43.1222 45.2714 43.0663 45.4633 43.0216C45.5448 42.999 45.6218 42.9854 45.6898 42.9718L45.8619 42.9446L46.0114 42.9265Z" fill="white"/>
<path d="M48.2134 43.0352C48.2134 43.0352 47.9914 42.9989 47.7196 42.9763C47.4478 42.9536 47.2168 42.9491 47.2168 42.9355C47.3865 42.9103 47.559 42.9103 47.7287 42.9355C47.895 42.9388 48.0593 42.9726 48.2134 43.0352Z" fill="white"/>
<path d="M48.5032 45.0375C48.2852 45.1495 48.0538 45.2333 47.8146 45.2867C47.5676 45.3556 47.3141 45.3981 47.0581 45.4135C47.0581 45.4135 47.3933 45.3456 47.792 45.2414C48.1906 45.1372 48.5032 45.0058 48.5032 45.0375Z" fill="white"/>
<path d="M38.9132 42.111C36.7252 42.3375 32.7025 44.4077 36.3129 47.0487C39.9234 49.6897 44.5259 47.2843 44.92 45.3681C45.2145 43.855 42.9812 41.6942 38.9132 42.111Z" fill="#FF725E"/>
<g opacity="0.3">
<path d="M38.9132 42.111C36.7252 42.3375 32.7025 44.4077 36.3129 47.0487C39.9234 49.6897 44.5259 47.2843 44.92 45.3681C45.2145 43.855 42.9812 41.6942 38.9132 42.111Z" fill="black"/>
</g>
<path d="M38.8946 41.7894C36.7111 42.016 32.6839 44.0862 36.2989 46.7272C39.9139 49.3682 44.5073 46.9628 44.906 45.0466C45.2004 43.5335 42.9671 41.3727 38.8946 41.7894Z" fill="#FF725E"/>
<g opacity="0.3">
<path d="M36.326 43.9866C36.0769 43.7827 36.5525 42.8405 38.3781 42.392C40.2037 41.9435 41.6126 42.4418 41.4767 42.6276C41.3408 42.8133 41.1415 43.7329 39.3793 44.0409C37.7394 44.3309 36.6205 44.2267 36.326 43.9866Z" fill="black"/>
</g>
<g opacity="0.3">
<path d="M42.7227 43.3568C42.9809 43.2572 44.6479 44.2628 43.8823 45.3455C43.1168 46.4282 42.0703 47.0896 41.3319 46.9084C40.5935 46.7272 40.2719 45.5992 40.8019 44.7838C41.2987 44.1404 41.9633 43.6467 42.7227 43.3568Z" fill="black"/>
</g>
<g opacity="0.3">
<path d="M35.8191 44.7294C35.9776 44.5256 38.0841 44.3987 39.0898 44.8427C40.0954 45.2866 40.562 46.8359 40.2902 47.1394C40.0184 47.4429 37.8123 47.0533 36.938 46.5369C36.0637 46.0205 35.5971 45.0375 35.8191 44.7294Z" fill="black"/>
</g>
<path d="M36.965 43.2708C36.666 43.4611 37.6083 44.0771 37.7442 43.9141C37.8801 43.751 37.2051 43.1213 36.965 43.2708Z" fill="#FF725E"/>
<path d="M37.9253 42.7951C37.7486 42.8404 38.2469 44.0409 38.6637 43.9095C39.0804 43.7781 38.2288 42.7136 37.9253 42.7951Z" fill="#FF725E"/>
<path d="M39.0942 42.5506C38.922 42.6004 39.1712 43.3479 39.5472 43.3116C39.9232 43.2754 39.2708 42.4962 39.0942 42.5506Z" fill="#FF725E"/>
<path d="M40.3763 42.4145C39.9505 42.4145 40.0682 43.4791 40.4261 43.4927C40.784 43.5063 40.9607 42.3964 40.3763 42.4145Z" fill="#FF725E"/>
<path d="M38.0842 44.9696C38.0162 44.8427 36.3492 45.033 36.5032 45.3002C36.6572 45.5675 38.2382 45.2459 38.0842 44.9696Z" fill="#FF725E"/>
<path d="M39.4432 45.8755C39.647 45.8755 39.6516 46.9537 39.1759 46.8359C38.7003 46.7181 39.2348 45.8574 39.4432 45.8755Z" fill="#FF725E"/>
<path d="M38.8586 45.4134C39.0625 45.504 38.0432 46.6048 37.4679 46.3964C36.8926 46.188 38.6548 45.3182 38.8586 45.4134Z" fill="#FF725E"/>
<path d="M41.7398 44.6207C41.7896 44.3715 43.6197 44.5663 43.5065 44.8109C43.3932 45.0556 41.6809 44.9514 41.7398 44.6207Z" fill="#FF725E"/>
<path d="M42.0297 44.1903C42.143 44.3398 43.2981 44.1314 43.1532 43.9276C43.0082 43.7237 41.9165 44.0408 42.0297 44.1903Z" fill="#FF725E"/>
<path d="M41.3275 45.0374C41.2504 45.1235 42.5732 45.7532 42.6593 45.5539C42.7454 45.3545 41.5222 44.8336 41.3275 45.0374Z" fill="#FF725E"/>
<path d="M40.8788 45.3545C40.5979 45.4768 41.0374 46.3647 41.359 46.2922C41.6806 46.2197 41.2774 45.1778 40.8788 45.3545Z" fill="#FF725E"/>
<path d="M38.6005 41.9572C38.6005 41.9572 38.3922 41.9979 38.0705 42.084C37.912 42.1293 37.7262 42.1882 37.5314 42.2652C37.3251 42.3482 37.1239 42.4435 36.9289 42.5506C36.7466 42.6516 36.5724 42.7667 36.408 42.8949C36.2826 42.9934 36.1645 43.1009 36.0547 43.2165C35.8735 43.4068 35.7919 43.5381 35.7783 43.5336L35.8327 43.443C35.8527 43.4056 35.877 43.3706 35.9052 43.3388C35.9369 43.298 35.9686 43.2527 36.0139 43.2029C36.1199 43.0839 36.235 42.9733 36.3582 42.8722C36.5235 42.7405 36.6992 42.6223 36.8837 42.5189C37.0823 42.4098 37.2881 42.3145 37.4997 42.2335C37.6817 42.1634 37.8678 42.1044 38.0569 42.0568C38.1339 42.0342 38.2109 42.0206 38.2789 42.007C38.3356 41.9932 38.3931 41.9826 38.451 41.9753L38.6005 41.9572Z" fill="white"/>
<path d="M40.8021 41.9752C40.8021 41.9752 40.5756 41.9526 40.2992 41.939C40.0229 41.9254 39.8009 41.939 39.7964 41.939C39.9651 41.9072 40.1374 41.8996 40.3083 41.9163C40.4749 41.9116 40.6412 41.9315 40.8021 41.9752Z" fill="white"/>
<path d="M41.1691 43.7781C40.9533 43.8878 40.7252 43.9715 40.4896 44.0272C40.247 44.1039 39.9961 44.151 39.7422 44.1677C39.7422 44.1677 40.0729 44.0997 40.4625 43.991C40.852 43.8823 41.1556 43.769 41.1691 43.7781Z" fill="white"/>
<path d="M51.4927 42.0929C49.6807 42.2288 46.256 43.9865 49.1416 46.4961C52.0273 49.0058 55.9367 46.9491 56.3308 45.2322C56.657 43.8732 54.8812 41.8392 51.4927 42.0929Z" fill="#FF725E"/>
<g opacity="0.3">
<path d="M51.4927 42.0929C49.6807 42.2288 46.256 43.9865 49.1416 46.4961C52.0273 49.0058 55.9367 46.9491 56.3308 45.2322C56.657 43.8732 54.8812 41.8392 51.4927 42.0929Z" fill="black"/>
</g>
<path d="M51.4927 41.803C49.6807 41.9389 46.256 43.6966 49.1416 46.2063C52.0273 48.7159 55.9367 46.6593 56.3308 44.9424C56.657 43.5788 54.8812 41.5494 51.4927 41.803Z" fill="#FF725E"/>
<g opacity="0.3">
<path d="M49.2734 43.7147C49.0786 43.5244 49.5089 42.6818 51.0401 42.333C52.5712 41.9842 53.7173 42.478 53.5996 42.6411C53.4818 42.8041 53.2734 43.6331 51.7875 43.8596C50.4331 44.0726 49.5089 43.9412 49.2734 43.7147Z" fill="black"/>
</g>
<g opacity="0.3">
<path d="M54.5962 43.3432C54.8182 43.2572 56.1546 44.2492 55.5022 45.1824C54.8499 46.1156 53.9439 46.7136 53.3278 46.5415C52.7117 46.3693 52.5034 45.3183 52.9745 44.5981C53.3873 44.0366 53.9491 43.6019 54.5962 43.3432Z" fill="black"/>
</g>
<g opacity="0.3">
<path d="M48.8336 44.3761C48.974 44.1949 50.7135 44.1451 51.5516 44.5799C52.3896 45.0148 52.6886 46.4373 52.4576 46.7045C52.2266 46.9718 50.41 46.546 49.7033 46.0522C48.9966 45.5584 48.6252 44.6479 48.8336 44.3761Z" fill="black"/>
</g>
<path d="M49.8351 43.0895C49.5769 43.2526 50.3334 43.8415 50.4512 43.6965C50.569 43.5516 50.039 42.9582 49.8351 43.0895Z" fill="#FF725E"/>
<path d="M50.646 42.6818C50.5011 42.7181 50.8635 43.8234 51.2168 43.7192C51.5702 43.615 50.8997 42.623 50.646 42.6818Z" fill="#FF725E"/>
<path d="M51.6289 42.4962C51.4794 42.5369 51.6561 43.2255 51.9506 43.2028C52.245 43.1802 51.7739 42.4554 51.6289 42.4962Z" fill="#FF725E"/>
<path d="M52.6933 42.4146C52.3399 42.4146 52.3943 43.3704 52.6933 43.393C52.9923 43.4157 53.178 42.4146 52.6933 42.4146Z" fill="#FF725E"/>
<path d="M50.6956 44.6659C50.6457 44.5436 49.255 44.6659 49.3728 44.9151C49.4906 45.1643 50.8088 44.9196 50.6956 44.6659Z" fill="#FF725E"/>
<path d="M51.7783 45.5267C51.9459 45.5494 51.9096 46.5143 51.5155 46.392C51.1214 46.2697 51.6106 45.4905 51.7783 45.5267Z" fill="#FF725E"/>
<path d="M51.3164 45.0873C51.4795 45.1779 50.5916 46.1473 50.125 45.9435C49.6584 45.7396 51.1533 45.0012 51.3164 45.0873Z" fill="#FF725E"/>
<path d="M53.7355 44.4576C53.7853 44.2311 55.2938 44.4576 55.1896 44.6841C55.0854 44.9106 53.672 44.7611 53.7355 44.4576Z" fill="#FF725E"/>
<path d="M53.9935 44.077C54.0796 44.2175 55.0445 44.077 54.9358 43.8732C54.8271 43.6693 53.9029 43.9366 53.9935 44.077Z" fill="#FF725E"/>
<path d="M53.3771 44.829C53.3092 44.9015 54.3783 45.5176 54.4598 45.3409C54.5413 45.1642 53.5447 44.6478 53.3771 44.829Z" fill="#FF725E"/>
<path d="M52.9926 45.0963C52.7525 45.2005 53.0832 46.0023 53.355 45.9661C53.6268 45.9298 53.3278 44.9513 52.9926 45.0963Z" fill="#FF725E"/>
<path d="M51.2209 41.9435C51.2209 41.9435 51.0488 41.9752 50.7679 42.0432C50.6145 42.0854 50.4633 42.1353 50.3149 42.1926C50.1388 42.2604 49.9677 42.3407 49.803 42.4327C49.644 42.5197 49.4925 42.6197 49.35 42.7317C49.2408 42.8163 49.1378 42.9086 49.0419 43.008C48.8879 43.1802 48.8154 43.2934 48.8064 43.2889C48.7973 43.2844 48.8064 43.2617 48.8517 43.2074C48.8692 43.1748 48.8905 43.1444 48.9151 43.1168C48.9447 43.0744 48.9765 43.0336 49.0102 42.9945C49.1021 42.8901 49.2021 42.7932 49.3092 42.7045C49.4528 42.5928 49.6042 42.4913 49.7622 42.401C49.9304 42.3097 50.1045 42.2295 50.2832 42.1609C50.4311 42.1047 50.5824 42.0577 50.7362 42.0205L50.9219 41.9797C50.9696 41.9688 51.0181 41.9612 51.0669 41.9571C51.1169 41.9429 51.1692 41.9383 51.2209 41.9435Z" fill="white"/>
<path d="M53.0648 42.0295C53.0648 42.0295 52.8836 42.0023 52.6526 41.9796C52.4216 41.957 52.2358 41.9796 52.2358 41.9525C52.5144 41.9134 52.7982 41.9398 53.0648 42.0295Z" fill="white"/>
<path d="M53.2962 43.6785C53.1125 43.7673 52.9195 43.8357 52.7209 43.8823C52.5176 43.9428 52.3076 43.9778 52.0957 43.9865C52.0957 43.9865 52.372 43.9321 52.7027 43.8461C53.0334 43.76 53.2871 43.6785 53.2962 43.6785Z" fill="white"/>
<path opacity="0.3" d="M34.5371 44.7249C34.5371 44.7249 34.5371 47.443 46.4738 47.2391C58.4104 47.0353 56.2768 44.3671 56.2768 44.3671L34.5371 44.7249Z" fill="black"/>
<path d="M55.8058 45.2368C56.1556 45.0941 56.441 44.8281 56.6079 44.4892C56.7749 44.1503 56.8118 43.7619 56.7118 43.3976C56.1501 41.5358 54.1025 38.2198 46.5962 38.0114C35.3119 37.7033 34.4466 43.7555 34.4466 43.7555C34.3706 43.9981 34.3764 44.259 34.4632 44.498C34.5499 44.737 34.7128 44.9409 34.9268 45.0782C35.6969 45.6083 39.6834 47.0669 46.8861 46.8903C51.5566 46.777 54.3924 45.8619 55.8058 45.2368Z" fill="#FF9A6C"/>
<path opacity="0.3" d="M43.8325 39.0034C43.0977 39.0306 42.3781 39.2209 41.726 39.5606C40.9559 39.9683 40.1224 40.6025 40.2492 41.4134C40.4848 42.8811 45.5811 43.7554 51.0941 43.7011C56.6072 43.6467 55.9549 43.2028 55.5653 42.5595C55.1757 41.9162 52.9152 38.5912 43.8325 39.0034Z" fill="white"/>
<g opacity="0.3">
<path d="M45.1237 41.4587C45.0444 41.4671 44.9687 41.4962 44.9043 41.5431C44.8399 41.59 44.789 41.6531 44.7567 41.726C44.7305 41.7645 44.7205 41.8118 44.729 41.8576C44.7375 41.9035 44.7638 41.9441 44.802 41.9706H44.8519C44.9425 42.0023 45.0603 41.9208 45.101 41.8121C45.1283 41.7577 45.1444 41.6984 45.1483 41.6377C45.1522 41.577 45.1438 41.5161 45.1237 41.4587Z" fill="black"/>
</g>
<path d="M45.1236 41.3047C45.0451 41.3138 44.9704 41.3432 44.9068 41.3901C44.8433 41.437 44.7931 41.4997 44.7612 41.572C44.7475 41.5902 44.7377 41.611 44.7323 41.6331C44.7269 41.6553 44.7261 41.6783 44.7299 41.7008C44.7337 41.7232 44.7421 41.7447 44.7545 41.7638C44.7669 41.783 44.783 41.7994 44.802 41.8121L44.8518 41.8347C44.905 41.8436 44.9595 41.833 45.0054 41.8046C45.0512 41.7763 45.0852 41.7322 45.101 41.6807C45.1315 41.6233 45.1493 41.56 45.1532 41.4951C45.1571 41.4303 45.147 41.3653 45.1236 41.3047Z" fill="white"/>
<g opacity="0.3">
<path d="M43.4202 43.4564C43.3728 43.5153 43.341 43.5852 43.3275 43.6595C43.3141 43.7339 43.3195 43.8105 43.3432 43.8822C43.3549 43.9285 43.3828 43.9691 43.4219 43.9965C43.4609 44.0239 43.5086 44.0364 43.5561 44.0317H43.6104C43.6331 44.0187 43.6529 44.0012 43.6686 43.9803C43.6844 43.9594 43.6957 43.9356 43.7021 43.9102C43.7084 43.8849 43.7096 43.8585 43.7055 43.8327C43.7015 43.8069 43.6922 43.7821 43.6784 43.7599C43.6599 43.6937 43.6272 43.6322 43.5826 43.5798C43.538 43.5274 43.4826 43.4853 43.4202 43.4564Z" fill="black"/>
</g>
<path d="M43.3074 43.3433C43.2584 43.4004 43.2258 43.4697 43.2131 43.5439C43.2003 43.6181 43.2079 43.6943 43.235 43.7646C43.2438 43.8118 43.2702 43.8539 43.3089 43.8825C43.3475 43.9111 43.3956 43.924 43.4433 43.9186H43.4977C43.5883 43.8869 43.6155 43.751 43.5656 43.6468C43.5486 43.5798 43.5165 43.5177 43.4717 43.4651C43.427 43.4125 43.3708 43.3708 43.3074 43.3433Z" fill="white"/>
<g opacity="0.3">
<path d="M52.4852 41.4904C52.4068 41.4994 52.332 41.5289 52.2685 41.5758C52.2049 41.6226 52.1547 41.6853 52.1228 41.7576C52.1092 41.7765 52.0996 41.7979 52.0945 41.8206C52.0894 41.8433 52.089 41.8668 52.0932 41.8896C52.0974 41.9125 52.1063 41.9342 52.1191 41.9536C52.132 41.9729 52.1487 41.9895 52.1681 42.0022L52.2134 42.0249C52.2676 42.0328 52.3229 42.0213 52.3694 41.9922C52.4159 41.9632 52.4505 41.9186 52.4671 41.8663C52.4969 41.8086 52.5139 41.7452 52.5171 41.6803C52.5202 41.6154 52.5093 41.5507 52.4852 41.4904Z" fill="black"/>
</g>
<path d="M52.485 41.3364C52.4065 41.3455 52.3318 41.375 52.2682 41.4218C52.2047 41.4687 52.1545 41.5314 52.1226 41.6037C52.1097 41.6224 52.1007 41.6435 52.096 41.6657C52.0913 41.6879 52.0911 41.7109 52.0953 41.7332C52.0995 41.7555 52.1081 41.7768 52.1205 41.7957C52.133 41.8147 52.1491 41.8311 52.1679 41.8438L52.2132 41.8664C52.2669 41.8756 52.3222 41.8651 52.3688 41.8368C52.4154 41.8085 52.4502 41.7643 52.4669 41.7124C52.4967 41.6547 52.5137 41.5913 52.5168 41.5264C52.52 41.4615 52.5091 41.3967 52.485 41.3364Z" fill="white"/>
<g opacity="0.3">
<path d="M48.15 39.6783C48.1101 39.7422 48.0867 39.8149 48.082 39.8901C48.0772 39.9652 48.0913 40.0403 48.1229 40.1087C48.1393 40.1546 48.1716 40.1931 48.214 40.2172C48.2564 40.2413 48.306 40.2494 48.3539 40.2401H48.4037C48.4246 40.2241 48.4422 40.2041 48.4554 40.1813C48.4685 40.1585 48.477 40.1333 48.4804 40.1072C48.4838 40.0811 48.4819 40.0545 48.475 40.0291C48.468 40.0037 48.4561 39.98 48.44 39.9592C48.4144 39.8945 48.3753 39.8359 48.3253 39.7875C48.2753 39.739 48.2156 39.7018 48.15 39.6783Z" fill="black"/>
</g>
<path d="M48.0229 39.6014C47.9807 39.6636 47.9562 39.7361 47.9522 39.8112C47.9483 39.8863 47.9649 39.961 48.0003 40.0273C48.0158 40.0728 48.0473 40.1112 48.0889 40.1354C48.1305 40.1595 48.1795 40.1678 48.2268 40.1586H48.2766C48.2974 40.1431 48.3148 40.1235 48.3279 40.1011C48.341 40.0787 48.3495 40.0538 48.3529 40.0281C48.3563 40.0023 48.3545 39.9762 48.3476 39.9512C48.3407 39.9261 48.3289 39.9027 48.3128 39.8823C48.2881 39.8171 48.2492 39.7581 48.1991 39.7096C48.149 39.6611 48.0889 39.6241 48.0229 39.6014Z" fill="white"/>
<g opacity="0.3">
<path d="M38.5775 41.2867C38.5728 41.3627 38.5874 41.4386 38.6199 41.5075C38.6524 41.5764 38.7017 41.636 38.7632 41.6808C38.7988 41.7139 38.8445 41.7341 38.893 41.7382C38.9414 41.7423 38.9898 41.7301 39.0305 41.7034L39.0668 41.6672C39.1211 41.5947 39.0668 41.4679 38.9671 41.3999C38.8569 41.3129 38.7172 41.2722 38.5775 41.2867Z" fill="black"/>
</g>
<path d="M38.4689 41.1824C38.4623 41.258 38.4761 41.334 38.5087 41.4025C38.5414 41.471 38.5917 41.5295 38.6546 41.572C38.6893 41.6066 38.7347 41.6281 38.7834 41.6331C38.8321 41.638 38.881 41.6261 38.9219 41.5992L38.9581 41.5629C39.0125 41.4905 38.9581 41.3636 38.8585 41.2957C38.7483 41.2086 38.6085 41.168 38.4689 41.1824Z" fill="white"/>
<g opacity="0.3">
<path d="M49.9256 40.9016C49.9177 40.9775 49.9304 41.0541 49.9623 41.1234C49.9942 41.1928 50.0441 41.2523 50.1068 41.2957C50.1415 41.3302 50.1869 41.3518 50.2356 41.3568C50.2843 41.3617 50.3332 41.3497 50.3741 41.3229L50.4103 41.2866C50.4692 41.2141 50.4103 41.0828 50.3107 41.0194C50.2028 40.931 50.0645 40.8887 49.9256 40.9016Z" fill="black"/>
</g>
<path d="M49.817 40.8019C49.8095 40.8771 49.8224 40.953 49.8542 41.0215C49.8861 41.0901 49.9359 41.1488 49.9982 41.1915C50.033 41.2261 50.0789 41.2474 50.1278 41.2515C50.1766 41.2557 50.2254 41.2424 50.2655 41.2141C50.2796 41.2061 50.2919 41.1953 50.3018 41.1824C50.3606 41.1099 50.3018 40.9831 50.2021 40.9151C50.0938 40.8279 49.9553 40.7872 49.817 40.8019Z" fill="white"/>
<g opacity="0.3">
<path d="M50.4058 43.3523C50.4007 43.4279 50.4145 43.5036 50.4462 43.5724C50.4779 43.6413 50.5263 43.7011 50.587 43.7464C50.6218 43.781 50.6677 43.8023 50.7165 43.8064C50.7654 43.8106 50.8142 43.7973 50.8543 43.7691C50.87 43.7595 50.8838 43.7472 50.8951 43.7328C50.9494 43.6603 50.8951 43.5335 50.7954 43.4701C50.6855 43.3823 50.546 43.3401 50.4058 43.3523Z" fill="black"/>
</g>
<path d="M50.315 43.248C50.3098 43.3236 50.3237 43.3993 50.3554 43.4682C50.387 43.537 50.4355 43.5968 50.4962 43.6421C50.531 43.6768 50.5768 43.698 50.6257 43.7022C50.6746 43.7063 50.7234 43.6931 50.7635 43.6648C50.7788 43.6564 50.7914 43.6439 50.7997 43.6285C50.8586 43.5606 50.7997 43.4292 50.7001 43.3658C50.5922 43.2774 50.4539 43.2351 50.315 43.248Z" fill="white"/>
<g opacity="0.3">
<path d="M42.1341 41.9615C42.0552 41.9636 41.9779 41.9844 41.9086 42.0222C41.8393 42.06 41.7799 42.1138 41.7355 42.179C41.7186 42.1951 41.7052 42.2144 41.696 42.2358C41.6869 42.2572 41.6821 42.2803 41.6821 42.3036C41.6821 42.3269 41.6869 42.3499 41.696 42.3713C41.7052 42.3927 41.7186 42.4121 41.7355 42.4281C41.7488 42.4398 41.7642 42.449 41.7808 42.4553C41.8337 42.472 41.891 42.4682 41.9413 42.4448C41.9917 42.4213 42.0313 42.3798 42.0526 42.3285C42.0916 42.2767 42.1191 42.2172 42.1332 42.1539C42.1473 42.0906 42.1476 42.025 42.1341 41.9615Z" fill="black"/>
</g>
<path d="M42.2332 41.8665C42.1542 41.8678 42.0766 41.8883 42.0072 41.9261C41.9377 41.964 41.8785 42.0181 41.8346 42.0839C41.8177 42.1 41.8043 42.1193 41.7952 42.1407C41.786 42.1621 41.7812 42.1852 41.7812 42.2085C41.7812 42.2318 41.786 42.2548 41.7952 42.2762C41.8043 42.2976 41.8177 42.317 41.8346 42.333L41.8754 42.3602C41.9283 42.3769 41.9856 42.3731 42.0359 42.3497C42.0862 42.3262 42.1259 42.2847 42.1472 42.2334C42.1887 42.1829 42.2181 42.1236 42.233 42.06C42.2479 41.9963 42.248 41.9301 42.2332 41.8665Z" fill="white"/>
<g opacity="0.3">
<path d="M39.6285 43.0398C39.5484 43.0417 39.4699 43.0628 39.3998 43.1015C39.3296 43.1401 39.2697 43.1951 39.2253 43.2618C39.2092 43.2778 39.1963 43.2968 39.1876 43.3178C39.1788 43.3388 39.1743 43.3613 39.1743 43.3841C39.1743 43.4068 39.1788 43.4294 39.1876 43.4503C39.1963 43.4713 39.2092 43.4904 39.2253 43.5064L39.2661 43.5336C39.3185 43.5495 39.375 43.5459 39.4249 43.5234C39.4749 43.5009 39.5151 43.4611 39.5379 43.4113C39.5792 43.3597 39.6087 43.2997 39.6243 43.2356C39.64 43.1714 39.6414 43.1046 39.6285 43.0398Z" fill="black"/>
</g>
<path d="M39.7241 42.9265C39.6448 42.9291 39.5672 42.9506 39.4979 42.9892C39.4286 43.0278 39.3694 43.0824 39.3255 43.1485C39.3087 43.1642 39.2954 43.1831 39.2863 43.2042C39.2772 43.2252 39.2725 43.2479 39.2725 43.2708C39.2725 43.2937 39.2772 43.3164 39.2863 43.3374C39.2954 43.3585 39.3087 43.3774 39.3255 43.3931C39.3377 43.4063 39.3534 43.4157 39.3708 43.4203C39.4232 43.4362 39.4796 43.4326 39.5296 43.4101C39.5796 43.3876 39.6197 43.3478 39.6426 43.298C39.6823 43.2457 39.7101 43.1854 39.7242 43.1212C39.7383 43.0571 39.7383 42.9906 39.7241 42.9265Z" fill="white"/>
<g opacity="0.3">
<path d="M44.657 39.3477C44.6179 39.4126 44.5972 39.487 44.5972 39.5628C44.5972 39.6387 44.6179 39.7131 44.657 39.778C44.6735 39.8237 44.706 39.8617 44.7486 39.8851C44.7911 39.9084 44.8407 39.9155 44.888 39.9049H44.9379C44.9587 39.8893 44.9761 39.8697 44.9892 39.8473C45.0023 39.8249 45.0108 39.8001 45.0142 39.7743C45.0176 39.7486 45.0158 39.7224 45.0089 39.6974C45.002 39.6723 44.9902 39.6489 44.9741 39.6285C44.9451 39.5613 44.9017 39.5013 44.8469 39.4527C44.7921 39.4042 44.7273 39.3683 44.657 39.3477Z" fill="black"/>
</g>
<path d="M44.6074 39.2119C44.5651 39.2741 44.5407 39.3466 44.5367 39.4217C44.5327 39.4967 44.5493 39.5714 44.5847 39.6377C44.6012 39.6836 44.6335 39.7221 44.6759 39.7462C44.7183 39.7704 44.7679 39.7785 44.8158 39.7691H44.8656C44.9517 39.7283 44.9653 39.5924 44.9018 39.4882C44.8743 39.4245 44.8339 39.367 44.7833 39.3195C44.7326 39.272 44.6728 39.2354 44.6074 39.2119Z" fill="white"/>
<g opacity="0.3">
<path d="M42.0749 39.8868C42.058 39.9614 42.0617 40.0392 42.0856 40.1118C42.1096 40.1844 42.1528 40.2492 42.2108 40.2991C42.2418 40.3369 42.2851 40.3626 42.3331 40.3717C42.3811 40.3808 42.4308 40.3727 42.4735 40.3489L42.5143 40.3172C42.5777 40.2492 42.5415 40.1179 42.4463 40.0409C42.3475 39.9427 42.2141 39.8874 42.0749 39.8868Z" fill="black"/>
</g>
<path d="M41.9755 39.7734C41.9626 39.8473 41.9683 39.9233 41.992 39.9944C42.0157 40.0656 42.0567 40.1298 42.1114 40.1812C42.1424 40.219 42.1857 40.2447 42.2337 40.2538C42.2817 40.2629 42.3314 40.2548 42.3741 40.231C42.3903 40.2242 42.4043 40.2132 42.4149 40.1993C42.4828 40.1359 42.4466 40.0045 42.3469 39.9275C42.2985 39.8783 42.2406 39.8393 42.1768 39.8128C42.113 39.7864 42.0445 39.773 41.9755 39.7734Z" fill="white"/>
<g opacity="0.3">
<path d="M47.9818 42.3828C47.9689 42.4567 47.9746 42.5326 47.9983 42.6038C48.0221 42.675 48.0631 42.7391 48.1177 42.7905C48.1487 42.8283 48.192 42.854 48.24 42.8631C48.2881 42.8722 48.3378 42.8642 48.3805 42.8403C48.3966 42.8335 48.4107 42.8226 48.4212 42.8086C48.4892 42.7407 48.4529 42.6093 48.3533 42.5368C48.3055 42.4868 48.2477 42.4472 48.1838 42.4207C48.1198 42.3942 48.051 42.3813 47.9818 42.3828Z" fill="black"/>
</g>
<path d="M47.887 42.2697C47.871 42.3436 47.8751 42.4204 47.8991 42.4922C47.923 42.5639 47.9658 42.6279 48.0229 42.6774C48.0539 42.7152 48.0972 42.7409 48.1452 42.75C48.1933 42.7591 48.243 42.751 48.2857 42.7272C48.3011 42.7192 48.3149 42.7085 48.3264 42.6955C48.3403 42.6733 48.3495 42.6486 48.3536 42.6227C48.3576 42.5969 48.3564 42.5705 48.3501 42.5452C48.3438 42.5198 48.3324 42.496 48.3166 42.4751C48.3009 42.4542 48.2811 42.4368 48.2585 42.4237C48.2102 42.3743 48.1523 42.3352 48.0885 42.3087C48.0247 42.2822 47.9561 42.2689 47.887 42.2697Z" fill="white"/>
<path d="M42.1203 51.5336H41.9301C41.8032 51.5336 41.6266 51.5336 41.4046 51.5336C40.8308 51.488 40.2603 51.4062 39.6968 51.2889C39.1376 51.1656 38.5868 51.0067 38.0478 50.8133C37.844 50.7363 37.6764 50.6729 37.5677 50.623L37.4363 50.5687L37.3955 50.546H37.4408L37.5722 50.5913L38.0614 50.768C39.1447 51.1396 40.2686 51.3799 41.4091 51.4837L41.9301 51.5245H42.0705L42.1203 51.5336Z" fill="white"/>
<path d="M37.1781 52.7069C37.1781 52.7069 37.1282 52.7069 37.0467 52.7069C36.945 52.6806 36.8495 52.6344 36.7658 52.571C36.6821 52.5113 36.6125 52.434 36.562 52.3445C36.5212 52.2765 36.5122 52.2312 36.5167 52.2267C36.598 52.3386 36.6923 52.4405 36.7976 52.5302C36.9159 52.6059 37.0439 52.6653 37.1781 52.7069Z" fill="white"/>
<path d="M44.7569 49.5675L44.621 49.5176L44.2676 49.3636C43.9687 49.2322 43.5564 49.0465 43.0989 48.8562C42.6414 48.666 42.2155 48.5074 41.9075 48.4032L41.5406 48.2719L41.4092 48.222C41.4569 48.2279 41.504 48.2385 41.5496 48.2538C41.6357 48.2809 41.7671 48.3172 41.9211 48.3715C42.2337 48.4712 42.6595 48.6252 43.1215 48.8245C43.5836 49.0239 43.9913 49.2051 44.2858 49.3455L44.63 49.5131L44.7569 49.5675Z" fill="white"/>
<path d="M44.9198 48.7838C44.8411 48.7644 44.7651 48.7355 44.6933 48.6978C44.5146 48.6167 44.3421 48.5228 44.1769 48.4169C44.0174 48.3137 43.866 48.1986 43.7239 48.0726C43.66 48.0256 43.6022 47.9708 43.5518 47.9095C43.6206 47.9506 43.6858 47.9976 43.7465 48.05C43.8689 48.136 44.0319 48.2538 44.1996 48.3761C44.3672 48.4985 44.5755 48.5981 44.7069 48.6661C44.7815 48.6985 44.8528 48.7379 44.9198 48.7838Z" fill="white"/>
<path d="M45.1596 46.5052H45.0237H44.6432C44.3216 46.5052 43.8776 46.5052 43.3929 46.4553C42.9082 46.4055 42.4643 46.3738 42.1472 46.333L41.7712 46.2786L41.6353 46.2469H41.7757L42.1517 46.2877C42.4688 46.3194 42.9082 46.3602 43.3974 46.3964C43.8867 46.4327 44.3261 46.4508 44.6432 46.4599H45.0237C45.0711 46.4677 45.117 46.4829 45.1596 46.5052Z" fill="white"/>
<path d="M47.8551 52.4759C47.8225 52.2844 47.8088 52.0902 47.8143 51.896C47.7976 51.7031 47.7976 51.5091 47.8143 51.3162C47.8501 51.5073 47.8653 51.7017 47.8596 51.896C47.8736 52.0891 47.8721 52.283 47.8551 52.4759Z" fill="#263238"/>
<path d="M39.393 47.6514C39.393 47.6514 39.3613 47.6514 39.3069 47.6514C39.2255 47.6564 39.1438 47.6564 39.0623 47.6514C38.7957 47.6415 38.5312 47.6004 38.2741 47.5291C38.0193 47.4585 37.7731 47.3598 37.5402 47.2346C37.4542 47.1848 37.3862 47.1395 37.3409 47.1078C37.2956 47.0761 37.2684 47.058 37.273 47.0535C37.2775 47.0489 37.3817 47.1123 37.5583 47.2029C37.7931 47.3158 38.0371 47.4083 38.2877 47.4793C38.5424 47.5497 38.8033 47.5952 39.0668 47.6152C39.2662 47.6469 39.393 47.6423 39.393 47.6514Z" fill="white"/>
<path d="M52.6073 39.8462C52.5012 39.8248 52.3978 39.7913 52.2993 39.7465L51.9414 39.6151C51.801 39.5698 51.6469 39.5109 51.4657 39.4566C51.2845 39.4022 51.0943 39.3388 50.8859 39.2799L50.2064 39.1032C49.7262 38.99 49.1962 38.8858 48.6299 38.7997C48.0637 38.7136 47.5246 38.6729 47.0263 38.6457C46.7817 38.6457 46.5461 38.6457 46.3241 38.6457C46.1022 38.6457 45.8983 38.6457 45.7126 38.6457C45.5269 38.6457 45.3547 38.6457 45.2052 38.6457H44.8247C44.7161 38.6518 44.6072 38.6518 44.4985 38.6457C44.6036 38.6173 44.7114 38.6006 44.8202 38.5959L45.2007 38.5551C45.3502 38.5551 45.5223 38.5279 45.7081 38.5234C45.8938 38.5188 46.1022 38.5234 46.3241 38.5234C46.5461 38.5234 46.7771 38.5234 47.0354 38.5234C47.5291 38.546 48.0773 38.5913 48.6481 38.6683C49.2188 38.7454 49.7534 38.8631 50.2336 38.9809C50.4737 39.0443 50.6866 39.1032 50.9131 39.1712C51.1396 39.2391 51.3163 39.298 51.4929 39.3614C51.6696 39.4249 51.8281 39.4792 51.9459 39.5336C52.0661 39.5758 52.1841 39.6242 52.2993 39.6785C52.4059 39.7268 52.5089 39.7828 52.6073 39.8462Z" fill="white"/>
<path d="M53.0876 40.0543C53.0711 40.0732 53.0485 40.0858 53.0237 40.0899C52.9989 40.094 52.9735 40.0895 52.9517 40.077C52.9019 40.0498 52.8747 39.9999 52.8928 39.9637C52.911 39.9275 52.9744 39.9184 53.0242 39.9411C53.074 39.9637 53.1057 40.0226 53.0876 40.0543Z" fill="white"/>
<defs>
<filter id="filter0_d_1348_1799" x="0" y="0" width="73" height="73" filterUnits="userSpaceOnUse" color-interpolation-filters="sRGB">
<feFlood flood-opacity="0" result="BackgroundImageFix"/>
<feColorMatrix in="SourceAlpha" type="matrix" values="0 0 0 0 0 0 0 0 0 0 0 0 0 0 0 0 0 0 127 0" result="hardAlpha"/>
<feOffset dy="1"/>
<feGaussianBlur stdDeviation="2"/>
<feComposite in2="hardAlpha" operator="out"/>
<feColorMatrix type="matrix" values="0 0 0 0 0 0 0 0 0 0 0 0 0 0 0 0 0 0 0.25 0"/>
<feBlend mode="normal" in2="BackgroundImageFix" result="effect1_dropShadow_1348_1799"/>
<feBlend mode="normal" in="SourceGraphic" in2="effect1_dropShadow_1348_1799" result="shape"/>
</filter>
</defs>
</svg>
