<svg width="73" height="74" viewBox="0 0 73 74" fill="none" xmlns="http://www.w3.org/2000/svg">
<g filter="url(#filter0_d_1348_2226)">
<g filter="url(#filter1_d_1348_2226)">
<circle cx="36.5" cy="35.5" r="32.5" fill="#FFFEFE"/>
</g>
<mask id="mask0_1348_2226" style="mask-type:alpha" maskUnits="userSpaceOnUse" x="4" y="3" width="65" height="65">
<circle cx="36.5" cy="35.5" r="32.5" fill="#FFFEFE"/>
</mask>
<g mask="url(#mask0_1348_2226)">
<path d="M55.7203 32.4794C55.7203 32.4794 59.0283 33.0372 59.2949 33.109C59.5615 33.1808 60.6095 33.6771 60.6628 33.997C60.6905 34.4169 60.6905 34.8383 60.6628 35.2582C60.6628 35.2582 60.4721 35.4121 60.3552 35.1044C60.2768 34.8055 60.2429 34.4966 60.2547 34.1877L59.6682 33.9621L59.9881 34.5302L60.0414 35.8612C60.0414 35.8612 59.6313 35.8243 59.5513 35.5064C59.501 35.285 59.4748 35.0587 59.4733 34.8317L59.0468 34.4707L59.3667 34.9035L59.4733 35.8612C59.4733 35.8612 59.1616 35.9637 59.0632 35.7504C58.9911 35.4739 58.9553 35.1892 58.9565 34.9035L57.7506 34.481L56.9529 34.926L55.4619 34.0934L55.7203 32.4794Z" fill="#FFBE9D"/>
<path d="M44.1379 24.3027C44.1543 24.3684 48.1247 29.84 48.1247 29.84L56.1025 32.3215L55.7395 35.3177L45.9632 33.3489L42.4932 29.3662L44.1379 24.3027Z" fill="#EC7505"/>
<g opacity="0.2">
<path d="M44.1379 24.3027C44.1543 24.3684 48.1247 29.84 48.1247 29.84L56.1025 32.3215L55.7395 35.3177L45.9632 33.3489L42.4932 29.3662L44.1379 24.3027Z" fill="black"/>
</g>
<path d="M30.2424 31.8273H13.9424C13.5969 31.8273 13.3169 32.1073 13.3169 32.4528V34.3785C13.3169 34.724 13.5969 35.004 13.9424 35.004H30.2424C30.5878 35.004 30.8679 34.724 30.8679 34.3785V32.4528C30.8679 32.1073 30.5878 31.8273 30.2424 31.8273Z" fill="#F5F5F5"/>
<path d="M30.2438 35.004C30.2438 35.004 30.2786 35.004 30.3463 34.9897C30.4767 34.9657 30.5959 34.9002 30.686 34.803C30.7762 34.7058 30.8326 34.5821 30.8467 34.4503C30.8467 34.2575 30.8467 34.0278 30.8467 33.7735C30.8467 33.5192 30.8467 33.2341 30.8467 32.9245C30.8467 32.7686 30.8467 32.6066 30.8467 32.4384C30.844 32.3552 30.8244 32.2734 30.7892 32.198C30.7539 32.1225 30.7037 32.055 30.6416 31.9995C30.5743 31.9426 30.4951 31.9013 30.4099 31.8786C30.319 31.8588 30.2257 31.8525 30.133 31.8601H29.5342H28.2319L13.9561 31.8765C13.8763 31.8764 13.7973 31.8929 13.7242 31.9251C13.6511 31.9572 13.5855 32.0042 13.5316 32.0631C13.4783 32.1227 13.4377 32.1926 13.4124 32.2684C13.387 32.3442 13.3773 32.4244 13.3839 32.5041C13.3839 32.8486 13.3839 33.1911 13.3839 33.5295V34.2985C13.38 34.377 13.3869 34.4557 13.4044 34.5323C13.4351 34.6432 13.498 34.7424 13.5854 34.8173C13.6727 34.8922 13.7803 34.9394 13.8946 34.9527C13.9664 34.9527 14.0545 34.9527 14.1366 34.9527H17.9265L24.3435 34.965L28.6708 34.9815L29.848 34.9917L28.6708 35.002L24.3435 35.0184L17.9265 35.0307H14.1222C14.0381 35.0307 13.9602 35.0307 13.8679 35.0307C13.7787 35.0199 13.6923 34.9921 13.6136 34.9486C13.5352 34.9051 13.4662 34.8464 13.4105 34.776C13.3549 34.7056 13.3138 34.6249 13.2896 34.5385C13.2675 34.4528 13.2592 34.3642 13.265 34.276V33.5151C13.265 33.1767 13.265 32.8342 13.265 32.4897C13.2595 32.3967 13.2724 32.3035 13.3031 32.2156C13.3337 32.1276 13.3814 32.0465 13.4434 31.977C13.5069 31.9068 13.5844 31.8508 13.671 31.8126C13.7576 31.7745 13.8512 31.755 13.9458 31.7555L28.2217 31.7719H30.1228C30.2212 31.7679 30.3197 31.7761 30.4161 31.7965C30.5099 31.822 30.5968 31.8682 30.6704 31.9319C30.7397 31.992 30.7958 32.0659 30.835 32.1489C30.8742 32.2318 30.8956 32.3221 30.898 32.4138C30.898 32.582 30.898 32.7461 30.898 32.9019C30.898 33.2116 30.898 33.4946 30.898 33.751C30.898 34.0073 30.898 34.2309 30.8877 34.4318C30.865 34.6019 30.7758 34.7561 30.6396 34.8605C30.5566 34.9226 30.4593 34.9629 30.3566 34.9774C30.3206 34.9922 30.2826 35.0012 30.2438 35.004Z" fill="#263238"/>
<path d="M74.5012 75.597C79.1272 75.3748 82.6972 71.4445 82.475 66.8185C82.2528 62.1924 78.3225 58.6224 73.6965 58.8446C69.0705 59.0668 65.5004 62.9971 65.7226 67.6231C65.9449 72.2492 69.8751 75.8192 74.5012 75.597Z" fill="#263238"/>
<path d="M65.7166 67.0791C65.7166 67.0791 65.7166 67.0935 65.7166 67.1017C65.698 69.3169 66.5567 71.4495 68.1052 73.0337C69.6536 74.618 71.7661 75.5251 73.9811 75.5571C76.1962 75.589 78.334 74.7432 79.9275 73.2043C81.521 71.6654 82.4409 69.5585 82.4862 67.3437C82.4862 67.3437 82.4862 67.3293 82.4862 67.3211L65.7166 67.0791Z" fill="#263238"/>
<path d="M68.2125 67.1364C68.1956 68.3008 68.5244 69.4441 69.1573 70.4217C69.7901 71.3993 70.6987 72.1672 71.768 72.6284C72.8374 73.0896 74.0195 73.2234 75.1648 73.0127C76.3102 72.8021 77.3673 72.2565 78.2026 71.4451C79.0379 70.6336 79.6138 69.5926 79.8575 68.4539C80.1011 67.3151 80.0016 66.1296 79.5715 65.0474C79.1414 63.9652 78.4001 63.0348 77.4412 62.3739C76.4823 61.713 75.349 61.3513 74.1845 61.3346C72.6233 61.3121 71.117 61.9107 69.9971 62.9988C68.8771 64.0868 68.2352 65.5751 68.2125 67.1364Z" fill="#FAFAFA"/>
<path d="M74.1849 61.3346C72.6236 61.3121 71.1174 61.9107 69.9974 62.9988C68.8775 64.0868 68.2356 65.5751 68.2129 67.1364L79.9867 67.3066C80.0092 65.7453 79.4105 64.2391 78.3225 63.1191C77.2345 61.9992 75.7462 61.3573 74.1849 61.3346Z" fill="#E0E0E0"/>
<path d="M70.1205 54.9259C70.1205 54.9259 78.7053 52.3296 82.2553 61.6568L64.29 67.2227L70.1205 54.9259Z" fill="#EC7505"/>
<path d="M22.7634 75.5976C27.3894 75.3754 30.9594 71.4451 30.7372 66.8191C30.515 62.193 26.5847 58.623 21.9587 58.8452C17.3327 59.0674 13.7627 62.9977 13.9849 67.6237C14.2071 72.2498 18.1373 75.8198 22.7634 75.5976Z" fill="#263238"/>
<path d="M13.9759 67.0791C13.9759 67.0791 13.9759 67.0935 13.9759 67.1017C13.9573 69.3169 14.816 71.4495 16.3644 73.0337C17.9129 74.618 20.0253 75.5251 22.2404 75.5571C24.4555 75.589 26.5932 74.7432 28.1868 73.2043C29.7803 71.6654 30.7002 69.5585 30.7455 67.3437V67.317L13.9759 67.0791Z" fill="#263238"/>
<path d="M16.4796 67.1364C16.4627 68.3008 16.7915 69.4441 17.4244 70.4217C18.0572 71.3993 18.9658 72.1672 20.0351 72.6284C21.1045 73.0896 22.2866 73.2234 23.4319 73.0127C24.5773 72.8021 25.6344 72.2565 26.4697 71.4451C27.305 70.6336 27.8809 69.5926 28.1245 68.4539C28.3682 67.3151 28.2687 66.1296 27.8386 65.0474C27.4085 63.9652 26.6671 63.0348 25.7083 62.3739C24.7494 61.713 23.6161 61.3513 22.4516 61.3346C20.8904 61.3121 19.3841 61.9107 18.2642 62.9988C17.1442 64.0868 16.5023 65.5751 16.4796 67.1364Z" fill="#FAFAFA"/>
<path d="M22.4438 61.3347C20.8839 61.3145 19.3798 61.914 18.2616 63.0018C17.1434 64.0896 16.5027 65.5767 16.48 67.1365L28.2538 67.3067C28.2649 66.533 28.1234 65.7646 27.8373 65.0456C27.5513 64.3266 27.1263 63.671 26.5867 63.1164C26.0471 62.5617 25.4035 62.1189 24.6926 61.8132C23.9817 61.5075 23.2175 61.3449 22.4438 61.3347Z" fill="#E0E0E0"/>
<path d="M18.7729 67.1692C18.7624 67.8786 18.9625 68.5752 19.348 69.1708C19.7334 69.7665 20.2868 70.2344 20.9382 70.5155C21.5897 70.7966 22.3098 70.8782 23.0076 70.75C23.7054 70.6218 24.3495 70.2895 24.8584 69.7952C25.3674 69.3009 25.7183 68.6668 25.8668 67.973C26.0153 67.2792 25.9548 66.557 25.6928 65.8977C25.4308 65.2383 24.9792 64.6715 24.395 64.2689C23.8109 63.8662 23.1204 63.6458 22.411 63.6356C21.46 63.6219 20.5425 63.9865 19.8603 64.6491C19.178 65.3118 18.7869 66.2182 18.7729 67.1692Z" fill="#263238"/>
<path d="M34.2876 63.855C34.2404 63.8796 29.8742 63.1803 29.8742 63.1803C29.6381 63.4885 29.3376 63.7413 28.9937 63.9213C28.6497 64.1012 28.2706 64.2039 27.8829 64.2221C25.9961 64.3124 24.1524 64.3964 22.5507 64.4682C21.8351 64.5002 21.1613 64.8145 20.6769 65.3423C20.1926 65.87 19.9372 66.5683 19.9667 67.284C19.9954 67.9633 20.2786 68.607 20.76 69.0872C21.2413 69.5674 21.8857 69.8491 22.5651 69.8763L31.8615 70.2434C33.3893 70.3028 35.4196 69.3759 36.3733 68.1802L34.2876 63.855Z" fill="#455A64"/>
<path d="M11.4723 60.1388C11.4723 60.1388 11.0744 51.9663 18.7548 50.2641V49.2161H45.6575V51.7304C45.6575 51.7304 41.7097 56.4863 42.9915 60.4341C44.2732 64.382 44.6834 64.786 44.6834 64.786H59.9949C61.2031 63.0879 61.8766 61.0676 61.9288 58.9842C62.0108 55.5183 60.5712 49.5935 59.4945 45.8056C58.5224 42.3499 57.9071 39.4706 57.9071 39.4706L62.501 37.9386C62.501 37.9386 71.0017 49.0643 71.3483 49.6796C71.6949 50.2948 72.8761 51.7632 72.5993 54.9584C72.3224 58.1536 64.6749 68.0099 62.6692 69.1215C60.6634 70.233 58.8505 70.3027 57.0437 70.5796C55.4769 70.8216 43.8856 70.6616 40.8524 70.6145C39.7984 70.6078 38.7651 70.3212 37.8582 69.7839C36.9518 69.2343 36.2709 68.3237 35.5182 66.8307L33.9124 63.7052L11.4723 60.1388Z" fill="#EC7505"/>
<path d="M13.5311 59.5771L10.1431 64.8847C10.0425 65.0318 9.99262 65.2077 10.0009 65.3857C10.0091 65.5637 10.0751 65.7342 10.1889 65.8713C10.3027 66.0085 10.458 66.1049 10.6314 66.1459C10.8048 66.187 10.9869 66.1704 11.1501 66.0988C11.5717 65.9103 11.9569 65.6493 12.2883 65.3277C13.8367 63.8531 16.595 59.9689 16.595 59.9689L13.5311 59.5771Z" fill="#455A64"/>
<path d="M37.8315 60.5327C37.8315 60.5327 37.8315 60.5061 37.852 60.4548L37.9197 60.2312C38.0012 59.9443 38.0609 59.6515 38.0981 59.3555C38.2116 58.26 38.0304 57.1541 37.5731 56.1521C37.2656 55.4607 36.8433 54.8262 36.3241 54.2756C35.7279 53.6468 35.0357 53.1166 34.2733 52.7047C33.4284 52.2484 32.5242 51.9116 31.5867 51.7039C30.576 51.4859 29.5444 51.3793 28.5105 51.386C27.4811 51.3935 26.4535 51.4695 25.4342 51.6137C24.4416 51.747 23.49 51.911 22.5918 52.1161C20.997 52.4548 19.46 53.0233 18.0287 53.8039C17.0675 54.3373 16.1894 55.0082 15.4221 55.7953C15.1514 56.0742 14.9566 56.3059 14.8273 56.4639L14.6817 56.6464C14.6662 56.6681 14.6483 56.688 14.6284 56.7059C14.8547 56.371 15.11 56.0567 15.3913 55.7666C16.1521 54.9645 17.0286 54.2808 17.9918 53.7383C19.4256 52.9436 20.9686 52.3645 22.5713 52.0197C23.4695 51.8146 24.417 51.6444 25.4199 51.5091C26.4472 51.3636 27.4832 51.2869 28.5207 51.2794C29.5603 51.2724 30.5975 51.3804 31.6134 51.6013C32.5602 51.8162 33.4726 52.1613 34.3246 52.6268C35.0977 53.0445 35.799 53.5832 36.4021 54.2223C36.925 54.7824 37.3487 55.4273 37.6551 56.1296C38.1106 57.1449 38.2821 58.2648 38.1514 59.3699C38.1083 59.6671 38.0397 59.9601 37.9463 60.2456C37.9135 60.3399 37.8889 60.4117 37.8684 60.4671C37.858 60.49 37.8457 60.512 37.8315 60.5327Z" fill="#263238"/>
<path d="M36.2835 58.7034C36.2712 58.7034 36.3266 58.5742 36.384 58.3404C36.4609 58.0039 36.4713 57.6556 36.4148 57.315C36.335 56.8144 36.1654 56.3322 35.9144 55.8917C35.7723 55.6282 35.6062 55.3783 35.4181 55.1452C35.2212 54.8918 34.9978 54.6601 34.7516 54.4541C34.2717 54.059 33.7316 53.7433 33.1519 53.5189C32.6776 53.3329 32.1856 53.1955 31.6835 53.1088C31.3441 53.0515 31.0018 53.0124 30.6581 52.9919C30.5319 52.9902 30.4058 52.9806 30.2808 52.9632C30.3134 52.9582 30.3466 52.9582 30.3792 52.9632C30.4428 52.9632 30.5371 52.9632 30.6602 52.9632C31.0035 52.9682 31.346 52.9963 31.6856 53.0472C32.1957 53.1205 32.6963 53.249 33.1786 53.4308C33.7732 53.6547 34.3274 53.974 34.8192 54.3762C35.0703 54.5876 35.2985 54.8247 35.5001 55.0837C35.6887 55.3234 35.8554 55.5794 35.9985 55.8487C36.2523 56.3 36.418 56.7956 36.4866 57.3089C36.5375 57.6554 36.5159 58.0088 36.423 58.3466C36.3987 58.4377 36.3658 58.5263 36.3246 58.6111C36.3153 58.6437 36.3015 58.6747 36.2835 58.7034Z" fill="#F5F5F5"/>
<g opacity="0.4">
<path d="M31.0146 51.5379C32.4627 51.8024 33.8411 52.3607 35.065 53.1785C36.2956 53.9956 37.2433 55.1733 37.7783 56.5501C38.3156 57.9324 38.2356 59.7637 37.6696 60.9081L39.5707 61.066C40.2106 58.9311 39.5153 56.3122 37.9772 54.6408C37.0971 53.6662 36.0232 52.886 34.8243 52.3503C33.6254 51.8146 32.3278 51.5351 31.0146 51.5297" fill="black"/>
</g>
<path d="M30.4074 34.844H13.7772C12.8054 34.844 12.0176 35.6318 12.0176 36.6036V47.4627C12.0176 48.4346 12.8054 49.2224 13.7772 49.2224H30.4074C31.3792 49.2224 32.167 48.4346 32.167 47.4627V36.6036C32.167 35.6318 31.3792 34.844 30.4074 34.844Z" fill="#455A64"/>
<path d="M32.1667 38.0516C32.1667 38.0824 27.6364 38.1049 22.0499 38.1049C16.4635 38.1049 11.9312 38.0824 11.9312 38.0516C11.9312 38.0208 16.4594 37.9983 22.0499 37.9983C27.6405 37.9983 32.1667 38.0229 32.1667 38.0516Z" fill="#263238"/>
<path d="M45.6452 50.1738C45.6452 50.2025 39.5973 50.2271 32.1404 50.2271C24.6836 50.2271 18.6357 50.2025 18.6357 50.1738C18.6357 50.1451 24.6816 50.1205 32.1404 50.1205C39.5993 50.1205 45.6452 50.1451 45.6452 50.1738Z" fill="#263238"/>
<path d="M45.6576 49.2226C45.9317 48.8753 46.101 48.4569 46.1457 48.0167C46.1867 47.342 45.8791 46.4971 45.1511 46.4971H35.8608C35.1379 46.4971 34.4447 46.7842 33.9335 47.2954C33.4224 47.8065 33.1353 48.4998 33.1353 49.2226H45.6576Z" fill="#455A64"/>
<path d="M57.9064 39.4708L56.2903 36.1013C56.0746 35.6387 56.0391 35.1123 56.1908 34.625C56.3425 34.1376 56.6705 33.7244 57.1106 33.4659L61.9424 30.5845C62.1944 30.433 62.483 30.3528 62.7771 30.3528H63.821L64.2311 37.1636L62.6233 37.785L63.6487 39.4421L57.9064 39.4708Z" fill="#EC7505"/>
<path d="M63.8359 30.6069C63.8359 30.6069 65.4889 30.9863 65.696 33.5335C65.9032 36.0806 64.2379 36.8763 64.2379 36.8763L63.8359 30.6069Z" fill="#EBEBEB"/>
<path d="M58.4713 34.7805C58.4713 34.7805 55.1305 36.3637 54.7224 36.6262C54.4394 36.8067 54.1974 37.1225 54.4189 37.6783C54.7962 38.6238 56.359 37.7337 56.359 37.7337L59.4701 36.1792C59.4701 36.1792 60.6657 35.6152 60.2227 34.9076C59.7285 34.116 58.4713 34.7805 58.4713 34.7805Z" fill="#263238"/>
<path d="M53.742 34.2042C53.742 34.2042 56.8818 34.7415 57.1484 34.8195C57.415 34.8974 58.461 35.3875 58.5143 35.7075C58.5419 36.1274 58.5419 36.5488 58.5143 36.9687C58.5143 36.9687 58.3256 37.1225 58.2067 36.8149C58.1293 36.5151 58.0955 36.2056 58.1062 35.8962L57.5196 35.6706L57.8395 36.2386L57.8929 37.5717C57.8929 37.5717 57.4827 37.5348 57.4048 37.2148C57.3544 36.9941 57.3283 36.7686 57.3268 36.5422L56.8982 36.1792L57.2182 36.6119L57.3268 37.5717C57.3268 37.5717 57.0151 37.6722 56.9167 37.4589C56.8445 37.1824 56.8087 36.8977 56.81 36.6119L55.6042 36.1915L54.8064 36.6365L53.5513 35.9392L53.742 34.2042Z" fill="#FFBE9D"/>
<path d="M58.6311 29.8318C58.6311 31.1033 58.0466 32.1328 57.3268 32.1328C56.6069 32.1328 56.0225 31.1074 56.0225 29.8318C56.0225 28.5562 56.6049 27.5308 57.3268 27.5308C58.0487 27.5308 58.6311 28.5562 58.6311 29.8318Z" fill="#263238"/>
<path d="M57.54 31.413L58.2578 33.8986C58.3888 33.8326 58.4934 33.7239 58.5542 33.5904C58.615 33.4568 58.6284 33.3066 58.5921 33.1644C58.4116 32.3133 58.3091 31.7083 58.1122 30.9618C58.0876 30.888 57.54 31.413 57.54 31.413Z" fill="#263238"/>
<g opacity="0.4">
<path d="M43.3462 61.4866C43.2765 61.2815 43.2026 61.0764 43.1411 60.857C43.0796 60.6375 43.0017 60.4468 42.9483 60.2417C42.8657 59.9341 42.8053 59.6208 42.7679 59.3045C41.5579 64.2265 43.4057 67.6985 46.5763 67.9426C51.2111 68.2994 56.8612 68.5578 59.1458 67.959C63.311 66.8659 64.8389 63.3918 65.2039 62.8196C65.569 62.2474 68.8811 56.1913 66.8446 50.3608C64.8081 44.5303 61.2766 38.3389 61.2766 38.3389L57.9071 39.4709C57.9071 39.4709 58.5223 42.3421 59.5006 45.7957C60.5773 49.5836 62.0169 55.5084 61.9349 58.9743C61.8827 61.0577 61.2093 63.078 60.001 64.7761H44.6915C44.6915 64.7761 44.3634 64.448 43.3523 61.4948" fill="black"/>
</g>
<path d="M10.8603 58.8633L10.969 57.6943L38.9177 60.9141C39.2913 60.9581 39.6519 61.0779 39.9774 61.2662C40.303 61.4546 40.5866 61.7074 40.8109 62.0093C41.0352 62.3112 41.1955 62.6558 41.2818 63.0218C41.3682 63.3879 41.3788 63.7677 41.3131 64.138L41.188 64.8456L12.2713 60.6434C11.8519 60.586 11.4709 60.3688 11.2079 60.037C10.945 59.7053 10.8204 59.2847 10.8603 58.8633Z" fill="#EC7505"/>
<g opacity="0.6">
<path d="M10.8603 58.8633L10.969 57.6943L38.9177 60.9141C39.2913 60.9581 39.6519 61.0779 39.9774 61.2662C40.303 61.4546 40.5866 61.7074 40.8109 62.0093C41.0352 62.3112 41.1955 62.6558 41.2818 63.0218C41.3682 63.3879 41.3788 63.7677 41.3131 64.138L41.188 64.8456L12.2713 60.6434C11.8519 60.586 11.4709 60.3688 11.2079 60.037C10.945 59.7053 10.8204 59.2847 10.8603 58.8633Z" fill="black"/>
</g>
<g opacity="0.3">
<path d="M65.2041 66.6812C65.2041 66.6812 71.3566 59.9134 72.6261 54.5936C73.2639 54.5899 73.901 54.6372 74.5313 54.7351C74.5313 54.7351 70.8931 64.6262 65.2041 66.6812Z" fill="black"/>
</g>
<path d="M72.5358 52.2106C72.5517 52.2662 72.5627 52.3232 72.5686 52.3808C72.585 52.4936 72.6179 52.6597 72.6384 52.875C72.6984 53.4899 72.6825 54.1098 72.5912 54.7208C72.4467 55.6231 72.1703 56.4993 71.7709 57.3212C71.2835 58.3219 70.7398 59.2942 70.1425 60.2334C69.0705 61.9475 67.8664 63.5753 66.5412 65.1021C66.0408 65.6948 65.6266 66.1665 65.3395 66.4905L65.0072 66.8617C64.9695 66.9058 64.9291 66.9476 64.8862 66.9868C64.9167 66.9378 64.9517 66.8918 64.9908 66.8494L65.3087 66.4638L66.4838 65.0549C67.7881 63.5165 68.9806 61.8867 70.0523 60.178C70.6503 59.2419 71.1979 58.2746 71.6929 57.2802C72.0872 56.4663 72.3634 55.6003 72.5133 54.7085C72.6075 54.1063 72.6343 53.4955 72.5932 52.8873C72.5789 52.672 72.5522 52.5059 72.544 52.391C72.5353 52.3313 72.5325 52.2709 72.5358 52.2106Z" fill="#263238"/>
<path d="M61.9004 66.6319C61.5481 66.3623 61.2182 66.0646 60.914 65.7418C60.5856 65.4443 60.2811 65.1213 60.0034 64.7759C60.6847 65.3424 61.3192 65.9631 61.9004 66.6319Z" fill="#263238"/>
<path d="M43.6396 66.4248C43.7387 66.1088 43.8921 65.8125 44.0929 65.5491C44.2639 65.2658 44.4825 65.014 44.7389 64.8047C44.7615 64.8272 44.4805 65.1636 44.1811 65.6086C43.8816 66.0536 43.6684 66.4371 43.6396 66.4248Z" fill="#263238"/>
<path d="M31.8192 70.3318C32.1557 70.0249 32.4391 69.6646 32.658 69.2653C32.8876 68.8293 33.0271 68.3516 33.0682 67.8605C33.1303 67.2618 33.0257 66.6576 32.7658 66.1147C32.506 65.5718 32.101 65.1113 31.5957 64.7843C31.1883 64.5075 30.7294 64.3157 30.2462 64.2203C29.7985 64.1394 29.3404 64.1332 28.8906 64.2018C28.9195 64.1894 28.9498 64.1804 28.9809 64.1752C29.0699 64.1518 29.1603 64.134 29.2516 64.1218C29.5871 64.0769 29.9276 64.0852 30.2606 64.1465C30.7573 64.2342 31.2307 64.4233 31.651 64.7022C32.1765 65.036 32.5974 65.5109 32.8654 66.0728C33.1334 66.6346 33.2378 67.2606 33.1666 67.879C33.1195 68.3829 32.9687 68.8717 32.7236 69.3145C32.5624 69.6122 32.3547 69.8822 32.1084 70.1144C32.0439 70.1782 31.9754 70.2378 31.9033 70.2928C31.8769 70.3091 31.8487 70.3222 31.8192 70.3318Z" fill="#263238"/>
<path d="M21.608 68.1887C21.5376 67.8654 21.5039 67.5351 21.5075 67.2043C21.4721 66.8744 21.4721 66.5416 21.5075 66.2117C21.6099 66.8654 21.6415 67.5282 21.6018 68.1887H21.608Z" fill="#263238"/>
<path d="M22.3538 68.1906C22.2003 67.5409 22.1158 66.8769 22.1016 66.2095C22.195 66.5305 22.2548 66.8604 22.28 67.1939C22.3394 67.5226 22.3641 67.8567 22.3538 68.1906Z" fill="#263238"/>
<path d="M33.8822 49.2226C33.8822 49.2513 30.484 49.276 26.2941 49.276C22.1043 49.276 18.7061 49.2513 18.7061 49.2226C18.7061 49.1939 22.1043 49.1693 26.2941 49.1693C30.484 49.1693 33.8822 49.1919 33.8822 49.2226Z" fill="#263238"/>
<path d="M22.8771 49.2121C22.8463 49.2121 22.8237 45.3156 22.8237 40.5207C22.8237 35.7259 22.8381 31.8375 22.8771 31.8375C22.916 31.8375 22.9304 35.7341 22.9304 40.531C22.9304 45.3279 22.9058 49.2121 22.8771 49.2121Z" fill="#263238"/>
<path d="M20.7868 49.1978C20.7581 49.1978 20.9037 45.3012 21.1129 40.5105C21.3221 35.7197 21.5231 31.8252 21.5436 31.8273C21.5641 31.8293 21.4287 35.7238 21.2195 40.5146C21.0104 45.3053 20.8258 49.1998 20.7868 49.1978Z" fill="#263238"/>
<path d="M16.0887 72.9158C16.0557 72.888 16.0255 72.8571 15.9985 72.8235C15.9451 72.762 15.857 72.6738 15.7606 72.5487C15.4771 72.2004 15.2239 71.8285 15.0038 71.4371C14.2615 70.1412 13.8738 68.6725 13.88 67.179C13.8861 65.6855 14.2857 64.2201 15.0387 62.9303C15.2611 62.5403 15.517 62.1704 15.8036 61.8249C15.9021 61.6998 15.9903 61.6198 16.0456 61.5501C16.101 61.4803 16.1338 61.4578 16.1359 61.4619C16.1156 61.499 16.0908 61.5334 16.062 61.5644C16.0128 61.6321 15.9287 61.7223 15.8365 61.8515C14.7844 63.1917 14.1506 64.8121 14.0142 66.5103C13.8778 68.2086 14.2448 69.9093 15.0694 71.4002C15.2818 71.7921 15.5238 72.1671 15.7934 72.522C15.8836 72.6512 15.9657 72.7435 16.0149 72.8112C16.0641 72.8789 16.0928 72.9117 16.0887 72.9158Z" fill="#455A64"/>
<path d="M45.4692 57.2903L45.4056 57.4092L44.1669 59.7287L42.436 61.394L45.8958 66.0002L48.7772 65.5223C48.7772 65.5223 48.4552 64.864 47.0073 64.7368L46.4598 61.9846L48.4921 58.8346" fill="#455A64"/>
<path d="M42.4399 61.4002L45.8997 66.0064L48.7811 65.5285L48.3853 65.1491L46.0207 65.4075L42.8091 61.0454L42.4399 61.4002Z" fill="#E0E0E0"/>
<path d="M46.7812 63.4777C46.7648 63.5106 46.5761 63.4429 46.371 63.488C46.1659 63.5331 45.9998 63.65 45.9732 63.6254C45.9465 63.6008 46.0757 63.408 46.3464 63.3609C46.6171 63.3137 46.8037 63.4511 46.7812 63.4777Z" fill="#263238"/>
<path d="M46.627 62.8048C46.6024 62.8294 46.4445 62.6818 46.2169 62.6735C45.9892 62.6653 45.8067 62.8028 45.7882 62.7761C45.7698 62.7494 45.8026 62.7125 45.8764 62.653C45.9762 62.5802 46.0975 62.5427 46.221 62.5464C46.3446 62.5496 46.4633 62.5953 46.5573 62.6756C46.6127 62.733 46.627 62.7884 46.627 62.8048Z" fill="#263238"/>
<path d="M46.4952 61.9131C46.4665 61.9357 46.3394 61.7859 46.1281 61.749C45.9169 61.7121 45.7467 61.8085 45.718 61.7777C45.6893 61.747 45.7364 61.7183 45.8123 61.6752C45.9125 61.6222 46.0275 61.6043 46.1391 61.6243C46.2506 61.6444 46.3522 61.7013 46.4276 61.7859C46.4973 61.8516 46.5096 61.9049 46.4952 61.9131Z" fill="#263238"/>
<path d="M47.1505 61.103C47.1198 61.1194 47.0111 60.9697 46.8121 60.8836C46.6132 60.7974 46.4327 60.8097 46.4245 60.7749C46.4163 60.74 46.6296 60.6559 46.8655 60.7749C47.1013 60.8938 47.1854 61.0928 47.1505 61.103Z" fill="#263238"/>
<path d="M47.4299 60.4487C47.4155 60.459 47.3027 60.3605 47.1284 60.1883L46.8331 59.8827C46.7662 59.8229 46.7082 59.7538 46.6608 59.6776C46.6471 59.6502 46.6389 59.6203 46.6368 59.5896C46.6347 59.559 46.6387 59.5283 46.6485 59.4992C46.6602 59.466 46.6814 59.437 46.7095 59.4159C46.7376 59.3947 46.7713 59.3823 46.8064 59.3802C46.9114 59.3817 47.0136 59.4145 47.0997 59.4746C47.1748 59.5227 47.2437 59.5798 47.3048 59.6448C47.4067 59.757 47.4818 59.891 47.5242 60.0365C47.5782 60.1679 47.5782 60.3153 47.5242 60.4467C47.5034 60.3199 47.4746 60.1946 47.4381 60.0714C47.3881 59.9452 47.3135 59.8301 47.2187 59.733C47.1627 59.6775 47.1 59.6293 47.032 59.5894C46.9668 59.5468 46.8922 59.5208 46.8146 59.5136C46.8039 59.5137 46.7934 59.5171 46.7846 59.5234C46.7758 59.5296 46.7692 59.5383 46.7654 59.5484C46.7544 59.5754 46.7544 59.6056 46.7654 59.6325C46.8054 59.6985 46.8536 59.7592 46.909 59.813L47.1899 60.1391C47.286 60.2288 47.367 60.3334 47.4299 60.4487Z" fill="#263238"/>
<path d="M47.5461 60.5164C47.5317 60.5164 47.5174 60.3646 47.6445 60.1657C47.731 60.0344 47.8576 59.9346 48.0054 59.881C48.1532 59.8274 48.3143 59.823 48.4649 59.8683C48.4814 59.8791 48.4954 59.8933 48.506 59.9099C48.5166 59.9265 48.5235 59.9452 48.5264 59.9647C48.5291 59.9982 48.522 60.0317 48.5059 60.0611C48.4829 60.1021 48.4531 60.1389 48.4177 60.1698C48.3606 60.225 48.2989 60.275 48.2331 60.3195C48.1223 60.3941 48.0005 60.4508 47.8722 60.4877C47.7576 60.5341 47.6314 60.5434 47.5112 60.5143C47.5112 60.4938 47.6445 60.4815 47.8435 60.4015C47.958 60.3561 48.0662 60.2962 48.1654 60.2231C48.224 60.1799 48.2789 60.1319 48.3295 60.0796C48.3544 60.0577 48.3759 60.0321 48.3931 60.0037C48.4033 59.975 48.3931 59.9832 48.3931 59.977C48.3652 59.9651 48.3352 59.9588 48.3049 59.9586C48.2687 59.9555 48.2324 59.9555 48.1962 59.9586C48.1258 59.9648 48.0567 59.9814 47.9911 60.0078C47.8803 60.0509 47.7822 60.1215 47.7061 60.2129C47.646 60.3103 47.5925 60.4117 47.5461 60.5164Z" fill="#263238"/>
<path d="M44.7241 60.9307C44.7354 60.9983 44.7263 61.0678 44.6981 61.1303C44.6699 61.1928 44.6237 61.2456 44.5655 61.2818C44.5073 61.3181 44.4396 61.3363 44.371 61.3341C44.3025 61.3318 44.2361 61.3093 44.1804 61.2694C44.1246 61.2294 44.082 61.1738 44.0578 61.1096C44.0337 61.0454 44.0291 60.9755 44.0447 60.9087C44.0604 60.8419 44.0955 60.7813 44.1456 60.7344C44.1957 60.6876 44.2586 60.6567 44.3263 60.6456C44.4167 60.6313 44.5092 60.6533 44.5836 60.7066C44.6581 60.7599 44.7085 60.8404 44.7241 60.9307Z" fill="#E0E0E0"/>
<path d="M55.9697 59.5051L56.8947 65.5099L64.374 64.3984C64.2223 63.6909 60.1411 62.8316 60.1411 62.8316L59.7063 58.9596L55.9697 59.5051Z" fill="#455A64"/>
<path d="M57.7808 62.8523C57.7118 62.8847 57.6573 62.9414 57.6277 63.0116C57.5981 63.0817 57.5956 63.1604 57.6206 63.2324C57.651 63.302 57.7067 63.3575 57.7765 63.3876C57.8463 63.4178 57.9249 63.4203 57.9965 63.3946C58.0708 63.3596 58.1292 63.2979 58.1601 63.2218C58.1909 63.1456 58.1919 63.0606 58.1629 62.9838C58.1242 62.9135 58.0596 62.8611 57.9829 62.8377C57.9062 62.8143 57.8234 62.8218 57.752 62.8585" fill="#E0E0E0"/>
<path d="M56.8944 65.5101L56.8247 64.8948L64.0211 64.056C64.0211 64.056 64.3759 64.1524 64.3738 64.3924L56.8944 65.5101Z" fill="#E0E0E0"/>
<path d="M60.2558 62.7765C60.2558 62.8134 60.0815 62.8564 59.9174 63C59.7534 63.1436 59.6836 63.3117 59.6467 63.3035C59.6098 63.2953 59.6344 63.0738 59.8334 62.9036C60.0323 62.7334 60.2599 62.7416 60.2558 62.7765Z" fill="#263238"/>
<path d="M61.0872 62.9835C61.1015 63.0184 60.9518 63.1025 60.8513 63.2768C60.7508 63.4511 60.7385 63.6172 60.7016 63.6213C60.6647 63.6254 60.6114 63.4163 60.7406 63.2112C60.8698 63.0061 61.081 62.9487 61.0872 62.9835Z" fill="#263238"/>
<path d="M61.6749 63.855C61.6421 63.8693 61.5642 63.6929 61.6277 63.4797C61.6913 63.2664 61.8513 63.1597 61.8718 63.1884C61.8923 63.2172 61.8021 63.3402 61.7508 63.5166C61.6995 63.6929 61.7098 63.8468 61.6749 63.855Z" fill="#263238"/>
<path d="M60.058 61.9047C60.058 61.9396 59.8735 61.915 59.6684 61.9581C59.4633 62.0011 59.3136 62.0934 59.289 62.0647C59.2644 62.036 59.4018 61.8822 59.6417 61.833C59.8817 61.7838 60.0724 61.8719 60.058 61.9047Z" fill="#263238"/>
<path d="M59.7525 61.0433C59.6345 61.0947 59.5048 61.1131 59.3772 61.0967C59.2385 61.0928 59.1008 61.0721 58.967 61.0351C58.8853 61.0156 58.8051 60.9903 58.7271 60.9592C58.6815 60.9429 58.6391 60.9186 58.602 60.8875C58.5738 60.8656 58.5539 60.8348 58.5457 60.8001C58.5375 60.7654 58.5414 60.7289 58.5569 60.6967C58.5713 60.6684 58.5922 60.6438 58.6179 60.625C58.6435 60.6061 58.6732 60.5935 58.7045 60.588C58.7514 60.5808 58.7991 60.5808 58.846 60.588C58.9294 60.5942 59.012 60.6093 59.0921 60.6332C59.2268 60.6714 59.3548 60.7302 59.4715 60.8075C59.6766 60.9428 59.7484 61.07 59.7361 61.0802C59.7238 61.0905 59.6192 60.9921 59.4244 60.8854C59.31 60.8237 59.1879 60.7775 59.0614 60.748C58.9876 60.7286 58.912 60.717 58.8358 60.7131C58.7537 60.7131 58.6861 60.7131 58.6717 60.7521C58.6573 60.7911 58.6717 60.7706 58.6861 60.7931C58.7143 60.8144 58.7453 60.8317 58.7783 60.8444C58.8486 60.8762 58.9205 60.9042 58.9937 60.9285C59.1186 60.9684 59.247 60.9965 59.3772 61.0126C59.5029 61.0139 59.6283 61.0242 59.7525 61.0433Z" fill="#263238"/>
<path d="M59.7106 61.1029C59.6982 61.1029 59.606 60.9901 59.5567 60.7563C59.5345 60.6205 59.5345 60.4819 59.5567 60.3461C59.57 60.2638 59.5906 60.1828 59.6183 60.1041C59.6306 60.0525 59.6559 60.0048 59.6918 59.9657C59.7277 59.9266 59.773 59.8973 59.8234 59.8806C59.8567 59.8763 59.8905 59.8816 59.921 59.8957C59.9515 59.9099 59.9774 59.9324 59.9956 59.9606C60.0214 60.0021 60.0414 60.0469 60.0551 60.0939C60.0802 60.1756 60.0927 60.2606 60.092 60.3461C60.092 60.4892 60.0568 60.6301 59.9895 60.7563C59.8726 60.9614 59.727 61.0372 59.7229 61.0249C59.7188 61.0126 59.8234 60.9204 59.9074 60.7173C59.9564 60.6006 59.9788 60.4746 59.9731 60.3482C59.9711 60.2748 59.9579 60.2022 59.9341 60.1328C59.9115 60.0549 59.8726 59.9954 59.8439 60.0077C59.8152 60.02 59.7516 60.0816 59.7311 60.1492C59.7033 60.2196 59.682 60.2924 59.6675 60.3666C59.6442 60.4931 59.6387 60.6222 59.6511 60.7501C59.6695 60.9593 59.729 61.0947 59.7106 61.1029Z" fill="#263238"/>
<path d="M50.0848 45.3995L43.6719 59.3739L47.9068 61.9169L56.7746 45.1022" fill="#263238"/>
<path d="M60.661 62.2348L56.061 62.9731L53.3067 46.5378L39.6995 47.5242C39.3395 47.5492 38.9779 47.5153 38.6289 47.4237C34.8082 46.3757 35.325 41.503 35.6942 40.7216L54.5229 40.1822C55.5093 40.1536 56.4717 40.4899 57.2255 41.1268C57.9793 41.7637 58.4717 42.6564 58.6081 43.6338L60.661 62.2348Z" fill="#263238"/>
<path d="M35.5047 41.4927L35.5723 34.5445C35.5723 34.5445 34.6761 30.0327 34.4095 28.2505C33.9994 25.4942 33.4333 24.1837 37.9492 22.2252L38.9377 21.8438L40.4656 21.8643C42.2868 22.0017 44.2063 23.6485 44.2514 24.7354L46.0131 40.3976L35.5047 41.4927Z" fill="#EC7505"/>
<path d="M35.7869 23.8392C35.7869 23.8392 34.5113 26.5832 34.7615 29.0832L39.5133 33.6442C40.5777 34.8296 41.9107 35.3341 43.615 35.4367L53.4466 36.5113L53.7194 33.9396L44.3717 31.2899C43.9985 31.2202 43.8118 30.8326 43.5268 30.5824L35.7869 23.8392Z" fill="#EC7505"/>
<path d="M35.0171 24.6308C35.0723 24.578 35.1361 24.535 35.2058 24.5037C35.4082 24.4145 35.6222 24.3544 35.8415 24.3253C36.1933 24.2676 36.5521 24.2676 36.9038 24.3253C37.0125 24.345 37.1176 24.3809 37.2156 24.4319C37.3158 24.4948 37.4123 24.5632 37.5047 24.637C37.6934 24.7846 37.8841 24.9549 38.079 25.1394C38.4727 25.5065 38.846 25.9721 39.2828 26.4438C39.7196 26.9155 40.1975 27.422 40.7184 27.9532C41.2393 28.4843 41.7992 29.0401 42.398 29.6143C42.6995 29.9015 43.0133 30.1927 43.3394 30.4777C43.5055 30.6131 43.6695 30.7731 43.8275 30.9228C43.9763 31.0767 44.1641 31.1873 44.3709 31.2427L53.7371 33.8883L53.7801 33.9006V33.9457C53.7617 34.1282 53.7391 34.3231 53.7186 34.522C53.6468 35.2049 53.575 35.8817 53.5135 36.5174V36.5708H53.4602L49.2929 36.1073L47.3241 35.8919L45.4394 35.7012C44.8242 35.6335 44.2315 35.5638 43.6552 35.4797C43.0922 35.4106 42.5381 35.2821 42.0022 35.0962C41.5082 34.9081 41.0408 34.6565 40.6118 34.3477C40.2016 34.0585 39.816 33.757 39.4612 33.4597C38.0564 32.262 37.0248 31.1894 36.3091 30.4593C35.9543 30.0922 35.6816 29.803 35.499 29.6061L35.2939 29.3806L35.2263 29.3006C35.2263 29.3006 35.2529 29.3231 35.3022 29.3723C35.3514 29.4216 35.4232 29.4975 35.5072 29.5918L36.3276 30.4326C37.0515 31.1525 38.0913 32.2169 39.4981 33.4043C39.8529 33.6976 40.2323 33.997 40.6446 34.282C41.0708 34.5845 41.5339 34.8312 42.0227 35.0162C42.555 35.1978 43.1049 35.3229 43.6634 35.3895C44.2397 35.4715 44.8344 35.5412 45.4456 35.6069L47.3303 35.7914L49.2991 36.0068L53.4622 36.46L53.4028 36.5072C53.4704 35.8714 53.5422 35.1947 53.6078 34.5097C53.6304 34.3046 53.6509 34.1159 53.6694 33.9334L53.7084 33.9908L44.3566 31.335C44.1282 31.2783 43.9206 31.1581 43.7577 30.9884C43.5916 30.8305 43.4419 30.6828 43.2717 30.5413C42.9415 30.2542 42.6318 29.9609 42.3303 29.6738C41.7315 29.0975 41.1737 28.5377 40.6548 28.0044C40.136 27.4712 39.6602 26.9626 39.2192 26.4848C38.7783 26.0069 38.4174 25.5435 38.0277 25.1764C37.8485 24.9985 37.6595 24.8308 37.4617 24.6739C37.3724 24.5988 37.2778 24.5303 37.1787 24.4688C37.0858 24.4183 36.9854 24.383 36.8813 24.3642C36.5353 24.3008 36.1811 24.2953 35.8333 24.3478C35.6156 24.3723 35.4023 24.4268 35.1996 24.5098C35.1358 24.5455 35.0748 24.5859 35.0171 24.6308Z" fill="#263238"/>
<path d="M37.4728 15.8166L37.9486 22.5843C37.9865 23.1164 38.2246 23.6144 38.6151 23.9778C39.0056 24.3413 39.5193 24.5432 40.0527 24.5429C40.3412 24.5429 40.6266 24.4838 40.8913 24.3691C41.156 24.2544 41.3943 24.0866 41.5915 23.8761C41.7888 23.6656 41.9407 23.4169 42.038 23.1453C42.1352 22.8737 42.1757 22.5851 42.1569 22.2972C42.1138 21.6533 42.0769 21.1262 42.0769 21.1262C42.0769 21.1262 43.7176 20.8719 43.734 19.2333C43.7463 18.2878 43.5822 16.1427 43.4427 14.4979C43.3969 13.9606 43.1506 13.4603 42.7528 13.0963C42.355 12.7323 41.8347 12.5313 41.2955 12.5332H40.305C39.9016 12.5577 39.5072 12.6627 39.145 12.8421C38.7829 13.0215 38.4603 13.2715 38.1963 13.5775C37.9324 13.8835 37.7324 14.2393 37.6081 14.6239C37.4838 15.0084 37.4378 15.414 37.4728 15.8166Z" fill="#FFBE9D"/>
<path d="M42.0797 21.0994C41.3239 21.1136 40.5808 20.903 39.9448 20.4944C39.9448 20.4944 40.4493 21.6716 42.0838 21.5198L42.0797 21.0994Z" fill="#EB996E"/>
<path d="M43.0768 16.6003C43.0774 16.6614 43.0541 16.7203 43.0118 16.7644C42.9696 16.8085 42.9118 16.8344 42.8508 16.8366C42.8213 16.8394 42.7916 16.8363 42.7633 16.8274C42.7351 16.8186 42.7089 16.8041 42.6863 16.785C42.6637 16.7658 42.6452 16.7424 42.6318 16.7159C42.6184 16.6895 42.6105 16.6607 42.6084 16.6312C42.6078 16.5699 42.6311 16.5108 42.6732 16.4663C42.7154 16.4219 42.7732 16.3955 42.8344 16.3929C42.894 16.3883 42.953 16.4076 42.9985 16.4465C43.0439 16.4854 43.0721 16.5407 43.0768 16.6003Z" fill="#263238"/>
<path d="M43.1625 16.1385C43.1317 16.1692 42.9574 16.038 42.7031 16.038C42.4488 16.038 42.2683 16.1651 42.2396 16.1344C42.2109 16.1036 42.256 16.0646 42.3381 16.0072C42.4461 15.9313 42.5752 15.8911 42.7072 15.8924C42.8385 15.8921 42.9664 15.9337 43.0723 16.0113C43.142 16.0687 43.1748 16.1241 43.1625 16.1385Z" fill="#263238"/>
<path d="M40.714 16.6003C40.7151 16.6616 40.692 16.7207 40.6496 16.765C40.6073 16.8092 40.5492 16.835 40.488 16.8366C40.4585 16.8394 40.4288 16.8363 40.4005 16.8274C40.3723 16.8186 40.3461 16.8041 40.3235 16.785C40.3009 16.7658 40.2824 16.7424 40.269 16.7159C40.2556 16.6895 40.2477 16.6607 40.2456 16.6312C40.245 16.5699 40.2683 16.5108 40.3104 16.4663C40.3526 16.4219 40.4104 16.3955 40.4716 16.3929C40.5312 16.3883 40.5902 16.4076 40.6357 16.4465C40.6811 16.4854 40.7093 16.5407 40.714 16.6003Z" fill="#263238"/>
<path d="M40.6799 16.1856C40.6512 16.2163 40.4748 16.0851 40.2205 16.0851C39.9662 16.0851 39.7857 16.2122 39.7591 16.1815C39.7324 16.1507 39.7734 16.1118 39.8555 16.0543C39.9635 15.9784 40.0926 15.9382 40.2246 15.9395C40.3556 15.9386 40.4835 15.9795 40.5897 16.0564C40.6799 16.1159 40.7024 16.1712 40.6799 16.1856Z" fill="#263238"/>
<path d="M41.6013 18.0519C41.7344 18.0103 41.8722 17.9855 42.0114 17.978C42.075 17.978 42.1365 17.9575 42.1468 17.9145C42.1536 17.8479 42.1384 17.7809 42.1037 17.7237L41.9109 17.2357C41.7341 16.8214 41.5914 16.3934 41.4844 15.9559C41.6926 16.3552 41.8695 16.77 42.0135 17.1967L42.194 17.6889C42.235 17.7662 42.2473 17.8556 42.2288 17.9411C42.2194 17.9639 42.2049 17.9843 42.1864 18.0006C42.1679 18.017 42.146 18.0289 42.1222 18.0355C42.0867 18.0446 42.0502 18.0495 42.0135 18.0498C41.8767 18.0678 41.7382 18.0685 41.6013 18.0519Z" fill="#263238"/>
<path d="M40.8602 18.2261C40.9012 18.2261 40.9012 18.4968 41.135 18.6896C41.3688 18.8824 41.66 18.8537 41.6621 18.8947C41.6641 18.9357 41.5964 18.946 41.4734 18.9501C41.3136 18.9519 41.1582 18.8974 41.0345 18.7962C40.9185 18.6976 40.845 18.558 40.8294 18.4066C40.811 18.302 40.8417 18.2241 40.8602 18.2261Z" fill="#263238"/>
<path d="M40.7512 15.1991C40.7266 15.2668 40.4764 15.236 40.1811 15.2709C39.8858 15.3058 39.6458 15.3878 39.6069 15.3263C39.5679 15.2647 39.6315 15.2319 39.7279 15.1663C39.856 15.0846 40.0013 15.0333 40.1524 15.0166C40.3036 14.9999 40.4565 15.0182 40.5995 15.0699C40.7081 15.113 40.7635 15.1663 40.7512 15.1991Z" fill="#263238"/>
<path d="M43.0677 15.4105C43.0247 15.4679 42.8504 15.4105 42.6432 15.4105C42.4361 15.4105 42.2577 15.4474 42.2166 15.3879C42.1756 15.3285 42.2269 15.3018 42.3048 15.2485C42.4075 15.1812 42.5288 15.1481 42.6514 15.1541C42.7733 15.1567 42.8915 15.1968 42.9898 15.269C43.0636 15.3244 43.0882 15.3818 43.0677 15.4105Z" fill="#263238"/>
<path d="M38.024 17.0469C37.9953 17.0346 36.8981 16.7126 36.935 17.8324C36.9719 18.9521 38.0855 18.6855 38.0876 18.6527C38.0896 18.6199 38.024 17.0469 38.024 17.0469Z" fill="#FFBE9D"/>
<path d="M37.7312 18.2404C37.7312 18.2404 37.7128 18.2547 37.68 18.2711C37.6331 18.289 37.5813 18.289 37.5344 18.2711C37.461 18.2276 37.4005 18.1653 37.3591 18.0908C37.3176 18.0162 37.2967 17.9319 37.2985 17.8466C37.2926 17.7508 37.308 17.6548 37.3436 17.5657C37.3529 17.5302 37.3707 17.4975 37.3953 17.4704C37.4199 17.4432 37.4508 17.4225 37.4852 17.4098C37.5076 17.4035 37.5315 17.4051 37.5528 17.4145C37.5741 17.4238 37.5915 17.4403 37.602 17.4611C37.6185 17.4918 37.6123 17.5144 37.6185 17.5164C37.6246 17.5185 37.641 17.4959 37.6308 17.4508C37.6239 17.4227 37.6072 17.3979 37.5836 17.3811C37.568 17.37 37.5503 17.3622 37.5317 17.358C37.513 17.3537 37.4937 17.3532 37.4749 17.3565C37.4278 17.3657 37.384 17.3872 37.3479 17.4189C37.3119 17.4507 37.2849 17.4914 37.2698 17.5369C37.2249 17.6351 37.2052 17.743 37.2124 17.8507C37.2096 17.9505 37.2366 18.0488 37.2899 18.1332C37.3432 18.2176 37.4205 18.2842 37.5118 18.3245C37.5419 18.3324 37.5735 18.3334 37.604 18.3274C37.6346 18.3213 37.6634 18.3084 37.6882 18.2896C37.7313 18.267 37.7354 18.2424 37.7312 18.2404Z" fill="#EB996E"/>
<path d="M37.3981 17.008C37.5046 17.0011 37.611 17.0232 37.706 17.0719C37.801 17.1207 37.881 17.1942 37.9375 17.2848C38.0092 17.4448 38.0256 17.6253 38.0974 17.7852C38.1284 17.8674 38.185 17.9375 38.2589 17.9852C38.3327 18.0328 38.4199 18.0554 38.5076 18.0498C38.5658 18.0316 38.618 17.9982 38.6591 17.9532C38.7002 17.9082 38.7286 17.853 38.7414 17.7934C38.765 17.6743 38.765 17.5516 38.7414 17.4325C38.6758 16.9095 38.5671 16.3927 38.5466 15.8657C38.5027 15.3369 38.6177 14.807 38.8767 14.3439C39.0081 14.1146 39.1991 13.925 39.4294 13.7954C39.6598 13.6657 39.9209 13.6009 40.1852 13.6077C40.5338 13.6364 40.8517 13.8128 41.1983 13.8661C41.404 13.893 41.6132 13.8729 41.81 13.8071C42.0068 13.7414 42.1862 13.6319 42.3344 13.4867C42.3999 13.4316 42.4683 13.3803 42.5395 13.3329C42.5351 13.2091 42.4944 13.0893 42.4226 12.9883C41.7356 12.3526 40.501 12.168 39.5945 12.4039C39.1341 12.5173 38.704 12.7296 38.3339 13.026C37.9638 13.3225 37.6627 13.6959 37.4514 14.1204C37.0618 14.9694 37.1766 16.1487 37.3919 17.008" fill="#263238"/>
<path d="M43.4607 14.2435C43.4607 14.2435 39.1663 12.8612 37.3082 16.5773C37.1648 16.11 37.0714 15.6288 37.0293 15.1417C37.0293 14.8095 37.2344 12.8263 39.2688 12.2029C39.2688 12.2111 42.343 11.038 43.4607 14.2435Z" fill="#EC7505"/>
<path d="M39.7699 14.3358C39.8462 14.4591 39.9501 14.563 40.0735 14.6393C40.1968 14.7155 40.3362 14.762 40.4806 14.7752C40.625 14.7883 40.7705 14.7677 40.9055 14.7149C41.0406 14.6621 41.1616 14.5787 41.2588 14.4711C41.3012 14.5779 41.376 14.6688 41.4727 14.7309C41.5694 14.7929 41.6831 14.8232 41.7978 14.8173C41.9126 14.8114 42.0226 14.7697 42.1124 14.698C42.2022 14.6264 42.2674 14.5284 42.2986 14.4178C42.4133 14.5464 42.5528 14.6503 42.7088 14.7234C42.7891 14.7576 42.878 14.7663 42.9635 14.7483C43.0489 14.7303 43.1268 14.6865 43.1866 14.6229C43.2355 14.5486 43.259 14.4604 43.2535 14.3717C43.2479 14.2829 43.2137 14.1983 43.1558 14.1307C43.0396 13.996 42.8895 13.8948 42.7211 13.8374C42.2122 13.6138 41.6532 13.5289 41.1009 13.5913C40.5458 13.658 40.0373 13.9347 39.6797 14.3645" fill="#263238"/>
<g opacity="0.4">
<path d="M43.4607 14.2433C43.1026 13.8686 42.6127 13.648 42.0948 13.628C40.8274 13.5727 38.4567 14.2843 37.3082 16.5812C37.1648 16.1139 37.0714 15.6327 37.0293 15.1456C37.0293 14.8134 37.2344 12.8303 39.2688 12.2068C39.2688 12.2109 42.343 11.0378 43.4607 14.2433Z" fill="black"/>
</g>
<path d="M37.4873 16.1426C38.1385 15.1728 38.9921 14.3556 39.9893 13.7472C40.9778 13.132 42.6103 12.5167 43.7341 12.2214C44.0675 12.1112 44.4208 12.0741 44.7698 12.1127C44.9437 12.1347 45.1078 12.2052 45.2435 12.3162C45.3791 12.4272 45.4808 12.5742 45.5368 12.7402C45.6435 13.1648 44.8908 13.819 44.536 14.0753C44.1898 14.3069 43.831 14.5191 43.4614 14.7111C43.4614 14.7111 43.4716 13.9236 42.2124 13.7616C40.5 13.5421 37.4873 16.1426 37.4873 16.1426Z" fill="#EC7505"/>
<g opacity="0.3">
<path d="M35.9761 30.0986C36.4191 31.1671 36.8661 32.4858 37.508 33.4476C38.15 34.4095 39.0072 35.2647 40.0736 35.7035C41.4149 36.2655 43.0002 36.3557 44.3332 35.7815C44.4419 35.7343 44.6552 35.6748 44.6347 35.5579C44.6347 35.5579 44.1937 35.5067 44.0563 35.4841C41.3636 35.037 41.0703 34.7089 39.7804 33.6835C38.9764 33.0498 37.1943 31.1281 35.9761 30.0986Z" fill="black"/>
</g>
<path d="M44.5398 37.8793C44.5125 37.967 44.4747 38.051 44.427 38.1295C44.3074 38.3513 44.1614 38.5579 43.9922 38.7447C43.4216 39.343 42.7038 39.7808 41.9106 40.0142C41.1202 40.2392 40.3041 40.3613 39.4824 40.3772C39.1687 40.3895 38.9144 40.3915 38.74 40.3915C38.6489 40.3953 38.5577 40.3912 38.4673 40.3792C38.5561 40.3588 38.6469 40.3484 38.738 40.3485L39.4783 40.3013C40.2911 40.2638 41.0969 40.1331 41.8799 39.9116C42.6593 39.6798 43.3685 39.2568 43.943 38.6811C44.1669 38.4334 44.3668 38.1649 44.5398 37.8793Z" fill="#263238"/>
<path d="M56.1411 63.4633C56.1322 63.4432 56.1267 63.4217 56.1247 63.3998C56.1247 63.3526 56.1042 63.289 56.0878 63.2111C56.057 63.0388 56.0119 62.8009 55.9565 62.4851C55.8437 61.8452 55.6858 60.9326 55.4889 59.8067C55.1054 57.5385 54.5763 54.4151 53.9918 50.9656C53.7313 49.4029 53.4832 47.9098 53.2556 46.546L53.3089 46.5891L47.4209 47.0136L45.7311 47.1285L45.2799 47.1551H45.165H45.124H45.163L45.2799 47.1408L45.729 47.0998L47.4168 46.9562L53.3007 46.4866H53.3458V46.5317C53.5755 47.8955 53.8277 49.3885 54.0902 50.9492C54.6624 54.4007 55.1792 57.5262 55.5566 59.7965C55.7371 60.9244 55.8847 61.8473 55.9893 62.4789L56.1001 63.2111C56.1124 63.289 56.1206 63.3526 56.1267 63.3998C56.1341 63.4203 56.1389 63.4416 56.1411 63.4633Z" fill="#455A64"/>
<path d="M54.6872 45.0736C54.7057 45.0982 54.3468 45.4058 53.9407 45.8201C53.5347 46.2344 53.2312 46.5974 53.2065 46.5769C53.5847 45.9739 54.0901 45.4608 54.6872 45.0736Z" fill="#455A64"/>
<path d="M42.1157 22.4385C42.1157 22.4385 42.128 22.461 42.1403 22.5061C42.1607 22.5729 42.1738 22.6416 42.1793 22.7112C42.2033 22.9643 42.1696 23.2195 42.0809 23.4577C41.9483 23.8137 41.7127 24.1222 41.4041 24.3437C41.0188 24.6075 40.5551 24.7319 40.0895 24.6964C39.6258 24.6649 39.1816 24.4981 38.8118 24.2165C38.5138 23.9875 38.2666 23.6991 38.0858 23.3695C37.9633 23.15 37.8696 22.9157 37.8069 22.6722C37.7864 22.5861 37.7721 22.5184 37.7659 22.4672C37.7598 22.4159 37.7659 22.3954 37.7659 22.3954C37.861 22.7189 37.991 23.0311 38.1535 23.3265C38.3391 23.6391 38.5836 23.9128 38.8734 24.1324C39.2317 24.3978 39.6589 24.5544 40.1039 24.5836C40.5462 24.6175 40.9872 24.5028 41.3569 24.2575C41.6521 24.0488 41.8813 23.7599 42.0173 23.4249C42.1103 23.1981 42.1543 22.9542 42.1465 22.7092C42.1321 22.5369 42.1157 22.4426 42.1157 22.4385Z" fill="#263238"/>
<path d="M45.0095 31.3946C44.9862 31.3283 44.971 31.2594 44.9644 31.1895C44.9418 31.0275 44.9152 30.8306 44.8824 30.6029C44.8147 30.08 44.7265 29.4073 44.6301 28.6629C44.5337 27.9184 44.464 27.2273 44.425 26.7187C44.4025 26.4705 44.3881 26.2675 44.3799 26.128C44.3701 26.0559 44.3701 25.9828 44.3799 25.9106C44.4013 25.9773 44.4158 26.0461 44.423 26.1157C44.4455 26.2777 44.4722 26.4726 44.503 26.7023C44.5686 27.2252 44.6527 27.8979 44.745 28.6423C44.8373 29.3868 44.9172 30.0779 44.9665 30.5845C44.989 30.8347 45.0054 31.0357 45.0157 31.1772C45.0221 31.2496 45.0201 31.3226 45.0095 31.3946Z" fill="#263238"/>
</g>
</g>
<defs>
<filter id="filter0_d_1348_2226" x="0" y="1" width="73" height="73" filterUnits="userSpaceOnUse" color-interpolation-filters="sRGB">
<feFlood flood-opacity="0" result="BackgroundImageFix"/>
<feColorMatrix in="SourceAlpha" type="matrix" values="0 0 0 0 0 0 0 0 0 0 0 0 0 0 0 0 0 0 127 0" result="hardAlpha"/>
<feOffset dy="2"/>
<feGaussianBlur stdDeviation="2"/>
<feComposite in2="hardAlpha" operator="out"/>
<feColorMatrix type="matrix" values="0 0 0 0 0 0 0 0 0 0 0 0 0 0 0 0 0 0 0.25 0"/>
<feBlend mode="normal" in2="BackgroundImageFix" result="effect1_dropShadow_1348_2226"/>
<feBlend mode="normal" in="SourceGraphic" in2="effect1_dropShadow_1348_2226" result="shape"/>
</filter>
<filter id="filter1_d_1348_2226" x="0" y="0" width="73" height="73" filterUnits="userSpaceOnUse" color-interpolation-filters="sRGB">
<feFlood flood-opacity="0" result="BackgroundImageFix"/>
<feColorMatrix in="SourceAlpha" type="matrix" values="0 0 0 0 0 0 0 0 0 0 0 0 0 0 0 0 0 0 127 0" result="hardAlpha"/>
<feOffset dy="1"/>
<feGaussianBlur stdDeviation="2"/>
<feComposite in2="hardAlpha" operator="out"/>
<feColorMatrix type="matrix" values="0 0 0 0 0 0 0 0 0 0 0 0 0 0 0 0 0 0 0.25 0"/>
<feBlend mode="normal" in2="BackgroundImageFix" result="effect1_dropShadow_1348_2226"/>
<feBlend mode="normal" in="SourceGraphic" in2="effect1_dropShadow_1348_2226" result="shape"/>
</filter>
</defs>
</svg>
