<svg width="26" height="26" viewBox="0 0 26 26" fill="none" xmlns="http://www.w3.org/2000/svg">
<path fill-rule="evenodd" clip-rule="evenodd" d="M13.8457 0.378182C13.6035 0.136032 13.275 0 12.9325 0C12.59 0 12.2616 0.136032 12.0193 0.378182L2.97766 9.41985L0.394331 12.0032C0.270963 12.1223 0.172561 12.2649 0.104866 12.4225C0.0371714 12.58 0.00153912 12.7495 4.87691e-05 12.921C-0.00144158 13.0925 0.0312398 13.2626 0.096186 13.4214C0.161132 13.5801 0.257042 13.7243 0.37832 13.8456C0.499599 13.9669 0.643816 14.0628 0.802557 14.1277C0.961298 14.1927 1.13138 14.2254 1.30289 14.2239C1.4744 14.2224 1.64389 14.1868 1.80148 14.1191C1.95907 14.0514 2.1016 13.953 2.22075 13.8296L2.59921 13.4511V21.9581C2.59921 22.9858 3.00746 23.9714 3.73417 24.6981C4.46087 25.4248 5.44649 25.8331 6.47421 25.8331H19.3909C20.4186 25.8331 21.4042 25.4248 22.1309 24.6981C22.8576 23.9714 23.2659 22.9858 23.2659 21.9581V13.4511L23.6443 13.8296C23.8879 14.0649 24.2142 14.1951 24.5529 14.1921C24.8916 14.1892 25.2155 14.0533 25.455 13.8139C25.6945 13.5744 25.8303 13.2504 25.8333 12.9117C25.8362 12.5731 25.706 12.2468 25.4708 12.0032L13.8457 0.378182Z" fill="#D84A05"/>
</svg>
