<svg width="52" height="56" viewBox="0 0 52 56" fill="none" xmlns="http://www.w3.org/2000/svg">
<g filter="url(#filter0_d_1676_978)">
<g filter="url(#filter1_d_1676_978)">
<rect x="3.5769" y="4" width="44.4231" height="44.4231" rx="7.99615" fill="white"/>
</g>
</g>
<path d="M29.317 18.9305L26.4937 18.4341L26.7376 17.045L29.654 17.5576C29.8718 17.1867 30.1827 16.8792 30.556 16.6656C30.9293 16.452 31.352 16.3397 31.7821 16.3398H34.5215C34.7613 16.3398 34.9552 16.5338 34.9552 16.7735V20.8421C34.9552 21.0818 34.7606 21.2757 34.5215 21.2757H31.7821C31.1488 21.2758 30.5397 21.0324 30.0808 20.5958C29.6219 20.1593 29.3485 19.563 29.317 18.9305Z" fill="#D84A05"/>
<path fill-rule="evenodd" clip-rule="evenodd" d="M30.587 22.3777L29.9312 27.6217H25.0835V26.7192C25.0835 26.4385 24.8169 26.2115 24.4883 26.2115H18.798C14.8704 26.2115 11.686 28.9262 11.686 32.2756C11.686 32.4307 11.8341 32.5576 12.0174 32.5576H15.2272C15.3137 33.5223 15.7581 34.4197 16.473 35.0733C17.1878 35.7269 18.1213 36.0893 19.0899 36.0893C20.0585 36.0893 20.992 35.7269 21.7068 35.0733C22.4216 34.4197 22.866 33.5223 22.9526 32.5576H23.5942C23.621 32.5576 23.6471 32.5576 23.6732 32.5562V32.5576H30.9826C31.125 33.0371 31.5347 33.3438 31.9824 33.439C32.2815 34.3353 32.8974 35.0916 33.7146 35.5659C34.5318 36.0402 35.4941 36.1998 36.4207 36.0148C37.3472 35.8298 38.1744 35.3129 38.7468 34.5612C39.3192 33.8094 39.5975 32.8746 39.5294 31.9322C39.8432 31.605 40.0012 31.1248 39.808 30.6051C39.5861 30.0095 39.2429 29.4666 38.8 29.0107C38.3571 28.5549 37.8243 28.1961 37.2353 27.9572C36.6464 27.7183 36.0142 27.6045 35.3789 27.6229C34.7436 27.6414 34.1191 27.7918 33.545 28.0645V22.6858H31.7822C31.3641 22.6865 30.9527 22.5804 30.587 22.3777ZM20.8174 32.5576H17.3623C17.4432 32.9561 17.6594 33.3144 17.9743 33.5717C18.2891 33.8291 18.6832 33.9696 19.0899 33.9696C19.4965 33.9696 19.8906 33.8291 20.2055 33.5717C20.5203 33.3144 20.7365 32.9561 20.8174 32.5576ZM34.1754 33.1556C34.3631 33.4486 34.6333 33.6795 34.952 33.8192C35.2707 33.959 35.6236 34.0013 35.9663 33.9409C36.309 33.8806 36.6262 33.7201 36.8779 33.4799C37.1296 33.2396 37.3046 32.9303 37.3809 32.5908L34.1754 33.1556Z" fill="#D84A05"/>
<path d="M15.3313 23.391C15.345 23.3525 15.3598 23.3144 15.3757 23.2767ZM15.3313 23.391C15.2537 23.6117 15.2114 23.8493 15.2114 24.0961V24.8012H25.7883V24.0961C25.7883 23.8585 25.7496 23.6307 25.6769 23.4178L25.6685 23.391C25.5225 22.9784 25.2522 22.6213 24.8948 22.3687C24.5375 22.1161 24.1106 21.9806 23.673 21.9807H17.3268C16.9109 21.9806 16.5043 22.1031 16.1576 22.3329C15.811 22.5626 15.5397 22.8895 15.3778 23.2725" fill="#D84A05"/>
<defs>
<filter id="filter0_d_1676_978" x="0.456454" y="0.87955" width="50.664" height="50.664" filterUnits="userSpaceOnUse" color-interpolation-filters="sRGB">
<feFlood flood-opacity="0" result="BackgroundImageFix"/>
<feColorMatrix in="SourceAlpha" type="matrix" values="0 0 0 0 0 0 0 0 0 0 0 0 0 0 0 0 0 0 127 0" result="hardAlpha"/>
<feOffset/>
<feGaussianBlur stdDeviation="1.56023"/>
<feComposite in2="hardAlpha" operator="out"/>
<feColorMatrix type="matrix" values="0 0 0 0 0 0 0 0 0 0 0 0 0 0 0 0 0 0 0.25 0"/>
<feBlend mode="normal" in2="BackgroundImageFix" result="effect1_dropShadow_1676_978"/>
<feBlend mode="normal" in="SourceGraphic" in2="effect1_dropShadow_1676_978" result="shape"/>
</filter>
<filter id="filter1_d_1676_978" x="0.0230587" y="4" width="51.5308" height="51.5308" filterUnits="userSpaceOnUse" color-interpolation-filters="sRGB">
<feFlood flood-opacity="0" result="BackgroundImageFix"/>
<feColorMatrix in="SourceAlpha" type="matrix" values="0 0 0 0 0 0 0 0 0 0 0 0 0 0 0 0 0 0 127 0" result="hardAlpha"/>
<feOffset dy="3.55385"/>
<feGaussianBlur stdDeviation="1.77692"/>
<feComposite in2="hardAlpha" operator="out"/>
<feColorMatrix type="matrix" values="0 0 0 0 0 0 0 0 0 0 0 0 0 0 0 0 0 0 0.25 0"/>
<feBlend mode="normal" in2="BackgroundImageFix" result="effect1_dropShadow_1676_978"/>
<feBlend mode="normal" in="SourceGraphic" in2="effect1_dropShadow_1676_978" result="shape"/>
</filter>
</defs>
</svg>
