<svg width="27" height="25" viewBox="0 0 27 25" fill="none" xmlns="http://www.w3.org/2000/svg">
<path d="M0 5.7735V20.2954C0 21.1391 0.473438 21.936 1.26562 22.2313C5.34375 23.7547 9.42188 22.7141 13.5 21.6735C17.2406 20.7219 20.9812 19.7657 24.7172 20.7876C25.7953 21.0829 27 20.3422 27 19.2219V4.70475C27 3.861 26.5266 3.06412 25.7344 2.76881C21.6562 1.24537 17.5781 2.286 13.5 3.32662C9.75937 4.27818 6.01875 5.22975 2.28281 4.20787C1.2 3.91256 0 4.65318 0 5.7735ZM13.5 17.0001C11.4281 17.0001 9.75 14.9844 9.75 12.5001C9.75 10.0157 11.4281 8.00006 13.5 8.00006C15.5719 8.00006 17.25 10.0157 17.25 12.5001C17.25 14.9844 15.5719 17.0001 13.5 17.0001ZM3 17.0001C4.65469 17.0001 6 18.3454 6 20.0001H3V17.0001ZM6 7.25006C6 8.90475 4.65469 10.2501 3 10.2501V7.25006H6ZM24 14.7501V17.7501H21C21 16.0954 22.3453 14.7501 24 14.7501ZM21 5.00006H24V8.00006C22.3453 8.00006 21 6.65475 21 5.00006Z" fill="url(#paint0_linear_1265_106)"/>
<defs>
<linearGradient id="paint0_linear_1265_106" x1="13.5" y1="2.00073" x2="13.5" y2="22.9994" gradientUnits="userSpaceOnUse">
<stop stop-color="#2E7D32"/>
<stop offset="1" stop-color="#2E7D32" stop-opacity="0.62"/>
</linearGradient>
</defs>
</svg>
