<svg width="24" height="21" viewBox="0 0 24 21" fill="none" xmlns="http://www.w3.org/2000/svg">
<path fill-rule="evenodd" clip-rule="evenodd" d="M21.2145 6.33928C21.1534 6.33484 21.0857 6.33484 21.0146 6.33484H18.2101C15.9131 6.33484 13.9482 8.14308 13.9482 10.5C13.9482 12.857 15.9142 14.6652 18.2101 14.6652H21.0146C21.0857 14.6652 21.1534 14.6652 21.2168 14.6608C21.6888 14.6323 22.1345 14.4332 22.4706 14.1005C22.8068 13.7678 23.0105 13.3243 23.0439 12.8525C23.0483 12.7859 23.0483 12.7137 23.0483 12.647V8.35301C23.0483 8.28636 23.0483 8.21417 23.0439 8.14752C23.0105 7.67576 22.8068 7.23222 22.4706 6.89955C22.1345 6.56687 21.6888 6.36775 21.2168 6.33928H21.2145ZM17.9624 11.6107C18.5533 11.6107 19.032 11.1131 19.032 10.5C19.032 9.8869 18.5533 9.3893 17.9624 9.3893C17.3704 9.3893 16.8916 9.8869 16.8916 10.5C16.8916 11.1131 17.3704 11.6107 17.9624 11.6107Z" fill="url(#paint0_linear_1265_41)"/>
<path fill-rule="evenodd" clip-rule="evenodd" d="M21.0125 16.3312C21.0509 16.3297 21.0891 16.3372 21.1241 16.3532C21.159 16.3692 21.1897 16.3933 21.2136 16.4233C21.2375 16.4534 21.254 16.4887 21.2617 16.5264C21.2694 16.564 21.2681 16.603 21.258 16.64C21.0358 17.4309 20.6815 18.1062 20.1139 18.6726C19.282 19.5057 18.2279 19.8733 16.9262 20.0488C15.66 20.2187 14.0439 20.2187 12.0024 20.2187H9.65655C7.61506 20.2187 5.99786 20.2187 4.73275 20.0488C3.431 19.8733 2.37693 19.5046 1.545 18.6737C0.714189 17.8418 0.345432 16.7878 0.169939 15.486C1.32407e-07 14.2198 0 12.6037 0 10.5622V10.4378C0 8.39631 1.32407e-07 6.77911 0.169939 5.51289C0.345432 4.21114 0.714189 3.15707 1.545 2.32514C2.37693 1.49433 3.431 1.12557 4.73275 0.950079C5.99897 0.78125 7.61506 0.78125 9.65655 0.78125H12.0024C14.0439 0.78125 15.6611 0.78125 16.9262 0.951189C18.2279 1.12668 19.282 1.49544 20.1139 2.32625C20.6815 2.89494 21.0358 3.56914 21.258 4.35997C21.2681 4.39703 21.2694 4.43597 21.2617 4.47362C21.254 4.51127 21.2375 4.54657 21.2136 4.57665C21.1897 4.60673 21.159 4.63075 21.1241 4.64675C21.0891 4.66276 21.0509 4.67029 21.0125 4.66875H18.209C15.058 4.66875 12.2812 7.15675 12.2812 10.5C12.2812 13.8432 15.058 16.3312 18.209 16.3312H21.0125ZM4.16518 5.22411C3.94424 5.22411 3.73236 5.31187 3.57613 5.4681C3.41991 5.62432 3.33214 5.83621 3.33214 6.05714C3.33214 6.27808 3.41991 6.48996 3.57613 6.64619C3.73236 6.80241 3.94424 6.89018 4.16518 6.89018H8.60804C8.82897 6.89018 9.04086 6.80241 9.19708 6.64619C9.3533 6.48996 9.44107 6.27808 9.44107 6.05714C9.44107 5.83621 9.3533 5.62432 9.19708 5.4681C9.04086 5.31187 8.82897 5.22411 8.60804 5.22411H4.16518Z" fill="url(#paint1_linear_1265_41)"/>
<defs>
<linearGradient id="paint0_linear_1265_41" x1="18.4983" y1="6.33484" x2="18.4983" y2="14.6652" gradientUnits="userSpaceOnUse">
<stop stop-color="#118EEA"/>
<stop offset="1" stop-color="#118EEA" stop-opacity="0.6"/>
</linearGradient>
<linearGradient id="paint1_linear_1265_41" x1="10.6333" y1="0.78125" x2="10.6333" y2="20.2187" gradientUnits="userSpaceOnUse">
<stop stop-color="#118EEA"/>
<stop offset="1" stop-color="#118EEA" stop-opacity="0.6"/>
</linearGradient>
</defs>
</svg>
