<svg width="227" height="304" viewBox="0 0 227 304" fill="none" xmlns="http://www.w3.org/2000/svg">
<path d="M187.158 268.606C205.362 268.606 220.119 253.452 220.119 234.759C220.119 216.065 205.362 200.911 187.158 200.911C168.954 200.911 154.197 216.065 154.197 234.759C154.197 253.452 168.954 268.606 187.158 268.606Z" fill="#262626"/>
<path d="M194.401 255.895C203.462 255.895 210.807 246.829 210.807 235.645C210.807 224.462 203.462 215.396 194.401 215.396C185.34 215.396 177.994 224.462 177.994 235.645C177.994 246.829 185.34 255.895 194.401 255.895Z" fill="#565656"/>
<path d="M64.6268 245.105C64.6268 245.105 82.9548 252.2 118.133 247.765C153.31 243.331 153.31 237.271 153.31 237.271C153.31 237.271 140.895 221.899 119.611 222.343C98.3266 222.638 64.6268 245.105 64.6268 245.105Z" fill="#E48050"/>
<path d="M141.043 236.828C141.043 236.828 148.876 181.401 160.11 168.985C171.343 156.569 114.438 162.925 114.438 162.925L94.6316 236.384L141.043 236.828Z" fill="#D84A05"/>
<path d="M150.502 170.167C150.502 170.167 129.957 221.456 139.713 239.488C149.468 257.521 219.084 234.611 225.144 225.299C231.205 215.987 221.006 190.417 210.216 180.662C199.426 170.906 197.505 163.812 197.505 163.812L150.502 170.167Z" fill="#E48050"/>
<path d="M66.5486 243.923C66.5486 243.923 120.793 247.618 136.904 241.705C153.015 235.793 131.731 219.978 100.987 222.934C70.2437 225.89 53.8373 240.227 53.8373 240.227L66.5486 243.923Z" fill="#B34406"/>
<path d="M70.687 235.35C70.687 235.35 78.9641 232.689 82.3637 229.585C85.7632 226.334 90.9364 226.038 96.8486 226.925C102.613 227.812 103.648 229.881 103.648 229.881C103.648 229.881 104.978 236.828 103.5 239.045C102.022 241.262 84.7286 241.41 77.7817 240.671C70.687 240.08 66.105 238.897 70.687 235.35Z" fill="#3E3E3E"/>
<path d="M119.759 172.384C119.759 172.384 142.668 174.602 174.003 171.941C205.486 169.281 205.782 166.768 203.565 160.264C201.347 153.909 189.375 157.604 181.837 155.83C174.299 153.909 128.331 159.969 128.331 159.969L119.759 172.384Z" fill="#3E3E3E"/>
<path d="M58.5671 126.417C58.5671 126.417 36.9874 133.216 32.1099 154.204C28.4147 170.463 23.6849 201.206 27.6757 223.377C31.6664 245.548 59.7496 252.347 59.7496 252.347L65.6618 128.782L58.5671 126.417Z" fill="#B34406"/>
<path d="M181.246 92.717H140.747V160.856H181.246V92.717Z" fill="#B34406"/>
<path d="M213.024 155.978L180.802 160.856V92.717H213.024V155.978Z" fill="#E48050"/>
<path d="M111.186 131.59L109.708 135.729C109.708 135.729 79.8511 139.719 69.8003 154.204C59.7494 168.837 53.8372 219.682 57.9758 222.638C62.1143 225.742 70.6871 225.742 74.3822 222.047C78.0774 218.352 85.7633 177.114 90.0497 171.202C94.4839 165.29 123.602 157.308 129.07 146.075C134.539 134.99 131.879 132.92 131.879 132.92L111.186 131.59Z" fill="#0F2330"/>
<path d="M165.135 130.407C165.135 130.407 168.83 138.685 158.336 156.717C147.842 174.749 124.932 173.123 118.576 178.74C112.22 184.209 111.629 225.003 106.604 228.698C101.726 232.541 91.5275 230.176 85.0241 228.698C78.6684 227.22 96.9964 156.865 102.17 149.031C107.343 141.197 124.784 138.537 124.784 138.537L125.966 130.999L165.135 130.407Z" fill="#263238"/>
<path d="M86.9456 126.712C86.9456 126.712 101.578 133.955 107.786 150.805C113.994 167.655 90.7885 244.957 78.225 250.278C65.8093 255.599 43.4906 260.033 38.7608 216.726C34.031 173.419 58.419 132.181 66.844 128.19" fill="#E48050"/>
<path d="M62.7053 121.539L48.6638 120.505L35.509 119.618C33.1441 119.47 31.2227 117.401 31.5183 114.888C31.6661 112.523 33.7353 110.749 36.248 110.897L63.4444 112.819C65.8093 112.966 67.7307 115.036 67.4351 117.548C67.1395 119.913 65.0702 121.687 62.7053 121.539Z" fill="#B34406"/>
<path d="M59.6015 112.819C59.6015 112.819 57.2366 109.862 55.3151 108.976C53.5415 108.089 51.9156 108.68 51.9156 108.68C51.9156 108.68 49.9941 107.498 48.5161 107.498C47.038 107.498 46.299 108.384 46.299 108.384C46.299 108.384 44.6731 107.498 43.6384 107.645C42.6038 107.793 42.0126 108.532 42.0126 108.532C42.0126 108.532 40.6823 107.941 39.2043 108.532C37.7262 109.123 35.2135 113.114 35.9526 116.809C36.6916 120.505 39.9433 121.391 40.6823 121.096C41.4213 120.8 41.717 120.209 41.717 120.209C41.717 120.209 43.3429 122.278 44.8209 121.539C46.299 120.948 46.299 120.948 46.299 120.948C46.299 120.948 48.0726 122.278 49.2551 121.687C50.4375 121.244 50.4375 121.244 50.4375 121.244C50.4375 121.244 51.3244 122.278 52.9502 122.13C54.4283 121.983 54.7239 121.391 55.1673 120.948C55.6107 120.505 52.9502 118.583 53.0981 117.548C54.5761 111.488 59.6015 112.819 59.6015 112.819Z" fill="#FFBE9D"/>
<path d="M117.985 56.0611C117.985 56.0611 107.195 55.1743 105.422 70.9895C103.648 86.9526 100.544 86.3613 93.745 90.9433C89.0152 94.0472 68.618 95.0819 64.1838 101.585C59.7496 108.089 66.9921 117.696 82.6595 115.331C98.327 112.966 109.117 110.454 114.142 95.5253C119.463 80.8925 117.985 56.0611 117.985 56.0611Z" fill="#D84A05"/>
<path d="M112.368 132.329L151.833 134.103C157.449 134.103 168.83 133.807 168.683 128.338C168.091 110.01 167.943 57.2436 163.361 55.3221C157.154 52.8094 146.512 47.6362 146.512 47.6362L128.627 49.8533C128.627 49.8533 116.803 52.8094 114.142 57.5392C113.403 58.7217 112.812 63.3036 112.073 69.3637C111.629 73.6501 111.186 78.8233 110.89 84.1443C110.299 93.3082 109.708 104.246 109.265 112.08C108.821 117.696 106.752 132.329 112.368 132.329Z" fill="#E48050"/>
<path d="M117.689 12.0149C117.689 12.0149 112.073 26.2043 116.95 33.7424C121.828 41.2805 125.523 34.9248 125.523 34.9248L120.646 13.1973L117.689 12.0149Z" fill="#D84A05"/>
<path d="M144.295 37.1419L144.59 45.2712C144.59 45.2712 137.495 51.0357 132.913 50.8879C128.332 50.5923 128.923 49.4098 128.923 49.4098L128.775 43.7932C128.775 43.6454 139.86 37.2897 144.295 37.1419Z" fill="#FFBE9D"/>
<path d="M119.906 34.3337C120.35 42.9064 125.227 44.9757 129.218 46.3059C133.209 47.6362 140.747 43.941 143.408 39.3591C143.555 39.0634 143.703 38.9156 143.851 38.62C146.068 34.1858 145.625 29.1604 145.625 29.1604C145.625 29.1604 145.772 26.3521 145.625 22.9526C145.477 19.5531 145.033 15.7101 143.999 13.6408C141.782 9.65006 135.13 8.61542 132.322 8.61542C129.366 8.61542 123.897 10.8325 121.532 13.7886C119.167 16.8926 119.759 31.821 119.906 34.3337Z" fill="#FFBE9D"/>
<path d="M145.477 22.0657C145.477 22.0657 147.694 22.2135 149.024 24.5784C150.207 26.9433 149.32 32.2643 145.181 32.8556C140.895 33.299 145.477 22.0657 145.477 22.0657Z" fill="#E1964F"/>
<path d="M120.054 14.9711C120.054 14.9711 122.862 15.8579 129.07 15.5623C135.278 15.2667 138.086 14.6755 138.086 14.6755C138.086 14.6755 137.495 18.2228 138.825 21.0311C140.156 23.8394 141.634 23.2482 141.929 25.4653C142.373 27.6824 142.225 28.8648 143.26 28.8648C144.442 28.8648 144.294 23.8394 145.033 22.8048C145.772 21.7702 148.137 23.2482 148.433 23.8394C148.728 24.2829 151.832 14.9711 145.772 11.7194C145.772 11.7194 143.851 7.13737 135.869 6.69396C127.74 6.25054 121.384 9.05885 120.054 14.9711Z" fill="#151A25"/>
<path d="M137.199 23.1004C137.199 23.1004 136.313 21.6223 134.096 21.6223C131.878 21.6223 131.583 22.9525 130.844 22.9525C130.105 22.8047 130.4 20.4398 132.765 19.9964C134.982 19.553 137.199 20.7355 137.199 23.1004Z" fill="#151A25"/>
<path d="M120.498 23.1003C120.498 23.1003 121.237 21.6222 123.158 21.6222C125.08 21.6222 125.227 22.9525 125.966 22.9525C126.558 22.8047 126.262 20.4398 124.341 19.9963C122.271 19.5529 120.498 20.5876 120.498 23.1003Z" fill="#151A25"/>
<path d="M132.47 25.6131C132.47 26.3521 132.766 26.9433 133.209 26.9433C133.652 26.9433 133.948 26.3521 133.948 25.6131C133.948 24.8741 133.652 24.2828 133.209 24.2828C132.913 24.2828 132.47 24.8741 132.47 25.6131Z" fill="#151A25"/>
<path d="M123.749 25.4653C123.749 26.2043 124.045 26.7955 124.488 26.7955C124.932 26.7955 125.227 26.2043 125.227 25.4653C125.227 24.7263 124.932 24.135 124.488 24.135C124.045 24.2828 123.749 24.8741 123.749 25.4653Z" fill="#151A25"/>
<path d="M119.758 28.7171C119.758 28.7171 124.932 26.7956 129.366 27.3868C133.8 27.978 141.782 30.1951 141.782 30.1951C141.782 30.1951 142.077 37.881 137.939 41.1328C133.8 44.3845 131.583 44.8279 128.331 44.5323C125.08 44.2367 122.123 42.6108 121.089 40.2459C120.054 37.881 119.167 30.3429 119.758 28.7171Z" fill="#B2BFE1"/>
<path d="M144.442 25.7609L141.19 30.195L141.634 30.4907L144.294 26.7955L144.442 25.7609Z" fill="#EFF5E1"/>
<path d="M139.417 39.2113C139.417 39.2113 141.782 40.0981 143.407 39.3591C143.555 39.0635 143.703 38.9157 143.851 38.6201C143.703 38.6201 141.634 39.3591 140.008 38.3245L139.417 39.2113Z" fill="#EFF5E1"/>
<path d="M139.713 31.2298C139.713 31.2298 132.47 28.7171 127.592 28.7171C122.419 28.7171 120.35 30.1951 120.35 30.1951L120.646 34.7771C120.646 34.7771 123.01 32.56 129.218 33.2991C135.426 34.0381 138.53 35.5161 138.53 35.5161L139.713 31.2298Z" fill="#9FAFD3"/>
<path d="M138.234 36.2551C138.234 36.2551 124.784 32.8556 120.941 35.6639L121.237 37.7332C121.237 37.7332 123.306 35.8117 130.696 37.1419C138.087 38.4722 137.643 38.4722 137.643 38.4722L138.234 36.2551Z" fill="#9FAFD3"/>
<path d="M116.063 14.971C116.063 22.8048 134.835 19.2574 138.678 18.3706C139.121 18.2228 139.269 18.2228 139.269 18.2228C139.269 18.2228 140.156 32.8556 142.373 36.2551C143.555 38.0288 146.955 38.7678 150.207 37.2897C153.311 35.9595 156.267 32.56 156.71 26.3521C157.745 13.6408 153.015 2.99876 141.043 0.633864C129.07 -1.73103 116.063 2.40754 116.063 14.971Z" fill="#E48050"/>
<path d="M138.678 18.3706C139.121 18.2228 139.269 18.2228 139.269 18.2228C139.269 18.2228 140.156 32.8556 142.373 36.2551C143.555 38.0288 146.955 38.7678 150.207 37.2897C149.172 37.4375 146.511 37.7332 145.033 35.5161C143.408 32.8556 140.895 17.1881 140.895 17.1881L138.678 16.3013V18.3706Z" fill="#D84A05"/>
<path d="M141.043 17.4838C141.043 17.4838 141.043 16.3014 139.86 15.8579C138.826 15.4145 128.332 12.754 123.897 13.0496C119.463 13.3452 114.29 15.2667 113.403 16.8926C112.516 18.6663 123.602 20.2921 130.844 19.9965C137.939 19.5531 141.043 17.4838 141.043 17.4838Z" fill="#D84A05"/>
<path d="M148.729 23.3959C148.729 26.7954 150.207 29.6038 152.128 29.6038C154.05 29.6038 155.528 26.7954 155.528 23.3959C155.528 19.9964 154.05 17.188 152.128 17.188C150.355 17.188 148.729 19.8486 148.729 23.3959Z" fill="#D84A05"/>
<path d="M141.338 14.8232C141.338 14.8232 128.923 8.46751 117.394 13.7885C117.394 13.7885 118.872 9.50216 121.532 7.43287C124.193 5.36359 128.627 3.58991 134.835 6.25042C140.895 8.46751 141.338 14.8232 141.338 14.8232Z" fill="#B34406"/>
<path d="M110.89 84.1443C115.472 86.0658 124.488 89.1697 136.461 89.1697C154.05 89.1697 161.735 82.075 161.735 82.075L161.883 65.6686C161.883 65.6686 145.477 76.754 130.253 75.4238C119.759 74.5369 114.438 71.2852 112.22 69.3637C111.777 73.7979 111.334 78.8233 110.89 84.1443Z" fill="#B34406"/>
<path d="M40.8302 110.01C40.8302 110.01 39.2043 114.74 40.8302 117.253C42.4561 119.766 40.6824 119.027 39.6478 117.696C38.7609 116.366 38.7609 113.41 40.8302 110.01Z" fill="#B34406"/>
<path d="M45.2644 110.306C45.2644 110.306 43.6385 115.036 45.2644 117.548C46.8903 120.061 45.1166 119.322 44.082 117.992C43.1951 116.514 43.1951 113.705 45.2644 110.306Z" fill="#B34406"/>
<path d="M49.9942 111.341C49.9942 111.341 48.3683 116.07 49.9942 118.583C51.62 121.096 49.8463 120.357 48.8117 119.026C47.9249 117.548 47.9249 114.74 49.9942 111.341Z" fill="#B34406"/>
<path d="M146.659 47.6361L144.738 43.0541C144.738 43.0541 136.017 48.8186 132.618 49.1142L132.026 50.5922L131.287 48.8186C131.287 48.8186 129.218 48.3752 128.775 47.4883C128.331 46.7493 127.444 51.0357 127.444 51.0357C127.444 51.0357 128.183 52.8093 133.357 52.8093C138.382 52.9571 146.659 47.6361 146.659 47.6361Z" fill="#262626"/>
<path d="M132.322 52.6615C132.322 52.6615 125.966 110.601 126.41 122.426H124.636C124.636 122.426 127.001 65.8162 131.287 52.5137L132.322 52.6615Z" fill="#B2BFE1"/>
<path d="M111.629 115.183C111.629 115.183 111.482 112.819 116.064 111.045C120.646 109.271 142.373 111.488 147.842 108.828C153.311 106.167 153.902 107.498 155.38 107.202C156.858 106.906 155.823 89.9086 156.71 81.6315C157.597 73.3543 160.11 57.6869 162.622 55.1742C162.622 55.1742 164.987 52.0703 171.786 61.0865C177.255 68.3289 174.447 120.8 162.77 125.825C147.251 132.625 122.271 133.511 116.803 131.886C111.334 130.26 110.743 125.086 110.743 125.086L111.629 115.183Z" fill="#D84A05"/>
<path d="M124.193 122.13C124.193 126.712 120.645 130.26 116.211 130.26C111.777 130.26 108.23 126.565 108.23 122.13C108.23 117.696 111.777 114.001 116.211 114.001C120.645 114.001 124.193 117.696 124.193 122.13Z" fill="#102533"/>
<path d="M48.3681 105.872C48.3681 105.872 51.4721 98.7771 58.1233 97.7424C64.7746 96.7078 73.7907 99.3683 79.1118 105.872C84.4328 112.375 100.1 114.445 103.795 117.253C107.638 120.061 106.308 127.304 101.43 128.929C96.7007 130.555 81.4767 127.008 75.2688 130.26C69.061 133.511 57.6799 131.886 52.5067 129.816C47.3335 127.451 42.4559 115.775 48.3681 105.872Z" fill="#E48050"/>
<path d="M120.054 128.486L107.786 126.86L96.2574 125.382C94.1881 125.087 92.7101 123.017 93.0057 120.652C93.3013 118.287 95.2228 116.662 97.292 116.957L121.089 120.061C123.158 120.357 124.636 122.426 124.341 124.791C124.193 127.008 122.271 128.634 120.054 128.486Z" fill="#B34406"/>
<path d="M121.384 120.061C121.384 120.061 119.02 117.105 117.098 116.218C115.324 115.331 113.699 115.922 113.699 115.922C113.699 115.922 111.777 114.74 110.299 114.74C108.821 114.74 108.082 115.627 108.082 115.627C108.082 115.627 106.456 114.74 105.421 114.888C104.387 115.036 103.796 115.775 103.796 115.775C103.796 115.775 102.465 115.183 100.987 115.775C99.5092 116.514 96.9965 120.357 97.7355 124.052C98.4745 127.747 101.726 128.634 102.465 128.338C103.204 128.043 103.5 127.451 103.5 127.451C103.5 127.451 105.126 129.521 106.604 128.782C108.082 128.19 108.082 128.19 108.082 128.19C108.082 128.19 109.856 129.521 111.038 128.929C112.22 128.486 112.221 128.486 112.221 128.486C112.221 128.486 113.107 129.521 114.733 129.373C116.211 129.225 116.507 128.634 116.95 128.19C117.394 127.747 114.733 125.825 114.881 124.791C116.359 118.731 121.384 120.061 121.384 120.061Z" fill="#FFBE9D"/>
<path d="M71.1056 116.696C72.6063 110.34 68.6707 103.972 62.3153 102.471C55.9598 100.97 49.5911 104.906 48.0904 111.261C46.5897 117.617 50.5253 123.985 56.8807 125.486C63.2362 126.987 69.6049 123.051 71.1056 116.696Z" fill="#FEF6D4"/>
<path d="M41.865 303.488C61.3748 303.488 77.1907 287.209 77.1907 267.128C77.1907 247.047 61.3748 230.768 41.865 230.768C22.3552 230.768 6.53943 247.047 6.53943 267.128C6.53943 287.209 22.3552 303.488 41.865 303.488Z" fill="#262626"/>
<path d="M49.6984 289.742C59.4125 289.742 67.2873 280.015 67.2873 268.015C67.2873 256.015 59.4125 246.287 49.6984 246.287C39.9843 246.287 32.1095 256.015 32.1095 268.015C32.1095 280.015 39.9843 289.742 49.6984 289.742Z" fill="#565656"/>
<path d="M56.6455 234.315C56.6455 234.315 41.5693 275.553 45.7079 280.283C49.8464 285.013 54.8718 285.013 57.9757 274.371C61.0797 263.729 66.4007 240.08 66.4007 240.08L56.6455 234.315Z" fill="#3E3E3E"/>
<path d="M3.13971 253.382C3.13971 253.382 7.4261 249.096 14.373 249.687C21.3199 250.278 21.172 254.86 26.7887 254.86C32.4053 254.86 33.7356 245.548 49.9942 243.184C66.2529 240.966 69.6524 250.13 77.1905 251.756C84.7286 253.382 78.6686 240.671 61.6709 230.916C44.6732 221.16 26.3452 225.299 13.3383 234.167C0.331391 243.036 -3.36375 254.712 3.13971 253.382Z" fill="#B34406"/>
<path d="M65.2182 142.823C65.2182 142.823 78.373 140.015 81.9204 141.345C85.4677 142.675 75.5647 145.779 82.8071 146.518C90.0496 147.257 102.318 149.475 103.204 151.396C104.091 153.317 79.4076 150.066 76.7471 149.475C74.0866 148.883 76.7471 144.006 76.7471 144.006C76.7471 144.006 65.9573 144.006 65.0704 144.006C64.4792 144.154 65.2182 142.823 65.2182 142.823Z" fill="#FEF6D4"/>
<path d="M82.0681 235.202C82.0681 235.202 102.022 186.574 100.544 171.941C99.0658 157.308 97.7355 170.315 91.2321 194.407C84.8764 218.648 75.8602 239.784 82.0681 235.202Z" fill="#B34406"/>
<path d="M102.909 117.696C102.909 117.696 101.283 122.426 102.909 124.939C104.535 127.451 102.761 126.712 101.726 125.382C100.839 123.904 100.839 121.096 102.909 117.696Z" fill="#B34406"/>
<path d="M107.343 117.844C107.343 117.844 105.717 122.574 107.343 125.087C108.969 127.599 107.195 126.86 106.16 125.53C105.274 124.2 105.274 121.391 107.343 117.844Z" fill="#B34406"/>
<path d="M112.073 118.879C112.073 118.879 110.447 123.608 112.073 126.121C113.699 128.634 111.925 127.895 110.89 126.565C110.003 125.086 110.003 122.278 112.073 118.879Z" fill="#B34406"/>
<path d="M208.147 189.678C208.147 189.678 176.812 196.92 175.334 199.581C173.856 202.241 213.911 193.816 208.147 189.678Z" fill="#B34406"/>
<path d="M210.216 198.103C210.216 198.103 178.881 205.345 177.403 208.006C175.925 210.666 215.98 202.241 210.216 198.103Z" fill="#B34406"/>
<path d="M211.25 206.084C211.25 206.084 179.915 213.327 178.437 215.987C177.107 218.648 217.163 210.223 211.25 206.084Z" fill="#B34406"/>
<path d="M201.495 157.604L195.879 158.491L195.731 92.8647H201.495V157.604Z" fill="#B34406"/>
</svg>
