<svg width="25" height="25" viewBox="0 0 25 25" fill="none" xmlns="http://www.w3.org/2000/svg">
<path d="M12.5 12.5C10.7812 12.5 9.30989 11.888 8.08594 10.6641C6.86198 9.4401 6.25 7.96875 6.25 6.25C6.25 4.53125 6.86198 3.0599 8.08594 1.83594C9.30989 0.611979 10.7812 0 12.5 0C14.2187 0 15.6901 0.611979 16.9141 1.83594C18.138 3.0599 18.75 4.53125 18.75 6.25C18.75 7.96875 18.138 9.4401 16.9141 10.6641C15.6901 11.888 14.2187 12.5 12.5 12.5ZM0 25V20.625C0 19.7396 0.228125 18.9255 0.684375 18.1828C1.14063 17.4401 1.74583 16.874 2.5 16.4844C4.11458 15.6771 5.75521 15.0714 7.42187 14.6672C9.08854 14.263 10.7812 14.0615 12.5 14.0625C14.2187 14.0625 15.9115 14.2646 17.5781 14.6687C19.2448 15.0729 20.8854 15.6781 22.5 16.4844C23.2552 16.875 23.8609 17.4417 24.3172 18.1844C24.7734 18.9271 25.001 19.7406 25 20.625V25H0Z" fill="#EC7505"/>
</svg>
