<svg width="30" height="30" viewBox="0 0 30 30" fill="none" xmlns="http://www.w3.org/2000/svg">
<path d="M26.25 12.1875H25.2691C25.0336 9.62683 23.8498 7.24653 21.95 5.51349C20.0502 3.78044 17.5715 2.8197 15 2.8197C12.4285 2.8197 9.94976 3.78044 8.04997 5.51349C6.15019 7.24653 4.96642 9.62683 4.73086 12.1875H3.75C3.50136 12.1875 3.2629 12.2863 3.08709 12.4621C2.91127 12.6379 2.8125 12.8764 2.8125 13.125C2.81662 15.3545 3.43019 17.5405 4.58685 19.4465C5.74351 21.3525 7.39925 22.9061 9.375 23.9391V24.375C9.375 24.8723 9.57254 25.3492 9.92418 25.7009C10.2758 26.0525 10.7527 26.25 11.25 26.25H18.75C19.2473 26.25 19.7242 26.0525 20.0758 25.7009C20.4275 25.3492 20.625 24.8723 20.625 24.375V23.9391C22.6008 22.9061 24.2565 21.3525 25.4132 19.4465C26.5698 17.5405 27.1834 15.3545 27.1875 13.125C27.1875 12.8764 27.0887 12.6379 26.9129 12.4621C26.7371 12.2863 26.4986 12.1875 26.25 12.1875ZM20.3297 6.58948C20.5445 6.76526 20.7504 6.95081 20.9473 7.14612C18.4516 8.02403 16.3893 9.82831 15.1875 12.1852H11.7305C12.3164 10.5427 13.3952 9.12121 14.8193 8.11485C16.2435 7.10849 17.9436 6.56636 19.6875 6.56253C19.902 6.56253 20.1164 6.57308 20.3297 6.58948ZM17.3578 12.1875C18.4944 10.4823 20.214 9.25024 22.1941 8.72229C22.8416 9.7754 23.2478 10.9588 23.3836 12.1875H17.3578ZM15 4.68753C15.7523 4.68803 16.5012 4.78932 17.2266 4.9887C15.4599 5.42695 13.8399 6.32316 12.53 7.58701C11.2201 8.85085 10.2664 10.4377 9.76523 12.1875H6.61641C6.84896 10.126 7.83202 8.22222 9.37817 6.83902C10.9243 5.45583 12.9254 4.69 15 4.68753Z" fill="#D84A05"/>
</svg>
