<svg width="30" height="30" viewBox="0 0 30 30" fill="none" xmlns="http://www.w3.org/2000/svg">
<path fill-rule="evenodd" clip-rule="evenodd" d="M15.025 3.75C12.2019 3.75 9.62936 4.6825 8.10748 5.44438C7.96998 5.51313 7.84186 5.58062 7.72248 5.64562C7.48623 5.77437 7.28498 5.89438 7.12498 6L8.85623 8.54875L9.67123 8.87312C12.8562 10.48 17.1275 10.48 20.3131 8.87312L21.2381 8.39313L22.8756 6C22.5364 5.77875 22.1836 5.57898 21.8194 5.40187C20.3056 4.64812 17.795 3.75 15.025 3.75ZM10.9981 6.635C10.3851 6.52028 9.77956 6.36833 9.18498 6.18C10.6106 5.54687 12.7356 4.875 15.0244 4.875C16.61 4.875 18.1094 5.1975 19.3494 5.60625C17.8962 5.81063 16.3456 6.1575 14.8681 6.58437C13.7056 6.92062 12.3469 6.88438 10.9981 6.635ZM20.9731 9.8L20.82 9.8775C17.3156 11.645 12.6681 11.645 9.16373 9.8775L9.01873 9.80375C3.75498 15.5794 -0.263768 26.2481 15.025 26.2481C30.3125 26.2481 26.1956 15.38 20.9731 9.8ZM14.375 15C14.0435 15 13.7255 15.1317 13.4911 15.3661C13.2567 15.6005 13.125 15.9185 13.125 16.25C13.125 16.5815 13.2567 16.8995 13.4911 17.1339C13.7255 17.3683 14.0435 17.5 14.375 17.5V15ZM15.625 13.75V13.125H14.375V13.75C13.7119 13.75 13.0761 14.0134 12.6072 14.4822C12.1384 14.9511 11.875 15.587 11.875 16.25C11.875 16.913 12.1384 17.5489 12.6072 18.0178C13.0761 18.4866 13.7119 18.75 14.375 18.75V21.25C14.1165 21.2501 13.8643 21.17 13.6532 21.0208C13.4421 20.8716 13.2824 20.6606 13.1962 20.4169C13.141 20.2606 13.026 20.1326 12.8764 20.0611C12.7269 19.9896 12.555 19.9804 12.3987 20.0356C12.2424 20.0908 12.1144 20.2059 12.0429 20.3554C11.9714 20.505 11.9623 20.6768 12.0175 20.8331C12.1899 21.3206 12.5092 21.7427 12.9314 22.0412C13.3536 22.3397 13.8579 22.5 14.375 22.5V23.125H15.625V22.5C16.288 22.5 16.9239 22.2366 17.3927 21.7678C17.8616 21.2989 18.125 20.663 18.125 20C18.125 19.337 17.8616 18.7011 17.3927 18.2322C16.9239 17.7634 16.288 17.5 15.625 17.5V15C16.1687 15 16.6319 15.3469 16.8044 15.8331C16.8299 15.9127 16.8712 15.9863 16.9258 16.0496C16.9803 16.1129 17.047 16.1647 17.1219 16.2018C17.1968 16.2389 17.2783 16.2606 17.3617 16.2656C17.4452 16.2706 17.5287 16.2589 17.6075 16.231C17.6863 16.2032 17.7587 16.1598 17.8205 16.1035C17.8822 16.0472 17.9321 15.9791 17.967 15.9032C18.002 15.8273 18.0214 15.7451 18.024 15.6616C18.0267 15.5781 18.0125 15.4948 17.9825 15.4169C17.8101 14.9294 17.4908 14.5073 17.0686 14.2088C16.6464 13.9103 16.1421 13.75 15.625 13.75ZM15.625 18.75V21.25C15.9565 21.25 16.2744 21.1183 16.5089 20.8839C16.7433 20.6495 16.875 20.3315 16.875 20C16.875 19.6685 16.7433 19.3505 16.5089 19.1161C16.2744 18.8817 15.9565 18.75 15.625 18.75Z" fill="#2DC545"/>
</svg>
