<svg width="10" height="17" viewBox="0 0 10 17" fill="none" xmlns="http://www.w3.org/2000/svg">
<path d="M1.84329 0.322132L9.06634 7.53802C9.15208 7.62392 9.21295 7.71698 9.24896 7.8172C9.28496 7.91742 9.30268 8.0248 9.30211 8.13934C9.30211 8.25388 9.28411 8.36126 9.2481 8.46148C9.21209 8.5617 9.15151 8.65476 9.06634 8.74066L1.84329 15.978C1.64324 16.1785 1.39319 16.2787 1.09312 16.2787C0.79305 16.2787 0.535849 16.1713 0.321515 15.9565C0.107181 15.7418 1.39947e-05 15.4912 1.39947e-05 15.2049C1.39947e-05 14.9185 0.107181 14.668 0.321515 14.4532L6.62294 8.13934L0.321515 1.82544C0.12147 1.625 0.0214469 1.37789 0.0214469 1.0841C0.0214469 0.790307 0.128615 0.536318 0.342949 0.322132C0.557283 0.107374 0.807339 -5.78849e-06 1.09312 -5.78849e-06C1.3789 -5.78849e-06 1.62895 0.107374 1.84329 0.322132Z" fill="#9A9A9A"/>
</svg>
