<svg width="23" height="28" viewBox="0 0 23 28" fill="none" xmlns="http://www.w3.org/2000/svg">
<path d="M11.1486 13.9358C11.9151 13.9358 12.5715 13.6626 13.1177 13.1164C13.664 12.5701 13.9367 11.9142 13.9358 11.1486C13.9358 10.3822 13.6626 9.72578 13.1164 9.1795C12.5701 8.63321 11.9142 8.36054 11.1486 8.36147C10.3822 8.36147 9.72578 8.63461 9.17949 9.18089C8.63321 9.72717 8.36054 10.3831 8.36146 11.1486C8.36146 11.9151 8.63461 12.5715 9.18089 13.1177C9.72717 13.664 10.3831 13.9367 11.1486 13.9358ZM11.1486 27.349C10.9628 27.349 10.777 27.3141 10.5912 27.2444C10.4054 27.1748 10.2428 27.0819 10.1034 26.9657C6.7124 23.9695 4.18073 21.188 2.50844 18.621C0.836147 16.054 0 13.6561 0 11.4273C0 7.94339 1.1209 5.16785 3.3627 3.10071C5.6045 1.03357 8.19981 0 11.1486 0C14.0984 0 16.6941 1.03357 18.9359 3.10071C21.1777 5.16785 22.2982 7.94339 22.2972 11.4273C22.2972 13.6571 21.4611 16.0554 19.7888 18.6224C18.1165 21.1893 15.5848 23.9705 12.1938 26.9657C12.0544 27.0819 11.8919 27.1748 11.7061 27.2444C11.5202 27.3141 11.3344 27.349 11.1486 27.349Z" fill="#D84A05"/>
</svg>
