<svg width="66" height="66" viewBox="0 0 66 66" fill="none" xmlns="http://www.w3.org/2000/svg">
<circle cx="32.76" cy="32.76" r="32.76" fill="#49D771"/>
<path d="M27.9219 35.8961C27.9219 37.5517 29.202 38.8831 30.7724 38.8831H33.9814C35.3469 38.8831 36.4564 37.7224 36.4564 36.2716C36.4564 34.7183 35.7736 34.155 34.7665 33.7966L29.6288 32.0043C28.6217 31.6459 27.939 31.0997 27.939 29.5293C27.939 28.0955 29.0484 26.9178 30.4139 26.9178H33.6229C35.1933 26.9178 36.4734 28.2491 36.4734 29.9048" stroke="white" stroke-width="3" stroke-linecap="round" stroke-linejoin="round"/>
<path d="M32.189 25.228V40.59" stroke="white" stroke-width="3" stroke-linecap="round" stroke-linejoin="round"/>
<path d="M49.2581 32.909C49.2581 42.331 41.6112 49.9779 32.1891 49.9779C22.767 49.9779 15.1201 42.331 15.1201 32.909C15.1201 23.4869 22.767 15.84 32.1891 15.84" stroke="white" stroke-width="3" stroke-linecap="round" stroke-linejoin="round"/>
<path d="M40.5357 17.6555L40.5357 24.4831L47.3633 24.4831" stroke="white" stroke-width="3" stroke-linecap="round" stroke-linejoin="round"/>
<path d="M40.7236 24.3745L49.2581 15.84" stroke="white" stroke-width="3" stroke-linecap="round" stroke-linejoin="round"/>
</svg>
