<svg width="58" height="58" viewBox="0 0 58 58" fill="none" xmlns="http://www.w3.org/2000/svg">
<rect width="57.5644" height="57.5644" rx="21" fill="#118EEA"/>
<path d="M32.3929 44.1097H24.8304C17.9121 44.1097 14.9712 41.1548 14.9712 34.2505V27.9625C14.9712 27.3883 15.4473 26.9122 16.0215 26.9122C16.5957 26.9122 17.0719 27.3883 17.0719 27.9625V34.2505C17.0719 39.9784 19.1025 42.009 24.8304 42.009H32.3789C38.1067 42.009 40.1374 39.9784 40.1374 34.2505V27.9625C40.1374 27.3883 40.6135 26.9122 41.1877 26.9122C41.7619 26.9122 42.238 27.3883 42.238 27.9625V34.2505C42.252 41.1548 39.2971 44.1097 32.3929 44.1097Z" fill="white"/>
<path d="M28.6105 30.1052C27.07 30.1052 25.6695 29.503 24.6752 28.3966C23.6809 27.2903 23.2188 25.8478 23.3728 24.3073L24.3111 14.9523C24.3671 14.4201 24.8153 14 25.3615 14H31.9015C32.4477 14 32.8958 14.4061 32.9519 14.9523L33.8902 24.3073C34.0442 25.8478 33.5821 27.2903 32.5877 28.3966C31.5514 29.503 30.151 30.1052 28.6105 30.1052ZM26.2997 16.1007L25.4595 24.5174C25.3614 25.4557 25.6415 26.338 26.2297 26.9822C27.4201 28.2986 29.8008 28.2986 30.9912 26.9822C31.5794 26.324 31.8595 25.4417 31.7615 24.5174L30.9212 16.1007H26.2997Z" fill="white"/>
<path d="M37.4488 30.1052C34.6059 30.1052 32.0711 27.8085 31.777 24.9795L30.7967 15.1624C30.7687 14.8683 30.8667 14.5742 31.0628 14.3501C31.2588 14.126 31.5389 14 31.847 14H36.1184C40.2357 14 42.1544 15.7226 42.7286 19.9519L43.1207 23.8452C43.2887 25.4977 42.7846 27.0662 41.7062 28.2566C40.6279 29.447 39.1154 30.1052 37.4488 30.1052ZM33.0094 16.1007L33.8777 24.7695C34.0598 26.52 35.6843 28.0045 37.4488 28.0045C38.5132 28.0045 39.4655 27.5984 40.1517 26.8561C40.8239 26.1139 41.132 25.1196 41.034 24.0552L40.6419 20.204C40.2077 17.039 39.1854 16.1007 36.1184 16.1007H33.0094Z" fill="white"/>
<path d="M19.7035 30.1052C18.037 30.1052 16.5245 29.447 15.4462 28.2566C14.3678 27.0662 13.8637 25.4977 14.0317 23.8452L14.4098 19.9939C14.998 15.7226 16.9166 14 21.034 14H25.3053C25.5994 14 25.8795 14.126 26.0895 14.3501C26.2996 14.5742 26.3836 14.8683 26.3556 15.1624L25.3754 24.9795C25.0813 27.8085 22.5465 30.1052 19.7035 30.1052ZM21.034 16.1007C17.967 16.1007 16.9446 17.025 16.4965 20.232L16.1184 24.0552C16.0063 25.1196 16.3284 26.1139 17.0007 26.8561C17.6729 27.5984 18.6252 28.0045 19.7035 28.0045C21.4681 28.0045 23.1066 26.52 23.2747 24.7695L24.143 16.1007H21.034Z" fill="white"/>
<path d="M32.1131 44.1097H25.1109C24.5367 44.1097 24.0605 43.6336 24.0605 43.0594V39.5582C24.0605 36.6173 25.6711 35.0068 28.612 35.0068C31.553 35.0068 33.1635 36.6173 33.1635 39.5582V43.0594C33.1635 43.6336 32.6873 44.1097 32.1131 44.1097ZM26.1612 42.009H31.0628V39.5582C31.0628 37.7937 30.3766 37.1075 28.612 37.1075C26.8474 37.1075 26.1612 37.7937 26.1612 39.5582V42.009Z" fill="white"/>
</svg>
