<svg width="14" height="14" viewBox="0 0 14 14" fill="none" xmlns="http://www.w3.org/2000/svg">
<path d="M12.6506 14H0.506024C0.229398 14 0 13.7706 0 13.494C0 13.2173 0.229398 12.9879 0.506024 12.9879H12.6506C12.9272 12.9879 13.1566 13.2173 13.1566 13.494C13.1566 13.7706 12.9272 14 12.6506 14Z" fill="#292D32"/>
<path d="M2.26008 4.30383H1.18056C0.809474 4.30383 0.505859 4.60745 0.505859 4.97853V10.7944C0.505859 11.1655 0.809474 11.4691 1.18056 11.4691H2.26008C2.63116 11.4691 2.93478 11.1655 2.93478 10.7944V4.97853C2.93478 4.6007 2.63116 4.30383 2.26008 4.30383Z" fill="#292D32"/>
<path d="M7.1175 2.15326H6.03798C5.6669 2.15326 5.36328 2.45687 5.36328 2.82796V10.7961C5.36328 11.1672 5.6669 11.4708 6.03798 11.4708H7.1175C7.48858 11.4708 7.7922 11.1672 7.7922 10.7961V2.82796C7.7922 2.45687 7.48858 2.15326 7.1175 2.15326Z" fill="#292D32"/>
<path d="M11.9764 0H10.8969C10.5258 0 10.2222 0.303614 10.2222 0.674699V10.7952C10.2222 11.1663 10.5258 11.4699 10.8969 11.4699H11.9764C12.3475 11.4699 12.6511 11.1663 12.6511 10.7952V0.674699C12.6511 0.303614 12.3475 0 11.9764 0Z" fill="#292D32"/>
</svg>
