<svg width="58" height="58" viewBox="0 0 58 58" fill="none" xmlns="http://www.w3.org/2000/svg">
<rect width="57.5644" height="57.5644" rx="21" fill="#118EEA"/>
<path d="M32.4393 44.0165C30.6016 44.0165 28.0008 42.7239 25.945 36.5411L24.8237 33.1772L21.4598 32.0559C15.2926 30.0002 14 27.3994 14 25.5617C14 23.7396 15.2926 21.1232 21.4598 19.0519L34.6819 14.6445C37.9835 13.5388 40.74 13.8659 42.4375 15.5478C44.1351 17.2298 44.4621 20.0019 43.3564 23.3035L38.949 36.5256C36.8777 42.7239 34.2769 44.0165 32.4393 44.0165ZM22.1917 21.2789C17.8623 22.7273 16.3205 24.4404 16.3205 25.5617C16.3205 26.683 17.8623 28.3961 22.1917 29.8289L26.1164 31.1371C26.459 31.2461 26.7393 31.5264 26.8483 31.869L28.1565 35.7936C29.5893 40.1231 31.3179 41.6649 32.4393 41.6649C33.5606 41.6649 35.2737 40.1231 36.722 35.7936L41.1293 22.5715C41.9236 20.1732 41.7834 18.2109 40.7712 17.1986C39.7589 16.1863 37.7966 16.0617 35.4138 16.856L22.1917 21.2789Z" fill="white"/>
<path d="M26.0382 32.7566C25.7423 32.7566 25.4464 32.6476 25.2128 32.414C24.7611 31.9623 24.7611 31.2148 25.2128 30.7632L30.7881 25.1722C31.2398 24.7206 31.9873 24.7206 32.439 25.1722C32.8906 25.6239 32.8906 26.3714 32.439 26.823L26.8636 32.414C26.6456 32.6476 26.3341 32.7566 26.0382 32.7566Z" fill="white"/>
</svg>
