<svg width="11" height="11" viewBox="0 0 11 11" fill="none" xmlns="http://www.w3.org/2000/svg">
<path d="M5.5 0C2.4695 0 0 2.4695 0 5.5C0 8.5305 2.4695 11 5.5 11C8.5305 11 11 8.5305 11 5.5C11 2.4695 8.5305 0 5.5 0ZM8.129 4.235L5.0105 7.3535C4.9335 7.4305 4.829 7.4745 4.719 7.4745C4.609 7.4745 4.5045 7.4305 4.4275 7.3535L2.871 5.797C2.7115 5.6375 2.7115 5.3735 2.871 5.214C3.0305 5.0545 3.2945 5.0545 3.454 5.214L4.719 6.479L7.546 3.652C7.7055 3.4925 7.9695 3.4925 8.129 3.652C8.2885 3.8115 8.2885 4.07 8.129 4.235Z" fill="#118EEA"/>
</svg>
