<svg width="58" height="58" viewBox="0 0 58 58" fill="none" xmlns="http://www.w3.org/2000/svg">
<rect width="57.5644" height="57.5644" rx="21" fill="#118EEA"/>
<path d="M37.2 43H21.2C14.144 43 12 40.856 12 33.8V33C12 32.344 12.544 31.8 13.2 31.8C14.736 31.8 16 30.536 16 29C16 27.464 14.736 26.2 13.2 26.2C12.544 26.2 12 25.656 12 25V24.2C12 17.144 14.144 15 21.2 15H37.2C44.256 15 46.4 17.144 46.4 24.2V25.8C46.4 26.456 45.856 27 45.2 27C43.664 27 42.4 28.264 42.4 29.8C42.4 31.336 43.664 32.6 45.2 32.6C45.856 32.6 46.4 33.144 46.4 33.8C46.4 40.856 44.256 43 37.2 43ZM14.4 34.056C14.432 39.56 15.568 40.6 21.2 40.6H37.2C42.544 40.6 43.84 39.656 43.984 34.856C41.696 34.312 40 32.248 40 29.8C40 27.352 41.712 25.288 44 24.744V24.2C44 18.488 42.928 17.4 37.2 17.4H21.2C15.568 17.4 14.432 18.44 14.4 23.944C16.688 24.488 18.4 26.552 18.4 29C18.4 31.448 16.688 33.512 14.4 34.056Z" fill="white"/>
<path d="M25.9998 21.4C25.3438 21.4 24.7998 20.856 24.7998 20.2V16.2C24.7998 15.544 25.3438 15 25.9998 15C26.6558 15 27.1998 15.544 27.1998 16.2V20.2C27.1998 20.856 26.6558 21.4 25.9998 21.4Z" fill="white"/>
<path d="M25.9998 33.1283C25.3438 33.1283 24.7998 32.5843 24.7998 31.9283V26.0563C24.7998 25.4003 25.3438 24.8563 25.9998 24.8563C26.6558 24.8563 27.1998 25.4003 27.1998 26.0563V31.9283C27.1998 32.6003 26.6558 33.1283 25.9998 33.1283Z" fill="white"/>
<path d="M25.9998 43C25.3438 43 24.7998 42.456 24.7998 41.8V37.8C24.7998 37.144 25.3438 36.6 25.9998 36.6C26.6558 36.6 27.1998 37.144 27.1998 37.8V41.8C27.1998 42.456 26.6558 43 25.9998 43Z" fill="white"/>
</svg>
