<svg width="58" height="58" viewBox="0 0 58 58" fill="none" xmlns="http://www.w3.org/2000/svg">
<rect width="57.5644" height="57.5644" rx="21" fill="#118EEA"/>
<path d="M26.7967 34.3236V37.6921C26.7967 40.5462 24.1417 42.8528 20.8727 42.8528C17.6037 42.8528 14.9321 40.5462 14.9321 37.6921V34.3236C14.9321 37.1777 17.5872 39.2022 20.8727 39.2022C24.1417 39.2022 26.7967 37.1611 26.7967 34.3236Z" stroke="white" stroke-width="2" stroke-linecap="round" stroke-linejoin="round"/>
<path d="M26.7952 29.7596C26.7952 30.5893 26.5629 31.3526 26.1646 32.0164C25.1855 33.626 23.1776 34.6382 20.8545 34.6382C18.5314 34.6382 16.5236 33.6094 15.5445 32.0164C15.1463 31.3526 14.9141 30.5893 14.9141 29.7596C14.9141 28.3326 15.5778 27.0549 16.6398 26.1256C17.7184 25.1798 19.1951 24.6156 20.8379 24.6156C22.4807 24.6156 23.9576 25.1964 25.0362 26.1256C26.1314 27.0383 26.7952 28.3326 26.7952 29.7596Z" stroke="white" stroke-width="2" stroke-linecap="round" stroke-linejoin="round"/>
<path d="M26.7967 29.7597V34.3229C26.7967 37.1771 24.1417 39.2015 20.8727 39.2015C17.6037 39.2015 14.9321 37.1605 14.9321 34.3229V29.7597C14.9321 26.9056 17.5872 24.599 20.8727 24.599C22.5155 24.599 23.9924 25.1798 25.071 26.1091C26.1329 27.0383 26.7967 28.3326 26.7967 29.7597Z" stroke="white" stroke-width="2" stroke-linecap="round" stroke-linejoin="round"/>
<path d="M45.4623 24.5491V27.9676C45.4623 28.8802 44.7322 29.6268 43.8029 29.66H40.5504C38.7583 29.66 37.1157 28.3491 36.9663 26.5569C36.8668 25.5115 37.2648 24.5325 37.9618 23.8522C38.5757 23.2216 39.4222 22.8566 40.3514 22.8566H43.8029C44.7322 22.8898 45.4623 23.6364 45.4623 24.5491Z" stroke="white" stroke-width="2" stroke-linecap="round" stroke-linejoin="round"/>
<path d="M12.2744 23.7694V20.4506C12.2744 15.9371 14.9958 12.7843 19.2272 12.2533C19.6586 12.187 20.1066 12.1538 20.5713 12.1538H35.5056C35.937 12.1538 36.3519 12.1703 36.7501 12.2367C41.0313 12.7345 43.8024 15.9039 43.8024 20.4506V22.8567H40.3509C39.4217 22.8567 38.5754 23.2218 37.9615 23.8523C37.2645 24.5327 36.8663 25.5117 36.9658 26.5571C37.1152 28.3492 38.758 29.6601 40.5501 29.6601H43.8024V32.0662C43.8024 37.0443 40.4837 40.363 35.5056 40.363H31.3572" stroke="white" stroke-width="2" stroke-linecap="round" stroke-linejoin="round"/>
</svg>
