<svg width="32" height="32" viewBox="0 0 32 32" fill="none" xmlns="http://www.w3.org/2000/svg">
<circle cx="16" cy="16" r="16" fill="white" fill-opacity="0.2"/>
<path d="M17.7954 13.4359L13.4359 17.7954C12.8759 17.2354 12.5312 16.4686 12.5312 15.6157C12.5312 13.9098 13.9097 12.5313 15.6156 12.5313C16.4686 12.5313 17.2354 12.8759 17.7954 13.4359Z" stroke="white" stroke-width="1.5" stroke-linecap="round" stroke-linejoin="round"/>
<path d="M10.1015 20.5783C9.2399 19.8374 8.45587 18.9241 7.76662 17.8471C6.99121 16.6323 6.99121 14.5904 7.76662 13.3756C8.78327 11.7817 10.0239 10.5324 11.4111 9.6967" stroke="white" stroke-width="1.5" stroke-linecap="round" stroke-linejoin="round"/>
<path d="M20.6301 10.2481C19.1223 9.11082 17.3992 8.49049 15.6157 8.49049" stroke="white" stroke-width="1.5" stroke-linecap="round" stroke-linejoin="round"/>
<path d="M12.5312 22.1034C13.5134 22.5169 14.5559 22.7409 15.6156 22.7409C18.657 22.7409 21.4915 20.9489 23.4645 17.8472C24.2399 16.6324 24.2399 14.5905 23.4645 13.3756C23.1802 12.9276 22.8701 12.5055 22.5513 12.1091" stroke="white" stroke-width="1.5" stroke-linecap="round" stroke-linejoin="round"/>
<path d="M18.6391 16.2188C18.4151 17.4336 17.4243 18.4244 16.2095 18.6484" stroke="white" stroke-width="1.5" stroke-linecap="round" stroke-linejoin="round"/>
<path d="M13.4359 17.7954L7 24.2314" stroke="white" stroke-width="1.5" stroke-linecap="round" stroke-linejoin="round"/>
<path d="M24.2308 6.99998L17.7949 13.4359" stroke="white" stroke-width="1.5" stroke-linecap="round" stroke-linejoin="round"/>
</svg>
