<svg width="30" height="29" viewBox="0 0 30 29" fill="none" xmlns="http://www.w3.org/2000/svg">
<ellipse cx="15" cy="14.5" rx="15" ry="14.5" fill="#EBEBEB"/>
<path d="M14.9511 17.5586C13.3401 17.5586 12.0327 16.2947 12.0327 14.7375C12.0327 13.1803 13.3401 11.9164 14.9511 11.9164C16.562 11.9164 17.8695 13.1803 17.8695 14.7375C17.8695 16.2947 16.562 17.5586 14.9511 17.5586ZM14.9511 13.0448C13.9861 13.0448 13.2001 13.8047 13.2001 14.7375C13.2001 15.6703 13.9861 16.4302 14.9511 16.4302C15.9161 16.4302 16.7021 15.6703 16.7021 14.7375C16.7021 13.8047 15.9161 13.0448 14.9511 13.0448Z" fill="#292D32"/>
<path d="M17.4496 22.4032C17.2861 22.4032 17.1227 22.3806 16.9593 22.343C16.4768 22.2151 16.0721 21.9217 15.8153 21.508L15.7219 21.3575C15.2627 20.5902 14.6324 20.5902 14.1732 21.3575L14.0876 21.5004C13.8308 21.9217 13.4261 22.2226 12.9436 22.343C12.4533 22.4709 11.9475 22.4032 11.5194 22.1549L10.1809 21.4102C9.70616 21.1469 9.36374 20.7181 9.21587 20.199C9.07579 19.6799 9.14583 19.1458 9.41821 18.6869C9.6439 18.3032 9.70616 17.9572 9.57386 17.739C9.44156 17.5208 9.10692 17.3929 8.64776 17.3929C7.51155 17.3929 6.58545 16.4977 6.58545 15.3994V14.0753C6.58545 12.977 7.51155 12.0818 8.64776 12.0818C9.10692 12.0818 9.44156 11.9539 9.57386 11.7357C9.70616 11.5175 9.65168 11.1715 9.41821 10.7878C9.14583 10.3289 9.07579 9.78728 9.21587 9.27572C9.35595 8.75664 9.69838 8.32783 10.1809 8.06453L11.5272 7.31976C12.4066 6.81573 13.5662 7.10912 14.0954 7.97425L14.1888 8.12471C14.6479 8.89205 15.2783 8.89205 15.7375 8.12471L15.8231 7.98178C16.3523 7.10912 17.5118 6.81573 18.399 7.32728L19.7376 8.07205C20.2123 8.33535 20.5547 8.76416 20.7026 9.28324C20.8427 9.80232 20.7726 10.3364 20.5002 10.7953C20.2745 11.179 20.2123 11.5251 20.3446 11.7432C20.4769 11.9614 20.8115 12.0893 21.2707 12.0893C22.4069 12.0893 23.333 12.9845 23.333 14.0829V15.4069C23.333 16.5052 22.4069 17.4005 21.2707 17.4005C20.8115 17.4005 20.4769 17.5283 20.3446 17.7465C20.2123 17.9647 20.2668 18.3107 20.5002 18.6944C20.7726 19.1533 20.8504 19.6949 20.7026 20.2065C20.5625 20.7256 20.2201 21.1544 19.7376 21.4177L18.3912 22.1625C18.0955 22.3204 17.7764 22.4032 17.4496 22.4032ZM14.9514 19.6197C15.6441 19.6197 16.29 20.041 16.7336 20.7858L16.8192 20.9287C16.9126 21.0867 17.0682 21.1995 17.255 21.2447C17.4418 21.2898 17.6286 21.2672 17.7842 21.177L19.1305 20.4247C19.3329 20.3118 19.4885 20.1238 19.5508 19.8981C19.6131 19.6724 19.5819 19.4392 19.4652 19.2436C19.0216 18.5063 18.9671 17.7465 19.3095 17.1672C19.652 16.588 20.3602 16.257 21.2473 16.257C21.7454 16.257 22.1423 15.8733 22.1423 15.3918V14.0678C22.1423 13.5939 21.7454 13.2027 21.2473 13.2027C20.3602 13.2027 19.652 12.8717 19.3095 12.2924C18.9671 11.7131 19.0216 10.9533 19.4652 10.2161C19.5819 10.0205 19.6131 9.78728 19.5508 9.56159C19.4885 9.3359 19.3407 9.15535 19.1383 9.03498L17.792 8.29022C17.4573 8.09462 17.0138 8.20746 16.8114 8.53847L16.7258 8.68141C16.2822 9.42618 15.6363 9.84746 14.9437 9.84746C14.251 9.84746 13.6051 9.42618 13.1615 8.68141L13.0759 8.53095C12.8813 8.21499 12.4455 8.10214 12.1109 8.29022L10.7646 9.04251C10.5622 9.15535 10.4066 9.34342 10.3443 9.56911C10.2821 9.7948 10.3132 10.028 10.4299 10.2236C10.8735 10.9608 10.928 11.7207 10.5856 12.2999C10.2431 12.8792 9.53495 13.2102 8.64776 13.2102C8.1497 13.2102 7.7528 13.5939 7.7528 14.0753V15.3994C7.7528 15.8733 8.1497 16.2645 8.64776 16.2645C9.53495 16.2645 10.2431 16.5955 10.5856 17.1748C10.928 17.754 10.8735 18.5138 10.4299 19.2511C10.3132 19.4467 10.2821 19.6799 10.3443 19.9056C10.4066 20.1313 10.5544 20.3118 10.7568 20.4322L12.1031 21.177C12.2665 21.2748 12.4611 21.2973 12.6401 21.2522C12.8269 21.2071 12.9825 21.0867 13.0837 20.9287L13.1693 20.7858C13.6129 20.0485 14.2588 19.6197 14.9514 19.6197Z" fill="#292D32"/>
</svg>
