<svg width="58" height="58" viewBox="0 0 58 58" fill="none" xmlns="http://www.w3.org/2000/svg">
<rect width="57.5644" height="57.5644" rx="21" fill="#118EEA"/>
<path d="M40.1767 25.177C40.1767 27.4922 39.4901 29.6158 38.3085 31.3882C36.5841 33.9429 33.8537 35.7472 30.6763 36.2102C30.1334 36.306 29.5745 36.3539 28.9997 36.3539C28.4249 36.3539 27.8661 36.306 27.3232 36.2102C24.1457 35.7472 21.4154 33.9429 19.6909 31.3882C18.5093 29.6158 17.8228 27.4922 17.8228 25.177C17.8228 18.9977 22.8205 14 28.9997 14C35.179 14 40.1767 18.9977 40.1767 25.177Z" stroke="white" stroke-width="2" stroke-linecap="round" stroke-linejoin="round"/>
<path d="M43.7696 40.2978L41.135 40.9205C40.5442 41.0642 40.0812 41.5113 39.9535 42.1021L39.3946 44.4492C39.0912 45.7266 37.4626 46.1098 36.6163 45.1039L29 36.3539L21.3837 45.1199C20.5374 46.1258 18.9088 45.7426 18.6054 44.4652L18.0465 42.1181C17.9028 41.5273 17.4398 41.0642 16.865 40.9365L14.2304 40.3138C13.0169 40.0264 12.5858 38.5095 13.464 37.6313L19.6912 31.4041C21.4156 33.9589 24.146 35.7631 27.3235 36.2262C27.8664 36.322 28.4252 36.3699 29 36.3699C29.5748 36.3699 30.1337 36.322 30.6766 36.2262C33.854 35.7631 36.5844 33.9589 38.3089 31.4041L44.536 37.6313C45.4142 38.4935 44.9831 40.0104 43.7696 40.2978Z" stroke="white" stroke-width="2" stroke-linecap="round" stroke-linejoin="round"/>
<path d="M29.9258 20.3549L30.8679 22.239C30.9956 22.4945 31.3309 22.75 31.6343 22.7979L33.3428 23.0853C34.4286 23.2609 34.684 24.0593 33.9016 24.8417L32.5764 26.1669C32.3528 26.3905 32.2251 26.8216 32.3049 27.1409L32.6881 28.7856C32.9915 30.0789 32.3049 30.5898 31.1553 29.9032L29.5586 28.9612C29.2712 28.7855 28.7922 28.7855 28.5048 28.9612L26.9081 29.9032C25.7584 30.5739 25.0718 30.0789 25.3752 28.7856L25.7584 27.1409C25.8223 26.8376 25.7105 26.3905 25.4869 26.1669L24.1617 24.8417C23.3793 24.0593 23.6348 23.2769 24.7205 23.0853L26.429 22.7979C26.7165 22.75 27.0518 22.4945 27.1795 22.239L28.1216 20.3549C28.5846 19.333 29.4149 19.333 29.9258 20.3549Z" stroke="white" stroke-width="2" stroke-linecap="round" stroke-linejoin="round"/>
</svg>
