<svg width="65" height="66" viewBox="0 0 65 66" fill="none" xmlns="http://www.w3.org/2000/svg">
<ellipse cx="32.5" cy="33" rx="32.5" ry="33" fill="#118EEA"/>
<path d="M27.7261 32.6567C27.667 32.6567 27.6276 32.6567 27.5686 32.6567C27.4701 32.637 27.3323 32.637 27.2142 32.6567C21.5046 32.4795 17.1929 27.9906 17.1929 22.4582C17.1929 16.8274 21.7802 12.24 27.4111 12.24C33.0418 12.24 37.6292 16.8274 37.6292 22.4582C37.6095 27.9906 33.2781 32.4795 27.7852 32.6567C27.7655 32.6567 27.7458 32.6567 27.7261 32.6567ZM27.4111 15.1932C23.4144 15.1932 20.1461 18.4615 20.1461 22.4582C20.1461 26.3958 23.2175 29.5657 27.1354 29.7035C27.2536 29.6838 27.5095 29.6838 27.7655 29.7035C31.6243 29.5263 34.6563 26.3565 34.6759 22.4582C34.6759 18.4615 31.4077 15.1932 27.4111 15.1932Z" fill="white"/>
<path d="M42.2557 32.9127C42.1967 32.9127 42.1376 32.9127 42.0785 32.893C41.2713 32.9718 40.4444 32.4008 40.3657 31.5936C40.2869 30.7864 40.7791 30.0579 41.5863 29.9595C41.8226 29.9398 42.0785 29.9398 42.2951 29.9398C45.1696 29.7823 47.414 27.4197 47.414 24.5255C47.414 21.5329 44.9924 19.1112 41.9998 19.1112C41.1926 19.1309 40.5232 18.4615 40.5232 17.6543C40.5232 16.8471 41.1926 16.1777 41.9998 16.1777C46.6068 16.1777 50.3673 19.9381 50.3673 24.5452C50.3673 29.0735 46.8234 32.7355 42.3148 32.9127C42.2951 32.9127 42.2754 32.9127 42.2557 32.9127Z" fill="white"/>
<path d="M27.7439 54.176C23.885 54.176 20.0064 53.1916 17.0728 51.2227C14.3362 49.4114 12.8398 46.9307 12.8398 44.2334C12.8398 41.5361 14.3362 39.0357 17.0728 37.2047C22.9793 33.2867 32.5478 33.2867 38.4149 37.2047C41.1318 39.016 42.6478 41.4967 42.6478 44.194C42.6478 46.8913 41.1515 49.3917 38.4149 51.2227C35.4616 53.1916 31.6027 54.176 27.7439 54.176ZM18.7069 39.6854C16.8169 40.9455 15.7931 42.5599 15.7931 44.2531C15.7931 45.9266 16.8366 47.541 18.7069 48.7814C23.6093 52.0693 31.8784 52.0693 36.7807 48.7814C38.6708 47.5213 39.6946 45.9069 39.6946 44.2137C39.6946 42.5402 38.6511 40.9258 36.7807 39.6854C31.8784 36.4172 23.6093 36.4172 18.7069 39.6854Z" fill="white"/>
<path d="M45.7992 50.6321C45.1101 50.6321 44.4998 50.1596 44.362 49.4508C44.2045 48.6436 44.7164 47.8758 45.5039 47.6986C46.7442 47.4426 47.8862 46.9504 48.7721 46.2613C49.8944 45.4147 50.5047 44.3516 50.5047 43.2293C50.5047 42.1071 49.8944 41.044 48.7918 40.217C47.9255 39.5476 46.8427 39.0751 45.5629 38.7798C44.7754 38.6026 44.2635 37.8151 44.4407 37.0079C44.6179 36.2203 45.4054 35.7084 46.2127 35.8856C47.9059 36.2597 49.3825 36.9291 50.5835 37.8545C52.4145 39.2326 53.4579 41.1818 53.4579 43.2293C53.4579 45.2769 52.3948 47.2261 50.5638 48.6239C49.3431 49.569 47.8074 50.2581 46.1142 50.5928C45.9961 50.6321 45.8977 50.6321 45.7992 50.6321Z" fill="white"/>
</svg>
