<svg width="58" height="58" viewBox="0 0 58 58" fill="none" xmlns="http://www.w3.org/2000/svg">
<rect width="57.5644" height="57.5644" rx="21" fill="#118EEA"/>
<path d="M35.1979 45.5533H22.71C17.3715 45.5533 15.2954 43.4772 15.2954 38.1387V25.6509C15.2954 25.0109 15.8261 24.4802 16.4661 24.4802H41.4418C42.0818 24.4802 42.6125 25.0109 42.6125 25.6509V38.1387C42.6125 43.4772 40.5364 45.5533 35.1979 45.5533ZM17.6369 26.8216V38.1387C17.6369 42.166 18.6827 43.2119 22.71 43.2119H35.1979C39.2252 43.2119 40.271 42.166 40.271 38.1387V26.8216H17.6369Z" fill="white"/>
<path d="M40.7073 26.8216H17.2927C14.561 26.8216 13 25.2607 13 22.529V20.968C13 18.2363 14.561 16.6753 17.2927 16.6753H40.7073C43.361 16.6753 45 18.3143 45 20.968V22.529C45 25.1826 43.361 26.8216 40.7073 26.8216ZM17.2927 19.0168C15.8722 19.0168 15.3415 19.5475 15.3415 20.968V22.529C15.3415 23.9494 15.8722 24.4802 17.2927 24.4802H40.7073C42.081 24.4802 42.6585 23.9026 42.6585 22.529V20.968C42.6585 19.5943 42.081 19.0168 40.7073 19.0168H17.2927Z" fill="white"/>
<path d="M28.4369 19.0166H19.8203C19.4925 19.0166 19.1803 18.8761 18.9618 18.642C18.0096 17.5961 18.0408 15.9883 19.0399 14.9893L21.2564 12.7727C22.2867 11.7424 23.9882 11.7424 25.0184 12.7727L29.2642 17.0185C29.592 17.3463 29.7013 17.8615 29.514 18.2985C29.3423 18.7356 28.9208 19.0166 28.4369 19.0166ZM20.6789 16.6751H25.6272L23.3638 14.4273C23.2389 14.3024 23.036 14.3024 22.9111 14.4273L20.6945 16.6439C20.6945 16.6595 20.6789 16.6595 20.6789 16.6751Z" fill="white"/>
<path d="M38.1634 19.0166H29.5468C29.0786 19.0166 28.6415 18.7356 28.4698 18.2985C28.2825 17.8615 28.3917 17.362 28.7195 17.0185L32.9654 12.7727C33.9956 11.7424 35.6971 11.7424 36.7273 12.7727L38.9439 14.9893C39.9429 15.9883 39.9898 17.5961 39.022 18.642C38.8034 18.8761 38.4912 19.0166 38.1634 19.0166ZM32.3878 16.6751H37.3361C37.3205 16.6595 37.3205 16.6595 37.3049 16.6439L35.0883 14.4273C34.9634 14.3024 34.7605 14.3024 34.6356 14.4273L32.3878 16.6751Z" fill="white"/>
<path d="M25.7835 36.4216C25.3464 36.4216 24.8937 36.3124 24.4879 36.0938C23.5981 35.6099 23.0518 34.6889 23.0518 33.6899V25.6509C23.0518 25.0109 23.5825 24.4802 24.2225 24.4802H33.6509C34.2909 24.4802 34.8216 25.0109 34.8216 25.6509V33.6587C34.8216 34.6733 34.2753 35.5943 33.3855 36.0626C32.4957 36.5465 31.4187 36.4841 30.5757 35.9221L29.1865 34.9855C29.0616 34.8919 28.8899 34.8919 28.7494 34.9855L27.2821 35.9533C26.8294 36.2655 26.2987 36.4216 25.7835 36.4216ZM25.3932 26.8216V33.6743C25.3932 33.8772 25.5181 33.9709 25.5961 34.0177C25.6742 34.0646 25.8303 34.1114 26.0021 34.0021L27.4694 33.0343C28.3904 32.4255 29.5767 32.4255 30.4821 33.0343L31.8713 33.9709C32.0431 34.0802 32.1992 34.0333 32.2772 33.9865C32.3553 33.9397 32.4801 33.846 32.4801 33.6431V26.806H25.3932V26.8216Z" fill="white"/>
</svg>
