<svg width="10" height="16" viewBox="0 0 10 16" fill="none" xmlns="http://www.w3.org/2000/svg">
<path d="M8.06448 15.3295L1.18407 8.46952C1.1024 8.38785 1.04442 8.29938 1.01012 8.2041C0.975819 8.10882 0.958941 8.00674 0.959485 7.89785C0.959485 7.78896 0.976635 7.68688 1.01094 7.5916C1.04524 7.49632 1.10295 7.40785 1.18407 7.32619L8.06448 0.445768C8.25504 0.255213 8.49323 0.159935 8.77907 0.159935C9.0649 0.159935 9.3099 0.262018 9.51407 0.466185C9.71823 0.670352 9.82032 0.908546 9.82032 1.18077C9.82032 1.45299 9.71823 1.69119 9.51407 1.89535L3.51157 7.89785L9.51407 13.9004C9.70462 14.0909 9.7999 14.3258 9.7999 14.6051C9.7999 14.8844 9.69782 15.1259 9.49365 15.3295C9.28948 15.5337 9.05129 15.6358 8.77907 15.6358C8.50685 15.6358 8.26865 15.5337 8.06448 15.3295Z" fill="#118EEA"/>
</svg>
