<svg width="58" height="58" viewBox="0 0 58 58" fill="none" xmlns="http://www.w3.org/2000/svg">
<rect width="57.5644" height="57.5644" rx="21" fill="#EC7505"/>
<path fill-rule="evenodd" clip-rule="evenodd" d="M19.7682 38.5397V44.5611C14.5274 41.5479 11 35.9055 11 29.4421C11 24.5296 13.0376 20.0915 16.3163 16.9215C16.1749 17.7488 16.0993 18.6213 16.0993 19.5227C16.0993 23.5621 17.6175 27.0194 19.7682 28.4403V34.947H19.5182C18.5261 34.947 17.7219 35.7513 17.7219 36.7434C17.7219 37.7355 18.5261 38.5397 19.5182 38.5397H19.7682ZM23.9611 38.5397V46.2917C25.4086 46.6781 26.9302 46.8841 28.5 46.8841C31.3268 46.8841 33.9971 46.2161 36.3605 45.0298H31.745H31.5133C29.5291 45.0298 27.9205 43.4213 27.9205 41.4371C27.9205 39.8369 26.6234 38.5397 25.0232 38.5397H23.9611ZM41.2048 41.4371C44.1769 38.311 46 34.0887 46 29.4421C46 19.8091 38.165 12 28.5 12C27.5649 12 26.6469 12.0731 25.7515 12.2139C27.0081 13.9763 27.8046 16.5968 27.8046 19.5227C27.8046 23.6707 26.2038 27.2047 23.9611 28.5504V34.947H25.0232C26.6233 34.947 27.9205 33.6498 27.9205 32.0497C27.9205 30.0655 29.5291 28.457 31.5133 28.457H31.745H42.0017C42.9938 28.457 43.798 29.2612 43.798 30.2533C43.798 31.2454 42.9938 32.0497 42.0017 32.0497H33.1937C32.3936 32.0497 31.745 32.6983 31.745 33.4983C31.745 34.2984 32.3936 34.947 33.1937 34.947H42.0017C42.9938 34.947 43.798 35.7513 43.798 36.7434C43.798 37.7355 42.9938 38.5397 42.0017 38.5397H33.1937C32.3936 38.5397 31.745 39.1883 31.745 39.9884C31.745 40.7885 32.3936 41.4371 33.1937 41.4371H41.2048Z" fill="white"/>
</svg>
