<svg width="74" height="17" viewBox="0 0 74 17" fill="none" xmlns="http://www.w3.org/2000/svg">
<path d="M20.8228 11.1632H23.5819V12H19.7938V4.11847H20.8228V11.1632ZM30.3286 8.6642C30.3286 8.8602 30.3173 9.06751 30.2947 9.28613H25.3419C25.3795 9.89675 25.5869 10.3754 25.9638 10.7222C26.3482 11.0615 26.8119 11.2311 27.3546 11.2311C27.7994 11.2311 28.1688 11.1293 28.4628 10.9258C28.7643 10.7147 28.9754 10.4358 29.096 10.089H30.2042C30.0384 10.6845 29.7067 11.1708 29.2091 11.5477C28.7116 11.9171 28.0934 12.1018 27.3546 12.1018C26.7666 12.1018 26.2389 11.9698 25.7716 11.706C25.3117 11.4421 24.9499 11.069 24.686 10.5865C24.4222 10.0965 24.2902 9.53113 24.2902 8.89036C24.2902 8.24958 24.4184 7.68796 24.6747 7.2055C24.931 6.72303 25.2891 6.35364 25.7489 6.09733C26.2163 5.83349 26.7516 5.70156 27.3546 5.70156C27.9426 5.70156 28.4628 5.82972 28.9151 6.08603C29.3674 6.34234 29.7142 6.69665 29.9554 7.14896C30.2042 7.59373 30.3286 8.09881 30.3286 8.6642ZM29.2657 8.44935C29.2657 8.05735 29.179 7.72189 29.0056 7.44296C28.8322 7.1565 28.5947 6.94165 28.2932 6.79842C27.9992 6.64765 27.6713 6.57226 27.3094 6.57226C26.7893 6.57226 26.3445 6.73811 25.9751 7.0698C25.6132 7.4015 25.4059 7.86135 25.3532 8.44935H29.2657ZM32.942 6.65142V10.3038C32.942 10.6054 33.0061 10.8202 33.1342 10.9484C33.2624 11.069 33.4848 11.1293 33.8014 11.1293H34.559V12H33.6318C33.0589 12 32.6292 11.8681 32.3427 11.6042C32.0562 11.3404 31.913 10.9069 31.913 10.3038V6.65142H31.1102V5.80333H31.913V4.24286H32.942V5.80333H34.559V6.65142H32.942ZM37.9995 12.1018C37.5246 12.1018 37.0987 12.0226 36.7217 11.8643C36.3448 11.6985 36.047 11.4723 35.8284 11.1858C35.6098 10.8918 35.4892 10.5564 35.4666 10.1794H36.5295C36.5597 10.4885 36.7029 10.7411 36.9592 10.9371C37.223 11.1331 37.566 11.2311 37.9882 11.2311C38.3802 11.2311 38.6893 11.1444 38.9154 10.971C39.1416 10.7976 39.2547 10.579 39.2547 10.3151C39.2547 10.0438 39.1341 9.84398 38.8928 9.71583C38.6516 9.58013 38.2784 9.44821 37.7734 9.32005C37.3135 9.19944 36.9366 9.07882 36.6426 8.9582C36.3561 8.83005 36.1073 8.64536 35.8963 8.40412C35.6927 8.15535 35.591 7.8312 35.591 7.43165C35.591 7.11504 35.6852 6.8248 35.8736 6.56095C36.0621 6.29711 36.3297 6.0898 36.6765 5.93903C37.0233 5.78072 37.419 5.70156 37.8638 5.70156C38.5498 5.70156 39.1039 5.87495 39.5261 6.22172C39.9482 6.56849 40.1744 7.04342 40.2045 7.6465H39.1755C39.1529 7.32234 39.021 7.06227 38.7797 6.86626C38.5461 6.67026 38.2294 6.57226 37.8299 6.57226C37.4605 6.57226 37.1665 6.65142 36.9479 6.80973C36.7293 6.96803 36.62 7.17534 36.62 7.43165C36.62 7.63519 36.684 7.80481 36.8122 7.9405C36.9479 8.06866 37.1137 8.1742 37.3097 8.25712C37.5133 8.33251 37.7922 8.4192 38.1465 8.5172C38.5913 8.63782 38.9531 8.75843 39.2321 8.87905C39.511 8.99213 39.7484 9.16551 39.9445 9.39921C40.148 9.6329 40.2535 9.93821 40.2611 10.3151C40.2611 10.6544 40.1668 10.9597 39.9784 11.2311C39.7899 11.5025 39.5223 11.7173 39.1755 11.8756C38.8363 12.0264 38.4443 12.1018 37.9995 12.1018Z" fill="black"/>
<path d="M41.2161 8.01966C41.2161 7.23565 41.3858 6.53834 41.725 5.92772C42.0642 5.30956 42.5354 4.83086 43.1385 4.49163C43.7491 4.14486 44.4389 3.97147 45.2078 3.97147C46.1501 3.97147 46.9567 4.22024 47.6277 4.71778C48.2986 5.21533 48.7471 5.89379 48.9733 6.75319H46.8474C46.6891 6.42149 46.4629 6.16895 46.1689 5.99556C45.8825 5.82218 45.5546 5.73549 45.1852 5.73549C44.5896 5.73549 44.1072 5.94279 43.7378 6.35741C43.3684 6.77203 43.1837 7.32611 43.1837 8.01966C43.1837 8.7132 43.3684 9.26728 43.7378 9.6819C44.1072 10.0965 44.5896 10.3038 45.1852 10.3038C45.5546 10.3038 45.8825 10.2171 46.1689 10.0438C46.4629 9.87037 46.6891 9.61783 46.8474 9.28613H48.9733C48.7471 10.1455 48.2986 10.824 47.6277 11.3215C46.9567 11.8115 46.1501 12.0565 45.2078 12.0565C44.4389 12.0565 43.7491 11.8869 43.1385 11.5477C42.5354 11.2009 42.0642 10.7222 41.725 10.1116C41.3858 9.50098 41.2161 8.80367 41.2161 8.01966ZM55.0989 10.5978H52.1363L51.6613 12H49.6373L52.5094 4.06193H54.7484L57.6206 12H55.5738L55.0989 10.5978ZM54.6014 9.10521L53.6176 6.1991L52.6451 9.10521H54.6014ZM61.3669 12.0792C60.7864 12.0792 60.2663 11.9849 59.8064 11.7965C59.3466 11.608 58.9772 11.3291 58.6982 10.9597C58.4269 10.5903 58.2836 10.1455 58.2685 9.62536H60.3266C60.3567 9.91937 60.4585 10.1455 60.6319 10.3038C60.8053 10.4546 61.0314 10.53 61.3103 10.53C61.5968 10.53 61.823 10.4659 61.9888 10.3378C62.1547 10.2021 62.2376 10.0174 62.2376 9.78367C62.2376 9.58767 62.1697 9.42559 62.034 9.29744C61.9059 9.16928 61.7438 9.06374 61.5478 8.98082C61.3593 8.8979 61.088 8.80366 60.7336 8.69813C60.221 8.53982 59.8026 8.38151 59.4785 8.2232C59.1543 8.06489 58.8754 7.8312 58.6417 7.52212C58.408 7.21304 58.2912 6.80973 58.2912 6.31218C58.2912 5.57341 58.5588 4.99671 59.094 4.58209C59.6292 4.15993 60.3266 3.94885 61.186 3.94885C62.0604 3.94885 62.7653 4.15993 63.3005 4.58209C63.8357 4.99671 64.1222 5.57718 64.1599 6.32349H62.068C62.0529 6.06718 61.9587 5.86741 61.7853 5.72418C61.6119 5.57341 61.3895 5.49802 61.1181 5.49802C60.8844 5.49802 60.6959 5.5621 60.5527 5.69025C60.4095 5.81087 60.3379 5.98803 60.3379 6.22172C60.3379 6.47803 60.4585 6.6778 60.6997 6.82103C60.941 6.96426 61.3179 7.1188 61.8305 7.28465C62.3431 7.45804 62.7577 7.62389 63.0744 7.78219C63.3985 7.9405 63.6774 8.17043 63.9111 8.47197C64.1448 8.77351 64.2617 9.16175 64.2617 9.63667C64.2617 10.089 64.1448 10.4998 63.9111 10.8692C63.685 11.2386 63.3533 11.5326 62.916 11.7512C62.4788 11.9698 61.9624 12.0792 61.3669 12.0792ZM72.3268 4.06193V12H70.3931V8.73205H67.3853V12H65.4516V4.06193H67.3853V7.17157H70.3931V4.06193H72.3268Z" fill="#118EEA"/>
<path d="M10.3245 2.82693H3.49268C1.44314 2.82693 0.0767822 3.8517 0.0767822 6.24283V11.0251C0.0767822 13.4162 1.44314 14.441 3.49268 14.441H10.3245C12.374 14.441 13.7404 13.4162 13.7404 11.0251V6.24283C13.7404 3.8517 12.374 2.82693 10.3245 2.82693ZM2.98029 10.3419C2.98029 10.622 2.74801 10.8543 2.46791 10.8543C2.1878 10.8543 1.95552 10.622 1.95552 10.3419V6.92601C1.95552 6.6459 2.1878 6.41362 2.46791 6.41362C2.74801 6.41362 2.98029 6.6459 2.98029 6.92601V10.3419ZM6.90857 10.6835C5.77449 10.6835 4.85903 9.76803 4.85903 8.63395C4.85903 7.49988 5.77449 6.58442 6.90857 6.58442C8.04265 6.58442 8.95811 7.49988 8.95811 8.63395C8.95811 9.76803 8.04265 10.6835 6.90857 10.6835ZM11.8616 10.3419C11.8616 10.622 11.6293 10.8543 11.3492 10.8543C11.0691 10.8543 10.8368 10.622 10.8368 10.3419V6.92601C10.8368 6.6459 11.0691 6.41362 11.3492 6.41362C11.6293 6.41362 11.8616 6.6459 11.8616 6.92601V10.3419Z" fill="#118EEA"/>
</svg>
