<svg width="58" height="58" viewBox="0 0 58 58" fill="none" xmlns="http://www.w3.org/2000/svg">
<rect width="57.5644" height="57.5644" rx="21" fill="#118EEA"/>
<path d="M20.3999 25.8V23.1C20.3999 18.6315 21.7499 15 28.4999 15C35.2499 15 36.5999 18.6315 36.5999 23.1V25.8" stroke="white" stroke-width="2" stroke-linecap="round" stroke-linejoin="round"/>
<path d="M35.25 42H21.75C16.35 42 15 40.65 15 35.25V32.55C15 27.15 16.35 25.8 21.75 25.8H35.25C40.65 25.8 42 27.15 42 32.55V35.25C42 40.65 40.65 42 35.25 42Z" stroke="white" stroke-width="2" stroke-linecap="round" stroke-linejoin="round"/>
<path d="M33.895 33.9H33.9078" stroke="white" stroke-width="2" stroke-linecap="round" stroke-linejoin="round"/>
<path d="M28.4941 33.9H28.507" stroke="white" stroke-width="2" stroke-linecap="round" stroke-linejoin="round"/>
<path d="M23.0928 33.9H23.1056" stroke="white" stroke-width="2" stroke-linecap="round" stroke-linejoin="round"/>
</svg>
