<svg width="155" height="36" viewBox="0 0 155 36" fill="none" xmlns="http://www.w3.org/2000/svg">
<path d="M44.032 24.224H49.888V26H41.848V9.272H44.032V24.224ZM64.2074 18.92C64.2074 19.336 64.1834 19.776 64.1354 20.24H53.6234C53.7034 21.536 54.1434 22.552 54.9434 23.288C55.7594 24.008 56.7434 24.368 57.8954 24.368C58.8394 24.368 59.6234 24.152 60.2474 23.72C60.8874 23.272 61.3354 22.68 61.5914 21.944H63.9434C63.5914 23.208 62.8874 24.24 61.8314 25.04C60.7754 25.824 59.4634 26.216 57.8954 26.216C56.6474 26.216 55.5274 25.936 54.5354 25.376C53.5594 24.816 52.7914 24.024 52.2314 23C51.6714 21.96 51.3914 20.76 51.3914 19.4C51.3914 18.04 51.6634 16.848 52.2074 15.824C52.7514 14.8 53.5114 14.016 54.4874 13.472C55.4794 12.912 56.6154 12.632 57.8954 12.632C59.1434 12.632 60.2474 12.904 61.2074 13.448C62.1674 13.992 62.9034 14.744 63.4154 15.704C63.9434 16.648 64.2074 17.72 64.2074 18.92ZM61.9514 18.464C61.9514 17.632 61.7674 16.92 61.3994 16.328C61.0314 15.72 60.5274 15.264 59.8874 14.96C59.2634 14.64 58.5674 14.48 57.7994 14.48C56.6954 14.48 55.7514 14.832 54.9674 15.536C54.1994 16.24 53.7594 17.216 53.6474 18.464H61.9514ZM69.7542 14.648V22.4C69.7542 23.04 69.8902 23.496 70.1622 23.768C70.4342 24.024 70.9062 24.152 71.5782 24.152H73.1862V26H71.2182C70.0022 26 69.0902 25.72 68.4822 25.16C67.8742 24.6 67.5702 23.68 67.5702 22.4V14.648H65.8662V12.848H67.5702V9.536H69.7542V12.848H73.1862V14.648H69.7542ZM80.4884 26.216C79.4804 26.216 78.5764 26.048 77.7764 25.712C76.9764 25.36 76.3444 24.88 75.8804 24.272C75.4164 23.648 75.1604 22.936 75.1124 22.136H77.3684C77.4324 22.792 77.7364 23.328 78.2804 23.744C78.8404 24.16 79.5684 24.368 80.4644 24.368C81.2964 24.368 81.9524 24.184 82.4324 23.816C82.9124 23.448 83.1524 22.984 83.1524 22.424C83.1524 21.848 82.8964 21.424 82.3844 21.152C81.8724 20.864 81.0804 20.584 80.0084 20.312C79.0324 20.056 78.2324 19.8 77.6084 19.544C77.0004 19.272 76.4724 18.88 76.0244 18.368C75.5924 17.84 75.3764 17.152 75.3764 16.304C75.3764 15.632 75.5764 15.016 75.9764 14.456C76.3764 13.896 76.9444 13.456 77.6804 13.136C78.4164 12.8 79.2564 12.632 80.2004 12.632C81.6564 12.632 82.8324 13 83.7284 13.736C84.6244 14.472 85.1044 15.48 85.1684 16.76H82.9844C82.9364 16.072 82.6564 15.52 82.1444 15.104C81.6484 14.688 80.9764 14.48 80.1284 14.48C79.3444 14.48 78.7204 14.648 78.2564 14.984C77.7924 15.32 77.5604 15.76 77.5604 16.304C77.5604 16.736 77.6964 17.096 77.9684 17.384C78.2564 17.656 78.6084 17.88 79.0244 18.056C79.4564 18.216 80.0484 18.4 80.8004 18.608C81.7444 18.864 82.5124 19.12 83.1044 19.376C83.6964 19.616 84.2004 19.984 84.6164 20.48C85.0484 20.976 85.2724 21.624 85.2884 22.424C85.2884 23.144 85.0884 23.792 84.6884 24.368C84.2884 24.944 83.7204 25.4 82.9844 25.736C82.2644 26.056 81.4324 26.216 80.4884 26.216Z" fill="black"/>
<path d="M87.3154 17.552C87.3154 15.888 87.6754 14.408 88.3954 13.112C89.1154 11.8 90.1154 10.784 91.3954 10.064C92.6914 9.328 94.1554 8.96 95.7874 8.96C97.7874 8.96 99.4994 9.488 100.923 10.544C102.347 11.6 103.299 13.04 103.779 14.864H99.2674C98.9314 14.16 98.4514 13.624 97.8274 13.256C97.2194 12.888 96.5234 12.704 95.7394 12.704C94.4754 12.704 93.4514 13.144 92.6674 14.024C91.8834 14.904 91.4914 16.08 91.4914 17.552C91.4914 19.024 91.8834 20.2 92.6674 21.08C93.4514 21.96 94.4754 22.4 95.7394 22.4C96.5234 22.4 97.2194 22.216 97.8274 21.848C98.4514 21.48 98.9314 20.944 99.2674 20.24H103.779C103.299 22.064 102.347 23.504 100.923 24.56C99.4994 25.6 97.7874 26.12 95.7874 26.12C94.1554 26.12 92.6914 25.76 91.3954 25.04C90.1154 24.304 89.1154 23.288 88.3954 21.992C87.6754 20.696 87.3154 19.216 87.3154 17.552ZM116.781 23.024H110.493L109.485 26H105.189L111.285 9.152H116.037L122.133 26H117.789L116.781 23.024ZM115.725 19.856L113.637 13.688L111.573 19.856H115.725ZM130.084 26.168C128.852 26.168 127.748 25.968 126.772 25.568C125.796 25.168 125.012 24.576 124.42 23.792C123.844 23.008 123.54 22.064 123.508 20.96H127.876C127.94 21.584 128.156 22.064 128.524 22.4C128.892 22.72 129.372 22.88 129.964 22.88C130.572 22.88 131.052 22.744 131.404 22.472C131.756 22.184 131.932 21.792 131.932 21.296C131.932 20.88 131.788 20.536 131.5 20.264C131.228 19.992 130.884 19.768 130.468 19.592C130.068 19.416 129.492 19.216 128.74 18.992C127.652 18.656 126.764 18.32 126.076 17.984C125.388 17.648 124.796 17.152 124.3 16.496C123.804 15.84 123.556 14.984 123.556 13.928C123.556 12.36 124.124 11.136 125.26 10.256C126.396 9.36 127.876 8.912 129.7 8.912C131.556 8.912 133.052 9.36 134.188 10.256C135.324 11.136 135.932 12.368 136.012 13.952H131.572C131.54 13.408 131.34 12.984 130.972 12.68C130.604 12.36 130.132 12.2 129.556 12.2C129.06 12.2 128.66 12.336 128.356 12.608C128.052 12.864 127.9 13.24 127.9 13.736C127.9 14.28 128.156 14.704 128.668 15.008C129.18 15.312 129.98 15.64 131.068 15.992C132.156 16.36 133.036 16.712 133.708 17.048C134.396 17.384 134.988 17.872 135.484 18.512C135.98 19.152 136.228 19.976 136.228 20.984C136.228 21.944 135.98 22.816 135.484 23.6C135.004 24.384 134.3 25.008 133.372 25.472C132.444 25.936 131.348 26.168 130.084 26.168ZM153.346 9.152V26H149.242V19.064H142.858V26H138.754V9.152H142.858V15.752H149.242V9.152H153.346Z" fill="#118EEA"/>
<path d="M21.75 6H7.25C2.9 6 0 8.175 0 13.25V23.4C0 28.475 2.9 30.65 7.25 30.65H21.75C26.1 30.65 29 28.475 29 23.4V13.25C29 8.175 26.1 6 21.75 6ZM6.1625 21.95C6.1625 22.5445 5.6695 23.0375 5.075 23.0375C4.4805 23.0375 3.9875 22.5445 3.9875 21.95V14.7C3.9875 14.1055 4.4805 13.6125 5.075 13.6125C5.6695 13.6125 6.1625 14.1055 6.1625 14.7V21.95ZM14.5 22.675C12.093 22.675 10.15 20.732 10.15 18.325C10.15 15.918 12.093 13.975 14.5 13.975C16.907 13.975 18.85 15.918 18.85 18.325C18.85 20.732 16.907 22.675 14.5 22.675ZM25.0125 21.95C25.0125 22.5445 24.5195 23.0375 23.925 23.0375C23.3305 23.0375 22.8375 22.5445 22.8375 21.95V14.7C22.8375 14.1055 23.3305 13.6125 23.925 13.6125C24.5195 13.6125 25.0125 14.1055 25.0125 14.7V21.95Z" fill="#118EEA"/>
</svg>
