<svg width="31" height="32" viewBox="0 0 31 32" fill="none" xmlns="http://www.w3.org/2000/svg">
<g opacity="0.5">
<path d="M15.5 31.5883C24.0604 31.5883 31 24.517 31 15.7941C31 7.07127 24.0604 0 15.5 0C6.93959 0 0 7.07127 0 15.7941C0 24.517 6.93959 31.5883 15.5 31.5883Z" fill="#00AED6"/>
<path fill-rule="evenodd" clip-rule="evenodd" d="M24.5323 15.3035C24.481 14.3427 24.0576 13.4411 23.3538 12.7943C22.65 12.1475 21.7226 11.8076 20.7728 11.8484H10.9826C10.8974 11.8481 10.8131 11.8308 10.7346 11.7976C10.656 11.7643 10.5847 11.7157 10.5246 11.6545C10.4646 11.5934 10.4171 11.5208 10.3848 11.4411C10.3525 11.3613 10.336 11.2759 10.3363 11.1897C10.3363 10.8257 10.6253 10.5309 10.9826 10.5309H20.9025C20.8778 9.86734 20.6457 9.22884 20.2396 8.70731C19.8335 8.18577 19.2744 7.8081 18.6427 7.62867C15.7524 7.10864 12.7942 7.10864 9.90391 7.62867C9.09878 7.83277 8.37281 8.27699 7.82013 8.90374C7.26745 9.53048 6.91357 10.3108 6.80436 11.1436C6.34581 14.2435 6.34581 17.3953 6.80436 20.4952C6.97244 21.3741 7.40007 22.1806 8.0307 22.8082C8.66133 23.4358 9.46529 23.8549 10.3363 24.0102C13.924 24.4643 17.5537 24.4643 21.1415 24.0102C21.9217 23.8455 22.631 23.4366 23.1689 22.8413C23.7068 22.246 24.046 21.4946 24.1386 20.6933C24.4572 18.9151 24.5915 17.1093 24.5323 15.3035ZM21.3167 17.5147V18.0997C21.317 18.1859 21.3005 18.2714 21.2682 18.3511C21.2359 18.4309 21.1884 18.5034 21.1283 18.5646C21.0683 18.6258 20.997 18.6744 20.9184 18.7077C20.8398 18.7409 20.7556 18.7582 20.6704 18.7585C20.5852 18.7582 20.5009 18.7409 20.4224 18.7077C20.3438 18.6744 20.2724 18.6258 20.2124 18.5646C20.1524 18.5034 20.1049 18.4309 20.0726 18.3511C20.0403 18.2714 20.0238 18.1859 20.0241 18.0997V17.5147C19.8769 17.3821 19.773 17.2074 19.7261 17.0137C19.6793 16.8199 19.6918 16.6164 19.7619 16.43C19.832 16.2436 19.9564 16.0832 20.1187 15.97C20.2809 15.8569 20.4733 15.7963 20.6704 15.7964C20.8674 15.7963 21.0598 15.8569 21.2221 15.97C21.3844 16.0832 21.5088 16.2436 21.5789 16.43C21.649 16.6164 21.6615 16.8199 21.6146 17.0137C21.5678 17.2074 21.4639 17.3821 21.3167 17.5147Z" fill="white"/>
</g>
</svg>
