<svg width="29" height="30" viewBox="0 0 29 30" fill="none" xmlns="http://www.w3.org/2000/svg">
<path d="M2.89014 19.753C2.89014 25.567 5.22094 27.8978 11.035 27.8978H18.0145C23.8286 27.8978 26.1594 25.567 26.1594 19.753V13.9389" stroke="#118EEA" stroke-width="3" stroke-linecap="round" stroke-linejoin="round"/>
<path d="M14.532 14.9489C16.9017 14.9489 18.6498 13.0195 18.4167 10.6499L17.5621 2H11.5149L10.6473 10.6499C10.4142 13.0195 12.1624 14.9489 14.532 14.9489Z" stroke="#118EEA" stroke-width="3" stroke-linecap="round" stroke-linejoin="round"/>
<path d="M22.7033 14.9489C25.3189 14.9489 27.2354 12.8253 26.9764 10.2226L26.6138 6.66161C26.1477 3.29489 24.8528 2 21.4602 2H17.5107L18.4172 11.0772C18.6373 13.2138 20.5667 14.9489 22.7033 14.9489Z" stroke="#118EEA" stroke-width="3" stroke-linecap="round" stroke-linejoin="round"/>
<path d="M6.29659 14.9489C8.43316 14.9489 10.3625 13.2138 10.5697 11.0772L10.8546 8.21548L11.4762 2H7.52673C4.13412 2 2.83923 3.29489 2.37306 6.66161L2.02344 10.2226C1.76447 12.8253 3.68091 14.9489 6.29659 14.9489Z" stroke="#118EEA" stroke-width="3" stroke-linecap="round" stroke-linejoin="round"/>
<path d="M14.5312 21.4233C12.3687 21.4233 11.2939 22.4981 11.2939 24.6606V27.8978H17.7684V24.6606C17.7684 22.4981 16.6936 21.4233 14.5312 21.4233Z" stroke="#118EEA" stroke-width="3" stroke-linecap="round" stroke-linejoin="round"/>
</svg>
