<svg width="23" height="24" viewBox="0 0 23 24" fill="none" xmlns="http://www.w3.org/2000/svg">
<path d="M10.4233 14.9152L8.2926 17.0459C7.84342 17.4951 7.12934 17.4951 6.66864 17.0574C6.54194 16.9307 6.41525 16.8156 6.28856 16.6889C5.10225 15.491 4.03113 14.2356 3.07517 12.9226C2.13074 11.6096 1.37058 10.2967 0.817743 8.99517C0.27642 7.68218 0 6.42677 0 5.22895C0 4.44576 0.13821 3.69712 0.41463 3.00607C0.69105 2.3035 1.12872 1.65852 1.73914 1.08265C2.47626 0.357043 3.28249 0 4.13478 0C4.45727 0 4.77977 0.0691051 5.0677 0.207315C5.36716 0.345525 5.63206 0.55284 5.83938 0.852295L8.51144 4.61852C8.71875 4.90646 8.86848 5.17136 8.97214 5.42475C9.07579 5.66661 9.13338 5.90848 9.13338 6.12731C9.13338 6.40373 9.05276 6.68015 8.89151 6.94506C8.74179 7.20996 8.52295 7.48638 8.24653 7.7628L7.3712 8.67268C7.24451 8.79937 7.18692 8.9491 7.18692 9.13338C7.18692 9.22552 7.19844 9.30614 7.22148 9.39828C7.25603 9.49042 7.29058 9.55953 7.31362 9.62863C7.52093 10.0087 7.87797 10.504 8.38474 11.1029C8.90303 11.7018 9.45587 12.3122 10.0548 12.9226C10.17 13.0378 10.2966 13.153 10.4118 13.2682C10.8725 13.7174 10.884 14.4545 10.4233 14.9152Z" fill="#292D32" fill-opacity="0.25"/>
<path d="M23.0001 18.807C23.0001 19.1295 22.9425 19.4635 22.8273 19.786C22.7928 19.8782 22.7582 19.9703 22.7121 20.0624C22.5163 20.4771 22.263 20.8687 21.9289 21.2372C21.3646 21.8592 20.7426 22.3084 20.0401 22.5963C20.0286 22.5963 20.017 22.6078 20.0055 22.6078C19.326 22.8842 18.5889 23.034 17.7942 23.034C16.6194 23.034 15.364 22.7575 14.0395 22.1932C12.7149 21.6288 11.3904 20.8687 10.0774 19.9127C9.62825 19.5787 9.17908 19.2447 8.75293 18.8877L12.5191 15.1214C12.8416 15.3633 13.1296 15.5476 13.3714 15.6743C13.429 15.6973 13.4981 15.7319 13.5788 15.7664C13.6709 15.801 13.763 15.8125 13.8667 15.8125C14.0625 15.8125 14.2122 15.7434 14.3389 15.6167L15.2142 14.7529C15.5022 14.4649 15.7786 14.2461 16.0435 14.1079C16.3084 13.9467 16.5733 13.866 16.8612 13.866C17.0801 13.866 17.3104 13.9121 17.5638 14.0158C17.8172 14.1194 18.0821 14.2691 18.37 14.4649L22.1823 17.1716C22.4818 17.3789 22.6891 17.6207 22.8158 17.9087C22.931 18.1966 23.0001 18.4845 23.0001 18.807Z" fill="#292D32" fill-opacity="0.25"/>
</svg>
