<svg width="42" height="42" viewBox="0 0 42 42" fill="none" xmlns="http://www.w3.org/2000/svg">
<path d="M42 21C42 9.429 32.571 0 21 0C9.429 0 0 9.429 0 21C0 27.09 2.625 32.571 6.783 36.414C6.783 36.435 6.783 36.435 6.762 36.456C6.972 36.666 7.224 36.834 7.434 37.023C7.56 37.128 7.665 37.233 7.791 37.317C8.169 37.632 8.589 37.926 8.988 38.22C9.135 38.325 9.261 38.409 9.408 38.514C9.807 38.787 10.227 39.039 10.668 39.27C10.815 39.354 10.983 39.459 11.13 39.543C11.55 39.774 11.991 39.984 12.453 40.173C12.621 40.257 12.789 40.341 12.957 40.404C13.419 40.593 13.881 40.761 14.343 40.908C14.511 40.971 14.679 41.034 14.847 41.076C15.351 41.223 15.855 41.349 16.359 41.475C16.506 41.517 16.653 41.559 16.821 41.58C17.409 41.706 17.997 41.79 18.606 41.853C18.69 41.853 18.774 41.874 18.858 41.895C19.572 41.958 20.286 42 21 42C21.714 42 22.428 41.958 23.121 41.895C23.205 41.895 23.289 41.874 23.373 41.853C23.982 41.79 24.57 41.706 25.158 41.58C25.305 41.559 25.452 41.496 25.62 41.475C26.124 41.349 26.649 41.244 27.132 41.076C27.3 41.013 27.468 40.95 27.636 40.908C28.098 40.74 28.581 40.593 29.022 40.404C29.19 40.341 29.358 40.257 29.526 40.173C29.967 39.984 30.408 39.774 30.849 39.543C31.017 39.459 31.164 39.354 31.311 39.27C31.731 39.018 32.151 38.787 32.571 38.514C32.718 38.43 32.844 38.325 32.991 38.22C33.411 37.926 33.81 37.632 34.188 37.317C34.314 37.212 34.419 37.107 34.545 37.023C34.776 36.834 35.007 36.645 35.217 36.456C35.217 36.435 35.217 36.435 35.196 36.414C39.375 32.571 42 27.09 42 21ZM31.374 31.437C25.683 27.615 16.359 27.615 10.626 31.437C9.702 32.046 8.946 32.76 8.316 33.537C5.124 30.303 3.15 25.872 3.15 21C3.15 11.151 11.151 3.15 21 3.15C30.849 3.15 38.85 11.151 38.85 21C38.85 25.872 36.876 30.303 33.684 33.537C33.075 32.76 32.298 32.046 31.374 31.437Z" fill="#292D32"/>
<path d="M21 10.3524C16.653 10.3524 13.125 13.8804 13.125 18.2274C13.125 22.4904 16.464 25.9554 20.895 26.0814H21.084H21.231H21.273C25.515 25.9344 28.854 22.4904 28.875 18.2274C28.875 13.8804 25.347 10.3524 21 10.3524Z" fill="#292D32"/>
</svg>
