<svg width="31" height="26" viewBox="0 0 31 26" fill="none" xmlns="http://www.w3.org/2000/svg">
<path d="M28.6036 18.9685C28.2417 22.9944 25.3316 25.6331 21.1096 25.6331H7.53916C3.37754 25.6331 0 22.2556 0 18.094V7.53915C0 3.43785 2.47284 0.572976 6.31781 0.0904698C6.70985 0.0301565 7.11696 0 7.53916 0H21.1096C21.5017 0 21.8786 0.0150782 22.2405 0.0753915C25.8442 0.497584 28.2869 3.01566 28.6036 6.66461C28.6488 7.10188 28.2869 7.46376 27.8496 7.46376H25.5125C24.065 7.46376 22.723 8.02166 21.758 9.01683C20.6121 10.1326 20.0391 11.7008 20.1748 13.2689C20.416 16.0132 22.8286 18.1694 25.6934 18.1694H27.8496C28.2869 18.1694 28.6488 18.5312 28.6036 18.9685Z" fill="#292D32" fill-opacity="0.25"/>
<path d="M30.1572 11.2623V14.3684C30.1572 15.1977 29.4937 15.8763 28.6494 15.9064H25.694C24.0656 15.9064 22.5728 14.7152 22.4371 13.0868C22.3466 12.1368 22.7085 11.2472 23.3418 10.629C23.8997 10.056 24.6687 9.72433 25.5131 9.72433H28.6494C29.4937 9.75449 30.1572 10.433 30.1572 11.2623Z" fill="#292D32" fill-opacity="0.25"/>
</svg>
