<svg width="273" height="423" viewBox="0 0 273 423" fill="none" xmlns="http://www.w3.org/2000/svg">
<path d="M148.531 223.071C148.531 223.071 159.837 241.803 161.5 259.759C163.162 277.604 151.302 422.03 151.302 422.03H10.5342C10.5342 422.03 48.2202 243.798 60.5235 232.27L61.4103 220.41L148.531 223.071Z" fill="#263238"/>
<path d="M154.516 237.369C154.516 237.369 154.627 238.256 154.516 239.918C154.405 241.581 154.073 244.019 153.186 247.012C152.3 250.005 150.637 253.552 147.977 257.099C146.647 258.872 144.984 260.646 142.989 262.197C140.994 263.749 138.777 265.19 136.338 266.631C133.9 268.072 131.351 269.402 128.69 271.065C126.141 272.727 123.481 274.501 121.375 276.939C119.269 279.378 117.495 282.37 116.387 285.696C115.279 289.021 114.614 292.568 114.059 296.226C113.505 299.883 113.283 303.652 112.729 307.531C112.175 311.411 111.51 315.29 110.069 319.17C108.628 322.938 106.411 326.596 103.308 329.367C100.204 332.249 96.4356 334.355 92.5561 336.128C84.7973 339.675 76.595 342.003 69.7228 346.104C66.2868 348.21 63.2941 350.759 60.9664 353.863C58.6387 356.967 57.1978 360.513 56.0894 363.95C53.8726 370.933 52.875 378.026 50.9907 384.344C50.769 385.12 50.5473 385.896 50.3256 386.672C50.104 387.448 49.7715 388.224 49.5498 389C48.8847 390.441 48.3305 391.882 47.6655 393.322C47.0004 394.763 46.2245 395.983 45.4486 397.202C45.0053 397.756 44.5619 398.421 44.2294 398.975L43.5644 399.862L42.8993 400.638C39.4632 405.072 35.5838 408.397 31.8152 410.835C28.0466 413.274 24.6105 414.936 21.6178 415.934C18.6251 416.932 16.2974 417.486 14.6348 417.818C13.8589 417.929 13.1939 418.04 12.7505 418.151C13.1939 418.04 13.7481 417.929 14.6348 417.818C16.2974 417.486 18.6251 416.932 21.5069 415.823C24.3888 414.715 27.9357 413.052 31.5935 410.614C35.2513 408.175 39.1307 404.739 42.5668 400.416L43.2318 399.64L43.786 398.754C44.2294 398.199 44.5619 397.534 45.0053 396.98C45.7812 395.761 46.5571 394.431 47.2221 393.101C47.998 391.771 48.5522 390.33 49.1064 388.889C49.3281 388.113 49.6606 387.337 49.8823 386.672C50.104 385.896 50.3257 385.12 50.5473 384.344C52.3208 378.026 53.3184 371.043 55.5352 363.95C56.6436 360.403 58.1954 356.856 60.523 353.641C62.8507 350.538 65.9543 347.767 69.3903 345.661C76.3733 341.449 84.4647 339.121 92.2236 335.574C96.1031 333.801 99.7608 331.695 102.754 328.924C105.746 326.153 108.074 322.606 109.404 318.948C110.845 315.179 111.51 311.3 112.064 307.531C112.618 303.652 112.951 299.883 113.394 296.226C113.948 292.568 114.614 289.021 115.722 285.585C116.941 282.26 118.715 279.267 120.821 276.718C123.037 274.279 125.698 272.395 128.247 270.732C130.907 269.18 133.457 267.739 135.895 266.409C138.334 264.968 140.55 263.638 142.546 261.976C144.541 260.424 146.092 258.65 147.533 256.988C150.194 253.441 151.856 250.005 152.854 247.012C153.851 244.019 154.184 241.581 154.295 240.029C154.406 239.253 154.406 238.588 154.406 238.145C154.516 237.591 154.516 237.369 154.516 237.369Z" fill="#455A64"/>
<path d="M158.507 250.448C158.507 250.448 158.618 250.67 158.729 251.002C158.839 251.335 159.061 251.889 159.172 252.665C159.504 254.217 159.726 256.544 159.061 259.426C158.396 262.308 157.066 265.744 154.406 268.959C151.856 272.284 148.31 275.498 144.208 278.713C140.218 282.038 135.563 285.585 132.127 290.573C130.353 293.122 129.023 296.004 128.358 299.218C127.693 302.433 127.471 305.758 127.25 309.194C127.028 312.63 126.696 316.177 125.809 319.724C124.922 323.271 123.592 326.707 121.818 330.032C118.272 336.683 112.951 342.779 106.19 347.213C99.4286 351.646 91.7806 353.752 85.1301 357.077C81.8049 358.74 78.5904 360.735 76.0411 363.174C73.4917 365.723 71.4966 368.716 70.0557 371.819C67.1738 378.137 66.0654 384.677 64.4028 390.551C63.6269 393.544 62.7402 396.426 61.7426 399.086C60.6342 401.746 59.4149 404.185 57.8632 406.402C56.3114 408.619 54.6488 410.392 52.8753 411.944C51.9886 412.72 51.1018 413.385 50.2151 414.161C49.3284 414.715 48.4417 415.38 47.4441 415.934C43.7863 418.04 40.3503 419.148 37.4684 419.814C34.5865 420.479 32.2588 420.479 30.7071 420.479C29.9312 420.479 29.377 420.368 28.9336 420.368C28.4902 420.368 28.3794 420.368 28.3794 420.368C28.3794 420.368 28.6011 420.368 28.9336 420.368C29.377 420.368 29.9312 420.368 30.7071 420.368C32.2588 420.257 34.4757 420.257 37.3575 419.592C40.2394 418.927 43.5646 417.818 47.2224 415.712C48.1091 415.269 48.9958 414.604 49.8826 413.939C50.7693 413.274 51.656 412.609 52.5428 411.833C54.3162 410.281 55.9789 408.397 57.4198 406.291C58.8607 404.185 60.1908 401.746 61.1884 399.086C62.186 396.426 63.0727 393.544 63.8486 390.662C65.4003 384.788 66.6196 378.137 69.3906 371.819C70.8316 368.605 72.8267 365.612 75.376 363.063C78.0362 360.513 81.2506 358.518 84.5759 356.856C91.3372 353.53 98.9852 351.314 105.636 346.991C112.286 342.668 117.496 336.572 121.043 330.032C122.816 326.707 124.146 323.271 125.033 319.835C125.92 316.399 126.363 312.852 126.474 309.416C126.696 305.98 126.917 302.544 127.582 299.329C128.247 296.115 129.688 293.122 131.462 290.573C135.009 285.474 139.664 281.927 143.765 278.602C147.866 275.277 151.413 272.173 153.962 268.959C156.512 265.744 157.953 262.308 158.618 259.537C159.283 256.655 159.061 254.439 158.839 252.887C158.729 251.224 158.396 250.559 158.507 250.448Z" fill="#455A64"/>
<path d="M15.6328 150.137C15.6328 150.137 24.7218 213.095 38.7986 219.191C45.8924 222.295 51.5453 219.634 55.4248 212.541C59.3042 205.447 69.1691 154.016 69.1691 154.016L41.9022 153.351L40.9046 163.549L30.3747 143.93L15.6328 150.137Z" fill="#FFBE9D"/>
<path d="M55.9788 191.148C55.9788 191.148 55.868 190.927 55.7572 190.705C55.5355 190.372 55.3138 189.929 54.9813 189.375C54.3162 188.156 53.3186 186.382 52.2102 184.387C49.8826 180.175 46.6682 174.19 43.1212 167.65C39.6852 161.11 36.4708 155.236 34.1431 150.913C33.0347 148.807 32.148 147.144 31.4829 145.814C31.1504 145.26 30.9287 144.817 30.7071 144.484C30.4854 144.152 30.4854 144.041 30.3745 144.041C30.3745 144.041 30.3745 144.262 30.5962 144.595C30.8179 144.928 31.0396 145.482 31.2613 146.036C31.8155 147.255 32.7022 149.029 33.8106 151.245C36.0274 155.568 39.131 161.554 42.6779 168.093C46.2248 174.633 49.4392 180.508 51.8777 184.719C53.097 186.825 54.0945 188.488 54.7596 189.707C55.0921 190.262 55.4246 190.705 55.6463 191.037C55.7572 191.037 55.868 191.148 55.9788 191.148Z" fill="#EB996E"/>
<path d="M151.081 164.768L143.322 199.683L146.98 223.071H61.2998L66.9527 113.892L88.2342 112.008L140.44 120.875L151.081 164.768Z" fill="white"/>
<path d="M129.244 120.21C129.244 120.21 151.523 118.215 162.164 133.289C168.704 142.6 177.793 163.881 177.793 163.881L148.087 168.98L129.244 120.21Z" fill="white"/>
<g opacity="0.3">
<path d="M142.768 165.211C139.886 159.004 133.125 154.903 126.253 155.014C124.812 155.014 123.149 155.457 122.263 156.677C121.376 158.007 121.93 159.669 122.484 161.221C123.26 163.105 124.258 165.101 126.031 165.987C127.361 166.652 128.913 166.652 130.354 167.096C132.127 167.65 133.568 168.869 134.898 169.978C136.007 170.975 137.226 171.862 137.891 173.192C138.445 174.189 138.778 175.409 139.11 176.517C140.551 182.17 141.66 193.919 143.101 199.683L144.652 194.806C144.652 190.151 144.763 185.384 144.763 180.729C144.985 175.409 144.985 169.978 142.768 165.211Z" fill="black"/>
</g>
<path d="M116.166 194.252C116.166 194.141 117.385 194.363 119.159 194.473C121.043 194.584 123.592 194.695 126.474 194.252C129.356 193.919 131.795 193.143 133.568 192.589C135.342 191.924 136.45 191.481 136.45 191.592C136.45 191.592 136.228 191.813 135.785 192.035C135.342 192.257 134.676 192.589 133.79 192.922C132.016 193.587 129.467 194.363 126.585 194.806C123.703 195.139 121.043 195.139 119.159 194.806C118.161 194.695 117.496 194.584 116.942 194.473C116.499 194.363 116.166 194.363 116.166 194.252Z" fill="#263238"/>
<path d="M78.812 195.804C78.812 195.693 91.0045 199.129 105.857 203.562C120.821 207.996 132.792 211.654 132.792 211.765C132.792 211.876 120.599 208.439 105.746 204.006C90.7828 199.572 78.812 195.914 78.812 195.804Z" fill="#263238"/>
<g opacity="0.3">
<path d="M116.831 194.363C118.937 197.577 123.038 199.461 126.918 199.018C130.797 198.575 133.79 196.025 135.12 192.368C129.134 194.806 123.038 195.249 116.831 194.363Z" fill="black"/>
</g>
<g opacity="0.3">
<path d="M129.578 210.656L129.245 210.767C121.597 212.097 114.392 210.767 107.077 208.107C99.7614 205.558 92.8892 201.789 86.1279 197.91C100.648 202.232 115.057 206.444 129.578 210.656Z" fill="black"/>
</g>
<path d="M66.9515 113.892C66.9515 113.892 52.8747 115.665 47.3326 127.636C41.9014 139.718 37.8003 154.127 37.8003 154.127L66.619 160.556C66.619 160.556 71.1635 136.171 71.496 127.636C71.9394 118.215 72.2719 113.559 66.9515 113.892Z" fill="white"/>
<path d="M64.1811 164.436C64.0703 164.436 63.9595 160.778 63.9595 156.344C63.9595 151.911 64.0703 148.253 64.292 148.253C64.4028 148.253 64.5137 151.911 64.5137 156.344C64.5137 160.778 64.4028 164.436 64.1811 164.436Z" fill="#263238"/>
<path d="M79.8095 36.6357C87.4575 27.325 97.6549 22.0047 109.737 21.783C116.498 21.6721 119.38 23.1131 124.257 24.4432C129.134 25.7733 133.567 28.4335 136.449 32.5346C139.885 37.4116 142.878 42.9537 143.432 48.9391C144.097 55.0353 144.762 61.2424 144.319 67.4495C143.876 73.6566 142.213 79.8637 138.555 84.8516L122.927 87.6226C114.281 87.9552 105.525 88.1768 97.1007 86.1817C88.6768 84.1866 80.4745 79.6421 75.93 72.3265C69.6121 61.7966 72.2723 45.9464 79.8095 36.6357Z" fill="#263238"/>
<path d="M133.9 93.4972C133.9 93.4972 134.122 93.8297 134.787 94.2731C135.452 94.7165 136.56 95.1598 138.001 95.3815C139.442 95.4924 141.215 95.3815 142.989 94.3839C144.762 93.3864 146.092 91.6129 146.757 89.3961C147.312 87.1793 147.09 84.9624 145.982 83.189C144.984 81.5264 143.543 80.418 142.213 79.7529C140.883 79.1987 139.664 78.977 138.888 79.0879C138.112 79.0879 137.668 79.3095 137.668 79.3095C137.668 79.5312 139.442 79.0879 141.991 80.3071C143.211 80.9722 144.43 81.9697 145.317 83.5215C146.203 85.0733 146.425 87.0684 145.871 89.0636C145.317 91.0587 144.097 92.6105 142.545 93.4972C140.994 94.3839 139.442 94.6056 138.001 94.6056C135.341 94.6056 133.9 93.3864 133.9 93.4972Z" fill="#E0E0E0"/>
<path d="M64.6243 82.0806C65.0677 78.5336 66.8411 75.0976 69.9447 73.2133C73.0482 71.4398 77.2602 71.5507 79.8095 74.1L82.2481 76.9819C86.1275 78.6445 88.566 82.9673 88.1226 87.1793C87.6793 91.3912 84.4649 95.049 80.4746 96.2682C76.4843 97.4875 71.829 96.2682 68.8363 93.4972C65.7327 90.6153 64.181 86.2925 64.6243 82.0806Z" fill="#263238"/>
<path d="M67.7285 92.7213C67.8394 92.7213 66.731 91.6129 66.8418 89.6177C66.9526 87.6226 68.3936 84.9624 70.3887 82.5239C72.3838 80.0854 74.8224 78.4228 76.7067 77.5361C78.591 76.5385 79.8102 76.206 79.8102 76.0951C79.8102 75.9843 78.4801 76.206 76.485 77.0927C74.4898 77.9794 71.9405 79.642 69.8345 82.0805C68.7261 83.2998 67.9502 84.6299 67.2852 85.96C66.6201 87.1792 66.2876 88.5093 66.2876 89.6177C66.2876 90.7262 66.6201 91.6129 66.9526 92.0563C67.396 92.4996 67.7285 92.7213 67.7285 92.7213Z" fill="#455A64"/>
<path d="M75.3762 97.2658C75.5979 97.2658 74.6003 92.4996 76.0412 86.9576C77.4822 81.3047 80.6966 77.7578 80.4749 77.5361C80.364 77.4252 79.4773 78.312 78.3689 79.8637C77.2605 81.4155 76.0412 83.854 75.2653 86.7359C74.4895 89.6178 74.4895 92.278 74.6003 94.2731C74.822 96.1574 75.2653 97.3766 75.3762 97.2658Z" fill="#455A64"/>
<path d="M122.927 112.784C122.816 107.241 122.705 102.808 122.705 102.808C122.705 102.808 135.452 101.367 138.999 84.9624C140.772 76.7602 141.105 63.3484 140.994 52.2643C140.883 42.2886 132.459 28.7659 120.156 28.7659L114.724 28.1009L93.7755 36.414C90.7828 36.5248 88.3443 38.9633 88.2334 42.0669L87.5684 112.008L107.741 161.11L122.262 141.491L122.927 112.784Z" fill="#FFBE9D"/>
<path d="M114.391 81.1938C114.502 80.3071 114.946 79.5312 115.611 79.0879C116.83 78.0903 118.603 77.9795 119.934 78.8662C121.264 79.7529 122.04 81.6372 121.707 83.2998C120.931 84.2974 119.823 84.9624 118.603 85.0733C118.382 85.0733 118.16 85.0733 118.049 85.0733C117.052 85.0733 116.165 84.7408 115.389 84.0757C114.724 83.4107 114.281 82.3022 114.391 81.1938Z" fill="#EB996E"/>
<path d="M132.901 63.6809C132.901 64.7894 131.904 65.6761 130.685 65.6761C129.465 65.6761 128.579 64.7894 128.579 63.6809C128.579 62.5725 129.576 61.6858 130.685 61.6858C132.015 61.6858 132.901 62.5725 132.901 63.6809Z" fill="#263238"/>
<path d="M136.893 58.4714C136.56 58.6931 135.119 57.4738 132.792 57.363C130.464 57.2522 128.801 58.2497 128.58 58.028C128.469 57.9172 128.801 57.363 129.466 56.9196C130.242 56.4763 131.461 56.0329 132.902 56.0329C134.343 56.1437 135.452 56.698 136.117 57.2522C136.893 57.8064 137.114 58.3606 136.893 58.4714Z" fill="#263238"/>
<path d="M122.594 75.7626C122.594 75.6518 124.035 75.4301 126.362 75.3192C126.917 75.3192 127.471 75.2084 127.582 74.765C127.693 74.3217 127.582 73.6566 127.249 72.9916C126.806 71.5507 126.252 69.9989 125.808 68.4471C123.813 62.0183 122.261 56.6979 122.594 56.5871C122.816 56.4763 124.7 61.6858 126.806 68.1146C127.249 69.6663 127.803 71.2181 128.247 72.6591C128.468 73.3241 128.801 74.1 128.468 74.9867C128.247 75.4301 127.803 75.6518 127.471 75.7626C127.138 75.8735 126.806 75.8734 126.473 75.8734C124.035 75.9843 122.594 75.8735 122.594 75.7626Z" fill="#263238"/>
<path d="M122.705 102.808C122.705 102.808 111.51 102.919 100.869 95.7141C100.869 95.7141 106.19 107.463 122.816 106.909L122.705 102.808Z" fill="#EB996E"/>
<path d="M115.833 76.9819C116.166 76.9819 116.055 79.4204 118.05 81.3047C120.045 83.189 122.705 83.0781 122.705 83.4107C122.705 83.5215 122.04 83.854 120.932 83.854C119.823 83.854 118.272 83.4107 117.052 82.1914C115.833 81.083 115.39 79.5312 115.279 78.5337C115.279 77.5361 115.611 76.9819 115.833 76.9819Z" fill="#263238"/>
<path d="M136.448 49.9366C136.005 50.4908 134.342 50.0475 132.236 50.0475C130.13 50.0475 128.468 50.6017 128.024 50.0475C127.803 49.8258 128.135 49.2716 128.8 48.7174C129.576 48.1632 130.795 47.7198 132.126 47.7198C133.567 47.7198 134.786 48.1632 135.562 48.6065C136.448 49.0499 136.67 49.6041 136.448 49.9366Z" fill="#263238"/>
<path d="M106.3 63.0159C106.19 64.1243 107.187 65.1219 108.296 65.2327C109.515 65.3436 110.512 64.4568 110.512 63.3484C110.623 62.24 109.626 61.2425 108.517 61.1316C107.409 61.1316 106.411 61.9075 106.3 63.0159Z" fill="#263238"/>
<path d="M105.635 57.6955C105.856 58.028 107.519 56.8088 109.847 56.8088C112.174 56.8088 113.837 58.028 114.059 57.6955C114.169 57.5847 113.948 57.0304 113.172 56.4762C112.507 55.922 111.288 55.3678 109.847 55.3678C108.406 55.3678 107.186 55.8112 106.521 56.3654C105.745 57.0305 105.524 57.5847 105.635 57.6955Z" fill="#263238"/>
<path d="M104.416 52.8185C104.859 53.3727 106.633 52.8185 108.739 52.8185C110.845 52.8185 112.618 53.2619 113.062 52.7077C113.283 52.486 112.951 51.9318 112.175 51.3776C111.399 50.8234 110.18 50.4908 108.628 50.4908C107.187 50.4908 105.857 50.9342 105.192 51.4884C104.416 51.9318 104.194 52.486 104.416 52.8185Z" fill="#263238"/>
<path d="M91.116 69.888C91.2268 68.6688 89.8967 65.6761 88.6775 65.4544C85.4631 64.7893 79.5885 64.6785 79.0343 72.9916C78.3693 84.2974 89.7859 82.6348 89.7859 82.3022C89.8967 81.9697 90.8943 74.1 91.116 69.888Z" fill="#FFBE9D"/>
<path d="M87.0145 77.8686C87.0145 77.8686 86.7928 77.9794 86.4603 78.0903C86.1278 78.2011 85.5736 78.3119 85.0194 77.9794C83.911 77.4252 83.0242 75.5409 83.0242 73.4349C83.0242 72.4374 83.3568 71.4398 83.8001 70.6639C84.2435 69.888 84.7977 69.3338 85.3519 69.223C85.9061 69.1121 86.3495 69.5555 86.4603 69.7772C86.5711 70.1097 86.4603 70.3314 86.5712 70.3314C86.5712 70.3314 86.7928 70.1097 86.7928 69.6663C86.7928 69.4447 86.682 69.1121 86.3495 68.8905C86.1278 68.6688 85.6844 68.5579 85.241 68.5579C84.3543 68.5579 83.5784 69.3338 83.1351 70.2205C82.5809 71.1073 82.2484 72.2157 82.2484 73.3241C82.1375 75.6518 83.2459 77.7577 84.7977 78.312C85.5736 78.5336 86.2386 78.4228 86.5712 78.0903C87.0145 78.2011 87.1254 77.9794 87.0145 77.8686Z" fill="#EB996E"/>
<path d="M88.2336 65.4544L91.1155 68.4471C103.53 56.5871 127.582 26.9925 126.252 28.766C126.252 28.766 117.828 25.3299 108.628 26.8817C99.4286 28.4335 82.0265 33.0888 82.2482 43.8404C82.5807 54.592 88.2336 65.4544 88.2336 65.4544Z" fill="#263238"/>
<path d="M88.5656 93.4972C88.5656 93.4972 88.3439 93.8297 87.6789 94.2731C87.0138 94.7165 85.9054 95.1598 84.4645 95.3815C83.0236 95.4924 81.2501 95.3815 79.4766 94.3839C77.7032 93.3864 76.3731 91.6129 75.7081 89.3961C75.1538 87.1793 75.3755 84.9624 76.4839 83.189C77.4815 81.5264 78.9224 80.418 80.2525 79.7529C81.5826 79.1987 82.8019 78.977 83.5777 79.0879C84.3536 79.0879 84.797 79.3095 84.797 79.3095C84.797 79.5312 83.0236 79.0879 80.4742 80.3071C79.255 80.9722 78.0357 81.9697 77.149 83.5215C76.2622 85.0733 76.0406 87.0684 76.5948 89.0636C77.149 91.0587 78.3682 92.6105 79.92 93.4972C81.4718 94.3839 83.0236 94.6056 84.4645 94.6056C87.0138 94.6056 88.4548 93.3864 88.5656 93.4972Z" fill="#E0E0E0"/>
<path d="M71.8291 62.905C71.8291 62.905 71.8291 62.6834 72.0508 62.24C72.1616 61.7966 72.3833 61.2424 72.8267 60.4665C73.6026 59.0256 75.1543 57.0304 77.482 55.1461C79.9205 53.2618 83.1349 51.8209 87.0143 50.6017C90.7829 49.3824 94.9949 48.3848 99.2068 46.6114C103.419 44.8379 107.187 42.6211 110.291 40.4043C113.505 38.0766 116.055 35.6381 118.161 33.5321C120.156 31.4261 121.708 29.431 122.705 28.1009C123.149 27.4359 123.592 26.9925 123.814 26.5491C124.035 26.2166 124.257 25.9949 124.257 25.9949C124.257 25.9949 124.146 26.2166 123.924 26.5491C123.703 26.8817 123.37 27.4359 122.927 28.2117C121.929 29.5418 120.488 31.537 118.493 33.7538C116.498 35.9706 113.838 38.4091 110.624 40.7368C107.409 43.0645 103.641 45.2813 99.4285 47.0547C95.2166 48.8282 90.8938 49.8258 87.1252 51.045C83.3566 52.1534 80.1422 53.5944 77.7037 55.4787C75.2652 57.2521 73.8242 59.1364 72.9375 60.5774C72.1616 62.0183 71.9399 63.0159 71.8291 62.905Z" fill="#455A64"/>
<path d="M75.1536 64.6785C75.1536 64.6785 75.0427 63.7918 75.5969 62.24C76.1511 60.6883 77.4812 58.5823 79.8089 56.9197C82.1366 55.1462 85.5726 54.0378 89.2304 53.2619C92.8881 52.486 96.9893 51.3776 100.869 49.6041C104.859 47.7198 108.406 45.6138 111.288 43.1753C114.28 40.8477 116.608 38.2983 118.382 36.1923C120.266 33.9755 121.485 32.0912 122.372 30.7611C122.704 30.0961 123.037 29.6527 123.369 29.2094C123.591 28.8768 123.702 28.6552 123.702 28.6552C123.702 28.6552 123.591 28.8768 123.48 29.2094C123.259 29.6527 122.926 30.2069 122.594 30.872C121.707 32.2021 120.598 34.3081 118.714 36.5249C116.941 38.7417 114.502 41.291 111.62 43.7295C108.738 46.168 105.081 48.3849 101.09 50.2692C97.1001 52.1535 92.999 53.1511 89.3412 53.9269C85.6835 54.7028 82.3582 55.8112 80.0306 57.4739C77.7029 59.1365 76.3728 61.0208 75.8186 62.5725C75.1536 63.7918 75.2644 64.7894 75.1536 64.6785Z" fill="#455A64"/>
<path d="M16.8514 156.233C16.1863 156.012 15.4104 147.033 15.4104 147.033C15.4104 147.033 6.43229 139.829 5.21304 136.947C3.99378 134.065 4.21547 127.082 4.21547 127.082L18.8465 117.106C18.8465 117.106 27.4921 124.865 29.8198 127.969C31.039 129.631 32.0366 134.398 32.7016 138.166C33.2558 141.381 33.3667 144.706 33.0342 148.031L32.8125 150.58C32.8125 150.47 26.9379 160.002 16.8514 156.233Z" fill="#FFBE9D"/>
<path d="M5.87847 138.72C5.87847 138.72 4.77005 137.723 2.88575 135.728C1.00145 133.622 -1.10453 131.737 0.668926 129.521C1.77734 128.19 2.9966 128.301 2.9966 128.301C2.9966 128.301 1.88818 126.417 2.88575 125.198C3.88332 123.978 5.21342 124.089 5.21342 124.089C5.21342 124.089 3.77248 121.318 5.10257 119.434C6.76519 117.106 9.53622 117.661 9.53622 117.661C9.53622 117.661 3.55078 105.579 3.21826 104.914C1.88817 102.586 1.99903 100.148 4.65921 99.8151C5.65678 99.7043 6.43267 100.48 8.98201 104.249C11.5314 108.017 15.7433 114.446 15.7433 114.446C15.7433 114.446 20.3986 118.326 22.7263 120.542C25.054 122.759 29.931 127.858 30.7069 129.41C32.8129 133.4 32.3695 139.829 32.3695 139.829L15.5216 147.033C15.4108 147.033 6.98689 139.718 5.87847 138.72Z" fill="#FFBE9D"/>
<path d="M3.43947 128.745C3.43947 128.745 4.21534 129.188 5.43459 130.075C6.09964 130.518 6.76471 131.072 7.5406 131.627C7.98397 131.959 8.31646 132.292 8.75983 132.624C9.09235 133.067 9.53573 133.622 9.53573 134.176C9.64657 134.73 9.42488 135.506 8.87068 135.838C8.42731 136.171 7.76226 136.282 7.20806 136.171C6.65385 136.171 6.2105 135.949 5.76714 135.838C5.32377 135.728 4.99124 135.617 4.54788 135.506C3.88283 135.284 3.21778 135.063 2.88526 134.841C2.4419 134.73 2.33105 134.619 2.33105 134.508C2.33105 134.508 3.21779 134.73 4.65873 135.173C5.32377 135.395 6.21049 135.617 7.20806 135.728C7.65142 135.728 8.20564 135.728 8.53817 135.395C8.87069 135.063 9.09236 134.619 8.98152 134.065C8.87068 133.511 8.64899 133.067 8.31647 132.735C7.98395 132.402 7.54058 132.07 7.20806 131.737C6.43217 131.183 5.76713 130.629 5.10208 130.075C4.10451 129.41 3.43947 128.745 3.43947 128.745Z" fill="#EB996E"/>
<path d="M18.0712 125.087C17.9603 125.087 17.4061 123.868 17.2953 122.316C17.0736 120.764 17.4061 119.434 17.517 119.434C17.6278 119.434 17.5169 120.764 17.7386 122.316C17.8495 123.868 18.182 125.087 18.0712 125.087Z" fill="#EB996E"/>
<path d="M26.2734 126.306C24.1674 125.309 21.7289 125.087 19.4013 125.419C17.0736 125.752 14.8568 126.528 12.7508 127.525C11.0882 128.301 9.20387 129.521 8.98219 131.294C8.76051 133.178 10.534 134.952 12.4183 135.284C14.3026 135.617 16.1869 134.952 17.9603 134.176C19.7338 133.4 21.3964 132.402 23.2807 131.959" fill="#FFBE9D"/>
<path d="M23.2805 132.07C23.2805 132.07 22.7263 132.181 21.9504 132.513C21.0637 132.846 19.8444 133.4 18.4035 134.176C17.6276 134.508 16.8517 134.952 15.8542 135.173C14.8566 135.506 13.859 135.617 12.6398 135.506C11.5313 135.395 10.3121 134.73 9.53621 133.732C9.09285 133.289 8.87115 132.624 8.76031 131.959C8.64947 131.294 8.76033 130.629 9.09286 130.075C9.7579 128.855 10.8663 128.19 11.9747 127.636C13.0831 127.082 14.0807 126.639 15.1891 126.306C17.2951 125.53 19.2902 125.198 20.9528 125.198C22.6155 125.198 23.9456 125.53 24.8323 125.752C25.2756 125.863 25.6082 126.084 25.8299 126.195C26.0516 126.306 26.1624 126.417 26.1624 126.417C26.1624 126.417 25.719 126.195 24.8323 125.974C23.9456 125.752 22.6155 125.419 20.9528 125.53C19.2902 125.53 17.4059 125.974 15.3 126.749C14.3024 127.082 13.194 127.636 12.1964 128.08C11.1988 128.634 10.0904 129.299 9.53621 130.407C9.20369 130.961 9.09286 131.516 9.2037 132.07C9.31455 132.624 9.5362 133.178 9.86872 133.622C10.5338 134.508 11.6422 135.063 12.6398 135.284C13.7482 135.395 14.7457 135.284 15.6325 135.063C16.5192 134.841 17.4059 134.398 18.1818 134.065C19.7336 133.4 20.9529 132.735 21.8396 132.513C22.283 132.402 22.6155 132.292 22.8372 132.292C23.1697 132.07 23.2805 132.07 23.2805 132.07Z" fill="#EB996E"/>
<path d="M3.66162 128.855C6.43265 130.961 9.20367 133.4 11.753 135.728C12.5289 136.393 13.3048 137.169 14.3023 137.39C15.0782 137.612 16.4083 136.282 17.0734 135.728L7.98442 126.195" fill="#FFBE9D"/>
<path d="M7.98445 126.195C7.98445 126.195 8.31695 126.417 8.76031 126.86C9.31452 127.415 9.86874 128.08 10.7555 128.855C12.4181 130.518 14.6349 132.957 17.2951 135.617L17.4059 135.728L17.2951 135.838C16.8517 136.171 16.2975 136.725 15.7433 137.058C15.5216 137.169 15.3 137.39 15.0783 137.501C14.9674 137.501 14.8566 137.612 14.6349 137.612C14.5241 137.612 14.3024 137.612 14.1916 137.612C13.6374 137.501 13.194 137.169 12.7506 136.947C11.9747 136.282 11.3097 135.617 10.6446 135.063C9.31453 133.843 8.09527 132.735 7.0977 131.848C6.10013 130.961 5.21342 130.296 4.65921 129.742C4.105 129.299 3.77246 128.966 3.77246 128.966C3.77246 128.966 4.10501 129.188 4.77006 129.631C5.43511 130.075 6.21098 130.74 7.31939 131.626C8.31696 132.513 9.64704 133.622 10.9771 134.73C11.6422 135.284 12.3073 136.06 13.0831 136.614C13.4157 136.947 13.859 137.169 14.3024 137.279C14.7457 137.39 15.1891 137.169 15.5216 136.836C16.0758 136.504 16.5192 136.06 17.0734 135.617V135.949C14.5241 133.289 12.3072 130.851 10.6446 129.188C9.86874 128.301 9.20368 127.636 8.76031 127.082C8.20611 126.528 7.98445 126.195 7.98445 126.195Z" fill="#EB996E"/>
<path d="M5.43555 123.313C8.42826 126.75 11.5318 130.186 14.5245 133.622C15.1896 134.398 15.8546 135.063 16.6305 135.617C17.5172 136.06 18.5148 136.282 19.4015 135.838C20.6208 135.173 20.9533 133.622 20.5099 132.292C20.0666 130.961 19.1799 129.964 18.2931 128.966C15.5221 125.863 13.0836 122.427 10.7559 118.991" fill="#FFBE9D"/>
<path d="M10.9776 118.88C10.9776 118.88 11.0885 118.991 11.1993 119.212C11.421 119.434 11.6427 119.767 11.8644 120.21C12.4186 121.097 13.3053 122.205 14.4137 123.646C15.5221 125.087 16.8522 126.75 18.404 128.634C19.1799 129.521 20.0666 130.407 20.6208 131.737C20.8425 132.402 21.0641 133.067 20.9533 133.733C20.8425 134.398 20.6208 135.173 20.0666 135.617C19.5124 136.171 18.7365 136.282 17.9606 136.171C17.2956 136.06 16.6305 135.728 16.0763 135.395C14.9679 134.508 14.3029 133.511 13.4161 132.624C11.8643 130.851 10.4234 129.188 9.20417 127.858C8.09576 126.528 7.09819 125.419 6.43314 124.644C6.10062 124.311 5.87893 123.979 5.65724 123.757C5.43556 123.535 5.43555 123.424 5.43555 123.424C5.43555 123.424 5.54641 123.535 5.76809 123.757C5.98977 123.979 6.21143 124.311 6.54396 124.644C7.31985 125.419 8.20658 126.528 9.42584 127.858C10.6451 129.188 12.086 130.851 13.6378 132.624C14.4137 133.511 15.1896 134.508 16.1872 135.284C16.7414 135.617 17.2956 135.949 17.9606 136.06C18.6257 136.171 19.2907 136.06 19.7341 135.617C20.1774 135.173 20.51 134.508 20.51 133.954C20.6208 133.289 20.51 132.735 20.1774 132.07C19.6232 130.851 18.7365 129.964 17.9606 129.077C16.4088 127.304 15.0787 125.53 13.9703 124.089C12.8619 122.648 12.086 121.429 11.5318 120.542C11.3101 120.099 11.0884 119.767 10.9776 119.545C10.9776 118.991 10.9776 118.88 10.9776 118.88Z" fill="#EB996E"/>
<path d="M24.832 142.489C24.832 142.489 24.3887 142.711 23.7236 142.711C23.0586 142.711 22.061 142.6 21.0634 142.267C20.0659 141.824 19.29 141.27 18.8466 140.716C18.4032 140.161 18.1816 139.829 18.2924 139.829C18.4032 139.718 19.29 141.159 21.1743 141.935C23.1694 142.711 24.832 142.378 24.832 142.489Z" fill="#EB996E"/>
<path d="M140.994 113.449L137.779 153.684C137.669 155.125 136.449 156.233 135.008 156.122L112.508 154.682C111.067 154.571 109.958 153.241 110.069 151.8L113.727 111.564C113.838 110.123 115.057 109.126 116.498 109.126L138.444 110.567C139.996 110.788 141.105 112.008 140.994 113.449Z" fill="#455A64"/>
<path d="M173.138 164.768C173.138 164.768 179.899 210.102 179.566 216.198C179.345 222.295 172.473 235.817 163.162 237.147C153.851 238.477 145.206 230.053 144.873 218.859C144.651 207.774 143.21 172.527 143.21 172.527L150.083 168.758L173.138 164.768Z" fill="#FFBE9D"/>
<path d="M135.007 127.304C135.007 127.304 141.99 131.627 143.986 132.735C145.981 133.843 145.759 142.156 145.759 142.156L157.397 169.313L143.32 174.411C143.32 174.411 138.333 164.879 136.892 163.66C135.451 162.44 133.566 161.997 133.566 161.997C133.566 161.997 132.791 164.657 130.685 163.438C128.468 162.219 126.14 159.337 126.14 159.337C126.14 159.337 124.256 160.556 123.48 159.115C122.704 157.674 121.596 154.571 121.596 154.571C121.596 154.571 125.697 149.25 127.359 149.25C129.022 149.25 137.668 149.694 137.668 149.694C137.668 149.694 137.224 148.918 134.786 148.031C132.347 147.033 118.049 142.822 117.384 142.6C116.386 142.156 115.278 139.607 118.381 139.385C121.485 139.164 139.109 142.267 139.109 142.267C139.109 142.267 140.106 137.723 139.33 136.725C138.554 135.728 132.347 131.627 135.007 127.304Z" fill="#FFBE9D"/>
<path d="M126.03 159.004C126.03 159.004 125.919 158.228 126.141 157.009C126.252 156.455 126.584 155.679 127.249 155.014C127.914 154.349 128.912 154.238 129.799 154.238C131.683 154.127 133.346 154.238 134.565 154.46C135.784 154.682 136.449 154.792 136.449 154.903C136.449 155.014 133.456 154.571 129.799 154.792C128.912 154.792 128.025 154.903 127.471 155.457C126.917 155.901 126.584 156.566 126.474 157.12C126.141 158.339 126.141 159.115 126.03 159.004Z" fill="#EB996E"/>
<path d="M128.801 159.891C128.912 159.78 130.021 160.556 131.461 161.11C132.902 161.775 134.232 162.108 134.232 162.219C134.232 162.33 132.792 162.219 131.24 161.554C129.799 160.999 128.801 160.002 128.801 159.891Z" fill="#EB996E"/>
<path d="M138.222 142.046C138.222 141.935 139.552 142.156 140.661 143.265C141.769 144.373 142.102 145.703 141.991 145.703C141.88 145.814 141.326 144.595 140.328 143.597C139.331 142.711 138.222 142.267 138.222 142.046Z" fill="#EB996E"/>
<path d="M18.293 384.566C18.1822 384.566 24.1676 359.073 31.8157 327.705C39.4637 296.336 45.7816 270.954 45.8925 270.954C46.0033 270.954 40.0179 296.447 32.3699 327.815C24.7218 359.183 18.5147 384.677 18.293 384.566Z" fill="#455A64"/>
<path d="M164.799 103.953L170.212 84.1702C164.986 75.7719 162 65.8805 162 55.2426C162 24.8218 186.635 7.62939e-06 217.243 7.62939e-06C247.663 7.62939e-06 272.485 24.6352 272.485 55.2426C272.485 85.6633 247.85 110.485 217.243 110.485C204.552 110.485 192.794 106.193 183.462 98.914L164.799 103.953Z" fill="#11C118"/>
<path d="M192.608 56.549L199.14 50.0169L211.644 61.2148L236.093 37.5127L242.065 44.0448L210.711 73.5323L192.608 56.549Z" fill="white"/>
</svg>
