<svg width="19" height="19" viewBox="0 0 19 19" fill="none" xmlns="http://www.w3.org/2000/svg">
<path d="M9.01331 9.79808C9.42641 9.79808 9.78018 9.65086 10.0746 9.35643C10.3685 9.0625 10.5155 8.70899 10.5155 8.29588C10.5155 7.88278 10.3685 7.52901 10.0746 7.23458C9.78018 6.94065 9.42641 6.79369 9.01331 6.79369C8.6002 6.79369 8.24669 6.94065 7.95275 7.23458C7.65832 7.52901 7.51111 7.88278 7.51111 8.29588C7.51111 8.70899 7.65832 9.0625 7.95275 9.35643C8.24669 9.65086 8.6002 9.79808 9.01331 9.79808ZM9.01331 17.0274C8.91316 17.0274 8.81301 17.0086 8.71287 16.9711C8.61272 16.9335 8.52509 16.8834 8.44998 16.8209C6.62231 15.206 5.25781 13.707 4.35649 12.324C3.45518 10.9405 3.00452 9.64786 3.00452 8.4461C3.00452 6.56836 3.60865 5.07242 4.81692 3.95829C6.02468 2.84416 7.42348 2.28709 9.01331 2.28709C10.6031 2.28709 12.0019 2.84416 13.2097 3.95829C14.418 5.07242 15.0221 6.56836 15.0221 8.4461C15.0221 9.64786 14.5714 10.9405 13.6701 12.324C12.7688 13.707 11.4043 15.206 9.57663 16.8209C9.50152 16.8834 9.41389 16.9335 9.31375 16.9711C9.2136 17.0086 9.11345 17.0274 9.01331 17.0274Z" fill="#E89005"/>
</svg>
