<svg width="21" height="26" viewBox="0 0 21 26" fill="none" xmlns="http://www.w3.org/2000/svg">
<path d="M10.3333 12.9167C11.0437 12.9167 11.6521 12.6635 12.1585 12.1572C12.6648 11.6508 12.9175 11.0429 12.9167 10.3333C12.9167 9.62292 12.6635 9.01454 12.1572 8.50821C11.6508 8.00188 11.0429 7.74914 10.3333 7.75C9.62292 7.75 9.01454 8.00317 8.50821 8.5095C8.00187 9.01583 7.74914 9.62378 7.75 10.3333C7.75 11.0438 8.00317 11.6521 8.5095 12.1585C9.01583 12.6648 9.62378 12.9175 10.3333 12.9167ZM10.3333 25.349C10.1611 25.349 9.98889 25.3167 9.81667 25.2521C9.64444 25.1875 9.49375 25.1014 9.36458 24.9938C6.22153 22.2167 3.875 19.6385 2.325 17.2593C0.775 14.88 0 12.6575 0 10.5917C0 7.3625 1.03893 4.78993 3.11679 2.87396C5.19465 0.957986 7.60017 0 10.3333 0C13.0674 0 15.4733 0.957986 17.5512 2.87396C19.629 4.78993 20.6675 7.3625 20.6667 10.5917C20.6667 12.6583 19.8917 14.8813 18.3417 17.2605C16.7917 19.6398 14.4451 22.2175 11.3021 24.9938C11.1729 25.1014 11.0222 25.1875 10.85 25.2521C10.6778 25.3167 10.5056 25.349 10.3333 25.349Z" fill="#D84A05"/>
</svg>
