<svg width="26" height="25" viewBox="0 0 26 25" fill="none" xmlns="http://www.w3.org/2000/svg">
<path fill-rule="evenodd" clip-rule="evenodd" d="M0.5 19.3231C0.589967 19.1164 0.695543 18.9145 0.816728 18.7176C1.28716 17.953 1.91119 17.3702 2.68881 16.9692C4.35359 16.1382 6.04523 15.5146 7.76372 15.0986C9.48221 14.6825 11.2275 14.475 12.9997 14.4761C14.7719 14.4761 16.5173 14.6841 18.2358 15.1002C19.9542 15.5162 21.6459 16.1392 23.3107 16.9692C24.0894 17.3713 24.7139 17.9547 25.1844 18.7192C25.3051 18.9154 25.4103 19.1165 25.5 19.3223C22.6025 22.7776 18.0806 25 12.9997 25C7.91916 25 3.39748 22.7779 0.5 19.3231ZM8.44843 10.9777C9.71044 12.2377 11.2275 12.8676 12.9997 12.8676C14.7719 12.8676 16.289 12.2377 17.551 10.9777C18.8131 9.71775 19.4441 8.20312 19.4441 6.43382C19.4441 4.66452 18.8131 3.14989 17.551 1.88994C16.289 0.629979 14.7719 0 12.9997 0C11.2275 0 9.71044 0.629979 8.44843 1.88994C7.18641 3.14989 6.55541 4.66452 6.55541 6.43382C6.55541 8.20312 7.18641 9.71775 8.44843 10.9777Z" fill="#D84A05"/>
</svg>
