<svg width="78" height="18" viewBox="0 0 78 18" fill="none" xmlns="http://www.w3.org/2000/svg">
<rect width="78" height="18" rx="9" fill="white"/>
<path d="M9.8 11.4286C9.47 11.4286 9.2 11.7179 9.2 12.0714C9.2 12.425 9.47 12.7143 9.8 12.7143C10.13 12.7143 10.4 12.425 10.4 12.0714C10.4 11.7179 10.13 11.4286 9.8 11.4286ZM9.8 10.1429C10.796 10.1429 11.6 11.0043 11.6 12.0714C11.6 13.1386 10.796 14 9.8 14C8.804 14 8 13.1386 8 12.0714C8 11.0043 8.804 10.1429 9.8 10.1429ZM15.2 5.64286H18.2V6.92857H15.2V5.64286ZM11 5H12.8V6.28571H11V7.98929L13.1 10.7857H15.2V7.57143H17.6C18.926 7.57143 20 8.72214 20 10.1429V12.0714H18.8C18.8 13.1386 17.996 14 17 14C16.004 14 15.2 13.1386 15.2 12.0714H12.5L9.8 8.43929V6.28571C9.8 5.94472 9.92643 5.6177 10.1515 5.37658C10.3765 5.13546 10.6817 5 11 5ZM17 12.7143C17.33 12.7143 17.6 12.425 17.6 12.0714H16.4C16.4 12.425 16.67 12.7143 17 12.7143Z" fill="#E4740B"/>
<path d="M28.8371 7.96631C28.8371 8.27874 28.7618 8.57164 28.6111 8.84501C28.4661 9.11839 28.2345 9.33877 27.9165 9.50614C27.6041 9.67351 27.208 9.7572 26.7282 9.7572H25.7491V12H24.5774V6.15867H26.7282C27.1801 6.15867 27.565 6.23678 27.8831 6.393C28.2011 6.54921 28.4382 6.76401 28.5944 7.03738C28.7562 7.31076 28.8371 7.6204 28.8371 7.96631ZM26.678 8.81154C27.0016 8.81154 27.2415 8.73901 27.3977 8.59395C27.5539 8.44332 27.632 8.2341 27.632 7.96631C27.632 7.39724 27.314 7.1127 26.678 7.1127H25.7491V8.81154H26.678ZM33.9788 9.58146C33.9788 9.74883 33.9676 9.89947 33.9453 10.0334H30.556C30.5839 10.3681 30.7011 10.6303 30.9075 10.82C31.1139 11.0097 31.3678 11.1046 31.669 11.1046C32.1042 11.1046 32.4138 10.9177 32.5979 10.5439H33.8616C33.7277 10.9902 33.4711 11.3584 33.0917 11.6485C32.7123 11.9331 32.2465 12.0753 31.6941 12.0753C31.2478 12.0753 30.8461 11.9777 30.489 11.7824C30.1376 11.5816 29.8614 11.2998 29.6605 10.9372C29.4653 10.5745 29.3676 10.1561 29.3676 9.68188C29.3676 9.20208 29.4653 8.78085 29.6605 8.41821C29.8558 8.05557 30.1292 7.77662 30.4807 7.58135C30.8322 7.38608 31.2366 7.28844 31.6941 7.28844C32.1349 7.28844 32.5282 7.38329 32.8741 7.57298C33.2256 7.76267 33.4962 8.03325 33.6859 8.38474C33.8811 8.73064 33.9788 9.12955 33.9788 9.58146ZM32.7653 9.24671C32.7597 8.94544 32.651 8.70554 32.4389 8.52701C32.2269 8.3429 31.9675 8.25084 31.6607 8.25084C31.3705 8.25084 31.1251 8.34011 30.9242 8.51864C30.7289 8.69159 30.609 8.93428 30.5644 9.24671H32.7653ZM37.4031 7.29681C37.9555 7.29681 38.4018 7.47255 38.7421 7.82404C39.0824 8.16994 39.2526 8.65533 39.2526 9.28019V12H38.081V9.43919C38.081 9.07097 37.9889 8.78922 37.8048 8.59395C37.6207 8.39311 37.3697 8.29268 37.0516 8.29268C36.7281 8.29268 36.4714 8.39311 36.2817 8.59395C36.0976 8.78922 36.0056 9.07097 36.0056 9.43919V12H34.834V7.36376H36.0056V7.9412C36.1618 7.74035 36.3598 7.58414 36.5997 7.47255C36.8452 7.35539 37.113 7.29681 37.4031 7.29681ZM42.1827 7.28844C42.5287 7.28844 42.8327 7.35818 43.0949 7.49766C43.3571 7.63156 43.5636 7.8073 43.7142 8.02489V7.36376H44.8942V12.0335C44.8942 12.4631 44.8077 12.8452 44.6348 13.18C44.4618 13.5203 44.2024 13.7881 43.8565 13.9834C43.5106 14.1842 43.0921 14.2846 42.6012 14.2846C41.9428 14.2846 41.4017 14.1312 40.9777 13.8244C40.5592 13.5175 40.3221 13.0991 40.2663 12.5691H41.4296C41.4909 12.7811 41.622 12.9484 41.8229 13.0712C42.0293 13.1995 42.2776 13.2637 42.5677 13.2637C42.908 13.2637 43.1842 13.1605 43.3962 12.954C43.6082 12.7532 43.7142 12.4463 43.7142 12.0335V11.3138C43.5636 11.5314 43.3544 11.7127 43.0866 11.8577C42.8243 12.0028 42.5231 12.0753 42.1827 12.0753C41.7922 12.0753 41.4351 11.9749 41.1116 11.774C40.788 11.5732 40.5313 11.2915 40.3416 10.9288C40.1575 10.5606 40.0655 10.1394 40.0655 9.66514C40.0655 9.1965 40.1575 8.78085 40.3416 8.41821C40.5313 8.05557 40.7852 7.77662 41.1032 7.58135C41.4268 7.38608 41.7866 7.28844 42.1827 7.28844ZM43.7142 9.68188C43.7142 9.39735 43.6584 9.15466 43.5468 8.95381C43.4353 8.74738 43.2846 8.59117 43.0949 8.48516C42.9052 8.37358 42.7016 8.31779 42.484 8.31779C42.2664 8.31779 42.0656 8.37079 41.8815 8.47679C41.6974 8.5828 41.5467 8.73901 41.4296 8.94544C41.318 9.14629 41.2622 9.38619 41.2622 9.66514C41.2622 9.9441 41.318 10.1896 41.4296 10.4016C41.5467 10.608 41.6974 10.767 41.8815 10.8786C42.0712 10.9902 42.272 11.046 42.484 11.046C42.7016 11.046 42.9052 10.993 43.0949 10.887C43.2846 10.7754 43.4353 10.6192 43.5468 10.4183C43.6584 10.2119 43.7142 9.96642 43.7142 9.68188ZM46.6327 6.81143C46.4262 6.81143 46.2533 6.74727 46.1138 6.61895C45.9799 6.48505 45.9129 6.32047 45.9129 6.1252C45.9129 5.92993 45.9799 5.76814 46.1138 5.63982C46.2533 5.50592 46.4262 5.43897 46.6327 5.43897C46.8391 5.43897 47.0092 5.50592 47.1431 5.63982C47.2826 5.76814 47.3524 5.92993 47.3524 6.1252C47.3524 6.32047 47.2826 6.48505 47.1431 6.61895C47.0092 6.74727 46.8391 6.81143 46.6327 6.81143ZM47.2101 7.36376V12H46.0385V7.36376H47.2101ZM49.5393 8.08347C49.6899 7.83799 49.8852 7.64551 50.1251 7.50603C50.3705 7.36655 50.6495 7.29681 50.9619 7.29681V8.52701H50.6523C50.2841 8.52701 50.0051 8.61348 49.8154 8.78643C49.6313 8.95939 49.5393 9.26066 49.5393 9.69025V12H48.3676V7.36376H49.5393V8.08347ZM52.3452 6.81143C52.1388 6.81143 51.9659 6.74727 51.8264 6.61895C51.6925 6.48505 51.6255 6.32047 51.6255 6.1252C51.6255 5.92993 51.6925 5.76814 51.8264 5.63982C51.9659 5.50592 52.1388 5.43897 52.3452 5.43897C52.5517 5.43897 52.7218 5.50592 52.8557 5.63982C52.9952 5.76814 53.0649 5.92993 53.0649 6.1252C53.0649 6.32047 52.9952 6.48505 52.8557 6.61895C52.7218 6.74727 52.5517 6.81143 52.3452 6.81143ZM52.9227 7.36376V12H51.7511V7.36376H52.9227ZM59.8379 7.29681C60.4069 7.29681 60.8644 7.47255 61.2103 7.82404C61.5618 8.16994 61.7376 8.65533 61.7376 9.28019V12H60.5659V9.43919C60.5659 9.07655 60.4739 8.80038 60.2898 8.61069C60.1057 8.41542 59.8546 8.31779 59.5366 8.31779C59.2186 8.31779 58.9647 8.41542 58.7751 8.61069C58.5909 8.80038 58.4989 9.07655 58.4989 9.43919V12H57.3273V9.43919C57.3273 9.07655 57.2352 8.80038 57.0511 8.61069C56.867 8.41542 56.6159 8.31779 56.2979 8.31779C55.9743 8.31779 55.7177 8.41542 55.528 8.61069C55.3439 8.80038 55.2518 9.07655 55.2518 9.43919V12H54.0802V7.36376H55.2518V7.92446C55.4025 7.72919 55.595 7.57577 55.8293 7.46419C56.0692 7.3526 56.3314 7.29681 56.6159 7.29681C56.9786 7.29681 57.3022 7.37492 57.5867 7.53113C57.8712 7.68177 58.0916 7.89936 58.2478 8.18389C58.3985 7.91609 58.6161 7.7013 58.9006 7.5395C59.1907 7.37771 59.5031 7.29681 59.8379 7.29681ZM62.5481 9.66514C62.5481 9.1965 62.6401 8.78085 62.8242 8.41821C63.0139 8.05557 63.2678 7.77662 63.5858 7.58135C63.9094 7.38608 64.2692 7.28844 64.6653 7.28844C65.0113 7.28844 65.3125 7.35818 65.5692 7.49766C65.8314 7.63714 66.0406 7.81288 66.1968 8.02489V7.36376H67.3768V12H66.1968V11.3221C66.0462 11.5397 65.837 11.721 65.5692 11.8661C65.3069 12.0056 65.0029 12.0753 64.657 12.0753C64.2664 12.0753 63.9094 11.9749 63.5858 11.774C63.2678 11.5732 63.0139 11.2915 62.8242 10.9288C62.6401 10.5606 62.5481 10.1394 62.5481 9.66514ZM66.1968 9.68188C66.1968 9.39735 66.141 9.15466 66.0294 8.95381C65.9179 8.74738 65.7672 8.59117 65.5775 8.48516C65.3878 8.37358 65.1842 8.31779 64.9666 8.31779C64.749 8.31779 64.5482 8.37079 64.3641 8.47679C64.18 8.5828 64.0293 8.73901 63.9122 8.94544C63.8006 9.14629 63.7448 9.38619 63.7448 9.66514C63.7448 9.9441 63.8006 10.1896 63.9122 10.4016C64.0293 10.608 64.18 10.767 64.3641 10.8786C64.5538 10.9902 64.7546 11.046 64.9666 11.046C65.1842 11.046 65.3878 10.993 65.5775 10.887C65.7672 10.7754 65.9179 10.6192 66.0294 10.4183C66.141 10.2119 66.1968 9.96642 66.1968 9.68188ZM71.0903 7.29681C71.6426 7.29681 72.0889 7.47255 72.4292 7.82404C72.7696 8.16994 72.9397 8.65533 72.9397 9.28019V12H71.7681V9.43919C71.7681 9.07097 71.6761 8.78922 71.492 8.59395C71.3078 8.39311 71.0568 8.29268 70.7388 8.29268C70.4152 8.29268 70.1585 8.39311 69.9689 8.59395C69.7847 8.78922 69.6927 9.07097 69.6927 9.43919V12H68.5211V7.36376H69.6927V7.9412C69.8489 7.74035 70.047 7.58414 70.2869 7.47255C70.5323 7.35539 70.8001 7.29681 71.0903 7.29681Z" fill="black"/>
</svg>
