<svg width="16" height="28" viewBox="0 0 16 28" fill="none" xmlns="http://www.w3.org/2000/svg">
<path d="M12.6875 27.2709L0.401064 15.0209C0.255231 14.875 0.151689 14.717 0.0904394 14.5469C0.0291894 14.3768 -0.000949436 14.1945 2.27865e-05 14C2.27865e-05 13.8056 0.0306478 13.6233 0.0918978 13.4531C0.153148 13.283 0.256203 13.125 0.401064 12.9792L12.6875 0.692729C13.0278 0.352451 13.4531 0.182312 13.9636 0.182312C14.474 0.182312 14.9115 0.364604 15.2761 0.729187C15.6406 1.09377 15.8229 1.51912 15.8229 2.00523C15.8229 2.49134 15.6406 2.91669 15.2761 3.28127L4.55731 14L15.2761 24.7188C15.6163 25.059 15.7865 25.4786 15.7865 25.9773C15.7865 26.4761 15.6042 26.9072 15.2396 27.2709C14.875 27.6354 14.4497 27.8177 13.9636 27.8177C13.4775 27.8177 13.0521 27.6354 12.6875 27.2709Z" fill="#D84A05"/>
</svg>
