<svg width="25" height="25" viewBox="0 0 25 25" fill="none" xmlns="http://www.w3.org/2000/svg">
<path d="M10 15H15V12.5H10V15ZM10 11.25H20V8.75H10V11.25ZM10 7.5H20V5H10V7.5ZM7.5 20C6.8125 20 6.22375 19.755 5.73375 19.265C5.24375 18.775 4.99917 18.1867 5 17.5V2.5C5 1.8125 5.245 1.22375 5.735 0.733752C6.225 0.243752 6.81333 -0.000831211 7.5 2.12224e-06H22.5C23.1875 2.12224e-06 23.7762 0.245002 24.2662 0.735002C24.7562 1.225 25.0008 1.81334 25 2.5V17.5C25 18.1875 24.755 18.7763 24.265 19.2663C23.775 19.7563 23.1867 20.0008 22.5 20H7.5ZM2.5 25C1.8125 25 1.22375 24.755 0.733752 24.265C0.243752 23.775 -0.000831211 23.1867 2.12224e-06 22.5V5H2.5V22.5H20V25H2.5Z" fill="#9A9A9A"/>
</svg>
