<svg width="38" height="39" viewBox="0 0 38 39" fill="none" xmlns="http://www.w3.org/2000/svg">
<circle cx="19" cy="19.5001" r="18.7278" fill="#D84A05"/>
<path d="M29.1539 29.1165C29.5684 29.3233 30.0804 29.1558 30.2089 28.7107C30.4034 28.037 30.4426 27.3241 30.3188 26.6265C30.1458 25.6519 29.6638 24.7588 28.9439 24.0795C28.2241 23.4001 27.3047 22.9704 26.3217 22.854C25.3388 22.7376 24.3445 22.9407 23.4859 23.4332C22.6273 23.9257 21.95 24.6814 21.5542 25.5887C21.1584 26.4959 21.0651 27.5065 21.2881 28.4708C21.5111 29.4352 22.0386 30.3022 22.7925 30.9436C23.3322 31.4027 23.9674 31.7287 24.6471 31.901C25.0962 32.0148 25.4993 31.6574 25.53 31.1952V31.1952C25.5607 30.7329 25.2026 30.3444 24.7678 30.1845C24.4455 30.066 24.1444 29.8911 23.8795 29.6658C23.4 29.2578 23.0644 28.7063 22.9226 28.0929C22.7807 27.4794 22.84 26.8366 23.0918 26.2595C23.3436 25.6824 23.7744 25.2017 24.3206 24.8884C24.8667 24.5751 25.4992 24.4459 26.1245 24.52C26.7497 24.594 27.3346 24.8673 27.7925 25.2995C28.2504 25.7316 28.557 26.2997 28.667 26.9196C28.7278 27.2621 28.7268 27.6103 28.6664 27.9483C28.5848 28.4043 28.7395 28.9096 29.1539 29.1165V29.1165Z" fill="white"/>
<path d="M8.68852 10.5549C8.28797 10.3221 7.76638 10.4569 7.60998 10.893C7.39902 11.4812 7.30883 12.1089 7.34836 12.7384C7.4055 13.6484 7.73121 14.521 8.28429 15.2459C8.83737 15.9708 9.59299 16.5154 10.4556 16.8108C11.3182 17.1063 12.249 17.1393 13.1304 16.9057C14.0118 16.6721 14.8041 16.1825 15.4071 15.4986C16.0102 14.8147 16.3969 13.9674 16.5184 13.0637C16.6399 12.16 16.4907 11.2406 16.0896 10.4218C15.8122 9.85538 15.423 9.35467 14.9484 8.94818C14.5966 8.64682 14.0767 8.78803 13.844 9.18858V9.18858C13.6113 9.58914 13.7595 10.0963 14.0782 10.4325C14.2812 10.6468 14.4518 10.8917 14.583 11.1596C14.8381 11.6805 14.933 12.2654 14.8558 12.8402C14.7785 13.415 14.5325 13.954 14.1489 14.389C13.7653 14.824 13.2613 15.1355 12.7006 15.2841C12.14 15.4327 11.5479 15.4117 10.9992 15.2237C10.4505 15.0358 9.96982 14.6894 9.618 14.2283C9.26618 13.7672 9.059 13.2121 9.02265 12.6332C9.00395 12.3354 9.0309 12.0382 9.10114 11.7515C9.2114 11.3016 9.08908 10.7876 8.68852 10.5549V10.5549Z" fill="white"/>
<rect x="7.33929" y="29.292" width="29.524" height="3.45758" rx="1.72879" transform="rotate(-45 7.33929 29.292)" fill="white"/>
</svg>
