<svg width="40" height="39" viewBox="0 0 40 39" fill="none" xmlns="http://www.w3.org/2000/svg">
<g clip-path="url(#clip0_340_107)">
<g clip-path="url(#clip1_340_107)">
<path d="M35.5 19.5C35.5 29.165 27.665 37 18 37C8.33502 37 0.5 29.165 0.5 19.5C0.5 9.83502 8.33502 2 18 2C27.665 2 35.5 9.83502 35.5 19.5Z" fill="#D84A05"/>
<path d="M18 19.5C16.2812 19.5 14.8099 18.888 13.5859 17.6641C12.362 16.4401 11.75 14.9687 11.75 13.25C11.75 11.5312 12.362 10.0599 13.5859 8.83594C14.8099 7.61198 16.2812 7 18 7C19.7187 7 21.1901 7.61198 22.4141 8.83594C23.638 10.0599 24.25 11.5312 24.25 13.25C24.25 14.9687 23.638 16.4401 22.4141 17.6641C21.1901 18.888 19.7187 19.5 18 19.5ZM5.5 32V27.625C5.5 26.7396 5.72813 25.9255 6.18438 25.1828C6.64063 24.4401 7.24583 23.874 8 23.4844C9.61458 22.6771 11.2552 22.0714 12.9219 21.6672C14.5885 21.263 16.2812 21.0615 18 21.0625C19.7187 21.0625 21.4115 21.2646 23.0781 21.6687C24.7448 22.0729 26.3854 22.6781 28 23.4844C28.7552 23.875 29.3609 24.4417 29.8172 25.1844C30.2734 25.9271 30.501 26.7406 30.5 27.625V32H5.5Z" fill="white"/>
<mask id="mask0_340_107" style="mask-type:alpha" maskUnits="userSpaceOnUse" x="0" y="2" width="36" height="35">
<path d="M35.5 19.5C35.5 29.165 27.665 37 18 37C8.33502 37 0.5 29.165 0.5 19.5C0.5 9.83502 8.33502 2 18 2C27.665 2 35.5 9.83502 35.5 19.5Z" fill="#868686"/>
</mask>
<g mask="url(#mask0_340_107)">
<path d="M30.5 31.5C30.5 32.2223 30.1767 32.9375 29.5485 33.6048C28.9203 34.272 27.9996 34.8784 26.8388 35.3891C25.6781 35.8998 24.3001 36.3049 22.7835 36.5813C21.267 36.8577 19.6415 37 18 37C16.3585 37 14.733 36.8577 13.2165 36.5813C11.6999 36.3049 10.3219 35.8998 9.16116 35.3891C8.00043 34.8784 7.07969 34.272 6.45151 33.6048C5.82332 32.9375 5.5 32.2223 5.5 31.5L18 31.5H30.5Z" fill="white"/>
</g>
</g>
</g>
<defs>
<clipPath id="clip0_340_107">
<rect width="39" height="39" fill="white" transform="translate(0.5)"/>
</clipPath>
<clipPath id="clip1_340_107">
<rect width="36" height="36" fill="white" transform="translate(-0.5 2)"/>
</clipPath>
</defs>
</svg>
