<svg width="70" height="18" viewBox="0 0 70 18" fill="none" xmlns="http://www.w3.org/2000/svg">
<rect width="70" height="18" rx="9" fill="white"/>
<path d="M20.5385 7.61185H20.0556C19.9396 6.3512 19.3568 5.17936 18.4216 4.32617C17.4863 3.47298 16.266 3 15 3C13.734 3 12.5137 3.47298 11.5784 4.32617C10.6432 5.17936 10.0604 6.3512 9.94442 7.61185H9.46154C9.33913 7.61185 9.22174 7.66048 9.13518 7.74704C9.04863 7.83359 9 7.95098 9 8.07339C9.00203 9.171 9.30409 10.2472 9.87353 11.1855C10.443 12.1239 11.2581 12.8887 12.2308 13.3972V13.6119C12.2308 13.8567 12.328 14.0915 12.5011 14.2646C12.6742 14.4377 12.909 14.5349 13.1538 14.5349H16.8462C17.091 14.5349 17.3258 14.4377 17.4989 14.2646C17.672 14.0915 17.7692 13.8567 17.7692 13.6119V13.3972C18.7419 12.8887 19.557 12.1239 20.1265 11.1855C20.6959 10.2472 20.998 9.171 21 8.07339C21 7.95098 20.9514 7.83359 20.8648 7.74704C20.7783 7.66048 20.6609 7.61185 20.5385 7.61185ZM17.6238 4.85589C17.7296 4.94243 17.831 5.03378 17.9279 5.12993C16.6992 5.56213 15.6839 6.45039 15.0923 7.6107H13.3904C13.6789 6.8021 14.2099 6.10228 14.9111 5.60684C15.6122 5.1114 16.4492 4.84451 17.3077 4.84262C17.4133 4.84262 17.5188 4.84782 17.6238 4.85589ZM16.1608 7.61185C16.7203 6.77236 17.5669 6.1658 18.5417 5.90589C18.8605 6.42435 19.0604 7.00694 19.1273 7.61185H16.1608ZM15 3.91955C15.3704 3.91979 15.739 3.96966 16.0962 4.06781C15.2264 4.28357 14.4289 4.72478 13.784 5.34698C13.1391 5.96918 12.6696 6.75038 12.4229 7.61185H10.8727C10.9872 6.59697 11.4711 5.6597 12.2323 4.97874C12.9935 4.29778 13.9787 3.92076 15 3.91955Z" fill="#EC7505"/>
<path d="M30.946 6.15867V12H29.7744V8.20063L28.2094 12H27.3224L25.7491 8.20063V12H24.5774V6.15867H25.9081L27.7659 10.502L29.6237 6.15867H30.946ZM31.8031 9.66514C31.8031 9.1965 31.8951 8.78085 32.0792 8.41821C32.2689 8.05557 32.5228 7.77662 32.8408 7.58135C33.1644 7.38608 33.5242 7.28844 33.9203 7.28844C34.2662 7.28844 34.5675 7.35818 34.8241 7.49766C35.0864 7.63714 35.2956 7.81288 35.4518 8.02489V7.36376H36.6318V12H35.4518V11.3221C35.3012 11.5397 35.0919 11.721 34.8241 11.8661C34.5619 12.0056 34.2579 12.0753 33.912 12.0753C33.5214 12.0753 33.1644 11.9749 32.8408 11.774C32.5228 11.5732 32.2689 11.2915 32.0792 10.9288C31.8951 10.5606 31.8031 10.1394 31.8031 9.66514ZM35.4518 9.68188C35.4518 9.39735 35.396 9.15466 35.2844 8.95381C35.1728 8.74738 35.0222 8.59117 34.8325 8.48516C34.6428 8.37358 34.4392 8.31779 34.2216 8.31779C34.004 8.31779 33.8032 8.37079 33.6191 8.47679C33.4349 8.5828 33.2843 8.73901 33.1671 8.94544C33.0556 9.14629 32.9998 9.38619 32.9998 9.66514C32.9998 9.9441 33.0556 10.1896 33.1671 10.4016C33.2843 10.608 33.4349 10.767 33.6191 10.8786C33.8087 10.9902 34.0096 11.046 34.2216 11.046C34.4392 11.046 34.6428 10.993 34.8325 10.887C35.0222 10.7754 35.1728 10.6192 35.2844 10.4183C35.396 10.2119 35.4518 9.96642 35.4518 9.68188ZM40.521 12L38.9477 10.025V12H37.7761V5.80719H38.9477V9.3304L40.5042 7.36376H42.0273L39.9854 9.69025L42.0441 12H40.521ZM42.362 9.66514C42.362 9.1965 42.454 8.78085 42.6381 8.41821C42.8278 8.05557 43.0817 7.77662 43.3997 7.58135C43.7233 7.38608 44.0831 7.28844 44.4792 7.28844C44.8251 7.28844 45.1264 7.35818 45.383 7.49766C45.6453 7.63714 45.8545 7.81288 46.0107 8.02489V7.36376H47.1907V12H46.0107V11.3221C45.8601 11.5397 45.6508 11.721 45.383 11.8661C45.1208 12.0056 44.8168 12.0753 44.4709 12.0753C44.0803 12.0753 43.7233 11.9749 43.3997 11.774C43.0817 11.5732 42.8278 11.2915 42.6381 10.9288C42.454 10.5606 42.362 10.1394 42.362 9.66514ZM46.0107 9.68188C46.0107 9.39735 45.9549 9.15466 45.8433 8.95381C45.7317 8.74738 45.5811 8.59117 45.3914 8.48516C45.2017 8.37358 44.9981 8.31779 44.7805 8.31779C44.5629 8.31779 44.3621 8.37079 44.178 8.47679C43.9938 8.5828 43.8432 8.73901 43.726 8.94544C43.6145 9.14629 43.5587 9.38619 43.5587 9.66514C43.5587 9.9441 43.6145 10.1896 43.726 10.4016C43.8432 10.608 43.9938 10.767 44.178 10.8786C44.3676 10.9902 44.5685 11.046 44.7805 11.046C44.9981 11.046 45.2017 10.993 45.3914 10.887C45.5811 10.7754 45.7317 10.6192 45.8433 10.4183C45.9549 10.2119 46.0107 9.96642 46.0107 9.68188ZM50.9041 7.29681C51.4565 7.29681 51.9028 7.47255 52.2431 7.82404C52.5834 8.16994 52.7536 8.65533 52.7536 9.28019V12H51.582V9.43919C51.582 9.07097 51.4899 8.78922 51.3058 8.59395C51.1217 8.39311 50.8707 8.29268 50.5526 8.29268C50.2291 8.29268 49.9724 8.39311 49.7827 8.59395C49.5986 8.78922 49.5066 9.07097 49.5066 9.43919V12H48.335V7.36376H49.5066V7.9412C49.6628 7.74035 49.8608 7.58414 50.1007 7.47255C50.3462 7.35539 50.614 7.29681 50.9041 7.29681ZM53.5665 9.66514C53.5665 9.1965 53.6585 8.78085 53.8426 8.41821C54.0323 8.05557 54.2862 7.77662 54.6042 7.58135C54.9278 7.38608 55.2876 7.28844 55.6838 7.28844C56.0297 7.28844 56.3309 7.35818 56.5876 7.49766C56.8498 7.63714 57.059 7.81288 57.2152 8.02489V7.36376H58.3952V12H57.2152V11.3221C57.0646 11.5397 56.8554 11.721 56.5876 11.8661C56.3253 12.0056 56.0213 12.0753 55.6754 12.0753C55.2848 12.0753 54.9278 11.9749 54.6042 11.774C54.2862 11.5732 54.0323 11.2915 53.8426 10.9288C53.6585 10.5606 53.5665 10.1394 53.5665 9.66514ZM57.2152 9.68188C57.2152 9.39735 57.1594 9.15466 57.0478 8.95381C56.9363 8.74738 56.7856 8.59117 56.5959 8.48516C56.4062 8.37358 56.2026 8.31779 55.985 8.31779C55.7674 8.31779 55.5666 8.37079 55.3825 8.47679C55.1984 8.5828 55.0477 8.73901 54.9306 8.94544C54.819 9.14629 54.7632 9.38619 54.7632 9.66514C54.7632 9.9441 54.819 10.1896 54.9306 10.4016C55.0477 10.608 55.1984 10.767 55.3825 10.8786C55.5722 10.9902 55.773 11.046 55.985 11.046C56.2026 11.046 56.4062 10.993 56.5959 10.887C56.7856 10.7754 56.9363 10.6192 57.0478 10.4183C57.1594 10.2119 57.2152 9.96642 57.2152 9.68188ZM62.1087 7.29681C62.661 7.29681 63.1073 7.47255 63.4476 7.82404C63.788 8.16994 63.9581 8.65533 63.9581 9.28019V12H62.7865V9.43919C62.7865 9.07097 62.6945 8.78922 62.5104 8.59395C62.3262 8.39311 62.0752 8.29268 61.7572 8.29268C61.4336 8.29268 61.1769 8.39311 60.9873 8.59395C60.8031 8.78922 60.7111 9.07097 60.7111 9.43919V12H59.5395V7.36376H60.7111V7.9412C60.8673 7.74035 61.0654 7.58414 61.3053 7.47255C61.5507 7.35539 61.8185 7.29681 62.1087 7.29681Z" fill="black"/>
</svg>
