<svg width="32" height="31" viewBox="0 0 32 31" fill="none" xmlns="http://www.w3.org/2000/svg">
<g clip-path="url(#clip0_349_117)">
<path d="M31.1681 15.3194C31.1681 23.5044 24.5329 30.1396 16.348 30.1396C8.16304 30.1396 1.52783 23.5044 1.52783 15.3194C1.52783 7.13448 8.16304 0.499268 16.348 0.499268C24.5329 0.499268 31.1681 7.13448 31.1681 15.3194Z" fill="#D84A05"/>
<path d="M16.348 15.3197C14.8925 15.3197 13.6464 14.8014 12.6099 13.7649C11.5734 12.7284 11.0551 11.4824 11.0551 10.0268C11.0551 8.57125 11.5734 7.32521 12.6099 6.28868C13.6464 5.25215 14.8925 4.73389 16.348 4.73389C17.8036 4.73389 19.0496 5.25215 20.0862 6.28868C21.1227 7.32521 21.6409 8.57125 21.6409 10.0268C21.6409 11.4824 21.1227 12.7284 20.0862 13.7649C19.0496 14.8014 17.8036 15.3197 16.348 15.3197ZM5.76221 25.9055V22.2005C5.76221 21.4507 5.9554 20.7613 6.34178 20.1323C6.72816 19.5033 7.24069 19.0239 7.87937 18.6939C9.24671 18.0103 10.6361 17.4973 12.0475 17.155C13.459 16.8128 14.8925 16.6421 16.348 16.6429C17.8036 16.6429 19.2371 16.8141 20.6485 17.1564C22.06 17.4986 23.4494 18.0112 24.8167 18.6939C25.4563 19.0248 25.9692 19.5046 26.3556 20.1336C26.742 20.7626 26.9347 21.4516 26.9339 22.2005V25.9055H5.76221Z" fill="white"/>
<mask id="mask0_349_117" style="mask-type:alpha" maskUnits="userSpaceOnUse" x="1" y="0" width="31" height="31">
<path d="M31.1681 15.3194C31.1681 23.5044 24.5329 30.1396 16.348 30.1396C8.16304 30.1396 1.52783 23.5044 1.52783 15.3194C1.52783 7.13448 8.16304 0.499268 16.348 0.499268C24.5329 0.499268 31.1681 7.13448 31.1681 15.3194Z" fill="#868686"/>
</mask>
<g mask="url(#mask0_349_117)">
<path d="M26.9339 25.482C26.9339 26.0936 26.66 26.6993 26.1281 27.2644C25.5961 27.8295 24.8163 28.343 23.8333 28.7755C22.8504 29.208 21.6834 29.5511 20.3991 29.7852C19.1147 30.0193 17.7382 30.1397 16.348 30.1397C14.9579 30.1397 13.5813 30.0193 12.297 29.7852C11.0127 29.5511 9.84571 29.208 8.86272 28.7755C7.87974 28.343 7.09999 27.8295 6.568 27.2644C6.03602 26.6993 5.76221 26.0936 5.76221 25.482L16.348 25.482H26.9339Z" fill="white"/>
</g>
</g>
<defs>
<clipPath id="clip0_349_117">
<rect width="30.4872" height="30.4872" fill="white" transform="translate(0.680908 0.499512)"/>
</clipPath>
</defs>
</svg>
