<svg width="25" height="25" viewBox="0 0 25 25" fill="none" xmlns="http://www.w3.org/2000/svg">
<path d="M23.0556 25L14.3056 16.25C13.6111 16.8056 12.8125 17.2454 11.9097 17.5694C11.0069 17.8935 10.0463 18.0556 9.02778 18.0556C6.50463 18.0556 4.36944 17.1815 2.62222 15.4333C0.875 13.6852 0.000925926 11.55 0 9.02778C0 6.50463 0.874074 4.36944 2.62222 2.62222C4.37037 0.875 6.50556 0.000925926 9.02778 0C11.5509 0 13.6861 0.874074 15.4333 2.62222C17.1806 4.37037 18.0546 6.50556 18.0556 9.02778C18.0556 10.0463 17.8935 11.0069 17.5694 11.9097C17.2454 12.8125 16.8056 13.6111 16.25 14.3056L25 23.0556L23.0556 25ZM9.02778 15.2778C10.7639 15.2778 12.2398 14.6699 13.4556 13.4542C14.6713 12.2384 15.2787 10.763 15.2778 9.02778C15.2778 7.29167 14.6699 5.81574 13.4542 4.6C12.2384 3.38426 10.763 2.77685 9.02778 2.77778C7.29167 2.77778 5.81574 3.38565 4.6 4.60139C3.38426 5.81713 2.77685 7.29259 2.77778 9.02778C2.77778 10.7639 3.38565 12.2398 4.60139 13.4556C5.81713 14.6713 7.29259 15.2787 9.02778 15.2778Z" fill="#9A9A9A"/>
</svg>
