<svg width="27" height="27" viewBox="0 0 27 27" fill="none" xmlns="http://www.w3.org/2000/svg">
<path d="M9.31885 17.6534L17.6533 9.31889" stroke="#9A9A9A" stroke-width="2" stroke-linecap="round" stroke-linejoin="round"/>
<path d="M10.0134 10.708C10.397 10.708 10.7079 10.397 10.7079 10.0134C10.7079 9.62985 10.397 9.31889 10.0134 9.31889C9.6298 9.31889 9.31885 9.62985 9.31885 10.0134C9.31885 10.397 9.6298 10.708 10.0134 10.708Z" fill="#9A9A9A" stroke="#9A9A9A" stroke-width="2" stroke-linecap="round" stroke-linejoin="round"/>
<path d="M16.9588 17.6534C17.3424 17.6534 17.6534 17.3424 17.6534 16.9589C17.6534 16.5753 17.3424 16.2643 16.9588 16.2643C16.5752 16.2643 16.2643 16.5753 16.2643 16.9589C16.2643 17.3424 16.5752 17.6534 16.9588 17.6534Z" fill="#9A9A9A" stroke="#9A9A9A" stroke-width="2" stroke-linecap="round" stroke-linejoin="round"/>
<path d="M3.76253 6.81851C3.76253 6.00801 4.0845 5.23071 4.6576 4.6576C5.23071 4.0845 6.00801 3.76253 6.81851 3.76253H8.20759C9.01451 3.76207 9.78849 3.44249 10.3607 2.87352L11.333 1.90116C11.617 1.61556 11.9547 1.38892 12.3266 1.23427C12.6984 1.07962 13.0972 1 13.5 1C13.9028 1 14.3016 1.07962 14.6734 1.23427C15.0453 1.38892 15.383 1.61556 15.667 1.90116L16.6393 2.87352C17.2115 3.44249 17.9855 3.76207 18.7924 3.76253H20.1815C20.992 3.76253 21.7693 4.0845 22.3424 4.6576C22.9155 5.23071 23.2375 6.00801 23.2375 6.81851V8.20759C23.2379 9.01451 23.5575 9.78849 24.1265 10.3607L25.0988 11.333C25.3844 11.617 25.6111 11.9547 25.7657 12.3266C25.9204 12.6984 26 13.0972 26 13.5C26 13.9028 25.9204 14.3016 25.7657 14.6734C25.6111 15.0453 25.3844 15.383 25.0988 15.667L24.1265 16.6393C23.5575 17.2115 23.2379 17.9855 23.2375 18.7924V20.1815C23.2375 20.992 22.9155 21.7693 22.3424 22.3424C21.7693 22.9155 20.992 23.2375 20.1815 23.2375H18.7924C17.9855 23.2379 17.2115 23.5575 16.6393 24.1265L15.667 25.0988C15.383 25.3844 15.0453 25.6111 14.6734 25.7657C14.3016 25.9204 13.9028 26 13.5 26C13.0972 26 12.6984 25.9204 12.3266 25.7657C11.9547 25.6111 11.617 25.3844 11.333 25.0988L10.3607 24.1265C9.78849 23.5575 9.01451 23.2379 8.20759 23.2375H6.81851C6.00801 23.2375 5.23071 22.9155 4.6576 22.3424C4.0845 21.7693 3.76253 20.992 3.76253 20.1815V18.7924C3.76207 17.9855 3.44249 17.2115 2.87352 16.6393L1.90116 15.667C1.61556 15.383 1.38892 15.0453 1.23427 14.6734C1.07962 14.3016 1 13.9028 1 13.5C1 13.0972 1.07962 12.6984 1.23427 12.3266C1.38892 11.9547 1.61556 11.617 1.90116 11.333L2.87352 10.3607C3.44249 9.78849 3.76207 9.01451 3.76253 8.20759V6.81851Z" stroke="#9A9A9A" stroke-width="2" stroke-linecap="round" stroke-linejoin="round"/>
</svg>
