<svg width="8" height="13" viewBox="0 0 8 13" fill="none" xmlns="http://www.w3.org/2000/svg">
<path d="M2.04281 0.85021L7.43507 6.22646C7.49907 6.29047 7.54451 6.3598 7.57139 6.43447C7.59827 6.50914 7.6115 6.58915 7.61107 6.67448C7.61107 6.75982 7.59763 6.83983 7.57075 6.9145C7.54387 6.98917 7.49864 7.0585 7.43507 7.12251L2.04281 12.5148C1.89347 12.6641 1.7068 12.7388 1.48279 12.7388C1.25878 12.7388 1.06677 12.6588 0.906759 12.4988C0.746752 12.3388 0.666748 12.1521 0.666748 11.9387C0.666748 11.7254 0.746752 11.5387 0.906759 11.3787L5.61098 6.67448L0.906759 1.97026C0.757419 1.82092 0.682749 1.63681 0.682749 1.41792C0.682749 1.19903 0.762752 1.00979 0.92276 0.85021C1.08277 0.690203 1.26944 0.610199 1.48279 0.610199C1.69613 0.610199 1.8828 0.690203 2.04281 0.85021Z" fill="#808080"/>
</svg>
