<svg width="154" height="36" viewBox="0 0 154 36" fill="none" xmlns="http://www.w3.org/2000/svg">
<path d="M58.032 24.224H63.888V26H55.848V9.272H58.032V24.224ZM78.2074 18.92C78.2074 19.336 78.1834 19.776 78.1354 20.24H67.6234C67.7034 21.536 68.1434 22.552 68.9434 23.288C69.7594 24.008 70.7434 24.368 71.8954 24.368C72.8394 24.368 73.6234 24.152 74.2474 23.72C74.8874 23.272 75.3354 22.68 75.5914 21.944H77.9434C77.5914 23.208 76.8874 24.24 75.8314 25.04C74.7754 25.824 73.4634 26.216 71.8954 26.216C70.6474 26.216 69.5274 25.936 68.5354 25.376C67.5594 24.816 66.7914 24.024 66.2314 23C65.6714 21.96 65.3914 20.76 65.3914 19.4C65.3914 18.04 65.6634 16.848 66.2074 15.824C66.7514 14.8 67.5114 14.016 68.4874 13.472C69.4794 12.912 70.6154 12.632 71.8954 12.632C73.1434 12.632 74.2474 12.904 75.2074 13.448C76.1674 13.992 76.9034 14.744 77.4154 15.704C77.9434 16.648 78.2074 17.72 78.2074 18.92ZM75.9514 18.464C75.9514 17.632 75.7674 16.92 75.3994 16.328C75.0314 15.72 74.5274 15.264 73.8874 14.96C73.2634 14.64 72.5674 14.48 71.7994 14.48C70.6954 14.48 69.7514 14.832 68.9674 15.536C68.1994 16.24 67.7594 17.216 67.6474 18.464H75.9514ZM83.7542 14.648V22.4C83.7542 23.04 83.8902 23.496 84.1622 23.768C84.4342 24.024 84.9062 24.152 85.5782 24.152H87.1862V26H85.2182C84.0022 26 83.0902 25.72 82.4822 25.16C81.8742 24.6 81.5702 23.68 81.5702 22.4V14.648H79.8662V12.848H81.5702V9.536H83.7542V12.848H87.1862V14.648H83.7542ZM94.4884 26.216C93.4804 26.216 92.5764 26.048 91.7764 25.712C90.9764 25.36 90.3444 24.88 89.8804 24.272C89.4164 23.648 89.1604 22.936 89.1124 22.136H91.3684C91.4324 22.792 91.7364 23.328 92.2804 23.744C92.8404 24.16 93.5684 24.368 94.4644 24.368C95.2964 24.368 95.9524 24.184 96.4324 23.816C96.9124 23.448 97.1524 22.984 97.1524 22.424C97.1524 21.848 96.8964 21.424 96.3844 21.152C95.8724 20.864 95.0804 20.584 94.0084 20.312C93.0324 20.056 92.2324 19.8 91.6084 19.544C91.0004 19.272 90.4724 18.88 90.0244 18.368C89.5924 17.84 89.3764 17.152 89.3764 16.304C89.3764 15.632 89.5764 15.016 89.9764 14.456C90.3764 13.896 90.9444 13.456 91.6804 13.136C92.4164 12.8 93.2564 12.632 94.2004 12.632C95.6564 12.632 96.8324 13 97.7284 13.736C98.6244 14.472 99.1044 15.48 99.1684 16.76H96.9844C96.9364 16.072 96.6564 15.52 96.1444 15.104C95.6484 14.688 94.9764 14.48 94.1284 14.48C93.3444 14.48 92.7204 14.648 92.2564 14.984C91.7924 15.32 91.5604 15.76 91.5604 16.304C91.5604 16.736 91.6964 17.096 91.9684 17.384C92.2564 17.656 92.6084 17.88 93.0244 18.056C93.4564 18.216 94.0484 18.4 94.8004 18.608C95.7444 18.864 96.5124 19.12 97.1044 19.376C97.6964 19.616 98.2004 19.984 98.6164 20.48C99.0484 20.976 99.2724 21.624 99.2884 22.424C99.2884 23.144 99.0884 23.792 98.6884 24.368C98.2884 24.944 97.7204 25.4 96.9844 25.736C96.2644 26.056 95.4324 26.216 94.4884 26.216Z" fill="black"/>
<path d="M106.115 12.44V15.848H111.611V19.016H106.115V22.712H112.331V26H102.011V9.152H112.331V12.44H106.115ZM125.484 23.024H119.196L118.188 26H113.892L119.988 9.152H124.74L130.836 26H126.492L125.484 23.024ZM124.428 19.856L122.34 13.688L120.276 19.856H124.428ZM144.811 9.152V12.44H140.347V26H136.243V12.44H131.779V9.152H144.811Z" fill="#F42B03"/>
<path fill-rule="evenodd" clip-rule="evenodd" d="M8.76815 27.5397V33.5611C3.52738 30.5479 0 24.9055 0 18.4421C0 13.5296 2.03757 9.0915 5.31632 5.92147C5.17494 6.74879 5.09933 7.62126 5.09933 8.52274C5.09933 12.5621 6.6175 16.0194 8.76815 17.4403V23.947H8.51822C7.52612 23.947 6.72186 24.7513 6.72186 25.7434C6.72186 26.7355 7.52612 27.5397 8.51822 27.5397H8.76815ZM12.9611 27.5397V35.2917C14.4086 35.6781 15.9302 35.8841 17.5 35.8841C20.3268 35.8841 22.9971 35.2161 25.3605 34.0298H20.745H20.5133C18.5291 34.0298 16.9205 32.4213 16.9205 30.4371C16.9205 28.8369 15.6234 27.5397 14.0232 27.5397H12.9611ZM30.2048 30.4371C33.1769 27.311 35 23.0887 35 18.4421C35 8.80907 27.165 1 17.5 1C16.5649 1 15.6469 1.0731 14.7515 1.21388C16.0081 2.97627 16.8046 5.59678 16.8046 8.52274C16.8046 12.6707 15.2038 16.2047 12.9611 17.5504V23.947H14.0232C15.6233 23.947 16.9205 22.6498 16.9205 21.0497C16.9205 19.0655 18.5291 17.457 20.5133 17.457H20.745H31.0017C31.9938 17.457 32.798 18.2612 32.798 19.2533C32.798 20.2454 31.9938 21.0497 31.0017 21.0497H22.1937C21.3936 21.0497 20.745 21.6983 20.745 22.4983C20.745 23.2984 21.3936 23.947 22.1937 23.947H31.0017C31.9938 23.947 32.798 24.7513 32.798 25.7434C32.798 26.7355 31.9938 27.5397 31.0017 27.5397H22.1937C21.3936 27.5397 20.745 28.1883 20.745 28.9884C20.745 29.7885 21.3936 30.4371 22.1937 30.4371H30.2048Z" fill="#EC7505"/>
</svg>
