<svg width="38" height="38" viewBox="0 0 38 38" fill="none" xmlns="http://www.w3.org/2000/svg">
<path d="M9.49992 3.16675H23.7499C24.5898 3.16675 25.3952 3.50038 25.9891 4.09424C26.583 4.68811 26.9166 5.49356 26.9166 6.33341V9.50008H23.7499V6.33341H9.49992V31.6667H23.7499V28.5001H26.9166V31.6667C26.9166 32.5066 26.583 33.3121 25.9891 33.9059C25.3952 34.4998 24.5898 34.8334 23.7499 34.8334H9.49992C8.66007 34.8334 7.85461 34.4998 7.26075 33.9059C6.66688 33.3121 6.33325 32.5066 6.33325 31.6667V6.33341C6.33325 5.49356 6.66688 4.68811 7.26075 4.09424C7.85461 3.50038 8.66007 3.16675 9.49992 3.16675Z" fill="#D84A05"/>
<path d="M25.4758 24.6841L27.7083 26.9166L35.625 18.9999L27.7083 11.0833L25.4758 13.3158L29.5608 17.4166H14.25V20.5833H29.5608L25.4758 24.6841Z" fill="#D84A05"/>
</svg>
