<svg width="38" height="39" viewBox="0 0 38 39" fill="none" xmlns="http://www.w3.org/2000/svg">
<path d="M20.7813 3.72919C20.3088 3.72919 19.8558 3.91685 19.5217 4.2509C19.1877 4.58495 19 5.03802 19 5.51044C19 5.98285 19.1877 6.43592 19.5217 6.76997C19.8558 7.10402 20.3088 7.29169 20.7813 7.29169H22.9188L23.7263 10.8542H14.25V9.07294C14.25 8.60052 14.0623 8.14745 13.7283 7.8134C13.3942 7.47935 12.9412 7.29169 12.4688 7.29169H8.90626C8.43384 7.29169 7.98077 7.47935 7.64672 7.8134C7.31268 8.14745 7.12501 8.60052 7.12501 9.07294C7.12501 9.54535 7.31268 9.99842 7.64672 10.3325C7.98077 10.6665 8.43384 10.8542 8.90626 10.8542H10.6875V12.4597L9.82063 16.7964C8.16759 16.8557 6.5773 17.4443 5.28412 18.4757C3.99094 19.5071 3.06329 20.9266 2.63788 22.5251C2.21247 24.1236 2.3118 25.8164 2.92124 27.3541C3.53068 28.8919 4.61798 30.1932 6.02291 31.0662C7.42783 31.9393 9.07607 32.3379 10.7247 32.2034C12.3733 32.0689 13.9351 31.4083 15.1799 30.3191C16.4248 29.2298 17.2867 27.7695 17.6388 26.1533C17.9909 24.5371 17.8145 22.8505 17.1356 21.3422L24.7665 15.4712L25.1774 17.2881C23.407 17.955 21.943 19.2486 21.0634 20.9236C20.1837 22.5985 19.9496 24.5381 20.4055 26.3742C20.8614 28.2103 21.9756 29.8151 23.5365 30.8841C25.0974 31.953 26.9965 32.4117 28.8732 32.173C30.7499 31.9343 32.4737 31.0149 33.7174 29.5893C34.9611 28.1637 35.6381 26.3311 35.6199 24.4393C35.6017 22.5475 34.8896 20.7283 33.6187 19.3268C32.3478 17.9254 30.6066 17.0393 28.7256 16.8368L26.0823 5.11856C25.9933 4.724 25.7727 4.37147 25.4567 4.11896C25.1407 3.86645 24.7482 3.72898 24.3438 3.72919H20.7813ZM13.3143 17.4923L13.9294 14.4167H20.2944L14.9601 18.5183C14.4568 18.1085 13.9038 17.7638 13.3143 17.4923ZM5.93751 24.5104C5.93751 22.5629 7.27701 20.9289 9.08438 20.4777L8.34813 24.1589C8.27713 24.5143 8.31619 24.8828 8.46009 25.2154C8.604 25.5479 8.8459 25.8287 9.15353 26.0202C9.46116 26.2117 9.81987 26.3048 10.1818 26.2871C10.5437 26.2694 10.8916 26.1418 11.1791 25.9212L14.1574 23.6317C14.2814 24.2018 14.284 24.7917 14.165 25.3629C14.046 25.9342 13.808 26.4739 13.4666 26.9471C13.1252 27.4203 12.688 27.8163 12.1834 28.1093C11.6789 28.4024 11.1182 28.5859 10.5381 28.6479C9.95788 28.71 9.37114 28.6491 8.81601 28.4694C8.26089 28.2897 7.74982 27.9951 7.31608 27.6048C6.88233 27.2146 6.53562 26.7373 6.29851 26.2042C6.06141 25.671 5.93684 25.0939 5.93751 24.5104ZM25.9754 20.8292L26.7615 24.3086C26.8724 24.7621 27.1569 25.1539 27.5538 25.3997C27.9507 25.6455 28.4283 25.7257 28.8837 25.623C29.3391 25.5202 29.736 25.2428 29.9889 24.8504C30.2419 24.458 30.3306 23.982 30.2361 23.5248L29.602 20.7152C30.4607 21.0989 31.1638 21.7626 31.5965 22.5977C32.0292 23.4328 32.1658 24.3899 31.9841 25.3127C31.8024 26.2356 31.3131 27.0695 30.5961 27.6782C29.8791 28.2869 28.9768 28.6344 28.0368 28.6639C27.0967 28.6935 26.1744 28.4033 25.4206 27.8408C24.6668 27.2784 24.126 26.4769 23.8867 25.5673C23.6474 24.6577 23.7237 23.6939 24.1031 22.8332C24.4824 21.9726 25.1425 21.2661 25.9754 20.8292Z" fill="#D84A05"/>
</svg>
