<svg width="36" height="35" viewBox="0 0 36 35" fill="none" xmlns="http://www.w3.org/2000/svg">
<path d="M26.0209 6.5625C23.1771 6.5625 20.1146 7.14583 18 8.75C15.8855 7.14583 12.823 6.5625 9.97921 6.5625C7.86462 6.5625 5.61879 6.88333 3.73754 7.71458C2.67296 8.19583 1.95837 9.23125 1.95837 10.4125V26.8625C1.95837 28.7583 3.73754 30.1583 5.57504 29.6917C7.00421 29.3271 8.52087 29.1667 9.97921 29.1667C12.2542 29.1667 14.675 29.5458 16.6292 30.5083C17.5042 30.9458 18.4959 30.9458 19.3563 30.5083C21.3105 29.5313 23.7313 29.1667 26.0063 29.1667C27.4646 29.1667 28.9813 29.3271 30.4105 29.6917C32.248 30.1729 34.0271 28.7729 34.0271 26.8625V10.4125C34.0271 9.23125 33.3125 8.19583 32.248 7.71458C30.3813 6.88333 28.1355 6.5625 26.0209 6.5625ZM31.125 25.1271C31.125 26.0458 30.2792 26.7167 29.375 26.5562C28.2813 26.3521 27.1438 26.2646 26.0209 26.2646C23.5417 26.2646 19.9688 27.2125 18 28.4521V11.6667C19.9688 10.4271 23.5417 9.47917 26.0209 9.47917C27.3625 9.47917 28.6896 9.61042 29.9584 9.8875C30.6292 10.0333 31.125 10.6313 31.125 11.3167V25.1271Z" fill="#D84A05"/>
<path d="M20.8875 16.0564C20.4208 16.0564 19.9979 15.7648 19.8521 15.2981C19.6625 14.7294 19.9833 14.1023 20.5521 13.9273C22.7979 13.1981 25.7 12.9648 28.3687 13.271C28.9666 13.3439 29.4041 13.8835 29.3312 14.4814C29.2583 15.0794 28.7187 15.5169 28.1208 15.4439C25.7583 15.1669 23.1771 15.3856 21.2229 16.0127C21.1062 16.0273 20.9896 16.0564 20.8875 16.0564ZM20.8875 19.9356C20.4208 19.9356 19.9979 19.6439 19.8521 19.1773C19.6625 18.6085 19.9833 17.9814 20.5521 17.8064C22.7833 17.0773 25.7 16.8439 28.3687 17.1502C28.9666 17.2231 29.4041 17.7627 29.3312 18.3606C29.2583 18.9585 28.7187 19.396 28.1208 19.3231C25.7583 19.046 23.1771 19.2648 21.2229 19.8919C21.1132 19.9198 21.0006 19.9345 20.8875 19.9356ZM20.8875 23.8148C20.4208 23.8148 19.9979 23.5231 19.8521 23.0564C19.6625 22.4877 19.9833 21.8606 20.5521 21.6856C22.7833 20.9564 25.7 20.7231 28.3687 21.0294C28.9666 21.1023 29.4041 21.6419 29.3312 22.2398C29.2583 22.8377 28.7187 23.2606 28.1208 23.2023C25.7583 22.9252 23.1771 23.1439 21.2229 23.771C21.1132 23.799 21.0006 23.8137 20.8875 23.8148Z" fill="#D84A05"/>
</svg>
