<svg width="21" height="22" viewBox="0 0 21 22" fill="none" xmlns="http://www.w3.org/2000/svg">
<path d="M8.00638 2.62187L15.3783 9.97187C15.4658 10.0594 15.5279 10.1542 15.5646 10.2562C15.6014 10.3583 15.6195 10.4677 15.6189 10.5844C15.6189 10.701 15.6005 10.8104 15.5638 10.9125C15.527 11.0146 15.4652 11.1094 15.3783 11.1969L8.00638 18.5688C7.80222 18.7729 7.54701 18.875 7.24076 18.875C6.93451 18.875 6.67201 18.7656 6.45326 18.5469C6.23451 18.3281 6.12513 18.0729 6.12513 17.7812C6.12513 17.4896 6.23451 17.2344 6.45326 17.0156L12.8845 10.5844L6.45326 4.15312C6.24909 3.94896 6.14701 3.69725 6.14701 3.398C6.14701 3.09875 6.25638 2.84004 6.47513 2.62187C6.69388 2.40312 6.94909 2.29375 7.24076 2.29375C7.53242 2.29375 7.78763 2.40312 8.00638 2.62187Z" fill="black"/>
</svg>
