<svg width="67" height="67" viewBox="0 0 67 67" fill="none" xmlns="http://www.w3.org/2000/svg">
<path d="M40.6624 47.8595C40.919 47.6034 41.1226 47.2993 41.2615 46.9644C41.4004 46.6295 41.4719 46.2706 41.4719 45.908C41.4719 45.5455 41.4004 45.1866 41.2615 44.8517C41.1226 44.5168 40.919 44.2127 40.6624 43.9566L29.9224 33.2166L40.6624 22.4765C41.18 21.959 41.4708 21.257 41.4708 20.5251C41.4708 19.7931 41.18 19.0911 40.6624 18.5736C40.1449 18.056 39.4429 17.7653 38.711 17.7653C37.979 17.7653 37.277 18.056 36.7595 18.5736L24.0541 31.2789C23.7975 31.535 23.594 31.8392 23.455 32.174C23.3161 32.5089 23.2446 32.8679 23.2446 33.2304C23.2446 33.5929 23.3161 33.9519 23.455 34.2867C23.594 34.6216 23.7975 34.9258 24.0541 35.1819L36.7595 47.8872C37.8113 48.9391 39.5829 48.9391 40.6624 47.8595Z" fill="#EC7505"/>
</svg>
