<svg width="16" height="28" viewBox="0 0 16 28" fill="none" xmlns="http://www.w3.org/2000/svg">
<path d="M12.6875 27.0885L0.401064 14.8385C0.255231 14.6927 0.151689 14.5347 0.0904394 14.3646C0.0291894 14.1944 -0.000949436 14.0122 2.27865e-05 13.8177C2.27865e-05 13.6233 0.0306478 13.441 0.0918978 13.2708C0.153148 13.1007 0.256203 12.9427 0.401064 12.7969L12.6875 0.510417C13.0278 0.170139 13.4531 0 13.9636 0C14.474 0 14.9115 0.182292 15.2761 0.546875C15.6406 0.911458 15.8229 1.33681 15.8229 1.82292C15.8229 2.30903 15.6406 2.73438 15.2761 3.09896L4.55731 13.8177L15.2761 24.5365C15.6163 24.8767 15.7865 25.2962 15.7865 25.795C15.7865 26.2938 15.6042 26.7249 15.2396 27.0885C14.875 27.4531 14.4497 27.6354 13.9636 27.6354C13.4775 27.6354 13.0521 27.4531 12.6875 27.0885Z" fill="#D84A05"/>
</svg>
