<svg width="13" height="14" viewBox="0 0 13 14" fill="none" xmlns="http://www.w3.org/2000/svg">
<path d="M8.92157 8.4H3.43137C3.24936 8.4 3.0748 8.47375 2.9461 8.60503C2.8174 8.7363 2.7451 8.91435 2.7451 9.1C2.7451 9.28565 2.8174 9.4637 2.9461 9.59497C3.0748 9.72625 3.24936 9.8 3.43137 9.8H8.92157C9.10358 9.8 9.27814 9.72625 9.40684 9.59497C9.53554 9.4637 9.60784 9.28565 9.60784 9.1C9.60784 8.91435 9.53554 8.7363 9.40684 8.60503C9.27814 8.47375 9.10358 8.4 8.92157 8.4ZM8.92157 5.6H4.80392C4.62191 5.6 4.44735 5.67375 4.31865 5.80503C4.18995 5.9363 4.11765 6.11435 4.11765 6.3C4.11765 6.48565 4.18995 6.6637 4.31865 6.79497C4.44735 6.92625 4.62191 7 4.80392 7H8.92157C9.10358 7 9.27814 6.92625 9.40684 6.79497C9.53554 6.6637 9.60784 6.48565 9.60784 6.3C9.60784 6.11435 9.53554 5.9363 9.40684 5.80503C9.27814 5.67375 9.10358 5.6 8.92157 5.6ZM11.6667 1.4H9.60784V0.7C9.60784 0.514348 9.53554 0.336301 9.40684 0.205025C9.27814 0.0737498 9.10358 0 8.92157 0C8.73956 0 8.565 0.0737498 8.4363 0.205025C8.3076 0.336301 8.23529 0.514348 8.23529 0.7V1.4H6.86275V0.7C6.86275 0.514348 6.79044 0.336301 6.66174 0.205025C6.53304 0.0737498 6.35848 0 6.17647 0C5.99446 0 5.8199 0.0737498 5.6912 0.205025C5.5625 0.336301 5.4902 0.514348 5.4902 0.7V1.4H4.11765V0.7C4.11765 0.514348 4.04534 0.336301 3.91664 0.205025C3.78794 0.0737498 3.61338 0 3.43137 0C3.24936 0 3.0748 0.0737498 2.9461 0.205025C2.8174 0.336301 2.7451 0.514348 2.7451 0.7V1.4H0.686275C0.504263 1.4 0.329707 1.47375 0.201005 1.60503C0.0723037 1.7363 0 1.91435 0 2.1V11.9C0 12.457 0.216911 12.9911 0.603016 13.3849C0.98912 13.7788 1.51279 14 2.05882 14H10.2941C10.8402 14 11.3638 13.7788 11.7499 13.3849C12.136 12.9911 12.3529 12.457 12.3529 11.9V2.1C12.3529 1.91435 12.2806 1.7363 12.1519 1.60503C12.0232 1.47375 11.8487 1.4 11.6667 1.4ZM10.9804 11.9C10.9804 12.0857 10.9081 12.2637 10.7794 12.395C10.6507 12.5263 10.4761 12.6 10.2941 12.6H2.05882C1.87681 12.6 1.70226 12.5263 1.57355 12.395C1.44485 12.2637 1.37255 12.0857 1.37255 11.9V2.8H2.7451V3.5C2.7451 3.68565 2.8174 3.8637 2.9461 3.99497C3.0748 4.12625 3.24936 4.2 3.43137 4.2C3.61338 4.2 3.78794 4.12625 3.91664 3.99497C4.04534 3.8637 4.11765 3.68565 4.11765 3.5V2.8H5.4902V3.5C5.4902 3.68565 5.5625 3.8637 5.6912 3.99497C5.8199 4.12625 5.99446 4.2 6.17647 4.2C6.35848 4.2 6.53304 4.12625 6.66174 3.99497C6.79044 3.8637 6.86275 3.68565 6.86275 3.5V2.8H8.23529V3.5C8.23529 3.68565 8.3076 3.8637 8.4363 3.99497C8.565 4.12625 8.73956 4.2 8.92157 4.2C9.10358 4.2 9.27814 4.12625 9.40684 3.99497C9.53554 3.8637 9.60784 3.68565 9.60784 3.5V2.8H10.9804V11.9Z" fill="black" fill-opacity="0.5"/>
</svg>
