<svg width="36" height="37" viewBox="0 0 36 37" fill="none" xmlns="http://www.w3.org/2000/svg">
<g clip-path="url(#clip0_337_59)">
<path d="M13.2822 4.46433C12.9841 3.59357 13.4474 2.63725 14.3436 2.42774C17.6179 1.66229 21.0619 1.90419 24.2159 3.14321C27.889 4.58618 30.9298 7.28763 32.7953 10.7653C34.6609 14.2429 35.2297 18.2704 34.4004 22.1287C33.571 25.987 31.3974 29.4249 28.2676 31.8288C25.1378 34.2327 21.2555 35.446 17.3139 35.2521C13.3722 35.0582 9.62776 33.4698 6.74896 30.7704C3.87017 28.071 2.04444 24.4363 1.59771 20.5153C1.21413 17.1484 1.86871 13.7586 3.45281 10.7925C3.88638 9.98067 4.92984 9.77972 5.69427 10.2923V10.2923C6.45869 10.8048 6.6523 11.8365 6.23922 12.6589C5.084 14.9591 4.61515 17.557 4.90921 20.138C5.26646 23.2737 6.72652 26.1804 9.02872 28.3391C11.3309 30.4979 14.3254 31.7682 17.4776 31.9232C20.6298 32.0783 23.7345 31.108 26.2375 29.1856C28.7404 27.2632 30.4786 24.5138 31.1419 21.4283C31.8051 18.3427 31.3502 15.1219 29.8583 12.3408C28.3664 9.55968 25.9347 7.3993 22.9972 6.24534C20.5794 5.29551 17.9484 5.07842 15.4282 5.60128C14.527 5.78824 13.5802 5.3351 13.2822 4.46433V4.46433Z" fill="#D84A05"/>
<rect x="7.40747" y="15.2639" width="20.1299" height="2.58854" rx="1.29427" fill="#D84A05"/>
<rect width="10.2369" height="2.6367" rx="1.31835" transform="matrix(0.71979 0.694192 -0.71979 0.694192 20.6573 9.38672)" fill="#D84A05"/>
<rect x="28.0258" y="22.8003" width="20.1299" height="2.58854" rx="1.29427" transform="rotate(180 28.0258 22.8003)" fill="#D84A05"/>
<rect width="10.237" height="2.6367" rx="1.31835" transform="matrix(-0.71979 -0.694192 0.71979 -0.694192 14.7759 28.6775)" fill="#D84A05"/>
</g>
<defs>
<clipPath id="clip0_337_59">
<rect width="35.5" height="35.5" fill="white" transform="translate(0.25 0.75)"/>
</clipPath>
</defs>
</svg>
