<svg width="74" height="18" viewBox="0 0 74 18" fill="none" xmlns="http://www.w3.org/2000/svg">
<rect width="74" height="17.7885" rx="8.89423" fill="white"/>
<path fill-rule="evenodd" clip-rule="evenodd" d="M20.1152 6.30569C20.0796 6.3031 20.0401 6.3031 19.9987 6.3031H18.3645C17.026 6.3031 15.8811 7.35678 15.8811 8.73018C15.8811 10.1036 17.0267 11.1573 18.3645 11.1573H19.9987C20.0401 11.1573 20.0796 11.1573 20.1165 11.1547C20.3916 11.1381 20.6513 11.0221 20.8472 10.8282C21.043 10.6343 21.1618 10.3759 21.1812 10.101C21.1838 10.0622 21.1838 10.0201 21.1838 9.98126V7.4791C21.1838 7.44027 21.1838 7.3982 21.1812 7.35936C21.1618 7.08447 21.043 6.82601 20.8472 6.63216C20.6513 6.43831 20.3916 6.32228 20.1165 6.30569H20.1152ZM18.2202 9.3774C18.5645 9.3774 18.8434 9.08744 18.8434 8.73018C18.8434 8.37291 18.5645 8.08296 18.2202 8.08296C17.8752 8.08296 17.5962 8.37291 17.5962 8.73018C17.5962 9.08744 17.8752 9.3774 18.2202 9.3774Z" fill="url(#paint0_linear_1257_5401)"/>
<path fill-rule="evenodd" clip-rule="evenodd" d="M19.9973 12.1281C20.0197 12.1272 20.0419 12.1316 20.0623 12.1409C20.0827 12.1502 20.1005 12.1642 20.1145 12.1818C20.1284 12.1993 20.138 12.2199 20.1425 12.2418C20.147 12.2637 20.1463 12.2864 20.1403 12.308C20.0109 12.7689 19.8044 13.1624 19.4737 13.4924C18.9889 13.9779 18.3747 14.1921 17.6162 14.2944C16.8783 14.3934 15.9366 14.3934 14.747 14.3934H13.3801C12.1905 14.3934 11.2482 14.3934 10.511 14.2944C9.75244 14.1921 9.13823 13.9772 8.65346 13.4931C8.16934 13.0083 7.95446 12.3941 7.8522 11.6356C7.75317 10.8977 7.75317 9.95603 7.75317 8.76644V8.69395C7.75317 7.50436 7.75317 6.56201 7.8522 5.82418C7.95446 5.06563 8.16934 4.45142 8.65346 3.96665C9.13823 3.48253 9.75244 3.26765 10.511 3.16539C11.2488 3.06702 12.1905 3.06702 13.3801 3.06702H14.747C15.9366 3.06702 16.879 3.06702 17.6162 3.16604C18.3747 3.2683 18.9889 3.48318 19.4737 3.9673C19.8044 4.29868 20.0109 4.69154 20.1403 5.15236C20.1463 5.17396 20.147 5.19665 20.1425 5.21859C20.138 5.24052 20.1284 5.26109 20.1145 5.27862C20.1005 5.29615 20.0827 5.31015 20.0623 5.31947C20.0419 5.3288 20.0197 5.33319 19.9973 5.33229H18.3637C16.5275 5.33229 14.9095 6.78206 14.9095 8.7302C14.9095 10.6783 16.5275 12.1281 18.3637 12.1281H19.9973ZM10.1803 5.6559C10.0515 5.6559 9.92804 5.70704 9.83701 5.79807C9.74598 5.88911 9.69484 6.01257 9.69484 6.14131C9.69484 6.27006 9.74598 6.39352 9.83701 6.48456C9.92804 6.57559 10.0515 6.62673 10.1803 6.62673H12.7691C12.8979 6.62673 13.0213 6.57559 13.1124 6.48456C13.2034 6.39352 13.2545 6.27006 13.2545 6.14131C13.2545 6.01257 13.2034 5.88911 13.1124 5.79807C13.0213 5.70704 12.8979 5.6559 12.7691 5.6559H10.1803Z" fill="url(#paint1_linear_1257_5401)"/>
<path d="M25.2354 11.1381H27.1602V12.067H24.0638V6.22569H25.2354V11.1381ZM32.2147 9.64847C32.2147 9.81585 32.2036 9.96648 32.1812 10.1004H28.7919C28.8198 10.4351 28.937 10.6973 29.1434 10.887C29.3498 11.0767 29.6037 11.1716 29.905 11.1716C30.3401 11.1716 30.6498 10.9847 30.8339 10.6109H32.0976C31.9637 11.0572 31.707 11.4254 31.3276 11.7155C30.9483 12.0001 30.4824 12.1423 29.9301 12.1423C29.4837 12.1423 29.082 12.0447 28.725 11.8494C28.3735 11.6486 28.0973 11.3668 27.8965 11.0042C27.7012 10.6416 27.6036 10.2231 27.6036 9.7489C27.6036 9.26909 27.7012 8.84787 27.8965 8.48523C28.0918 8.12259 28.3651 7.84363 28.7166 7.64836C29.0681 7.45309 29.4726 7.35546 29.9301 7.35546C30.3708 7.35546 30.7641 7.45031 31.11 7.63999C31.4615 7.82968 31.7321 8.10027 31.9218 8.45175C32.1171 8.79766 32.2147 9.19657 32.2147 9.64847ZM31.0013 9.31373C30.9957 9.01246 30.8869 8.77255 30.6749 8.59402C30.4629 8.40991 30.2034 8.31786 29.8966 8.31786C29.6065 8.31786 29.361 8.40712 29.1601 8.58565C28.9649 8.75861 28.8449 9.0013 28.8003 9.31373H31.0013ZM34.434 8.39317V10.636C34.434 10.7922 34.4702 10.9066 34.5428 10.9791C34.6209 11.046 34.7492 11.0795 34.9277 11.0795H35.4717V12.067H34.7352C33.7477 12.067 33.254 11.5872 33.254 10.6276V8.39317H32.7017V7.43078H33.254V6.28427H34.434V7.43078H35.4717V8.39317H34.434ZM36.5487 6.22569H37.7789L36.8751 8.33459H36.0717L36.5487 6.22569ZM40.3932 12.1423C40.0138 12.1423 39.6735 12.0754 39.3722 11.9415C39.0709 11.802 38.831 11.6151 38.6525 11.3808C38.4795 11.1465 38.3847 10.887 38.368 10.6025H39.5479C39.5703 10.781 39.6567 10.9289 39.8074 11.046C39.9636 11.1632 40.1561 11.2218 40.3848 11.2218C40.608 11.2218 40.7809 11.1771 40.9037 11.0879C41.032 10.9986 41.0961 10.8842 41.0961 10.7448C41.0961 10.5941 41.018 10.4826 40.8618 10.41C40.7112 10.3319 40.4685 10.2482 40.1338 10.159C39.7878 10.0753 39.5033 9.9888 39.2801 9.89953C39.0626 9.81027 38.8729 9.67358 38.7111 9.48947C38.5549 9.30536 38.4768 9.05709 38.4768 8.74466C38.4768 8.48802 38.5493 8.2537 38.6943 8.04169C38.845 7.82968 39.057 7.66231 39.3304 7.53957C39.6093 7.41683 39.9357 7.35546 40.3095 7.35546C40.8618 7.35546 41.3026 7.49494 41.6317 7.77389C41.9609 8.04727 42.1422 8.41828 42.1757 8.88693H41.0543C41.0376 8.70281 40.9595 8.55776 40.82 8.45175C40.6861 8.34017 40.5048 8.28438 40.276 8.28438C40.064 8.28438 39.8994 8.32344 39.7823 8.40154C39.6707 8.47965 39.6149 8.58844 39.6149 8.72792C39.6149 8.88414 39.693 9.00409 39.8492 9.08777C40.0054 9.16588 40.2481 9.24678 40.5773 9.33046C40.912 9.41415 41.1882 9.50063 41.4058 9.58989C41.6234 9.67916 41.8103 9.81864 41.9665 10.0083C42.1283 10.1924 42.212 10.4379 42.2175 10.7448C42.2175 11.0126 42.1422 11.2525 41.9916 11.4645C41.8465 11.6765 41.6345 11.8439 41.3556 11.9666C41.0822 12.0838 40.7614 12.1423 40.3932 12.1423ZM44.8889 9.13799C44.8889 8.56334 45.0172 8.05006 45.2738 7.59815C45.536 7.14066 45.8903 6.78639 46.3366 6.53533C46.7885 6.27869 47.2934 6.15037 47.8514 6.15037C48.5041 6.15037 49.076 6.31775 49.5669 6.65249C50.0579 6.98724 50.401 7.45031 50.5963 8.04169H49.2489C49.115 7.76274 48.9253 7.55352 48.6799 7.41404C48.44 7.27456 48.161 7.20482 47.843 7.20482C47.5027 7.20482 47.1986 7.28572 46.9308 7.44752C46.6686 7.60373 46.4622 7.82689 46.3115 8.11701C46.1665 8.40712 46.0939 8.74745 46.0939 9.13799C46.0939 9.52294 46.1665 9.86327 46.3115 10.159C46.4622 10.4491 46.6686 10.675 46.9308 10.8368C47.1986 10.993 47.5027 11.0711 47.843 11.0711C48.161 11.0711 48.44 11.0014 48.6799 10.8619C48.9253 10.7169 49.115 10.5049 49.2489 10.2259H50.5963C50.401 10.8229 50.0579 11.2887 49.5669 11.6235C49.0816 11.9526 48.5097 12.1172 47.8514 12.1172C47.2934 12.1172 46.7885 11.9917 46.3366 11.7406C45.8903 11.484 45.536 11.1297 45.2738 10.6778C45.0172 10.2259 44.8889 9.71263 44.8889 9.13799ZM51.2957 9.73216C51.2957 9.26352 51.3878 8.84787 51.5719 8.48523C51.7616 8.12259 52.0154 7.84363 52.3334 7.64836C52.657 7.45309 53.0169 7.35546 53.413 7.35546C53.7589 7.35546 54.0602 7.4252 54.3168 7.56468C54.579 7.70415 54.7882 7.8799 54.9445 8.0919V7.43078H56.1244V12.067H54.9445V11.3892C54.7938 11.6067 54.5846 11.7881 54.3168 11.9331C54.0546 12.0726 53.7505 12.1423 53.4046 12.1423C53.0141 12.1423 52.657 12.0419 52.3334 11.8411C52.0154 11.6402 51.7616 11.3585 51.5719 10.9958C51.3878 10.6276 51.2957 10.2064 51.2957 9.73216ZM54.9445 9.7489C54.9445 9.46436 54.8887 9.22167 54.7771 9.02082C54.6655 8.8144 54.5149 8.65818 54.3252 8.55218C54.1355 8.4406 53.9318 8.38481 53.7143 8.38481C53.4967 8.38481 53.2958 8.43781 53.1117 8.54381C52.9276 8.64981 52.777 8.80603 52.6598 9.01246C52.5482 9.2133 52.4924 9.4532 52.4924 9.73216C52.4924 10.0111 52.5482 10.2566 52.6598 10.4686C52.777 10.675 52.9276 10.834 53.1117 10.9456C53.3014 11.0572 53.5023 11.113 53.7143 11.113C53.9318 11.113 54.1355 11.06 54.3252 10.954C54.5149 10.8424 54.6655 10.6862 54.7771 10.4853C54.8887 10.2789 54.9445 10.0334 54.9445 9.7489ZM59.0429 12.1423C58.6635 12.1423 58.3232 12.0754 58.0219 11.9415C57.7206 11.802 57.4807 11.6151 57.3022 11.3808C57.1292 11.1465 57.0344 10.887 57.0177 10.6025H58.1976C58.22 10.781 58.3064 10.9289 58.4571 11.046C58.6133 11.1632 58.8058 11.2218 59.0345 11.2218C59.2577 11.2218 59.4306 11.1771 59.5534 11.0879C59.6817 10.9986 59.7458 10.8842 59.7458 10.7448C59.7458 10.5941 59.6677 10.4826 59.5115 10.41C59.3609 10.3319 59.1182 10.2482 58.7834 10.159C58.4375 10.0753 58.153 9.9888 57.9298 9.89953C57.7123 9.81027 57.5226 9.67358 57.3608 9.48947C57.2046 9.30536 57.1265 9.05709 57.1265 8.74466C57.1265 8.48802 57.199 8.2537 57.344 8.04169C57.4947 7.82968 57.7067 7.66231 57.9801 7.53957C58.259 7.41683 58.5854 7.35546 58.9592 7.35546C59.5115 7.35546 59.9523 7.49494 60.2814 7.77389C60.6106 8.04727 60.7919 8.41828 60.8254 8.88693H59.704C59.6873 8.70281 59.6092 8.55776 59.4697 8.45175C59.3358 8.34017 59.1545 8.28438 58.9257 8.28438C58.7137 8.28438 58.5491 8.32344 58.432 8.40154C58.3204 8.47965 58.2646 8.58844 58.2646 8.72792C58.2646 8.88414 58.3427 9.00409 58.4989 9.08777C58.6551 9.16588 58.8978 9.24678 59.227 9.33046C59.5617 9.41415 59.8379 9.50063 60.0555 9.58989C60.2731 9.67916 60.46 9.81864 60.6162 10.0083C60.778 10.1924 60.8617 10.4379 60.8672 10.7448C60.8672 11.0126 60.7919 11.2525 60.6413 11.4645C60.4962 11.6765 60.2842 11.8439 60.0053 11.9666C59.7319 12.0838 59.4111 12.1423 59.0429 12.1423ZM64.44 7.36383C64.7915 7.36383 65.1039 7.44194 65.3773 7.59815C65.6507 7.74879 65.8627 7.97474 66.0133 8.27601C66.1695 8.57171 66.2476 8.92877 66.2476 9.3472V12.067H65.076V9.50621C65.076 9.13799 64.984 8.85624 64.7999 8.66097C64.6157 8.46012 64.3647 8.3597 64.0467 8.3597C63.7231 8.3597 63.4665 8.46012 63.2768 8.66097C63.0927 8.85624 63.0006 9.13799 63.0006 9.50621V12.067H61.829V5.87421H63.0006V8.00822C63.1512 7.80737 63.3521 7.65115 63.6031 7.53957C63.8542 7.42241 64.1332 7.36383 64.44 7.36383Z" fill="#1490EA"/>
<defs>
<linearGradient id="paint0_linear_1257_5401" x1="18.5324" y1="6.3031" x2="18.5324" y2="11.1573" gradientUnits="userSpaceOnUse">
<stop stop-color="#118EEA"/>
<stop offset="1" stop-color="#118EEA" stop-opacity="0.6"/>
</linearGradient>
<linearGradient id="paint1_linear_1257_5401" x1="13.9493" y1="3.06702" x2="13.9493" y2="14.3934" gradientUnits="userSpaceOnUse">
<stop stop-color="#118EEA"/>
<stop offset="1" stop-color="#118EEA" stop-opacity="0.6"/>
</linearGradient>
</defs>
</svg>
