<svg width="33" height="33" viewBox="0 0 33 33" fill="none" xmlns="http://www.w3.org/2000/svg">
<path d="M9.32382 14.8643C11.2372 18.6245 14.3197 21.6938 18.08 23.6204L21.0031 20.6973C21.3619 20.3385 21.8934 20.2189 22.3584 20.3784C23.8466 20.87 25.4543 21.1358 27.1019 21.1358C27.8327 21.1358 28.4306 21.7337 28.4306 22.4645V27.1016C28.4306 27.8324 27.8327 28.4303 27.1019 28.4303C14.6253 28.4303 4.51392 18.3189 4.51392 5.84238C4.51392 5.11159 5.11183 4.51367 5.84262 4.51367H10.4931C11.2239 4.51367 11.8218 5.11159 11.8218 5.84238C11.8218 7.50326 12.0875 9.0977 12.5791 10.5858C12.7253 11.0509 12.619 11.5691 12.247 11.9411L9.32382 14.8643Z" fill="#D84A05"/>
</svg>
