<svg width="43" height="43" viewBox="0 0 43 43" fill="none" xmlns="http://www.w3.org/2000/svg">
<path fill-rule="evenodd" clip-rule="evenodd" d="M5 35.2793C5.12215 34.9982 5.26548 34.7238 5.43001 34.4559C6.06876 33.4161 6.91605 32.6235 7.97188 32.0781C10.2323 30.9479 12.5292 30.0999 14.8625 29.5341C17.1958 28.9682 19.5656 28.686 21.9719 28.6875C24.3781 28.6875 26.7479 28.9704 29.0813 29.5362C31.4146 30.1021 33.7115 30.9494 35.9719 32.0781C37.0292 32.625 37.8772 33.4183 38.5159 34.4581C38.6799 34.725 38.8228 34.9985 38.9445 35.2784C35.0104 39.9775 28.8706 43 21.9719 43C15.0736 43 8.93414 39.9779 5 35.2793ZM15.7922 23.9297C17.5057 25.6432 19.5656 26.5 21.9719 26.5C24.3781 26.5 26.438 25.6432 28.1516 23.9297C29.8651 22.2161 30.7219 20.1562 30.7219 17.75C30.7219 15.3437 29.8651 13.2839 28.1516 11.5703C26.438 9.85677 24.3781 9 21.9719 9C19.5656 9 17.5057 9.85677 15.7922 11.5703C14.0787 13.2839 13.2219 15.3437 13.2219 17.75C13.2219 20.1562 14.0787 22.2161 15.7922 23.9297Z" fill="#D84A05"/>
<circle cx="21.5" cy="21.5" r="21.5" fill="#E89005" fill-opacity="0.35"/>
</svg>
