<svg width="26" height="25" viewBox="0 0 26 25" fill="none" xmlns="http://www.w3.org/2000/svg">
<path d="M3.86538 25H1.94231C1.55978 25 1.19293 24.8683 0.922442 24.6339C0.651957 24.3995 0.5 24.0815 0.5 23.75V16.25C0.5 15.9185 0.651957 15.6005 0.922442 15.3661C1.19293 15.1317 1.55978 15 1.94231 15H3.86538C4.24791 15 4.61477 15.1317 4.88525 15.3661C5.15574 15.6005 5.30769 15.9185 5.30769 16.25V23.75C5.30769 24.0815 5.15574 24.3995 4.88525 24.6339C4.61477 24.8683 4.24791 25 3.86538 25ZM17.3269 25H15.4038C15.0213 25 14.6545 24.8683 14.384 24.6339C14.1135 24.3995 13.9615 24.0815 13.9615 23.75V11.25C13.9615 10.9185 14.1135 10.6005 14.384 10.3661C14.6545 10.1317 15.0213 10 15.4038 10H17.3269C17.7094 10 18.0763 10.1317 18.3468 10.3661C18.6173 10.6005 18.7692 10.9185 18.7692 11.25V23.75C18.7692 24.0815 18.6173 24.3995 18.3468 24.6339C18.0763 24.8683 17.7094 25 17.3269 25ZM24.0577 25H22.1346C21.7521 25 21.3852 24.8683 21.1147 24.6339C20.8443 24.3995 20.6923 24.0815 20.6923 23.75V5.41667C20.6923 5.08515 20.8443 4.7672 21.1147 4.53278C21.3852 4.29836 21.7521 4.16667 22.1346 4.16667H24.0577C24.4402 4.16667 24.8071 4.29836 25.0776 4.53278C25.348 4.7672 25.5 5.08515 25.5 5.41667V23.75C25.5 24.0815 25.348 24.3995 25.0776 24.6339C24.8071 24.8683 24.4402 25 24.0577 25ZM10.5962 25H8.67308C8.29055 25 7.9237 24.8683 7.65321 24.6339C7.38273 24.3995 7.23077 24.0815 7.23077 23.75V1.25C7.23077 0.918479 7.38273 0.600537 7.65321 0.366117C7.9237 0.131696 8.29055 0 8.67308 0H10.5962C10.9787 0 11.3455 0.131696 11.616 0.366117C11.8865 0.600537 12.0385 0.918479 12.0385 1.25V23.75C12.0385 24.0815 11.8865 24.3995 11.616 24.6339C11.3455 24.8683 10.9787 25 10.5962 25Z" fill="#D84A05"/>
</svg>
