<svg width="33" height="30" viewBox="0 0 33 30" fill="none" xmlns="http://www.w3.org/2000/svg">
<path d="M16.8572 0C19.4033 0 21.8451 0.998117 23.6454 2.77478C25.4458 4.55144 26.4572 6.96111 26.4572 9.47368V11.0526H32.8572V14.2105H30.99L29.7788 28.5521C29.7455 28.9467 29.5632 29.3145 29.268 29.5827C28.9729 29.8508 28.5864 29.9998 28.1852 30H5.52918C5.12797 29.9998 4.74149 29.8508 4.44633 29.5827C4.15117 29.3145 3.96888 28.9467 3.93558 28.5521L2.72278 14.2105H0.857178V11.0526H7.25718V9.47368C7.25718 6.96111 8.2686 4.55144 10.069 2.77478C11.8693 0.998117 14.3111 0 16.8572 0ZM18.4572 17.3684H15.2572V23.6842H18.4572V17.3684ZM12.0572 17.3684H8.85718V23.6842H12.0572V17.3684ZM24.8572 17.3684H21.6572V23.6842H24.8572V17.3684ZM16.8572 3.15789C15.2152 3.15789 13.636 3.78069 12.4463 4.89746C11.2565 6.01423 10.5473 7.53954 10.4652 9.1579L10.4572 9.47368V11.0526H23.2572V9.47368C23.2572 7.8533 22.6261 6.2949 21.4944 5.12082C20.3628 3.94674 18.8171 3.24681 17.1772 3.16579L16.8572 3.15789Z" fill="white"/>
</svg>
