<svg width="15" height="15" viewBox="0 0 15 15" fill="none" xmlns="http://www.w3.org/2000/svg">
<path d="M6.86855 12.0317L6.86783 12.031C5.2637 10.5764 3.97252 9.40287 3.07653 8.30668C2.18603 7.21722 1.73828 6.26542 1.73828 5.26271C1.73828 3.6263 3.01216 2.35742 4.64357 2.35742C5.56973 2.35742 6.46691 2.79116 7.0503 3.47088L7.42972 3.91296L7.80914 3.47088C8.39252 2.79116 9.28971 2.35742 10.2159 2.35742C11.8473 2.35742 13.1212 3.6263 13.1212 5.26271C13.1212 6.26542 12.6734 7.21722 11.7829 8.30668C10.8869 9.40287 9.59573 10.5764 7.9916 12.031L7.99089 12.0317L7.42972 12.5426L6.86855 12.0317Z" stroke="#EC7505"/>
</svg>
