<svg width="80" height="80" viewBox="0 0 80 80" fill="none" xmlns="http://www.w3.org/2000/svg">
<circle cx="40" cy="40" r="40" fill="#E89005"/>
<path d="M31.0334 22.3667C30.7244 22.675 30.4792 23.0413 30.312 23.4446C30.1447 23.8478 30.0586 24.2801 30.0586 24.7167C30.0586 25.1532 30.1447 25.5855 30.312 25.9887C30.4792 26.392 30.7244 26.7583 31.0334 27.0667L43.9667 40L31.0334 52.9333C30.4101 53.5566 30.06 54.4019 30.06 55.2833C30.06 56.1647 30.4101 57.0101 31.0334 57.6333C31.6567 58.2566 32.502 58.6067 33.3834 58.6067C34.2648 58.6067 35.1101 58.2566 35.7334 57.6333L51.0334 42.3333C51.3424 42.0249 51.5876 41.6586 51.7548 41.2554C51.9221 40.8522 52.0082 40.4199 52.0082 39.9833C52.0082 39.5468 51.9221 39.1145 51.7548 38.7112C51.5876 38.308 51.3424 37.9417 51.0334 37.6333L35.7334 22.3333C34.4667 21.0667 32.3334 21.0667 31.0334 22.3667Z" fill="white"/>
</svg>
