<svg width="21" height="22" viewBox="0 0 21 22" fill="none" xmlns="http://www.w3.org/2000/svg">
<path d="M18.6 20L12.3 13.7C11.8 14.1 11.225 14.4167 10.575 14.65C9.925 14.8833 9.23333 15 8.5 15C6.68333 15 5.146 14.371 3.888 13.113C2.63 11.855 2.00067 10.3173 2 8.5C2 6.68333 2.62933 5.146 3.888 3.888C5.14667 2.63 6.684 2.00067 8.5 2C10.3167 2 11.854 2.62933 13.112 3.888C14.37 5.14667 14.9993 6.684 15 8.5C15 9.23333 14.8833 9.925 14.65 10.575C14.4167 11.225 14.1 11.8 13.7 12.3L20 18.6L18.6 20ZM8.5 13C9.75 13 10.8127 12.5627 11.688 11.688C12.5633 10.8133 13.0007 9.75067 13 8.5C13 7.25 12.5623 6.18733 11.687 5.312C10.8117 4.43667 9.74933 3.99933 8.5 4C7.25 4 6.18733 4.43767 5.312 5.313C4.43667 6.18833 3.99933 7.25067 4 8.5C4 9.75 4.43767 10.8127 5.313 11.688C6.18833 12.5633 7.25067 13.0007 8.5 13Z" fill="#EC7505"/>
</svg>
