<svg width="25" height="25" viewBox="0 0 25 25" fill="none" xmlns="http://www.w3.org/2000/svg">
<path d="M0.500003 22.1435V22.1429V9.28571C0.500003 8.91911 0.588913 8.573 0.771263 8.24034C0.954027 7.90693 1.20456 7.63303 1.52896 7.41495L1.52897 7.41497L1.53277 7.41236L10.9047 0.985875C11.152 0.821844 11.4066 0.70117 11.6692 0.621139C11.9328 0.540817 12.209 0.5 12.5 0.5C12.791 0.5 13.0672 0.540817 13.3308 0.621139C13.5934 0.70117 13.848 0.821844 14.0953 0.985875L23.4672 7.41236L23.4672 7.41239L23.4715 7.41529C23.7969 7.63343 24.0477 7.90725 24.2303 8.24034C24.4125 8.57266 24.5008 8.91836 24.5 9.28456V9.28571V22.1429C24.5 22.7795 24.2593 23.3211 23.7439 23.7924C23.2271 24.2649 22.6135 24.5008 21.8755 24.5H21.875H16.125V15V14.5H15.625H9.375H8.875V15V24.5H3.125C2.38561 24.5 1.77137 24.2635 1.25457 23.791C0.739117 23.3197 0.499159 22.7788 0.500003 22.1435Z" stroke="#9A9A9A"/>
</svg>
