<svg width="12" height="22" viewBox="0 0 12 22" fill="none" xmlns="http://www.w3.org/2000/svg">
<path d="M9.62212 21.0844L0.304164 11.7757C0.193565 11.6649 0.11504 11.5449 0.0685886 11.4156C0.022137 11.2863 -0.000720045 11.1478 1.72811e-05 11C1.72811e-05 10.8522 0.023243 10.7137 0.0696946 10.5844C0.116146 10.4551 0.194303 10.3351 0.304164 10.2243L9.62212 0.887863C9.88019 0.629287 10.2028 0.5 10.5899 0.5C10.977 0.5 11.3088 0.638522 11.5853 0.915567C11.8618 1.19261 12 1.51583 12 1.88522C12 2.25462 11.8618 2.57784 11.5853 2.85488L3.45623 11L11.5853 19.1451C11.8433 19.4037 11.9724 19.7225 11.9724 20.1015C11.9724 20.4805 11.8341 20.8081 11.5576 21.0844C11.2811 21.3615 10.9585 21.5 10.5899 21.5C10.2212 21.5 9.89862 21.3615 9.62212 21.0844Z" fill="white"/>
</svg>
