<svg width="203" height="203" viewBox="0 0 203 203" fill="none" xmlns="http://www.w3.org/2000/svg">
<g clip-path="url(#clip0_853_553)">
<g clip-path="url(#clip1_853_553)">
<path d="M0 140.894C0 131.006 2.14246 122.353 6.42737 114.937C10.7123 107.521 16.3156 101.341 23.2374 96.3967C30.1592 91.4526 38.0698 87.7445 46.9692 85.2724C55.8687 82.8004 64.9329 81.5643 74.162 81.5643C83.391 81.5643 92.4552 82.8004 101.355 85.2724C110.254 87.7445 118.165 91.4526 125.086 96.3967C132.008 101.341 137.612 107.521 141.897 114.937C146.181 122.353 148.324 131.006 148.324 140.894H0ZM168.1 220V140.894C168.1 121.941 162.293 105.833 150.677 92.57C139.055 79.2999 122.697 70.028 101.602 64.7543L98.8826 42.0113H148.324V2.45825H168.1V42.0113H217.542L199.743 220H168.1ZM0 180.447V160.67H148.324V180.447H0ZM0 220V200.223H148.324V220H0Z" fill="#EC7505" fill-opacity="0.3"/>
</g>
<rect x="2.5" y="2.5" width="198" height="198" rx="13.5" stroke="white" stroke-width="5"/>
<rect x="97" y="77" width="11.1111" height="50" fill="#D84A05"/>
<rect x="77" y="108.111" width="11.1111" height="50" transform="rotate(-90 77 108.111)" fill="#D84A05"/>
</g>
<rect x="2.5" y="2.5" width="198" height="198" rx="13.5" stroke="#D84A05" stroke-width="5" stroke-dasharray="10 10"/>
<defs>
<clipPath id="clip0_853_553">
<rect width="203" height="203" rx="16" fill="white"/>
</clipPath>
<clipPath id="clip1_853_553">
<rect width="203" height="203" rx="16" fill="white"/>
</clipPath>
</defs>
</svg>
