<svg width="112" height="23" viewBox="0 0 112 23" fill="none" xmlns="http://www.w3.org/2000/svg">
<path d="M24.0641 15.154V13.724L28.3151 7.64H30.4341V13.568H31.5781V15.154H30.4341V17H28.6141V15.154H24.0641ZM28.7311 9.59L26.0661 13.568H28.7311V9.59ZM33.7509 17.091C33.4215 17.091 33.1485 16.9913 32.9319 16.792C32.7239 16.584 32.6199 16.3283 32.6199 16.025C32.6199 15.7217 32.7239 15.4703 32.9319 15.271C33.1485 15.063 33.4215 14.959 33.7509 14.959C34.0715 14.959 34.3359 15.063 34.5439 15.271C34.7519 15.4703 34.8559 15.7217 34.8559 16.025C34.8559 16.3283 34.7519 16.584 34.5439 16.792C34.3359 16.9913 34.0715 17.091 33.7509 17.091ZM42.1458 8.901L38.6878 17H36.8418L40.3258 9.109H35.8798V7.549H42.1458V8.901Z" fill="black"/>
<path d="M5.57056 21.0385L7.12455 14.3205L1.91272 9.80202L8.79807 9.20433L11.4757 2.86885L14.1533 9.20433L21.0387 9.80202L15.8269 14.3205L17.3809 21.0385L11.4757 17.4763L5.57056 21.0385Z" fill="#D5C21F"/>
<path d="M74.0936 9.0184C74.1336 8.2184 74.4136 7.6024 74.9336 7.1704C75.4616 6.7304 76.1536 6.5104 77.0096 6.5104C77.5936 6.5104 78.0936 6.6144 78.5096 6.8224C78.9256 7.0224 79.2376 7.2984 79.4456 7.6504C79.6616 7.9944 79.7696 8.3864 79.7696 8.8264C79.7696 9.3304 79.6376 9.7584 79.3736 10.1104C79.1176 10.4544 78.8096 10.6864 78.4496 10.8064V10.8544C78.9136 10.9984 79.2736 11.2544 79.5296 11.6224C79.7936 11.9904 79.9256 12.4624 79.9256 13.0384C79.9256 13.5184 79.8136 13.9464 79.5896 14.3224C79.3736 14.6984 79.0496 14.9944 78.6176 15.2104C78.1936 15.4184 77.6816 15.5224 77.0816 15.5224C76.1776 15.5224 75.4416 15.2944 74.8736 14.8384C74.3056 14.3824 74.0056 13.7104 73.9736 12.8224H75.6056C75.6216 13.2144 75.7536 13.5304 76.0016 13.7704C76.2576 14.0024 76.6056 14.1184 77.0456 14.1184C77.4536 14.1184 77.7656 14.0064 77.9816 13.7824C78.2056 13.5504 78.3176 13.2544 78.3176 12.8944C78.3176 12.4144 78.1656 12.0704 77.8616 11.8624C77.5576 11.6544 77.0856 11.5504 76.4456 11.5504H76.0976V10.1704H76.4456C77.5816 10.1704 78.1496 9.7904 78.1496 9.0304C78.1496 8.6864 78.0456 8.4184 77.8376 8.2264C77.6376 8.0344 77.3456 7.9384 76.9616 7.9384C76.5856 7.9384 76.2936 8.0424 76.0856 8.2504C75.8856 8.4504 75.7696 8.7064 75.7376 9.0184H74.0936ZM81.2532 10.9744C81.2532 9.5904 81.5012 8.5064 81.9972 7.7224C82.5012 6.9384 83.3332 6.5464 84.4932 6.5464C85.6532 6.5464 86.4812 6.9384 86.9772 7.7224C87.4812 8.5064 87.7332 9.5904 87.7332 10.9744C87.7332 12.3664 87.4812 13.4584 86.9772 14.2504C86.4812 15.0424 85.6532 15.4384 84.4932 15.4384C83.3332 15.4384 82.5012 15.0424 81.9972 14.2504C81.5012 13.4584 81.2532 12.3664 81.2532 10.9744ZM86.0772 10.9744C86.0772 10.3824 86.0372 9.8864 85.9572 9.4864C85.8852 9.0784 85.7332 8.7464 85.5012 8.4904C85.2772 8.2344 84.9412 8.1064 84.4932 8.1064C84.0452 8.1064 83.7052 8.2344 83.4732 8.4904C83.2492 8.7464 83.0972 9.0784 83.0172 9.4864C82.9452 9.8864 82.9092 10.3824 82.9092 10.9744C82.9092 11.5824 82.9452 12.0944 83.0172 12.5104C83.0892 12.9184 83.2412 13.2504 83.4732 13.5064C83.7052 13.7544 84.0452 13.8784 84.4932 13.8784C84.9412 13.8784 85.2812 13.7544 85.5132 13.5064C85.7452 13.2504 85.8972 12.9184 85.9692 12.5104C86.0412 12.0944 86.0772 11.5824 86.0772 10.9744ZM89.011 10.9744C89.011 9.5904 89.259 8.5064 89.755 7.7224C90.259 6.9384 91.091 6.5464 92.251 6.5464C93.411 6.5464 94.239 6.9384 94.735 7.7224C95.239 8.5064 95.491 9.5904 95.491 10.9744C95.491 12.3664 95.239 13.4584 94.735 14.2504C94.239 15.0424 93.411 15.4384 92.251 15.4384C91.091 15.4384 90.259 15.0424 89.755 14.2504C89.259 13.4584 89.011 12.3664 89.011 10.9744ZM93.835 10.9744C93.835 10.3824 93.795 9.8864 93.715 9.4864C93.643 9.0784 93.491 8.7464 93.259 8.4904C93.035 8.2344 92.699 8.1064 92.251 8.1064C91.803 8.1064 91.463 8.2344 91.231 8.4904C91.007 8.7464 90.855 9.0784 90.775 9.4864C90.703 9.8864 90.667 10.3824 90.667 10.9744C90.667 11.5824 90.703 12.0944 90.775 12.5104C90.847 12.9184 90.999 13.2504 91.231 13.5064C91.463 13.7544 91.803 13.8784 92.251 13.8784C92.699 13.8784 93.039 13.7544 93.271 13.5064C93.503 13.2504 93.655 12.9184 93.727 12.5104C93.799 12.0944 93.835 11.5824 93.835 10.9744ZM108.076 8.7184C108.892 8.7184 109.548 8.9704 110.044 9.4744C110.548 9.9704 110.8 10.6664 110.8 11.5624V15.4624H109.12V11.7904C109.12 11.2704 108.988 10.8744 108.724 10.6024C108.46 10.3224 108.1 10.1824 107.644 10.1824C107.188 10.1824 106.824 10.3224 106.552 10.6024C106.288 10.8744 106.156 11.2704 106.156 11.7904V15.4624H104.476V11.7904C104.476 11.2704 104.344 10.8744 104.08 10.6024C103.816 10.3224 103.456 10.1824 103 10.1824C102.536 10.1824 102.168 10.3224 101.896 10.6024C101.632 10.8744 101.5 11.2704 101.5 11.7904V15.4624H99.8202V8.8144H101.5V9.6184C101.716 9.3384 101.992 9.1184 102.328 8.9584C102.672 8.7984 103.048 8.7184 103.456 8.7184C103.976 8.7184 104.44 8.8304 104.848 9.0544C105.256 9.2704 105.572 9.5824 105.796 9.9904C106.012 9.6064 106.324 9.2984 106.732 9.0664C107.148 8.8344 107.596 8.7184 108.076 8.7184Z" fill="black"/>
<path d="M64.0133 11.4756C64.4264 11.4756 64.7802 11.3284 65.0746 11.034C65.3685 10.7401 65.5155 10.3865 65.5155 9.97343C65.5155 9.56033 65.3685 9.20656 65.0746 8.91213C64.7802 8.6182 64.4264 8.47124 64.0133 8.47124C63.6002 8.47124 63.2467 8.6182 62.9528 8.91213C62.6583 9.20656 62.5111 9.56033 62.5111 9.97343C62.5111 10.3865 62.6583 10.7401 62.9528 11.034C63.2467 11.3284 63.6002 11.4756 64.0133 11.4756ZM64.0133 18.705C63.9132 18.705 63.813 18.6862 63.7129 18.6486C63.6127 18.6111 63.5251 18.561 63.45 18.4984C61.6223 16.8835 60.2578 15.3846 59.3565 14.0016C58.4552 12.6181 58.0045 11.3254 58.0045 10.1237C58.0045 8.24591 58.6087 6.74997 59.8169 5.63584C61.0247 4.52171 62.4235 3.96465 64.0133 3.96465C65.6031 3.96465 67.0019 4.52171 68.2097 5.63584C69.418 6.74997 70.0221 8.24591 70.0221 10.1237C70.0221 11.3254 69.5714 12.6181 68.6701 14.0016C67.7688 15.3846 66.4043 16.8835 64.5766 18.4984C64.5015 18.561 64.4139 18.6111 64.3137 18.6486C64.2136 18.6862 64.1135 18.705 64.0133 18.705Z" fill="#E89005"/>
</svg>
