<svg width="329" height="296" viewBox="0 0 329 296" fill="none" xmlns="http://www.w3.org/2000/svg">
<path d="M329 294.545C329 294.545 255.317 294.545 164.5 294.545C73.6095 294.545 0 294.545 0 294.545" stroke="#DFDFDF"/>
<path d="M214.108 17.4103L215.34 31.8856L209.905 27.5992L212.587 24.5074L213.311 17.4103H214.108Z" fill="#FF725E"/>
<path opacity="0.3" d="M214.108 17.4103L215.34 31.8856L209.905 27.5992L212.587 24.5074L213.311 17.4103H214.108Z" fill="black"/>
<path d="M214.108 17.4103L215.34 31.8856L209.905 27.5992L212.587 24.5074L213.311 17.4103H214.108Z" fill="#FF725E"/>
<path opacity="0.3" d="M214.108 17.4103L215.34 31.8856L209.905 27.5992L212.587 24.5074L213.311 17.4103H214.108Z" fill="black"/>
<path d="M271.065 196.736C270.993 195.26 270.123 193.925 268.819 193.152C248.891 180.363 233.891 151.975 232.369 128.013C232.297 126.678 232.297 125.273 232.224 123.867C231.065 89.5761 227.877 46.9231 221.21 36.8044C209.833 19.6589 183.311 14.3888 183.311 14.3888C144.47 11.7186 137.513 40.6692 133.6 67.0199C131.137 83.3925 126.064 136.516 126.064 136.516L128.89 144.667C137.296 168.839 156.282 188.374 180.847 197.368C188.021 199.968 194.108 201.022 196.934 198.773C208.239 209.876 222.369 218.308 237.804 222.876C244.109 224.703 250.63 225.967 257.152 225.405C261.428 225.054 265.848 223.649 268.384 220.346C270.558 217.465 270.848 213.389 269.109 210.227C267.37 207.065 263.674 205.098 260.051 205.238C261.5 200.6 271.21 201.936 271.065 196.736Z" fill="#263238"/>
<path d="M188.384 24.9993L185.92 22.7507L159.688 33.0099C155.919 33.2207 152.876 36.172 152.731 39.8962L152.948 122.883C152.948 128.505 154.108 133.353 157.586 137.851L161.282 142.559C169.688 153.31 187.007 152.466 193.673 140.591C194.108 139.748 194.471 139.045 194.615 138.413C194.76 137.64 194.978 137.218 194.978 136.586C195.775 129.91 195.775 124.148 195.775 124.148C196.21 116.84 196.427 113.819 196.427 113.889C196.427 113.889 212.514 112.062 216.862 92.0355C219.036 82.0574 218.601 68.355 218.021 54.8634C217.224 36.3126 203.891 24.9993 188.384 24.9993Z" fill="#FFBE9D"/>
<path d="M183.021 66.1064C183.021 67.4415 181.789 68.5658 180.34 68.5658C178.891 68.5658 177.659 67.4415 177.731 66.1064C177.731 64.7713 178.963 63.647 180.412 63.647C181.862 63.647 183.021 64.7713 183.021 66.1064Z" fill="#263238"/>
<path d="M210.195 66.8091C210.195 68.1442 208.963 69.2685 207.514 69.2685C206.065 69.2685 204.833 68.1442 204.905 66.8091C204.905 65.474 206.137 64.3497 207.587 64.3497C209.036 64.3497 210.195 65.474 210.195 66.8091Z" fill="#263238"/>
<path d="M215.34 60.2741C214.978 60.6254 213.021 59.0795 210.195 58.939C207.297 58.7985 205.123 60.0633 204.833 59.712C204.688 59.5714 205.05 58.939 205.992 58.3769C206.934 57.7444 208.529 57.2526 210.268 57.3228C212.079 57.3931 213.529 58.166 214.326 58.7985C215.195 59.5011 215.485 60.1336 215.34 60.2741Z" fill="#263238"/>
<path d="M186.137 60.5552C185.775 60.8363 183.963 59.0795 181.137 58.6579C178.311 58.1661 175.992 59.2904 175.702 58.939C175.557 58.7985 175.992 58.2363 177.007 57.6742C178.021 57.1823 179.615 56.7607 181.427 57.0418C183.166 57.3228 184.615 58.1661 185.34 58.939C186.137 59.7822 186.354 60.4146 186.137 60.5552Z" fill="#263238"/>
<path d="M196.21 80.8628C196.21 80.7223 198.021 80.5115 200.92 80.3006C201.645 80.2304 202.369 80.1601 202.514 79.6682C202.732 79.1764 202.442 78.4034 202.152 77.5602C201.572 75.8035 200.92 73.9765 200.268 72.009C197.659 64.1389 195.775 57.6742 196.137 57.6039C196.5 57.5336 198.818 63.7875 201.5 71.6576C202.152 73.6251 202.732 75.4521 203.311 77.2088C203.529 78.0521 203.963 78.9656 203.529 80.0196C203.311 80.5115 202.732 80.9331 202.297 81.0033C201.789 81.1439 201.427 81.0736 201.065 81.1439C198.021 81.0736 196.21 81.0033 196.21 80.8628Z" fill="#263238"/>
<path d="M196.5 113.889C196.5 113.889 182.441 114.1 168.963 105.316C168.963 105.316 175.267 119.651 196.21 118.738L196.5 113.889Z" fill="#EB996E"/>
<path d="M194.615 87.4681C193.673 86.0627 191.862 85.2897 190.05 85.36C188.818 85.4303 187.514 85.9221 186.717 86.9059C185.92 87.8194 185.702 89.2248 186.282 90.2085C187.007 91.3328 188.601 91.6139 189.978 91.3328C191.355 91.0518 192.586 90.2085 193.746 89.3653C194.036 89.1545 194.398 88.8734 194.615 88.5924C194.833 88.241 194.905 87.8194 194.688 87.5383" fill="#EB996E"/>
<path d="M187.659 82.3384C188.094 82.3384 187.949 85.36 190.557 87.6086C193.094 89.8572 196.427 89.7166 196.427 90.1383C196.427 90.3491 195.63 90.7004 194.253 90.6301C192.876 90.6301 190.92 90.068 189.326 88.6626C187.731 87.2572 187.152 85.5005 187.079 84.2357C187.079 83.0411 187.441 82.3384 187.659 82.3384Z" fill="#263238"/>
<path d="M188.891 49.7338C188.456 50.4365 185.702 49.6636 182.297 49.5933C178.891 49.4528 176.065 49.9446 175.702 49.242C175.557 48.8906 176.137 48.2582 177.369 47.6961C178.528 47.1339 180.412 46.7123 182.441 46.7826C184.47 46.8528 186.282 47.415 187.369 48.1177C188.601 48.6798 189.108 49.3825 188.891 49.7338Z" fill="#263238"/>
<path d="M214.906 48.3285C214.398 48.9609 212.442 48.1879 210.05 48.0474C207.659 47.8366 205.63 48.2582 205.195 47.5555C204.978 47.2042 205.34 46.5718 206.282 46.0799C207.152 45.5177 208.674 45.0961 210.268 45.2367C211.934 45.3772 213.311 46.0096 214.108 46.7123C214.906 47.3447 215.123 47.9771 214.906 48.3285Z" fill="#263238"/>
<path d="M153.311 75.3819C153.311 75.3819 168.021 79.8088 176.354 44.6042C179.181 32.5883 190.702 22.821 190.702 22.821L186.065 21.4859C186.065 21.4859 157.079 29.4262 156.572 29.7776C156.064 30.1289 149.253 44.3232 149.253 44.3232L153.311 75.3819Z" fill="#263238"/>
<path d="M156.934 74.0468C157.006 72.5711 155.412 68.9172 153.89 68.6361C149.832 67.7929 142.441 67.7929 141.861 77.8413C141.064 91.6139 155.485 89.5761 155.485 89.1545C155.557 88.8032 156.717 79.2466 156.934 74.0468Z" fill="#FFBE9D"/>
<path d="M151.499 83.6735C151.427 83.6033 151.209 83.8141 150.847 84.0249C150.412 84.1654 149.688 84.2357 148.963 83.9546C147.514 83.3222 146.354 80.9331 146.427 78.4737C146.499 77.2088 146.789 76.0143 147.296 75.1008C147.803 74.117 148.528 73.4846 149.253 73.3441C149.977 73.2035 150.557 73.6954 150.702 74.0468C150.847 74.4684 150.774 74.6792 150.847 74.7494C150.919 74.8197 151.137 74.5386 151.064 73.9765C150.992 73.6954 150.847 73.3441 150.557 73.063C150.267 72.7819 149.76 72.6414 149.18 72.6414C148.093 72.6414 147.006 73.5549 146.499 74.6089C145.847 75.6629 145.485 76.998 145.412 78.4034C145.34 81.2141 146.644 83.8844 148.673 84.5168C149.688 84.7978 150.485 84.587 150.919 84.306C151.427 84.0249 151.499 83.6735 151.499 83.6735Z" fill="#EB996E"/>
<path d="M163.311 68.6361C163.311 68.5658 164.108 68.5658 165.412 68.2145C166.717 67.8631 168.601 67.0199 170.485 65.4037C171.427 64.5605 172.296 63.5767 173.093 62.3822C173.891 61.1876 174.615 59.8525 175.267 58.3769C176.499 55.4256 177.296 51.9824 178.311 48.3987C179.325 44.815 180.412 41.4422 181.572 38.4206C182.731 35.3991 184.036 32.7991 185.268 30.6208C186.499 28.5127 187.659 26.8966 188.528 25.7723C188.963 25.2101 189.326 24.8588 189.543 24.5777C189.76 24.2966 189.905 24.1561 189.905 24.1561C189.905 24.1561 189.833 24.2966 189.615 24.5777C189.398 24.8588 189.036 25.2804 188.673 25.8425C187.876 26.9668 186.717 28.583 185.557 30.6911C184.398 32.7991 183.094 35.4693 181.934 38.4909C180.775 41.5124 179.688 44.8853 178.746 48.469C177.731 52.0527 176.934 55.4959 175.63 58.5174C174.978 59.9931 174.253 61.3984 173.456 62.593C172.586 63.7876 171.717 64.7713 170.775 65.6145C168.891 67.2307 166.934 68.0739 165.557 68.4253C164.108 68.6361 163.311 68.6361 163.311 68.6361Z" fill="#263238"/>
<path d="M229.326 122.321C229.326 122.321 229.326 122.251 229.471 122.11C229.543 121.97 229.688 121.759 229.833 121.478C230.196 120.916 230.703 120.073 231.282 119.019C231.935 117.965 232.659 116.63 233.384 115.013C234.109 113.397 234.978 111.57 235.485 109.462C236.065 107.354 236.355 104.895 235.993 102.365C235.703 99.7651 234.543 97.2354 233.239 94.5652C232.587 93.2301 231.935 91.895 231.282 90.4896C230.703 89.0842 230.123 87.6086 229.688 86.0627C228.819 82.9709 228.384 79.6683 228.094 76.2954C227.587 69.5496 227.804 63.0849 227.224 57.2526C226.935 54.3716 226.5 51.5608 225.775 49.1014C225.123 46.5718 224.181 44.3232 223.094 42.3556C220.993 38.4206 218.311 35.8207 216.355 34.345C215.34 33.6423 214.471 33.0802 213.891 32.7991C213.601 32.6586 213.384 32.5181 213.239 32.4478C213.094 32.3775 213.021 32.3072 213.021 32.3072C213.021 32.3072 213.094 32.3072 213.239 32.3775C213.384 32.4478 213.674 32.5883 213.963 32.7289C214.543 33.0099 215.413 33.5018 216.5 34.2045C218.529 35.6801 221.282 38.2801 223.384 42.2151C224.471 44.1826 225.413 46.4312 226.065 48.9609C226.79 51.4906 227.224 54.231 227.514 57.1823C228.094 63.0146 227.877 69.4793 228.384 76.2251C228.674 79.598 229.109 82.8303 229.978 85.9222C230.413 87.4681 230.92 88.9437 231.5 90.3491C232.08 91.7544 232.804 93.0895 233.456 94.4247C234.761 97.0949 235.848 99.6948 236.21 102.295C236.572 104.895 236.21 107.354 235.63 109.532C235.051 111.711 234.254 113.538 233.456 115.154C232.659 116.77 231.862 118.035 231.282 119.159C230.63 120.213 230.123 121.056 229.761 121.619C229.616 121.9 229.471 122.11 229.326 122.251C229.398 122.251 229.326 122.321 229.326 122.321Z" fill="#263238"/>
<path d="M135.195 128.364C135.195 128.364 135.122 128.294 134.977 128.224C134.832 128.083 134.542 127.943 134.253 127.732C133.673 127.24 132.731 126.537 131.789 125.483C130.774 124.429 129.687 123.024 128.673 121.267C127.658 119.511 126.716 117.332 125.992 114.873C124.542 109.954 124.47 103.7 125.339 97.0246C126.209 90.3491 127.658 83.0411 129.615 75.4521C133.6 60.3444 139.253 47.2042 143.963 38.1395C145.122 35.8207 146.282 33.8532 147.224 32.0262C148.238 30.2695 149.108 28.7235 149.832 27.529C150.557 26.3344 151.209 25.3507 151.572 24.7182C151.789 24.4372 151.934 24.1561 152.006 24.0156C152.079 23.875 152.151 23.8047 152.151 23.8047C152.151 23.8047 152.079 23.875 152.006 24.0858C151.934 24.2966 151.789 24.5074 151.572 24.8588C151.209 25.4912 150.63 26.475 149.905 27.6695C149.18 28.9344 148.311 30.4803 147.296 32.237C146.354 34.064 145.195 36.1017 144.035 38.3503C139.398 47.4853 133.818 60.5552 129.832 75.6629C127.876 83.1817 126.426 90.4896 125.484 97.1651C124.615 103.841 124.687 110.024 126.064 114.943C126.716 117.402 127.658 119.511 128.673 121.337C129.687 123.094 130.774 124.5 131.716 125.554C132.658 126.608 133.528 127.31 134.108 127.802C134.398 128.013 134.615 128.224 134.832 128.364C135.122 128.294 135.195 128.294 135.195 128.364Z" fill="#263238"/>
<path d="M136.934 60.2039C136.934 60.2039 136.861 60.0633 136.789 59.7822C136.716 59.5012 136.644 59.0796 136.571 58.5877C136.499 57.5337 136.499 55.9175 137.151 54.0905C137.803 52.2635 138.963 50.2257 140.774 48.3987C142.514 46.5015 144.832 44.815 147.224 43.1286C149.615 41.4422 151.934 39.7557 153.746 37.9287C155.557 36.172 157.079 34.4153 158.166 32.8694C159.325 31.3235 160.122 29.9884 160.63 29.0749C161.137 28.1614 161.427 27.5993 161.427 27.5993C161.427 27.5993 161.354 27.7398 161.282 28.0209C161.137 28.3019 160.992 28.6533 160.775 29.1452C160.267 30.1289 159.543 31.464 158.383 33.0099C157.296 34.5558 155.847 36.3828 153.963 38.2098C152.151 40.0368 149.832 41.7232 147.441 43.4097C145.05 45.0961 142.731 46.7826 140.992 48.6095C139.253 50.4365 138.021 52.4041 137.369 54.1608C136.716 55.9175 136.571 57.4634 136.644 58.5174C136.861 59.6417 137.006 60.2039 136.934 60.2039Z" fill="#455A64"/>
<path d="M134.325 81.8466C134.325 81.8466 134.325 81.7763 134.253 81.706C134.18 81.5655 134.108 81.425 134.035 81.2142C133.89 80.7925 133.673 80.1601 133.455 79.3872C133.166 77.771 133.021 75.3116 133.745 72.4306C134.47 69.5496 136.064 66.3172 138.383 63.1551C140.702 59.9931 143.673 56.7607 146.934 53.5283C150.195 50.296 153.383 47.415 156.209 44.6042C159.035 41.8638 161.427 39.1936 163.238 36.8747C164.18 35.7504 164.905 34.5558 165.557 33.6423C166.137 32.6586 166.717 31.8154 167.151 31.0424C167.514 30.3397 167.804 29.7776 168.021 29.356C168.093 29.2154 168.166 29.0046 168.238 28.9344C168.166 29.0749 168.093 29.2154 168.021 29.356C167.804 29.7776 167.514 30.3397 167.151 31.0424C166.789 31.7451 166.209 32.6586 165.63 33.6423C164.977 34.6261 164.253 35.7504 163.311 36.945C161.499 39.3341 159.108 42.0043 156.354 44.7448C153.528 47.5555 150.34 50.5068 147.151 53.6689C143.89 56.831 140.992 60.0633 138.673 63.2254C136.354 66.3875 134.76 69.5496 134.035 72.4306C133.238 75.2413 133.311 77.7007 133.6 79.3169C133.745 80.0899 133.89 80.7223 134.108 81.1439C134.18 81.3547 134.253 81.4952 134.253 81.6358C134.325 81.7763 134.325 81.8466 134.325 81.8466Z" fill="#455A64"/>
<path d="M156.209 15.7941C156.209 16.1455 159.543 24.7885 163.528 25.3507C167.514 25.8425 179.905 24.5074 182.079 22.1886C184.253 19.8697 185.34 14.0374 185.34 14.0374L183.891 12.632C183.891 12.632 178.818 10.5943 170.92 12.1402C163.021 13.6158 156.209 15.7941 156.209 15.7941Z" fill="#FF725E"/>
<path d="M213.166 15.7941C213.166 15.7941 208.094 12.4212 200.703 12.2104C193.239 11.9996 188.166 12.4915 188.166 12.4915C188.166 12.4915 191.21 18.113 192.731 20.1508C194.326 22.2588 195.92 24.648 201.862 25.0696C207.804 25.4912 211.79 26.5452 212.732 25.1399C213.891 23.3831 213.891 19.4481 214.108 18.0427C214.326 16.8482 213.166 15.7941 213.166 15.7941Z" fill="#FF725E"/>
<path d="M183.311 12.632C183.311 12.632 185.413 10.7348 190.413 12.7023L189.615 14.7401C189.615 14.7401 186.934 13.1942 184.615 14.8806L183.311 12.632Z" fill="#FF725E"/>
<path d="M156.209 15.7941L149.832 41.3016L154.325 37.6477C154.325 37.6477 158.818 20.5724 158.818 20.4319C158.818 20.2913 158.818 19.8697 158.818 19.8697L156.209 15.7941Z" fill="#FF725E"/>
<path d="M159.253 16.3563C160.557 18.2535 162.151 21.4156 164.325 22.3994C166.137 23.2426 168.166 23.1723 170.123 23.0318C172.441 22.821 174.76 22.3994 177.007 21.8372C178.021 21.5562 179.108 21.2751 179.905 20.5724C181.137 19.5886 181.644 17.9725 182.079 16.4265C182.297 15.6536 182.514 14.6698 182.007 14.0374C181.499 13.3347 178.383 12.7023 177.514 12.632C173.094 12.1402 162.224 14.9509 159.253 16.3563Z" fill="#263238"/>
<path d="M157.659 16.0752C157.514 16.0049 157.369 15.9347 157.296 16.0049C157.151 16.0049 157.006 16.0752 157.006 16.2158C157.079 16.6374 158.021 17.2698 158.456 17.059C158.528 16.8482 158.021 16.286 157.659 16.0752Z" fill="white"/>
<path d="M192.876 13.5455C192.224 13.5455 191.789 14.3888 192.079 14.9509C193.239 17.34 196.065 22.3291 199.905 22.8913C204.833 23.6642 211.065 24.648 211.645 23.6642C212.152 22.7507 213.239 18.3941 212.732 17.1292C212.224 15.9347 209.616 14.5996 205.775 13.9672C200.268 12.9834 195.558 13.4753 192.876 13.5455Z" fill="#263238"/>
<path d="M208.963 17.1292C208.963 17.1995 206.645 18.113 203.746 19.0968C200.847 20.0805 198.456 20.7832 198.384 20.7129C198.384 20.6427 200.703 19.7292 203.601 18.7454C206.5 17.7617 208.891 17.059 208.963 17.1292Z" fill="#455A64"/>
<path d="M208.529 19.2373C208.529 19.3076 206.862 19.8697 204.761 20.4319C202.659 20.994 200.92 21.3453 200.92 21.2751C200.92 21.2048 202.587 20.6427 204.688 20.0805C206.79 19.5184 208.529 19.167 208.529 19.2373Z" fill="#455A64"/>
<path d="M179.108 16.2157C179.181 16.286 177.441 17.2698 175.34 18.5346C173.239 19.7994 171.572 20.8535 171.572 20.7832C171.499 20.7129 173.094 19.5184 175.195 18.2535C177.224 16.9184 179.036 16.0752 179.108 16.2157Z" fill="#455A64"/>
<path d="M174.76 15.4428C174.76 15.5131 174.253 15.7941 173.311 16.3563C172.296 16.9887 171.137 17.6211 169.76 18.3941C168.456 19.167 167.296 19.8697 166.282 20.5021C165.412 21.0643 164.833 21.3454 164.833 21.3454C164.833 21.2751 165.34 20.9237 166.137 20.2913C167.007 19.6589 168.166 18.886 169.543 18.113C170.92 17.2698 172.224 16.6374 173.094 16.1455C174.108 15.6536 174.688 15.3725 174.76 15.4428Z" fill="#455A64"/>
<path d="M189.76 12.6322C189.76 12.7024 189.326 12.4916 188.673 12.2808C188.021 12.07 187.079 11.8592 186.065 11.9295C185.05 11.9997 184.108 12.3511 183.528 12.6322C182.949 12.9132 182.586 13.1943 182.514 13.1943C182.514 13.1943 182.731 12.843 183.383 12.4214C183.963 11.9997 184.905 11.6484 186.065 11.5781C187.152 11.5079 188.166 11.7187 188.818 11.9997C189.471 12.3511 189.833 12.6322 189.76 12.6322Z" fill="#263238"/>
<path d="M189.833 14.7401C189.76 14.8104 188.456 14.2482 186.789 14.3185C185.05 14.3888 183.818 15.1617 183.818 15.0914C183.818 15.0212 184.036 14.8104 184.615 14.5293C185.123 14.2482 185.92 14.0374 186.862 13.9672C187.731 13.8969 188.601 14.1077 189.108 14.2482C189.543 14.459 189.905 14.6698 189.833 14.7401Z" fill="#263238"/>
<path d="M160.412 23.5939C160.34 23.6642 159.18 22.3291 157.948 20.5021C156.717 18.6751 155.847 17.1292 155.919 17.1292C155.992 17.059 157.079 18.5346 158.311 20.2913C158.89 21.1345 159.398 21.8372 159.905 22.6102C160.195 23.2426 160.412 23.5939 160.412 23.5939Z" fill="#263238"/>
<path d="M97.8754 171.298L83.8898 200.882L83.2376 171.298L64.3244 172.212C64.3244 172.212 52.5127 223.719 55.7736 234.4C59.0345 245.08 74.3969 254.707 82.8028 249.999C92.5131 244.659 104.687 224.14 107.731 218.027C113.165 206.995 126.209 183.947 126.209 183.947L97.8754 171.298Z" fill="#FFBE9D"/>
<path d="M83.8173 200.882C83.8173 200.882 83.9623 201.303 84.1797 202.076C84.2521 202.498 84.3971 202.919 84.542 203.481C84.6869 204.044 84.8318 204.676 84.9043 205.379C85.4116 208.189 85.8463 212.195 85.7739 216.622C85.7014 221.049 85.0492 224.984 84.1072 227.794C83.8898 228.497 83.6724 229.129 83.3825 229.621C83.1652 230.113 82.9478 230.605 82.7304 230.956C82.2956 231.659 82.0782 232.081 82.0782 232.01C82.0782 232.01 82.2231 231.589 82.5854 230.886C82.8028 230.535 82.9478 230.043 83.1652 229.551C83.3825 229.059 83.5999 228.427 83.8173 227.724C84.6869 224.984 85.2666 221.049 85.3391 216.622C85.4116 212.265 84.9768 208.26 84.542 205.449C84.4695 204.746 84.3246 204.114 84.2521 203.552C84.1797 202.99 84.0347 202.498 83.9623 202.076C83.8898 201.303 83.8173 200.882 83.8173 200.882Z" fill="#EB996E"/>
<path d="M96.0638 119.581C96.9334 118.316 99.0348 118.808 99.1073 120.354V120.424C99.1073 122.673 91.1362 139.888 91.1362 139.888C91.1362 139.888 86.2811 155.488 85.9912 157.947C85.484 162.796 83.0927 170.244 83.2376 169.612L82.6579 173.828L63.8171 176.498L64.3244 171.439C64.3244 171.439 63.3099 167.012 62.8751 163.92C62.4403 160.828 64.7592 146.704 64.7592 146.704L63.8896 144.034L63.4548 143.753C63.4548 143.753 61.2809 148.391 59.2519 147.899C57.2953 147.407 57.2953 147.407 57.2953 147.407L59.5417 139.186L63.8896 135.532L65.7737 131.878C65.7737 131.878 67.8027 128.505 71.6433 129.278C75.4114 130.051 75.194 133.494 75.194 133.494L76.3535 136.797L78.5999 126.748C78.5999 126.748 76.7883 117.684 76.9332 116.208C77.0781 114.732 78.8173 113.327 80.0491 114.1C81.3535 114.873 85.0492 126.678 85.0492 126.678L84.6869 136.726L96.0638 119.581Z" fill="#FFBE9D"/>
<path d="M65.7737 131.878C65.049 134.126 63.0925 140.029 62.8751 142.207C65.3389 142.559 67.8751 141.786 69.7592 140.169C71.5708 138.553 72.2955 135.461 73.3824 133.072" fill="#FFBE9D"/>
<path d="M73.3824 133.002C73.3824 133.002 73.31 133.353 73.0201 133.986C72.8027 134.618 72.5128 135.532 72.0781 136.586C71.6433 137.64 71.0636 139.045 69.9041 140.169C68.7447 141.294 67.078 142.067 65.1939 142.348C64.3968 142.418 63.5997 142.418 62.8026 142.348H62.6577V142.207C62.8751 140.661 63.3099 139.326 63.5997 138.061C63.962 136.797 64.3244 135.743 64.6142 134.829C64.9041 133.916 65.1939 133.213 65.3389 132.721C65.5563 132.229 65.6287 131.948 65.6287 131.948C65.6287 131.948 65.5563 132.229 65.4113 132.721C65.2664 133.283 65.049 133.986 64.7592 134.899C64.4693 135.813 64.1794 136.937 63.8171 138.132C63.4548 139.397 63.0925 140.732 62.8751 142.207L62.7301 141.996C63.4548 142.067 64.2519 142.067 64.9765 141.996C66.7882 141.786 68.3824 140.942 69.5418 139.959C70.6288 138.905 71.2085 137.57 71.7157 136.516C72.1505 135.462 72.5128 134.548 72.8027 133.916C73.165 133.353 73.3824 133.002 73.3824 133.002Z" fill="#EB996E"/>
<path d="M79.1796 166.38C74.7593 167.363 68.8896 160.266 68.4549 155.91C68.0201 151.483 69.6143 145.51 69.6143 145.51L66.0635 140.521C66.0635 140.521 63.3099 137.218 62.9476 134.759C62.7302 133.424 64.3969 132.089 64.3969 132.089C64.3969 132.089 72.7303 137.289 73.8172 139.045C74.9767 140.802 82.5854 152.045 82.5854 152.045" fill="#FFBE9D"/>
<path d="M82.6579 152.115C82.6579 152.115 82.5129 151.975 82.368 151.694C82.1506 151.412 81.8608 150.991 81.4984 150.429C80.7013 149.304 79.6144 147.688 78.2375 145.721C77.5129 144.737 76.7882 143.613 75.9911 142.418C75.5564 141.786 75.194 141.224 74.7592 140.521C74.5419 140.169 74.3245 139.888 74.1071 139.537C73.8897 139.186 73.6723 138.905 73.3824 138.624C72.223 137.499 70.7737 136.516 69.2519 135.462C67.7302 134.407 66.136 133.353 64.4693 132.299H64.6867C63.8171 133.072 62.9475 134.197 63.3823 135.391C63.6722 136.586 64.3244 137.71 65.049 138.764C66.7157 141.013 68.3099 143.332 69.9041 145.51L69.9766 145.58V145.65C69.5418 147.477 69.1795 149.304 68.9621 151.061C68.7447 152.818 68.6722 154.504 68.8172 156.05C69.0346 157.596 69.6867 159.001 70.4114 160.196C71.136 161.391 71.9331 162.445 72.7302 163.288C73.5273 164.131 74.3969 164.834 75.194 165.326C75.6288 165.536 75.9911 165.818 76.3535 165.958C76.5709 166.028 76.7158 166.099 76.8607 166.169C77.0056 166.239 77.223 166.239 77.368 166.309C78.6723 166.661 79.397 166.38 79.397 166.45C79.397 166.45 79.252 166.52 78.8897 166.52C78.8173 166.52 78.6723 166.52 78.5999 166.59C78.5274 166.59 78.3825 166.59 78.2375 166.59C77.9477 166.59 77.6578 166.59 77.368 166.45C77.223 166.38 77.0056 166.38 76.8607 166.309C76.7158 166.239 76.4984 166.169 76.281 166.099C75.9187 165.958 75.4839 165.747 75.1216 165.466C74.3245 164.974 73.4549 164.272 72.5853 163.428C71.7157 162.585 70.9186 161.531 70.194 160.337C69.4693 159.142 68.8172 157.737 68.5273 156.12C68.3824 154.504 68.4548 152.818 68.6722 151.061C68.8896 149.304 69.1795 147.477 69.6867 145.65V145.791C68.165 143.683 66.5708 141.434 64.8316 139.045C64.107 137.921 63.4548 136.797 63.0925 135.532C63.02 135.251 62.9475 134.899 62.9475 134.548C63.02 134.197 63.0925 133.916 63.2374 133.635C63.5273 133.072 63.962 132.58 64.4693 132.159L64.5418 132.089L64.6867 132.159C66.3534 133.213 67.9476 134.267 69.4693 135.321C70.9911 136.375 72.4404 137.429 73.6723 138.553C73.9621 138.834 74.252 139.186 74.4694 139.537C74.6868 139.888 74.9042 140.169 75.1216 140.521C75.5564 141.153 75.9911 141.786 76.3535 142.418C77.1506 143.613 77.8752 144.737 78.5999 145.791C79.9042 147.829 80.9912 149.445 81.7883 150.569C82.1506 151.131 82.4405 151.553 82.5854 151.834C82.5854 151.975 82.6579 152.115 82.6579 152.115Z" fill="#EB996E"/>
<path d="M130.847 132.58L153.093 124.359L195.34 129.278L222.877 134.548C222.877 134.548 200.195 166.38 178.963 165.115C157.659 163.78 130.847 132.58 130.847 132.58Z" fill="#FFBE9D"/>
<path d="M88.5275 179.45C88.5275 179.45 103.165 146.845 105.557 143.683C105.557 143.683 132.876 130.613 138.528 129.699C138.528 129.699 163.673 167.504 180.412 165.115C197.152 162.726 221.862 132.791 221.862 132.791C221.862 132.791 245.413 140.732 247.587 144.667C252.659 153.872 261.862 184.087 261.862 184.087L228.601 188.303L229.688 255.902L238.674 294.198H120.05L128.6 258.572L120.122 193.363L88.5275 179.45Z" fill="#455A64"/>
<path opacity="0.3" d="M155.267 149.094C155.267 149.094 161.137 181.136 187.586 180.152C187.586 180.152 201.355 179.942 200.92 181.909C200.558 183.806 193.963 188.444 195.268 192.52C196.572 196.595 207.659 245.924 215.34 254.637C223.022 263.35 229.978 264.685 229.978 264.685L216.572 199.476L222.877 175.444L173.601 161.391L155.267 149.094Z" fill="black"/>
<path d="M114.325 159.353C114.325 159.353 114.397 159.493 114.47 159.774C114.542 160.126 114.615 160.547 114.76 161.109C114.977 162.304 115.339 163.92 115.702 165.888C116.499 169.963 117.513 175.585 118.528 181.768C119.615 187.952 120.484 193.644 121.064 197.719C121.354 199.757 121.571 201.444 121.644 202.568C121.716 203.13 121.716 203.552 121.789 203.903C121.789 204.184 121.789 204.395 121.789 204.395C121.789 204.395 121.716 204.254 121.716 203.973C121.644 203.622 121.571 203.2 121.499 202.638C121.354 201.444 121.064 199.827 120.774 197.79C120.122 193.714 119.252 188.093 118.165 181.909C117.078 175.725 116.136 170.104 115.412 166.028C115.049 164.061 114.76 162.374 114.615 161.18C114.542 160.618 114.47 160.196 114.397 159.845C114.325 159.564 114.325 159.353 114.325 159.353Z" fill="#263238"/>
<path d="M117.078 176.147C117.078 176.147 116.716 176.077 116.136 175.936C115.557 175.796 114.687 175.515 113.6 175.233C111.499 174.601 108.6 173.617 105.412 172.423C102.223 171.298 99.3247 170.244 97.2232 169.542C96.2087 169.19 95.4116 168.909 94.7594 168.698C94.1797 168.488 93.8174 168.347 93.8899 168.347C93.8899 168.347 94.2522 168.417 94.8319 168.558C95.4116 168.699 96.2812 168.98 97.3682 169.261C99.4696 169.893 102.368 170.877 105.557 172.071C108.745 173.196 111.644 174.25 113.745 174.952C114.76 175.304 115.557 175.585 116.209 175.796C116.716 176.006 117.078 176.147 117.078 176.147Z" fill="white"/>
<path d="M206.355 185.282C206.355 185.352 186.789 185.493 162.659 185.493C138.528 185.493 118.963 185.422 118.963 185.282C118.963 185.212 138.528 185.071 162.659 185.071C186.789 185.141 206.355 185.212 206.355 185.282Z" fill="white"/>
<path d="M184.036 207.838C184.036 207.908 170.267 208.049 153.311 208.049C136.354 208.049 122.586 207.979 122.586 207.838C122.586 207.698 136.354 207.627 153.311 207.627C170.267 207.627 184.036 207.768 184.036 207.838Z" fill="white"/>
<path d="M212.152 204.044C212.152 204.044 212.369 204.114 212.877 204.184L213.166 204.254H212.877C211.065 204.465 205.485 204.817 198.891 204.746C194.833 204.746 191.137 204.606 188.456 204.395C187.152 204.325 186.065 204.254 185.34 204.184C184.615 204.114 184.181 204.044 184.181 204.044C184.181 204.044 184.615 204.044 185.34 204.044C186.137 204.044 187.224 204.114 188.456 204.184C191.137 204.325 194.76 204.395 198.891 204.395C205.485 204.465 211.065 204.184 212.877 204.114V204.184C212.369 204.184 212.152 204.114 212.152 204.044Z" fill="white"/>
<path d="M163.891 166.59C163.891 166.661 153.311 166.801 140.195 166.801C127.079 166.801 116.499 166.731 116.499 166.59C116.499 166.52 127.079 166.38 140.195 166.38C153.238 166.38 163.891 166.45 163.891 166.59Z" fill="white"/>
<path d="M150.702 145.369C150.702 145.369 150.557 145.44 150.34 145.51C150.05 145.58 149.687 145.721 149.325 145.791C148.383 146.072 147.079 146.423 145.485 146.845C142.224 147.688 137.658 148.742 132.586 149.726C127.513 150.71 122.876 151.412 119.542 151.904C117.876 152.115 116.499 152.326 115.557 152.396C115.122 152.466 114.76 152.466 114.47 152.537C114.252 152.537 114.107 152.537 114.107 152.537C114.107 152.537 114.252 152.466 114.47 152.466C114.76 152.396 115.122 152.396 115.557 152.326C116.571 152.185 117.876 151.975 119.542 151.694C122.876 151.202 127.513 150.429 132.513 149.445C137.586 148.461 142.151 147.477 145.412 146.704C147.006 146.353 148.311 146.002 149.325 145.791C149.76 145.721 150.122 145.65 150.412 145.58C150.557 145.44 150.63 145.369 150.702 145.369Z" fill="white"/>
<path d="M165.267 228.919C165.267 228.989 156.282 228.989 145.122 228.919C134.035 228.848 124.977 228.638 124.977 228.567C124.977 228.497 133.963 228.497 145.122 228.567C156.209 228.638 165.267 228.778 165.267 228.919Z" fill="white"/>
<path d="M169.615 246.767C169.615 246.837 159.977 246.978 148.093 246.978C136.209 246.978 126.571 246.907 126.571 246.767C126.571 246.697 136.209 246.556 148.093 246.556C159.977 246.556 169.615 246.626 169.615 246.767Z" fill="white"/>
<path d="M215.34 244.097C215.34 244.167 206.282 244.307 195.05 244.307C183.891 244.307 174.76 244.237 174.76 244.097C174.76 243.956 183.818 243.886 195.05 243.886C206.282 243.886 215.34 244.026 215.34 244.097Z" fill="white"/>
<path d="M207.659 226.038C207.659 226.108 199.326 226.248 189.036 226.248C178.746 226.248 170.412 226.178 170.412 226.038C170.412 225.967 178.746 225.827 189.036 225.827C199.326 225.827 207.659 225.967 207.659 226.038Z" fill="white"/>
<path d="M162.006 234.891C162.006 234.891 162.079 234.751 162.224 234.61C162.441 234.4 162.659 234.119 162.949 233.767C163.601 233.064 164.543 232.01 165.702 230.746C168.021 228.146 171.137 224.492 174.325 220.346C177.514 216.13 180.195 212.195 182.079 209.314C183.021 207.838 183.746 206.714 184.253 205.871C184.47 205.519 184.688 205.168 184.833 204.957C184.978 204.746 185.05 204.606 185.05 204.676C185.05 204.676 184.978 204.817 184.905 205.027C184.76 205.308 184.615 205.589 184.398 206.011C183.891 206.854 183.239 208.049 182.297 209.525C180.485 212.476 177.804 216.411 174.615 220.627C171.427 224.843 168.238 228.427 165.92 230.956C164.76 232.221 163.746 233.275 163.093 233.908C162.804 234.189 162.514 234.47 162.296 234.681C162.079 234.821 162.006 234.891 162.006 234.891Z" fill="#263238"/>
<path d="M192.659 233.064C192.659 233.064 192.586 233.205 192.297 233.346C192.007 233.556 191.717 233.767 191.282 234.119C190.413 234.751 189.108 235.735 187.514 236.789C184.253 239.037 179.615 241.848 174.253 244.589C168.891 247.329 163.818 249.367 160.05 250.702C158.166 251.334 156.644 251.896 155.63 252.178C155.122 252.318 154.76 252.459 154.398 252.529C154.108 252.599 153.963 252.669 153.963 252.599C153.963 252.599 154.108 252.529 154.398 252.459C154.688 252.318 155.122 252.178 155.63 252.037C156.644 251.686 158.166 251.124 160.05 250.421C163.746 249.015 168.818 246.907 174.18 244.237C179.543 241.497 184.181 238.686 187.441 236.508C189.108 235.454 190.413 234.54 191.282 233.908C191.717 233.627 192.079 233.346 192.297 233.205C192.514 233.135 192.659 232.994 192.659 233.064Z" fill="#263238"/>
<path d="M257.949 172.774C257.949 172.774 257.515 172.915 256.79 173.125C255.993 173.336 254.906 173.617 253.529 173.969C250.775 174.671 246.935 175.585 242.659 176.569C238.456 177.552 234.616 178.396 231.79 179.098C230.413 179.379 229.326 179.66 228.529 179.871C227.732 180.082 227.297 180.152 227.297 180.082C227.297 180.082 227.732 179.941 228.456 179.731C229.253 179.52 230.34 179.239 231.717 178.887C234.471 178.185 238.312 177.271 242.587 176.288C246.79 175.304 250.63 174.461 253.457 173.758C254.833 173.477 255.92 173.196 256.718 172.985C257.515 172.844 257.949 172.774 257.949 172.774Z" fill="white"/>
<path d="M254.399 161.32C254.399 161.32 254.036 161.461 253.384 161.742C252.659 162.023 251.717 162.374 250.63 162.796C248.239 163.709 244.978 164.904 241.427 166.239C237.804 167.574 234.543 168.769 232.224 169.612C231.065 170.034 230.051 170.385 229.398 170.596C228.746 170.807 228.384 170.947 228.311 170.877C228.311 170.877 228.674 170.736 229.326 170.455C230.051 170.174 230.993 169.823 232.08 169.401C234.471 168.488 237.732 167.293 241.283 165.958C244.906 164.623 248.167 163.428 250.486 162.585C251.645 162.164 252.659 161.812 253.312 161.601C254.036 161.391 254.399 161.25 254.399 161.32Z" fill="white"/>
<path d="M228.456 268.55C228.456 268.62 205.92 268.761 178.094 268.761C150.267 268.761 127.731 268.691 127.731 268.55C127.731 268.48 150.267 268.339 178.094 268.339C205.92 268.339 228.456 268.41 228.456 268.55Z" fill="white"/>
<path d="M236.138 287.663C236.138 287.663 236.21 287.663 236.427 287.663C236.645 287.663 236.935 287.663 237.297 287.663V287.733C231.935 287.804 208.094 287.874 179.543 287.874C163.238 287.874 148.528 287.804 137.876 287.804C132.586 287.804 128.238 287.733 125.267 287.733C128.238 287.733 132.586 287.733 137.876 287.663C148.528 287.663 163.311 287.663 179.543 287.593C208.094 287.593 231.935 287.663 237.297 287.733V287.804C236.935 287.804 236.645 287.804 236.427 287.804C236.21 287.663 236.138 287.663 236.138 287.663Z" fill="white"/>
<path d="M173.021 137.57C173.021 137.57 177.441 146.072 183.601 140.732C183.601 140.732 185.557 144.877 189.543 144.034C193.456 143.191 192.876 138.483 192.876 138.483C192.876 138.483 195.992 139.748 198.094 138.342C201.355 136.164 200.413 130.683 200.413 130.683L243.964 120.916L247.225 124.078L245.775 143.191L224.833 167.223L200.558 172.352L174.76 163.569L165.63 154.083L159.833 140.732L173.021 137.57Z" fill="#FF725E"/>
<path opacity="0.2" d="M200.413 130.683C200.413 130.683 201.355 136.164 198.094 138.342C195.992 139.748 192.876 138.483 192.876 138.483C192.876 138.483 193.529 143.191 189.543 144.034C185.557 144.877 183.601 140.732 183.601 140.732C177.441 146.072 173.021 137.57 173.021 137.57L159.833 140.661L165.63 154.012L174.76 163.499C174.76 163.499 182.007 169.542 187.949 167.926C193.891 166.309 201.934 162.796 204.905 147.969C206.282 140.942 206.934 129.137 206.934 129.137L200.413 130.683Z" fill="white"/>
<path d="M152.296 142.488C152.296 142.488 165.05 189.006 216.065 175.374C267.08 161.742 253.239 118.667 253.239 118.667L249.544 119.511C249.544 119.511 248.674 163.639 210.775 169.823C172.876 176.006 158.818 140.872 158.818 140.872L155.992 141.505L152.296 142.488Z" fill="#455A64"/>
<path d="M161.499 140.31C161.499 140.31 171.862 175.796 214.108 166.099C214.108 166.099 238.094 161.882 243.239 144.667C248.384 127.451 243.891 120.916 243.891 120.916L249.544 119.581C249.544 119.581 250.775 138.553 248.022 143.964C245.268 149.375 237.949 166.801 214.688 172.142C191.427 177.482 174.76 168.698 165.992 158.58C157.224 148.461 155.992 141.645 155.992 141.645L160.34 140.591L161.499 140.31Z" fill="#455A64"/>
<path d="M161.499 140.31C161.499 140.31 171.862 175.796 214.108 166.099C214.108 166.099 237.442 160.547 242.659 143.402C247.804 126.186 243.964 120.916 243.964 120.916L249.616 119.581C249.616 119.581 251.718 135.391 248.094 143.964C244.833 151.694 238.022 166.801 214.761 172.142C191.5 177.482 174.833 168.698 166.065 158.58C157.296 148.461 156.064 141.645 156.064 141.645L160.412 140.591L161.499 140.31Z" fill="white"/>
<path d="M212.587 154.083C212.514 153.942 212.224 153.942 212.152 154.083C211.717 154.926 210.92 157.034 211.355 158.228C212.007 159.704 213.384 159.353 213.891 158.931C214.616 158.369 214.761 157.385 213.819 155.98C213.384 155.277 212.877 154.504 212.587 154.083Z" fill="#263238"/>
<path d="M185.557 154.083C185.485 153.942 185.195 153.942 185.123 154.083C184.688 154.926 183.891 157.034 184.326 158.228C184.978 159.704 186.355 159.353 186.862 158.931C187.586 158.369 187.731 157.385 186.789 155.98C186.355 155.277 185.847 154.504 185.557 154.083Z" fill="#263238"/>
<path d="M223.674 141.013C223.601 140.872 223.311 140.872 223.239 141.013C222.804 141.856 222.007 143.964 222.442 145.159C223.094 146.634 224.471 146.283 224.978 145.861C225.703 145.299 225.848 144.315 224.906 142.91C224.471 142.207 223.964 141.434 223.674 141.013Z" fill="#263238"/>
<path d="M237.37 141.926C237.297 141.786 237.007 141.786 236.935 141.926C236.5 142.769 235.703 144.877 236.138 146.072C236.79 147.548 238.167 147.196 238.674 146.775C239.399 146.213 239.544 145.229 238.601 143.823C238.094 143.121 237.659 142.348 237.37 141.926Z" fill="#263238"/>
<path d="M232.297 128.294C232.225 128.154 231.935 128.154 231.862 128.294C231.427 129.137 230.63 131.245 231.065 132.44C231.717 133.916 233.094 133.564 233.601 133.143C234.326 132.58 234.471 131.597 233.529 130.191C233.022 129.489 232.514 128.716 232.297 128.294Z" fill="#263238"/>
<path d="M209.833 133.845C209.761 133.705 209.471 133.705 209.398 133.845C208.963 134.689 208.166 136.797 208.601 137.991C209.253 139.467 210.63 139.115 211.137 138.694C211.862 138.132 212.007 137.148 211.065 135.743C210.63 135.04 210.123 134.267 209.833 133.845Z" fill="#263238"/>
<path d="M170.557 141.083C170.485 140.942 170.195 140.942 170.123 141.083C169.688 141.926 168.891 144.034 169.325 145.229C169.978 146.704 171.354 146.353 171.862 145.931C172.586 145.369 172.731 144.386 171.789 142.98C171.354 142.278 170.847 141.505 170.557 141.083Z" fill="#263238"/>
<path d="M200.123 146.353C200.05 146.213 199.76 146.213 199.688 146.353C199.253 147.196 198.456 149.304 198.891 150.499C199.543 151.975 200.92 151.623 201.427 151.202C202.152 150.639 202.297 149.656 201.355 148.25C200.92 147.618 200.413 146.775 200.123 146.353Z" fill="#263238"/>
<path d="M206.934 164.834C206.934 164.834 206.79 164.904 206.5 164.904C206.137 164.904 205.775 164.974 205.268 165.045C204.978 165.045 204.688 165.115 204.326 165.115C203.963 165.115 203.601 165.115 203.239 165.115C202.442 165.115 201.572 165.185 200.558 165.115C200.05 165.115 199.543 165.045 199.036 165.045C198.529 165.045 197.949 164.904 197.369 164.904C196.21 164.834 194.978 164.553 193.746 164.342C191.21 163.78 188.456 163.007 185.63 161.882C182.876 160.758 180.34 159.353 178.166 157.947C177.079 157.174 176.065 156.542 175.195 155.769C174.76 155.418 174.325 155.066 173.891 154.715C173.528 154.364 173.094 154.012 172.731 153.661C172.007 153.029 171.427 152.396 170.847 151.834C170.557 151.553 170.34 151.272 170.123 151.061C169.905 150.78 169.76 150.569 169.543 150.358C169.253 149.937 168.963 149.656 168.746 149.375C168.601 149.164 168.456 149.023 168.528 149.023C168.528 149.023 168.673 149.094 168.818 149.304C169.036 149.515 169.325 149.867 169.615 150.218C169.833 150.429 169.978 150.639 170.195 150.921C170.412 151.131 170.702 151.412 170.92 151.694C171.499 152.256 172.079 152.888 172.804 153.521C173.166 153.872 173.528 154.153 173.963 154.504C174.325 154.856 174.833 155.137 175.267 155.558C176.137 156.261 177.152 156.964 178.239 157.666C180.412 159.072 182.876 160.407 185.63 161.531C188.384 162.655 191.137 163.428 193.673 163.991C194.978 164.201 196.137 164.482 197.297 164.553C197.876 164.623 198.384 164.693 198.963 164.763C199.471 164.763 199.978 164.834 200.485 164.834C201.427 164.904 202.369 164.904 203.094 164.904C203.456 164.904 203.819 164.904 204.181 164.904C204.543 164.904 204.833 164.834 205.123 164.834C205.63 164.834 206.065 164.763 206.355 164.763C206.79 164.834 206.934 164.834 206.934 164.834Z" fill="white"/>
<path d="M235.703 123.797C235.703 123.867 228.674 125.624 220.05 127.662C211.355 129.699 204.326 131.245 204.253 131.105C204.253 131.035 211.282 129.278 219.906 127.24C228.601 125.202 235.703 123.656 235.703 123.797Z" fill="white"/>
<path d="M253.239 118.667C253.239 118.667 253.312 118.808 253.384 119.019C253.457 119.3 253.602 119.651 253.674 120.143C253.891 121.127 254.254 122.602 254.544 124.57C255.051 128.435 255.486 134.197 254.109 141.083C253.384 144.526 252.225 148.18 250.196 151.834C248.239 155.488 245.485 159.072 242.007 162.234C238.529 165.466 234.398 168.207 229.688 170.455C225.051 172.704 219.978 174.461 214.616 175.796C209.253 177.131 203.891 177.904 198.746 177.974C193.528 178.044 188.528 177.271 183.963 175.866C179.398 174.461 175.34 172.352 171.862 169.963C168.383 167.574 165.557 164.834 163.238 162.164C158.601 156.753 155.919 151.623 154.325 148.04C153.528 146.213 153.021 144.807 152.659 143.823C152.514 143.332 152.369 142.98 152.296 142.699C152.224 142.418 152.224 142.278 152.224 142.278C152.224 142.278 152.296 142.418 152.369 142.629C152.441 142.91 152.586 143.261 152.731 143.753C153.093 144.737 153.601 146.142 154.47 147.899C156.137 151.483 158.818 156.542 163.456 161.882C165.775 164.553 168.601 167.223 172.079 169.612C175.485 172.001 179.543 174.039 184.108 175.444C188.601 176.85 193.601 177.552 198.818 177.482C203.963 177.482 209.326 176.639 214.616 175.304C219.906 173.969 224.978 172.212 229.616 169.963C234.253 167.715 238.384 164.974 241.862 161.812C245.341 158.65 248.022 155.066 249.978 151.483C252.007 147.899 253.167 144.175 253.891 140.802C255.341 133.986 254.978 128.224 254.471 124.359C254.181 122.392 253.891 120.916 253.674 119.932C253.529 119.44 253.457 119.019 253.384 118.808C253.312 118.808 253.239 118.667 253.239 118.667Z" fill="#263238"/>
<path d="M220.848 199.336L241.79 234.4C241.79 234.4 252.877 245.221 253.891 251.405C254.978 257.588 248.167 275.999 237.225 272.485C226.282 268.972 223.601 256.394 217.659 246.556C211.717 236.718 202.659 198.211 202.659 198.211L207.949 197.93L220.848 199.336Z" fill="#FFBE9D"/>
<path d="M252.37 185.282C252.37 185.282 252.37 193.293 252.37 199.476C252.37 205.59 253.964 253.723 253.964 253.723L232.08 247.61L227.877 217.535L228.601 188.303L252.37 185.282Z" fill="#FFBE9D"/>
<path opacity="0.3" d="M206.572 172.563C206.572 172.563 200.92 162.304 201.21 159.915C201.427 157.526 203.384 157.315 203.384 157.315L215.123 172.142C215.123 172.142 216.862 171.72 216.645 169.471C216.355 167.223 211.934 155.839 212.079 153.029C212.297 150.218 214.398 149.656 214.398 149.656L224.761 168.769L226.5 164.272C226.5 164.272 221.065 153.45 220.63 150.78C220.195 148.11 222.007 146.775 222.007 146.775L231.645 163.709L228.819 168.628C228.819 168.628 222.007 172.142 214.398 172.563C206.645 173.055 206.572 172.563 206.572 172.563Z" fill="black"/>
<path d="M233.529 150.148L240.485 155.91L242.732 166.38L235.341 172.704C235.341 172.704 235.558 178.255 233.529 180.223C231.5 182.19 221.645 192.871 220.848 199.476L202.659 198.282C202.659 198.282 201.645 194.909 204.108 190.552C206.572 186.195 209.036 180.855 209.036 180.855L208.819 173.336C208.819 173.336 199.616 158.65 201.427 157.456C203.239 156.261 204.253 156.261 205.703 157.877C207.152 159.493 214.471 171.72 216.355 171.369C218.166 170.947 218.601 168.628 218.601 168.628C218.601 168.628 211.862 153.942 212.659 151.202C212.732 150.85 212.877 150.569 212.949 150.288C213.529 148.742 215.703 148.531 216.572 149.937L224.109 162.515L226.935 171.861L228.167 162.726C228.167 162.726 220.195 150.077 220.993 146.845C221.79 143.683 223.819 145.088 223.819 145.088L231.79 154.223C231.862 154.083 231.283 151.694 233.529 150.148Z" fill="#FFBE9D"/>
<path d="M234.543 175.444C234.543 175.444 234.543 175.163 234.543 174.601C234.543 173.969 234.616 173.196 234.616 172.282C234.688 170.315 234.906 167.574 235.123 164.553C235.196 163.077 235.268 161.601 235.123 160.337C234.978 159.072 234.616 157.947 234.109 157.104C233.167 155.347 231.935 154.785 232.007 154.715C232.007 154.715 232.297 154.785 232.804 155.137C233.239 155.488 233.891 156.05 234.398 156.964C234.906 157.807 235.34 159.001 235.485 160.266C235.703 161.601 235.63 163.007 235.485 164.553C235.268 167.574 235.051 170.244 234.906 172.212C234.833 173.125 234.761 173.898 234.688 174.531C234.616 175.093 234.543 175.444 234.543 175.444Z" fill="#EB996E"/>
<path d="M224.688 183.104C224.688 183.033 225.051 182.963 225.63 182.752C226.138 182.541 226.862 182.05 227.369 181.347C227.877 180.644 228.022 179.801 228.022 179.239C228.022 178.677 227.949 178.325 228.022 178.255C228.094 178.255 228.239 178.606 228.311 179.239C228.384 179.871 228.239 180.714 227.659 181.558C227.08 182.331 226.282 182.823 225.703 183.033C225.051 183.174 224.688 183.104 224.688 183.104Z" fill="#EB996E"/>
<path d="M219.326 173.969C219.253 173.898 219.543 172.985 219.471 171.72C219.398 170.526 218.964 169.542 219.036 169.542C219.108 169.471 219.761 170.385 219.833 171.72C219.906 173.055 219.398 174.039 219.326 173.969Z" fill="#EB996E"/>
<path d="M216.572 184.72C216.572 184.649 216.862 184.579 217.369 184.298C217.804 184.017 218.384 183.525 218.674 182.893C218.963 182.19 218.963 181.487 218.891 180.996C218.819 180.504 218.674 180.223 218.674 180.152C218.674 180.152 218.963 180.363 219.108 180.925C219.253 181.417 219.326 182.26 218.963 183.033C218.601 183.806 217.949 184.298 217.442 184.579C216.934 184.79 216.572 184.79 216.572 184.72Z" fill="#EB996E"/>
<path d="M251.5 246.837C251.5 246.837 251.428 246.767 251.283 246.626C251.138 246.486 250.993 246.205 250.703 245.994C250.196 245.361 249.544 244.518 248.674 243.464C246.935 241.286 244.471 238.194 241.572 234.54C239.616 231.378 237.442 227.724 235.123 223.859C231.138 217.184 227.514 211.141 224.906 206.714C223.601 204.535 222.587 202.779 221.862 201.514C221.5 200.952 221.282 200.46 221.065 200.109C220.848 199.757 220.775 199.617 220.775 199.617C220.775 199.617 220.92 199.757 221.137 200.109C221.355 200.46 221.645 200.952 222.007 201.514C222.804 202.779 223.819 204.535 225.195 206.644C227.877 211.07 231.5 217.043 235.485 223.719C237.804 227.584 239.978 231.238 241.935 234.47C244.761 238.124 247.225 241.286 248.891 243.464C249.688 244.518 250.341 245.432 250.848 245.994C251.065 246.275 251.21 246.486 251.355 246.697C251.5 246.697 251.5 246.767 251.5 246.837Z" fill="#EB996E"/>
<path d="M116.281 58.5174L108.962 46.9231C110.774 40.6692 110.774 33.8532 108.818 27.1074C103.02 7.85381 82.1506 -3.24862 62.2954 2.37286C42.4401 7.99435 30.9907 28.2317 36.7879 47.4853C42.585 66.7389 63.4548 77.8413 83.31 72.2198C91.6435 69.9009 98.4551 64.9821 103.165 58.658L116.281 58.5174Z" fill="white"/>
<path d="M116.281 58.5174C115.629 58.5174 111.571 58.658 103.093 58.7985C103.02 58.7985 103.02 58.7282 103.02 58.7282L103.165 58.7985C101.716 60.766 99.832 62.8741 97.4406 64.9119C95.0493 66.9497 92.1507 68.9172 88.7449 70.4631C87.0057 71.236 85.1941 71.9387 83.2376 72.5009C82.2231 72.7117 81.2086 72.9928 80.1941 73.2036C79.6868 73.3441 79.1796 73.4144 78.5999 73.4846C78.0926 73.5549 77.5129 73.6252 77.0057 73.6954C72.7303 74.1873 68.0201 73.9765 63.3823 72.782C58.6722 71.6577 54.0344 69.4793 49.8315 66.3875C45.6286 63.2957 41.9329 59.2201 39.3241 54.3716C36.7154 49.5231 35.1937 43.9718 35.0488 38.2098C34.9038 36.8045 35.1212 35.3288 35.1937 33.8532C35.1937 33.1505 35.3386 32.3775 35.4835 31.6749C35.6285 30.9722 35.7009 30.1992 35.8459 29.4965C36.5705 26.6858 37.4401 23.8048 38.8894 21.1346C39.4691 19.7995 40.3387 18.5346 41.1358 17.2698C41.4981 16.6374 42.0053 16.0752 42.4401 15.5131C42.8749 14.9509 43.3097 14.3185 43.8169 13.7564C45.7735 11.578 47.875 9.54026 50.2663 7.92408C54.9765 4.55119 60.4113 2.3026 65.8461 1.31884C71.3534 0.335077 76.8607 0.616153 81.8608 1.88099C86.9333 3.14582 91.4985 5.32415 95.2667 8.13489C99.1073 10.9456 102.151 14.3185 104.47 17.8319C104.977 18.7454 105.629 19.5887 106.064 20.5022C106.499 21.4156 106.933 22.3291 107.368 23.2426C107.731 24.1561 108.02 25.0696 108.383 25.9831C108.745 26.8966 108.962 27.7398 109.18 28.6533C110.049 32.237 110.339 35.6099 110.194 38.7017C110.049 41.7935 109.542 44.534 108.89 46.9231V46.8529C113.673 54.3716 115.992 58.0256 116.281 58.5174C115.919 57.9553 113.6 54.3716 108.89 46.9934V46.9231C110.194 42.2854 110.919 35.891 109.107 28.7938C108.89 27.8803 108.6 27.0371 108.31 26.1236C107.948 25.2101 107.658 24.2967 107.296 23.4534C106.861 22.5399 106.426 21.6967 105.991 20.7832C105.557 19.8697 104.904 19.0265 104.397 18.113C102.078 14.5996 99.0348 11.297 95.2667 8.48623C91.4985 5.74576 86.9333 3.56743 81.9332 2.3026C76.9332 1.03776 71.4984 0.826958 66.0635 1.74045C60.6287 2.72421 55.3388 4.90253 50.6286 8.27542C48.2373 9.8916 46.2083 11.9294 44.2517 14.1077C43.7445 14.6699 43.3822 15.232 42.8749 15.7942C42.4401 16.3563 41.9329 16.9185 41.5706 17.5509C40.7734 18.8157 39.9763 20.0103 39.3241 21.3454C37.8749 23.9453 37.0053 26.8263 36.2806 29.6371C36.1357 30.3397 36.0633 31.0424 35.9183 31.7451C35.7734 32.4478 35.6285 33.1505 35.6285 33.8532C35.556 35.2585 35.3386 36.7342 35.4835 38.1396C35.6285 43.8313 37.1502 49.3123 39.6865 54.0905C42.2952 58.8688 45.9184 62.8741 50.0489 65.9659C54.1794 69.0577 58.8171 71.1658 63.4548 72.2901C68.0925 73.4846 72.7303 73.6954 77.0057 73.2036C77.5129 73.1333 78.0926 73.063 78.5999 72.9928C79.1071 72.9225 79.6144 72.8522 80.1216 72.7117C81.1361 72.5009 82.1506 72.2198 83.0927 72.009C85.0492 71.4468 86.8608 70.8144 88.6 70.0415C92.0058 68.4956 94.9044 66.5983 97.2957 64.5605C99.687 62.593 101.571 60.485 103.02 58.5174C103.02 58.4472 103.093 58.4472 103.165 58.5174C103.165 58.5174 103.238 58.5877 103.165 58.5877L103.093 58.4472C111.571 58.5877 115.702 58.5877 116.281 58.5174Z" fill="#263238"/>
<path d="M57.3678 34.6261C57.5127 32.6586 58.3823 30.7614 59.6867 29.2155C60.9186 27.7398 62.6577 26.475 64.5418 25.9831C66.5708 25.421 68.8896 25.7723 70.7013 26.8966C71.7882 27.529 72.6578 28.4425 73.31 29.4965C73.8172 28.5128 74.6143 27.5993 75.4839 26.9669C77.1506 25.702 79.397 25.2101 81.4985 25.5615C83.455 25.9128 85.2666 26.9669 86.6434 28.3722C88.0927 29.7776 89.1797 31.6046 89.4695 33.5721C89.9043 36.0315 89.542 38.772 88.3101 40.9503C87.0058 43.2692 84.8318 45.1664 82.5854 46.6421C78.8173 49.1015 73.8172 52.1933 73.8172 52.1933C73.8172 52.1933 69.3244 49.242 65.3389 47.1339C62.9476 45.8691 60.6287 44.1827 59.1069 42.0043C57.8026 39.7557 57.1504 37.0855 57.3678 34.6261Z" fill="#D84A05"/>
</svg>
