<svg width="25" height="25" viewBox="0 0 25 25" fill="none" xmlns="http://www.w3.org/2000/svg">
<path d="M3.125 25C2.26563 25 1.52969 24.72 0.91719 24.16C0.30469 23.6 -0.00103901 22.9276 2.6528e-06 22.1429V9.28571C2.6528e-06 8.83333 0.11094 8.40476 0.332815 8C0.55469 7.59524 0.860419 7.2619 1.25 7L10.625 0.571429C10.9115 0.380952 11.2109 0.238095 11.5234 0.142857C11.8359 0.0476189 12.1615 0 12.5 0C12.8385 0 13.1641 0.0476189 13.4766 0.142857C13.7891 0.238095 14.0885 0.380952 14.375 0.571429L23.75 7C24.1406 7.2619 24.4469 7.59524 24.6687 8C24.8906 8.40476 25.001 8.83333 25 9.28571V22.1429C25 22.9286 24.6937 23.6014 24.0812 24.1614C23.4687 24.7214 22.7333 25.0009 21.875 25H15.625V15H9.375V25H3.125Z" fill="#D84A05"/>
</svg>
