<svg width="31" height="30" viewBox="0 0 31 30" fill="none" xmlns="http://www.w3.org/2000/svg">
<path d="M11.1401 19.6518L20.4748 10.3171" stroke="#D84A05" stroke-width="2" stroke-linecap="round" stroke-linejoin="round"/>
<path d="M11.918 11.8729C12.3476 11.8729 12.6959 11.5246 12.6959 11.095C12.6959 10.6654 12.3476 10.3171 11.918 10.3171C11.4884 10.3171 11.1401 10.6654 11.1401 11.095C11.1401 11.5246 11.4884 11.8729 11.918 11.8729Z" fill="#D84A05" stroke="#D84A05" stroke-width="2" stroke-linecap="round" stroke-linejoin="round"/>
<path d="M19.6968 19.6519C20.1264 19.6519 20.4747 19.3036 20.4747 18.874C20.4747 18.4444 20.1264 18.0961 19.6968 18.0961C19.2672 18.0961 18.9189 18.4444 18.9189 18.874C18.9189 19.3036 19.2672 19.6519 19.6968 19.6519Z" fill="#D84A05" stroke="#D84A05" stroke-width="2" stroke-linecap="round" stroke-linejoin="round"/>
<path d="M4.91703 7.51673C4.91703 6.60897 5.27763 5.7384 5.91952 5.09652C6.5614 4.45464 7.43197 4.09403 8.33973 4.09403H9.8955C10.7992 4.09351 11.6661 3.73558 12.3069 3.09834L13.396 2.0093C13.7141 1.68943 14.0922 1.43559 14.5087 1.26238C14.9253 1.08917 15.3719 1 15.823 1C16.2741 1 16.7207 1.08917 17.1372 1.26238C17.5538 1.43559 17.9319 1.68943 18.25 2.0093L19.339 3.09834C19.9799 3.73558 20.8467 4.09351 21.7505 4.09403H23.3063C24.214 4.09403 25.0846 4.45464 25.7265 5.09652C26.3684 5.7384 26.729 6.60897 26.729 7.51673V9.0725C26.7295 9.97625 27.0874 10.8431 27.7247 11.484L28.8137 12.573C29.1336 12.8911 29.3874 13.2692 29.5606 13.6857C29.7338 14.1023 29.823 14.5489 29.823 15C29.823 15.4511 29.7338 15.8977 29.5606 16.3142C29.3874 16.7308 29.1336 17.1089 28.8137 17.427L27.7247 18.516C27.0874 19.1569 26.7295 20.0237 26.729 20.9275V22.4833C26.729 23.391 26.3684 24.2616 25.7265 24.9035C25.0846 25.5454 24.214 25.906 23.3063 25.906H21.7505C20.8467 25.9065 19.9799 26.2644 19.339 26.9017L18.25 27.9907C17.9319 28.3106 17.5538 28.5644 17.1372 28.7376C16.7207 28.9108 16.2741 29 15.823 29C15.3719 29 14.9253 28.9108 14.5087 28.7376C14.0922 28.5644 13.7141 28.3106 13.396 27.9907L12.3069 26.9017C11.6661 26.2644 10.7992 25.9065 9.8955 25.906H8.33973C7.43197 25.906 6.5614 25.5454 5.91952 24.9035C5.27763 24.2616 4.91703 23.391 4.91703 22.4833V20.9275C4.91651 20.0237 4.55858 19.1569 3.92133 18.516L2.83229 17.427C2.51243 17.1089 2.25859 16.7308 2.08538 16.3142C1.91217 15.8977 1.823 15.4511 1.823 15C1.823 14.5489 1.91217 14.1023 2.08538 13.6857C2.25859 13.2692 2.51243 12.8911 2.83229 12.573L3.92133 11.484C4.55858 10.8431 4.91651 9.97625 4.91703 9.0725V7.51673Z" stroke="#D84A05" stroke-width="2" stroke-linecap="round" stroke-linejoin="round"/>
</svg>
