<svg width="33" height="33" viewBox="0 0 33 33" fill="none" xmlns="http://www.w3.org/2000/svg">
<path d="M30.9577 16.8202C30.9577 25.0051 24.3225 31.6403 16.1375 31.6403C7.95259 31.6403 1.31738 25.0051 1.31738 16.8202C1.31738 8.63521 7.95259 2 16.1375 2C24.3225 2 30.9577 8.63521 30.9577 16.8202Z" fill="#D84A05"/>
<path d="M16.4016 17.0696C14.9215 17.0696 13.6545 16.5426 12.6006 15.4886C11.5466 14.4346 11.0196 13.1676 11.0196 11.6876C11.0196 10.2076 11.5466 8.94057 12.6006 7.88661C13.6545 6.83265 14.9215 6.30566 16.4016 6.30566C17.8816 6.30566 19.1486 6.83265 20.2026 7.88661C21.2565 8.94057 21.7835 10.2076 21.7835 11.6876C21.7835 13.1676 21.2565 14.4346 20.2026 15.4886C19.1486 16.5426 17.8816 17.0696 16.4016 17.0696ZM5.6377 27.8334V24.0661C5.6377 23.3036 5.83414 22.6026 6.22702 21.9631C6.6199 21.3235 7.14105 20.836 7.79047 20.5005C9.18081 19.8054 10.5936 19.2838 12.0288 18.9357C13.4639 18.5877 14.9215 18.4141 16.4016 18.415C17.8816 18.415 19.3392 18.5891 20.7744 18.9371C22.2096 19.2851 23.6224 19.8063 25.0127 20.5005C25.663 20.8369 26.1846 21.3249 26.5775 21.9644C26.9704 22.604 27.1664 23.3045 27.1655 24.0661V27.8334H5.6377Z" fill="white"/>
<mask id="mask0_1400_1808" style="mask-type:alpha" maskUnits="userSpaceOnUse" x="1" y="2" width="31" height="30">
<path d="M31.332 17C31.332 25.2843 24.6163 32 16.332 32C8.04776 32 1.33203 25.2843 1.33203 17C1.33203 8.71573 8.04776 2 16.332 2C24.6163 2 31.332 8.71573 31.332 17Z" fill="#868686"/>
</mask>
<g mask="url(#mask0_1400_1808)">
<path d="M27.1655 27.4029C27.1655 28.0248 26.8871 28.6407 26.3461 29.2153C25.8052 29.7899 25.0123 30.312 24.0128 30.7518C23.0133 31.1916 21.8267 31.5404 20.5207 31.7785C19.2148 32.0165 17.8151 32.139 16.4016 32.139C14.988 32.139 13.5884 32.0165 12.2824 31.7785C10.9765 31.5404 9.78988 31.1916 8.79036 30.7518C7.79085 30.312 6.99798 29.7899 6.45705 29.2153C5.91611 28.6407 5.6377 28.0248 5.6377 27.4029L16.4016 27.4029H27.1655Z" fill="white"/>
</g>
</svg>
