<svg width="32" height="31" viewBox="0 0 32 31" fill="none" xmlns="http://www.w3.org/2000/svg">
<path d="M9.23235 13.7766C11.1634 17.5369 14.2745 20.6062 18.0695 22.5328L21.0197 19.6096C21.3818 19.2509 21.9182 19.1313 22.3876 19.2907C23.8895 19.7824 25.5121 20.0481 27.1749 20.0481C27.9125 20.0481 28.5159 20.646 28.5159 21.3768V26.014C28.5159 26.7448 27.9125 27.3427 27.1749 27.3427C14.5829 27.3427 4.37793 17.2313 4.37793 4.75473C4.37793 4.02394 4.98138 3.42603 5.71893 3.42603H10.4124C11.15 3.42603 11.7534 4.02394 11.7534 4.75473C11.7534 6.41561 12.0216 8.01005 12.5178 9.4982C12.6653 9.96325 12.558 10.4814 12.1826 10.8535L9.23235 13.7766Z" fill="#D84A05"/>
</svg>
