<svg width="10" height="17" viewBox="0 0 10 17" fill="none" xmlns="http://www.w3.org/2000/svg">
<path d="M7.45884 15.9566L0.235781 8.74067C0.150047 8.65476 0.0891763 8.5617 0.0531682 8.46148C0.0171601 8.36126 -0.000558161 8.25388 1.33959e-05 8.13934C1.33959e-05 8.02481 0.0180174 7.91743 0.0540255 7.81721C0.0900337 7.71699 0.150619 7.62392 0.235781 7.53802L7.45884 0.300662C7.65888 0.100221 7.90894 0 8.209 0C8.50907 0 8.76627 0.107379 8.98061 0.322138C9.19494 0.536896 9.30211 0.787448 9.30211 1.07379C9.30211 1.36014 9.19494 1.61069 8.98061 1.82545L2.67919 8.13934L8.98061 14.4532C9.18065 14.6537 9.28067 14.9008 9.28067 15.1946C9.28067 15.4884 9.17351 15.7424 8.95917 15.9566C8.74484 16.1713 8.49478 16.2787 8.209 16.2787C7.92323 16.2787 7.67317 16.1713 7.45884 15.9566Z" fill="white"/>
</svg>
