<svg width="152" height="218" viewBox="0 0 152 218" fill="none" xmlns="http://www.w3.org/2000/svg">
<path d="M116.963 150.189H36.8348V161.199H116.963V150.189Z" fill="#263238"/>
<path d="M117.181 161.308H36.7258V149.971H117.181V161.308ZM37.0528 161.09H116.963V150.407H37.0528V161.09Z" fill="#263238"/>
<path d="M44.3571 157.493L55.804 214.4H98.5391L109.659 161.199L44.3571 157.493Z" fill="#263238"/>
<path d="M44.3571 209.058L50.4621 217.562H102.355L109.659 209.058H44.3571Z" fill="#455A64"/>
<path d="M73.901 159.237C73.792 159.237 73.574 132.855 73.465 100.367C73.3559 67.88 73.465 41.4976 73.574 41.4976C73.683 41.4976 73.901 67.88 74.0101 100.367C74.1191 132.855 74.1191 159.237 73.901 159.237Z" fill="#263238"/>
<path d="M91.78 93.1722C91.78 93.1722 91.6709 93.3902 91.5619 93.8262C91.3439 94.2623 91.1258 94.8074 90.7988 95.5705C90.6898 95.8976 90.4717 96.3337 90.2537 96.7697C90.0357 97.2058 89.9267 97.7509 89.7086 98.296C89.4906 98.8411 89.2725 99.3862 89.0545 100.04C88.8365 100.694 88.6184 101.348 88.5094 102.003C87.6373 104.728 86.9832 108.108 86.22 111.814C85.6749 115.521 85.2389 119.664 85.0208 124.133C84.5848 132.855 85.1299 140.813 85.6749 146.591C85.893 149.425 86.22 151.715 86.329 153.35C86.4381 154.113 86.4381 154.658 86.5471 155.203C86.5471 155.639 86.5471 155.858 86.5471 155.858C86.5471 155.858 86.4381 155.639 86.4381 155.203C86.3291 154.767 86.22 154.113 86.111 153.35C85.893 151.715 85.5659 149.425 85.2389 146.591C84.5848 140.922 84.0397 132.855 84.4757 124.133C84.6938 119.773 85.1298 115.521 85.784 111.814C86.4381 108.108 87.2012 104.728 88.1824 102.003C88.4004 101.348 88.6184 100.694 88.8365 100.04C89.0545 99.3862 89.2725 98.8411 89.4906 98.296C89.7086 97.7509 89.9267 97.3148 90.0357 96.7697C90.2537 96.3337 90.4717 95.8976 90.5808 95.5705C90.9078 94.9164 91.2349 94.3713 91.3439 93.9353C91.6709 93.3902 91.78 93.1722 91.78 93.1722Z" fill="#263238"/>
<path d="M89.7087 71.9136C89.7087 71.9136 89.5996 72.2407 89.4906 72.7858C89.2726 73.4399 89.0545 74.203 88.6185 75.1842C88.4004 75.7293 88.1824 76.2743 87.9644 76.9284C87.7463 77.5825 87.5283 78.3457 87.3103 79.1088C86.8742 80.6351 86.3291 82.3794 85.784 84.3417C85.566 85.3228 85.2389 86.304 85.0209 87.3942C84.8028 88.4844 84.4758 89.5745 84.2578 90.7737C83.7127 93.0631 83.2766 95.5705 82.7315 98.187C81.8594 103.42 81.0962 109.198 80.5511 115.303C80.0061 121.408 79.788 127.295 79.788 132.528C79.788 137.87 79.788 142.666 80.0061 146.591C80.1151 148.553 80.2241 150.407 80.3331 152.042C80.4421 153.677 80.5511 154.985 80.6602 156.076C80.7692 157.166 80.7692 158.038 80.8782 158.692C80.8782 159.237 80.8782 159.564 80.8782 159.564C80.8782 159.564 80.7692 159.237 80.7692 158.692C80.6602 158.038 80.5511 157.166 80.4421 156.076C80.3331 154.985 80.2241 153.568 80.0061 152.042C79.897 150.407 79.679 148.662 79.57 146.591C79.3519 142.557 79.2429 137.761 79.1339 132.419C79.1339 127.077 79.3519 121.19 79.897 115.085C80.4421 108.98 81.2053 103.202 82.1864 97.8599C82.7315 95.2435 83.1676 92.7361 83.7127 90.4467C83.9307 89.2475 84.2578 88.1573 84.4758 87.0671C84.8028 85.977 85.0209 84.9958 85.3479 84.0146C85.893 82.0523 86.4381 80.308 86.8742 78.7818C87.0922 78.0186 87.3103 77.3645 87.5283 76.7104C87.7463 76.0563 87.9644 75.5112 88.1824 74.9661C88.6185 73.985 88.8365 73.1128 89.1636 72.5677C89.5996 72.1316 89.7087 71.9136 89.7087 71.9136Z" fill="#263238"/>
<path d="M68.8862 163.816C68.8862 163.816 68.8862 163.707 68.8862 163.489C68.8862 163.271 68.8862 162.944 68.7772 162.617C68.6681 161.744 68.6681 160.654 68.5591 159.128C68.3411 156.076 68.123 151.715 67.796 146.264C67.1419 135.471 66.0517 120.427 64.3074 103.965C63.3262 95.6796 62.3451 87.9393 61.1459 80.8531C60.6008 77.3645 60.0557 73.985 59.4016 70.8235C58.8565 67.662 58.2024 64.7185 57.6573 62.102C57.1122 59.4856 56.5671 57.0872 56.022 54.9068C55.586 52.8355 55.1499 50.9822 54.7138 49.565C54.3868 48.1477 54.0597 46.9485 53.8417 46.1854C53.7327 45.8583 53.7327 45.5313 53.6236 45.3132C53.6236 45.0952 53.5146 44.9862 53.6236 44.9862C53.6236 44.9862 53.6236 45.0952 53.7327 45.3132C53.8417 45.5313 53.8417 45.8583 53.9507 46.1854C54.1687 46.9485 54.4958 48.1477 54.9319 49.565C55.3679 50.9822 55.804 52.8355 56.3491 54.9068C56.8942 56.9782 57.4393 59.3766 57.9844 62.102C58.5295 64.7185 59.1836 67.662 59.8377 70.8235C60.4918 73.985 61.0369 77.3645 61.691 80.8531C62.8902 87.9393 63.9804 95.7886 64.8525 103.965C66.7058 120.427 67.578 135.471 68.2321 146.264C68.5591 151.715 68.7772 156.076 68.8862 159.128C68.9952 160.654 68.9952 161.744 68.9952 162.617C68.9952 162.944 68.9952 163.271 68.9952 163.489C68.8862 163.707 68.8862 163.816 68.8862 163.816Z" fill="#263238"/>
<path d="M73.247 54.1437C72.9199 50.4371 69.1043 47.6026 65.3977 47.6026C61.6911 47.6026 58.2025 49.783 55.8041 52.7265C53.5147 55.67 52.2065 59.2676 51.2253 62.9742C48.7179 71.8047 47.3007 81.0712 48.3909 90.1197C49.4811 99.1682 53.1877 108.108 59.7288 114.54C60.8189 115.63 62.1271 116.611 63.6534 116.284C64.4165 116.066 65.0706 115.521 65.7247 114.976C78.5889 103.42 85.8931 86.086 85.457 68.7521C85.348 65.2636 84.9119 61.666 82.9496 58.8315C80.9873 55.9971 76.5175 52.9445 73.247 54.1437Z" fill="#FF725E"/>
<path d="M45.2294 24.1638C43.4851 27.3253 41.7408 30.5958 39.9965 33.7574C39.8875 33.9754 39.6695 34.1934 39.4514 34.3025C39.1244 34.3025 39.0154 34.0844 38.7973 33.8664C34.1096 26.6712 29.5308 19.585 24.843 12.3898L28.1136 10.5365L45.2294 24.1638Z" fill="#FF725E"/>
<g opacity="0.2">
<path d="M45.2294 24.1638C43.4851 27.3253 41.7408 30.5958 39.9965 33.7574C39.8875 33.9754 39.6695 34.1934 39.4514 34.3025C39.1244 34.3025 39.0154 34.0844 38.7973 33.8664C34.1096 26.6712 29.5308 19.585 24.843 12.3898L28.1136 10.5365L45.2294 24.1638Z" fill="black"/>
</g>
<path d="M73.574 41.3886C57.6574 32.013 41.8497 22.6375 25.9331 13.2619C25.497 12.9349 24.952 12.6078 24.7339 12.0627C24.5159 11.4086 25.061 10.6455 25.6061 10.1004C32.1471 3.34129 41.6317 -0.583376 51.1163 0.0707318C60.4918 0.72484 69.5403 6.17575 74.1191 14.3521C78.6978 22.7465 78.9159 33.6483 73.574 41.3886Z" fill="#FF725E"/>
<path d="M32.8013 4.32247C32.8013 4.32247 33.0193 4.32246 33.4554 4.21344C33.8914 4.21344 34.4365 4.10442 35.3087 4.10442C36.8349 4.10442 39.1243 4.21343 41.9588 4.64951C44.6842 5.08558 47.9548 5.95773 51.3343 7.48398C54.7139 9.01023 58.2025 11.1906 61.473 14.0251C64.6345 16.9685 67.1419 20.2391 68.9953 23.4006C70.8486 26.6712 72.0478 29.7237 72.8109 32.4491C73.574 35.1746 73.9011 37.4639 74.0101 38.9902C74.1191 39.7533 74.0101 39.9713 74.1191 40.4074C74.1191 40.8435 73.792 41.4976 73.792 41.4976C73.792 41.4976 74.0101 40.6255 73.9011 39.0992C73.683 37.573 73.356 35.2836 72.5929 32.6672C71.0666 27.3253 67.578 20.2391 61.255 14.4611C54.9319 8.79219 47.5187 5.95771 42.0678 4.97655C39.3424 4.43146 37.053 4.32247 35.5267 4.32247C33.6734 4.32247 32.8013 4.43148 32.8013 4.32247Z" fill="#263238"/>
<path d="M67.142 21.9834C67.142 22.0924 66.2698 22.5285 64.7436 23.0736C63.2173 23.6187 61.146 24.3818 58.7476 25.1449C56.3492 25.908 54.1688 26.4531 52.6426 26.8892C51.0073 27.3253 50.0261 27.4343 50.0261 27.4343C50.0261 27.3253 51.0073 26.9982 52.5335 26.5622C54.2778 26.0171 56.3492 25.363 58.6385 24.7089C60.9279 23.9457 62.8903 23.2916 64.6345 22.7465C66.1608 22.2015 67.142 21.9834 67.142 21.9834Z" fill="#263238"/>
<path d="M59.6196 1.92405C59.7287 1.92405 60.1647 4.32244 60.1647 7.26593C60.2737 10.2094 60.0557 12.6078 59.8377 12.6078C59.7287 12.6078 59.6196 10.2094 59.5106 7.26593C59.6196 4.32244 59.5106 1.92405 59.6196 1.92405Z" fill="#263238"/>
<path d="M25.4971 12.8258C25.4971 12.7168 26.8053 12.2807 28.9857 11.6266C31.166 10.9725 34.2185 10.1004 37.4891 9.33723C40.8686 8.57411 43.9211 7.92002 46.1015 7.48395C48.2818 7.04788 49.6991 6.93886 49.6991 6.93886C49.6991 7.04788 48.3909 7.37492 46.1015 7.81099C43.9211 8.35608 40.8686 9.01021 37.4891 9.77333C34.1095 10.5365 31.166 11.4086 28.8766 11.9537C26.9143 12.4988 25.6061 12.8258 25.4971 12.8258Z" fill="#263238"/>
<path d="M53.5147 45.9673C49.372 42.8058 45.1203 42.2607 39.9964 42.4788C34.8726 42.6968 29.8577 44.2231 25.17 46.2944C17.1026 49.783 9.58039 55.0158 4.78359 62.32C-0.0132003 69.6242 -1.64847 79.3269 1.94913 87.3942C2.27618 88.1573 2.82127 89.0295 3.5844 89.3565C4.45654 89.6836 5.4377 89.4655 6.30985 89.1385C15.4674 86.195 24.6249 83.1425 33.0193 78.4547C41.4137 73.767 49.0449 67.3349 53.6237 58.8315C54.7139 56.7601 55.586 54.5798 55.804 52.2904C55.804 50.11 55.1499 47.6026 53.5147 45.9673Z" fill="#FF725E"/>
<path d="M53.6236 45.0952C53.6236 45.0952 53.4056 45.2042 52.9695 45.3133C52.4244 45.5313 51.8793 45.7493 51.0072 45.9674C50.5711 46.0764 50.135 46.2944 49.5899 46.4034C49.0449 46.6215 48.4998 46.8395 47.9547 47.0576C46.7555 47.4936 45.4473 48.0387 44.03 48.6928C43.2669 49.0199 42.6128 49.3469 41.7407 49.674C40.9775 50.001 40.2144 50.4371 39.3423 50.8732C37.707 51.6363 35.9627 52.7265 34.2184 53.8167C30.7298 55.997 27.0232 58.7225 23.4256 61.884C19.828 65.0455 16.7755 68.4251 14.0501 71.5866C12.7419 73.2219 11.5427 74.7482 10.5615 76.2744C10.0164 77.0375 9.47132 77.8007 9.03524 78.4548C8.59917 79.2179 8.1631 79.872 7.72703 80.5261C6.85489 81.8343 6.20078 83.1425 5.65569 84.2327C5.32863 84.7778 5.11059 85.3229 4.78354 85.759C4.5655 86.195 4.34747 86.6311 4.12943 87.0672C3.80238 87.8303 3.47533 88.3754 3.25729 88.9205C3.03925 89.3565 2.93024 89.5746 2.93024 89.5746C2.93024 89.5746 3.03925 89.3565 3.14827 88.9205C3.36631 88.4844 3.58434 87.8303 3.9114 87.0672C4.12943 86.6311 4.23845 86.195 4.45649 85.759C4.67453 85.3229 5.00158 84.7778 5.21961 84.2327C5.7647 83.1425 6.41881 81.8343 7.29096 80.5261C7.72703 79.872 8.1631 79.1089 8.59917 78.4548C9.03524 77.6916 9.58033 77.0375 10.1254 76.2744C11.1066 74.7482 12.4148 73.1129 13.614 71.4776C16.2304 68.207 19.392 64.8275 22.9896 61.666C26.5872 58.5044 30.4028 55.779 33.8914 53.5986C35.7447 52.5085 37.3799 51.5273 39.0152 50.7642C39.8873 50.3281 40.6505 49.892 41.4136 49.565C42.1767 49.2379 42.9399 48.9109 43.703 48.5838C45.1202 47.9297 46.5374 47.4936 47.6276 47.0576C48.1727 46.8395 48.7178 46.6215 49.2629 46.5125C49.808 46.4034 50.2441 46.1854 50.6801 46.0764C51.4433 45.8584 52.0974 45.6403 52.6425 45.5313C53.2966 45.0952 53.6236 44.9862 53.6236 45.0952Z" fill="#263238"/>
<path d="M21.5724 62.4291C21.5724 62.5381 17.1026 64.0643 11.6517 65.5906C6.09182 67.2259 1.62208 68.4251 1.51306 68.207C1.51306 68.098 5.9828 66.5718 11.4337 65.0455C16.9936 63.4102 21.5724 62.211 21.5724 62.4291Z" fill="#263238"/>
<path d="M21.1363 84.3417C21.0273 84.3417 20.9183 83.1425 20.9183 81.2892C20.9183 79.3269 20.8092 76.7104 20.9183 73.7669C21.0273 70.8235 21.1363 68.207 21.3543 66.2447C21.4634 64.2824 21.6814 63.1922 21.7904 63.1922C21.8994 63.1922 21.8994 64.3914 21.7904 66.3537C21.6814 68.4251 21.6814 71.0415 21.5724 73.876C21.4634 76.7104 21.4634 79.2178 21.3543 81.3982C21.2453 83.1425 21.2453 84.3417 21.1363 84.3417Z" fill="#263238"/>
<path d="M39.9965 74.7481C39.8875 74.7481 39.3424 69.4062 38.9063 62.7561C38.4702 56.106 38.2522 50.6551 38.3612 50.6551C38.4702 50.6551 39.0153 55.997 39.4514 62.6471C39.8875 69.2972 40.2145 74.7481 39.9965 74.7481Z" fill="#263238"/>
<path d="M16.5575 50.11C16.5575 50.001 17.7567 50.001 19.719 50.001C21.6813 50.001 24.4068 50.11 27.4593 50.219C30.5118 50.328 33.1282 50.4371 35.1996 50.5461C37.1619 50.6551 38.3611 50.7641 38.3611 50.8731C38.3611 50.9821 37.1619 50.9821 35.1996 50.9821C33.2373 50.9821 30.5118 50.8731 27.4593 50.7641C24.4068 50.6551 21.6813 50.5461 19.719 50.437C17.7567 50.328 16.5575 50.219 16.5575 50.11Z" fill="#263238"/>
<path d="M61.8 115.739C61.8 115.739 61.8 115.521 61.691 115.085C61.691 114.649 61.691 113.995 61.5819 113.232C61.4729 111.596 61.4729 109.307 61.5819 106.472C61.5819 103.638 61.8 100.258 62.127 96.4427C62.4541 92.7361 62.9992 88.5934 63.7623 84.3417C64.5254 80.09 65.5066 76.0564 66.4878 72.3497C67.4689 68.7522 68.4501 65.4816 69.4312 62.7561C70.4124 60.0307 71.1755 57.8503 71.8296 56.4331C72.1567 55.779 72.3747 55.2339 72.5928 54.6888C72.8108 54.2527 72.8108 54.1437 72.9198 54.1437C72.9198 54.1437 72.9198 54.3618 72.7018 54.7978C72.4838 55.2339 72.3747 55.779 72.0477 56.5421C71.5026 58.0684 70.7395 60.2487 69.8673 62.8652C68.9952 65.5906 68.014 68.8612 67.0328 72.4588C66.0517 76.0564 65.1795 80.09 64.4164 84.4508C63.6533 88.7025 63.1082 92.8451 62.6721 96.5517C62.3451 100.258 62.018 103.638 62.018 106.472C61.909 109.307 61.909 111.596 61.909 113.232C61.909 113.995 61.909 114.54 61.909 115.085C61.8 115.521 61.8 115.739 61.8 115.739Z" fill="#263238"/>
<path d="M64.3075 84.5597C64.3075 84.6688 63.6534 85.4319 62.4542 86.6311C61.255 87.8303 59.5107 89.4656 57.4394 91.2098C55.477 92.9541 53.6237 94.4804 52.2065 95.5706C50.7893 96.6607 49.9171 97.2058 49.9171 97.2058C49.9171 97.0968 50.6802 96.4427 51.9885 95.2435C53.4057 93.9353 55.15 92.409 57.1123 90.7738C58.9656 89.1385 60.7099 87.6122 62.2362 86.304C63.4354 85.2138 64.1985 84.4507 64.3075 84.5597Z" fill="#263238"/>
<path d="M79.352 96.6607C79.243 96.6607 78.4798 95.5705 77.2806 93.8263C75.9724 91.973 74.3372 89.5746 72.5929 86.9581C70.7396 84.3417 69.1043 82.0523 67.7961 80.199C66.5969 78.4547 65.8337 77.3646 65.8337 77.3646C65.9428 77.3646 66.8149 78.3457 68.1231 79.981C69.4313 81.6163 71.1756 84.0146 73.0289 86.7401C74.8822 89.4655 76.5175 91.864 77.6077 93.7173C78.8069 95.4616 79.461 96.6607 79.352 96.6607Z" fill="#263238"/>
<path d="M71.5026 58.5044C71.6117 58.6134 66.5968 61.993 60.2738 66.0266C54.0597 70.0603 48.8269 73.2218 48.8269 73.1128C48.7179 73.0038 53.7327 69.6242 60.0557 65.5906C66.2698 61.5569 71.3936 58.3954 71.5026 58.5044Z" fill="#263238"/>
<path d="M85.566 73.767C85.457 73.876 82.0774 70.7145 78.0437 66.7898C74.0101 62.7561 70.7395 59.4856 70.8485 59.3766C70.9576 59.2676 74.3371 62.4291 78.4798 66.3537C82.5135 70.2784 85.675 73.6579 85.566 73.767Z" fill="#263238"/>
<path d="M89.1636 73.4399L93.4153 73.1128C96.4678 72.8948 99.4113 71.9136 102.137 70.4964C103.445 69.7333 104.753 69.0792 106.17 68.4251C111.512 66.2447 117.399 66.6808 123.177 66.3537C132.553 65.9176 141.71 63.5192 150.214 59.4856C150.65 59.2675 151.086 58.9405 151.413 58.3954C152.285 56.7601 150.65 55.3429 149.233 54.4708C142.037 50.001 134.624 45.5313 126.448 43.2419C118.271 41.0615 108.896 41.3886 101.919 46.1854C93.5243 51.9633 90.5808 63.5192 89.1636 73.4399Z" fill="#FF725E"/>
<path d="M151.413 57.8503C151.413 57.8503 151.195 57.7413 150.65 57.5232C150.105 57.3052 149.451 56.8691 148.578 56.433C146.834 55.4519 144.218 54.1437 141.056 52.6174C137.786 51.0912 133.97 49.3469 129.391 48.1477C124.921 46.8394 119.689 46.1853 114.238 46.9485C108.896 47.6026 103.99 49.783 100.501 52.8355C97.0128 55.997 94.8325 59.7036 93.3062 62.8651C91.78 66.1356 90.9078 68.8611 90.1447 70.7144C89.8176 71.5865 89.5996 72.3497 89.3816 72.8948C89.1635 73.4399 89.0545 73.6579 89.0545 73.6579C89.0545 73.6579 89.0545 73.3308 89.2726 72.8948C89.4906 72.3497 89.7086 71.5865 89.9267 70.7144C90.5808 68.8611 91.4529 66.0266 92.8701 62.7561C94.3964 59.4855 96.4677 55.6699 100.065 52.5084C103.663 49.2378 108.678 47.1665 114.129 46.4034C119.58 45.7493 124.921 46.4034 129.5 47.7116C134.079 49.0198 138.004 50.7641 141.165 52.3994C144.327 54.0346 146.834 55.4519 148.578 56.433C149.451 56.8691 150.105 57.3052 150.541 57.6322C151.195 57.6322 151.413 57.8503 151.413 57.8503Z" fill="#263238"/>
<path d="M141.056 63.4102C140.947 63.5192 135.387 59.9216 128.519 55.2338C121.651 50.6551 116.2 46.7304 116.309 46.6214C116.418 46.5124 121.978 50.11 128.846 54.7978C135.714 59.3765 141.165 63.3012 141.056 63.4102Z" fill="#263238"/>
<path d="M135.06 46.4034C135.06 46.5124 133.316 46.9485 130.917 47.1665C128.628 47.3845 126.775 47.2755 126.775 47.1665C126.775 47.0575 128.628 46.9485 130.917 46.7304C133.207 46.4034 135.06 46.2943 135.06 46.4034Z" fill="#263238"/>
<path d="M110.422 43.1328C110.531 43.2418 109.768 44.441 108.569 45.9673C107.37 47.4935 106.388 48.6927 106.279 48.5837C106.17 48.4747 106.934 47.2755 108.133 45.7493C109.332 44.332 110.313 43.1328 110.422 43.1328Z" fill="#263238"/>
<path d="M115.546 66.6808C115.546 66.7898 114.456 66.2447 112.821 65.2635C111.185 64.2824 109.005 62.8651 106.607 61.1208C104.208 59.3765 102.246 57.8503 100.72 56.6511C99.1933 55.4519 98.3211 54.6888 98.4302 54.6888C98.4302 54.5798 99.4113 55.2339 101.047 56.324C102.682 57.5232 104.753 59.0495 107.043 60.6848C109.332 62.4291 111.512 63.8463 113.039 64.9365C114.565 65.9176 115.546 66.6808 115.546 66.6808Z" fill="#263238"/>
<path d="M95.4866 91.7549C91.3439 90.6647 86.5471 94.6984 85.675 98.8411C84.8028 102.984 86.4381 107.235 88.1824 111.051C92.216 119.555 97.7759 127.404 105.189 133.291C112.493 139.178 121.76 142.884 131.135 142.884C129.391 134.817 131.572 126.423 130.59 118.246C129.718 111.051 126.448 104.292 121.324 99.2771C116.2 94.2623 109.332 90.9918 102.246 90.2287C99.5202 89.6836 96.5768 89.2475 95.4866 91.7549Z" fill="#FF725E"/>
<path d="M131.026 142.775C131.026 142.775 130.808 142.666 130.481 142.557C130.154 142.339 129.609 142.012 128.955 141.576C127.647 140.595 126.23 138.742 124.921 136.125C124.267 134.817 123.504 133.509 122.85 131.983C122.196 130.456 121.433 128.821 120.67 127.077C119.907 125.332 119.034 123.588 117.944 121.844C116.854 120.1 115.655 118.464 114.238 116.72C111.403 113.45 108.46 110.615 105.843 107.89C103.227 105.164 101.046 102.548 99.4112 100.149C97.7759 97.7509 96.7947 95.6796 96.2496 94.1533C96.0316 93.3902 95.8136 92.8451 95.7045 92.409C95.5955 91.973 95.5955 91.7549 95.5955 91.7549C95.5955 91.7549 95.9226 92.6271 96.4677 94.0443C97.1218 95.4615 98.1029 97.5329 99.7382 99.9313C101.373 102.221 103.554 104.837 106.17 107.454C108.787 110.179 111.839 113.013 114.674 116.284C116.091 117.919 117.399 119.664 118.489 121.408C119.579 123.152 120.452 125.005 121.215 126.75C121.978 128.494 122.741 130.129 123.395 131.656C124.049 133.182 124.812 134.599 125.466 135.798C126.666 138.306 128.083 140.268 129.282 141.249C130.263 142.339 131.135 142.666 131.026 142.775Z" fill="#263238"/>
<path d="M109.877 136.016C109.768 136.016 109.877 134.926 110.204 133.291C110.531 131.656 111.076 129.257 111.73 126.75C112.493 124.242 113.256 121.953 113.802 120.318C114.456 118.682 114.892 117.701 114.892 117.81C115.001 117.81 114.674 118.9 114.129 120.536C113.583 122.171 112.929 124.46 112.166 126.968C111.512 129.475 110.858 131.765 110.422 133.4C110.204 135.035 109.986 136.016 109.877 136.016Z" fill="#263238"/>
<path d="M130.263 116.284C130.263 116.393 129.173 116.066 127.32 115.63C125.576 115.194 123.068 114.54 120.343 113.886C117.617 113.231 115.11 112.795 113.365 112.468C111.621 112.141 110.422 111.923 110.422 111.814C110.422 111.705 111.512 111.814 113.365 112.032C115.219 112.25 117.726 112.686 120.452 113.34C123.177 113.995 125.576 114.649 127.32 115.194C129.282 115.848 130.372 116.175 130.263 116.284Z" fill="#263238"/>
<path d="M94.6144 122.062C94.5053 122.062 94.7234 120.863 95.0504 118.9C95.3775 116.938 96.0316 114.213 96.7947 111.269C97.5578 108.326 98.43 105.709 98.9751 103.856C99.6292 102.003 100.065 100.803 100.174 100.803C100.283 100.803 99.9562 102.003 99.4111 103.965C98.8661 105.927 98.1029 108.544 97.3398 111.487C96.5767 114.431 95.9226 117.047 95.4865 119.009C95.0504 120.863 94.7234 122.062 94.6144 122.062Z" fill="#263238"/>
<path d="M120.888 99.0592C120.888 99.1682 115.764 98.8411 109.441 98.187C103.118 97.5329 97.9939 96.8788 98.1029 96.6607C98.1029 96.5517 103.227 96.8788 109.55 97.5329C115.764 98.187 120.888 98.9501 120.888 99.0592Z" fill="#263238"/>
<path d="M117.181 161.199C117.181 161.308 99.1931 161.526 76.9534 161.526C54.7137 161.526 36.7258 161.417 36.7258 161.199C36.7258 161.09 54.7137 160.872 76.9534 160.872C99.1931 160.872 117.181 160.981 117.181 161.199Z" fill="#455A64"/>
<path d="M104.644 184.311C104.644 184.42 92.5431 184.638 77.6076 184.638C62.6722 184.638 50.5712 184.529 50.5712 184.311C50.5712 184.202 62.6722 183.984 77.6076 183.984C92.5431 183.984 104.644 184.202 104.644 184.311Z" fill="#455A64"/>
<path d="M104.099 187.582C104.099 187.691 92.216 187.909 77.4986 187.909C62.7812 187.909 50.8982 187.8 50.8982 187.582C50.8982 187.473 62.7812 187.255 77.4986 187.255C92.216 187.364 104.099 187.473 104.099 187.582Z" fill="#455A64"/>
<path d="M105.08 181.586C105.08 181.695 92.5432 181.913 77.0626 181.913C61.5821 181.913 49.045 181.804 49.045 181.586C49.045 181.477 61.5821 181.259 77.0626 181.259C92.5432 181.259 105.08 181.477 105.08 181.586Z" fill="#455A64"/>
</svg>
