<svg width="20" height="20" viewBox="0 0 20 20" fill="none" xmlns="http://www.w3.org/2000/svg">
<g clip-path="url(#clip0_150_11)">
<path d="M10.026 18.6401C10.0297 18.6403 10.0333 18.6403 10.037 18.6401H10.027H10.026ZM9.829 18.5161L9.832 1.4781L9.762 1.5481L4.94 6.3161C4.80931 6.4446 4.63328 6.51645 4.45 6.5161H1.968C1.82187 6.55181 1.69278 6.6374 1.603 6.7581C1.473 6.9141 1.396 7.1461 1.383 7.4481L1.382 12.8591C1.392 13.0491 1.456 13.1931 1.585 13.3221C1.708 13.4441 1.928 13.5311 2.207 13.5601H4.511C4.694 13.5601 4.87 13.6311 4.999 13.7591L9.829 18.5161ZM10.207 0.0191025C10.79 0.116103 11.16 0.541103 11.212 1.1841V18.8401L11.207 18.9251C11.129 19.5281 10.745 19.9571 10.14 19.9991C9.689 20.0291 9.269 19.8621 8.888 19.5151L4.224 14.9201L2.142 14.9181C1.498 14.8581 0.976 14.6511 0.602 14.2781C0.231822 13.9115 0.0163582 13.4168 0 12.8961L0 7.4201C0.027 6.8141 0.2 6.3001 0.532 5.8981C0.847412 5.50144 1.30102 5.23856 1.802 5.1621L1.907 5.1541H4.165L8.77 0.600103C9.198 0.156103 9.683 -0.0678975 10.207 0.0201025V0.0191025ZM16.417 2.2461C18.602 3.6181 20 6.5761 20 9.8621C20 13.1471 18.602 16.1051 16.418 17.4771C16.2633 17.5744 16.0766 17.607 15.898 17.5682C15.7195 17.5293 15.5633 17.4219 15.463 17.2691C15.4143 17.1938 15.3811 17.1095 15.3654 17.0212C15.3496 16.9329 15.3516 16.8423 15.3713 16.7548C15.3909 16.6673 15.4278 16.5846 15.4798 16.5115C15.5318 16.4384 15.5978 16.3764 15.674 16.3291C17.428 15.2271 18.617 12.7111 18.617 9.8621C18.617 7.0121 17.428 4.4961 15.674 3.3941C15.5978 3.34681 15.5318 3.28481 15.4798 3.21171C15.4278 3.13862 15.3909 3.05589 15.3713 2.96838C15.3516 2.88086 15.3496 2.79031 15.3654 2.702C15.3811 2.6137 15.4143 2.52943 15.463 2.4541C15.5633 2.30159 15.7193 2.19441 15.8976 2.15553C16.0759 2.11665 16.2624 2.14916 16.417 2.2461ZM14.116 4.9321C15.476 5.9391 16.313 7.8121 16.313 9.8621C16.313 12.0271 15.378 13.9901 13.893 14.9461C13.7393 15.0449 13.553 15.0795 13.3741 15.0425C13.1951 15.0055 13.0379 14.8998 12.936 14.7481C12.8863 14.6733 12.8521 14.5894 12.8353 14.5012C12.8184 14.4131 12.8193 14.3224 12.838 14.2346C12.8566 14.1468 12.8925 14.0636 12.9437 13.9898C12.9949 13.9161 13.0603 13.8533 13.136 13.8051C14.204 13.1191 14.93 11.5931 14.93 9.8621C14.93 8.2181 14.276 6.7541 13.285 6.0211C13.2125 5.96809 13.1514 5.90114 13.1052 5.82418C13.0589 5.74722 13.0285 5.66179 13.0158 5.57293C13.003 5.48406 13.0081 5.39353 13.0308 5.30667C13.0536 5.21981 13.0934 5.13836 13.148 5.0671C13.2599 4.9228 13.4237 4.82791 13.6045 4.80269C13.7854 4.77747 13.9689 4.82391 14.116 4.9321Z" fill="black"/>
</g>
<defs>
<clipPath id="clip0_150_11">
<rect width="20" height="20" fill="white"/>
</clipPath>
</defs>
</svg>
