<svg width="359" height="141" viewBox="0 0 359 141" fill="none" xmlns="http://www.w3.org/2000/svg">
<path fill-rule="evenodd" clip-rule="evenodd" d="M-311 47L-287.5 35.25C-252.25 23.5 -193.5 0 -146.5 11.75C-87.75 11.75 -29 47 29.75 58.75C76.75 82.25 135.5 82.25 194.25 70.5C253 58.75 300 23.5 335.25 11.75L358.75 0V141H335.25C300 141 253 141 194.25 141C135.5 141 76.75 141 29.75 141C-29 141 -87.75 141 -146.5 141C-193.5 141 -252.25 141 -287.5 141H-311V47Z" fill="#E89005" fill-opacity="0.55"/>
</svg>
