<svg width="38" height="39" viewBox="0 0 38 39" fill="none" xmlns="http://www.w3.org/2000/svg">
<path fill-rule="evenodd" clip-rule="evenodd" d="M19.5225 38.2429C19.3489 38.2476 19.1747 38.25 19 38.25C18.1471 38.25 17.3075 38.1931 16.4848 38.0828V31.7348H17.3171C18.5351 31.7348 19.5225 32.7222 19.5225 33.9402V34.647V38.2429ZM30.0535 34.647C31.2134 33.7991 32.2722 32.8212 33.2086 31.7348H24.8099C24.0057 31.7348 23.3538 32.3867 23.3538 33.1909C23.3538 33.9951 24.0057 34.647 24.8099 34.647H30.0535ZM35.1697 28.9981C34.8537 28.4741 34.279 28.1237 33.6225 28.1237H24.8096C24.0056 28.1237 23.3538 27.4719 23.3538 26.6679C23.3538 25.8638 24.0056 25.212 24.8096 25.212H33.6226C34.6197 25.212 35.4281 24.4037 35.4281 23.4065C35.4281 22.4094 34.6197 21.601 33.6226 21.601H23.3538H21.7279C20.5099 21.601 19.5225 22.5884 19.5225 23.8064V25.212V25.9184C19.5225 27.1364 18.5351 28.1237 17.3171 28.1237H16.4848V23.4419C18.7315 22.0893 20.3352 18.5372 20.3352 14.3681C20.3352 9.03426 17.7102 4.71031 14.4722 4.71031C11.2341 4.71031 8.60916 9.03426 8.60916 14.3681C8.60916 18.4281 10.13 21.9029 12.2844 23.3311V28.1237H11.1113C10.1141 28.1237 9.30574 28.9321 9.30574 29.9293C9.30574 30.9264 10.1141 31.7348 11.1113 31.7348H12.2844L12.2844 37.0115C5.2462 34.3107 0.25 27.4888 0.25 19.5C0.25 9.14466 8.64466 0.75 19 0.75C29.3553 0.75 37.75 9.14466 37.75 19.5C37.75 22.9661 36.8095 26.2126 35.1697 28.9981Z" fill="#D84A05"/>
</svg>
