<svg width="206" height="206" viewBox="0 0 206 206" fill="none" xmlns="http://www.w3.org/2000/svg">
<mask id="path-1-inside-1_198_16" fill="white">
<path fill-rule="evenodd" clip-rule="evenodd" d="M51.6069 156.205V191.645C20.7612 173.91 0 140.701 0 102.659C0 73.7457 11.9926 47.6243 31.2903 28.9663C30.4582 33.8357 30.0132 38.9709 30.0132 44.2766C30.0132 68.0514 38.9487 88.3997 51.6069 96.7631V135.06H50.1357C44.2965 135.06 39.5628 139.793 39.5628 145.632C39.5628 151.472 44.2965 156.205 50.1357 156.205H51.6069ZM76.2853 156.205V201.831C84.8051 204.105 93.7605 205.318 103 205.318C119.638 205.318 135.354 201.386 149.265 194.404H99.5895L99.5894 194.404V173.258V168.483C99.5894 161.702 94.0923 156.205 87.3112 156.205H76.2853ZM177.777 173.258C195.27 154.859 206 130.008 206 102.659C206 45.962 159.885 0 103 0C97.4963 0 92.0934 0.430239 86.8233 1.25881C94.2189 11.6318 98.9072 27.0553 98.9072 44.2766C98.9072 68.6902 89.4851 89.4907 76.2853 97.4111V135.06H87.3112C94.0923 135.06 99.5894 129.562 99.5894 122.781V118.007V109.139C99.5894 102.358 105.086 96.8609 111.868 96.8609H122.099H182.467C188.306 96.8609 193.04 101.595 193.04 107.434C193.04 113.273 188.306 118.007 182.467 118.007H130.626C125.917 118.007 122.099 121.824 122.099 126.533C122.099 131.242 125.917 135.06 130.626 135.06H182.467C188.306 135.06 193.04 139.793 193.04 145.632C193.04 151.472 188.306 156.205 182.467 156.205H130.626C125.917 156.205 122.099 160.023 122.099 164.732C122.099 169.441 125.917 173.258 130.626 173.258H177.777Z"/>
</mask>
<path fill-rule="evenodd" clip-rule="evenodd" d="M51.6069 156.205V191.645C20.7612 173.91 0 140.701 0 102.659C0 73.7457 11.9926 47.6243 31.2903 28.9663C30.4582 33.8357 30.0132 38.9709 30.0132 44.2766C30.0132 68.0514 38.9487 88.3997 51.6069 96.7631V135.06H50.1357C44.2965 135.06 39.5628 139.793 39.5628 145.632C39.5628 151.472 44.2965 156.205 50.1357 156.205H51.6069ZM76.2853 156.205V201.831C84.8051 204.105 93.7605 205.318 103 205.318C119.638 205.318 135.354 201.386 149.265 194.404H99.5895L99.5894 194.404V173.258V168.483C99.5894 161.702 94.0923 156.205 87.3112 156.205H76.2853ZM177.777 173.258C195.27 154.859 206 130.008 206 102.659C206 45.962 159.885 0 103 0C97.4963 0 92.0934 0.430239 86.8233 1.25881C94.2189 11.6318 98.9072 27.0553 98.9072 44.2766C98.9072 68.6902 89.4851 89.4907 76.2853 97.4111V135.06H87.3112C94.0923 135.06 99.5894 129.562 99.5894 122.781V118.007V109.139C99.5894 102.358 105.086 96.8609 111.868 96.8609H122.099H182.467C188.306 96.8609 193.04 101.595 193.04 107.434C193.04 113.273 188.306 118.007 182.467 118.007H130.626C125.917 118.007 122.099 121.824 122.099 126.533C122.099 131.242 125.917 135.06 130.626 135.06H182.467C188.306 135.06 193.04 139.793 193.04 145.632C193.04 151.472 188.306 156.205 182.467 156.205H130.626C125.917 156.205 122.099 160.023 122.099 164.732C122.099 169.441 125.917 173.258 130.626 173.258H177.777Z" fill="#EC7505"/>
<path d="M51.6069 191.645L48.2069 197.559L58.4281 203.436V191.645H51.6069ZM51.6069 156.205H58.4281V149.384H51.6069V156.205ZM31.2903 28.9663L38.0141 30.1154L41.5224 9.58555L26.549 24.0624L31.2903 28.9663ZM51.6069 96.7631H58.4281V93.0944L55.3671 91.0719L51.6069 96.7631ZM51.6069 135.06V141.881H58.4281V135.06H51.6069ZM76.2853 156.205V149.384H69.4641V156.205H76.2853ZM76.2853 201.831H69.4641V207.07L74.5262 208.422L76.2853 201.831ZM149.265 194.404L152.324 200.5L149.265 187.583V194.404ZM99.5895 194.404L94.6304 199.088L96.6493 201.225H99.5895V194.404ZM99.5894 194.404H92.7682V197.116L94.6303 199.088L99.5894 194.404ZM177.777 173.258V180.08H180.704L182.72 177.958L177.777 173.258ZM86.8233 1.25881L85.7639 -5.47961L74.8636 -3.76583L81.2692 5.21868L86.8233 1.25881ZM76.2853 97.4111L72.7757 91.5621L69.4641 93.5491V97.4111H76.2853ZM76.2853 135.06H69.4641V141.881H76.2853V135.06ZM58.4281 191.645V156.205H44.7857V191.645H58.4281ZM-6.82119 102.659C-6.82119 143.249 15.3384 178.661 48.2069 197.559L55.0069 185.732C26.184 169.16 6.82119 138.154 6.82119 102.659H-6.82119ZM26.549 24.0624C5.97957 43.9498 -6.82119 71.8181 -6.82119 102.659H6.82119C6.82119 75.6733 18.0055 51.2987 36.0317 33.8703L26.549 24.0624ZM36.8344 44.2766C36.8344 39.3505 37.2477 34.5998 38.0141 30.1154L24.5666 27.8173C23.6687 33.0716 23.192 38.5912 23.192 44.2766H36.8344ZM55.3671 91.0719C45.3762 84.4708 36.8344 66.8457 36.8344 44.2766H23.192C23.192 69.2571 32.5213 92.3286 47.8466 102.454L55.3671 91.0719ZM58.4281 135.06V96.7631H44.7857V135.06H58.4281ZM51.6069 128.238H50.1357V141.881H51.6069V128.238ZM50.1357 128.238C40.5292 128.238 32.7416 136.026 32.7416 145.632H46.384C46.384 143.56 48.0637 141.881 50.1357 141.881V128.238ZM32.7416 145.632C32.7416 155.239 40.5292 163.026 50.1357 163.026V149.384C48.0637 149.384 46.384 147.704 46.384 145.632H32.7416ZM50.1357 163.026H51.6069V149.384H50.1357V163.026ZM69.4641 156.205V201.831H83.1065V156.205H69.4641ZM74.5262 208.422C83.6148 210.848 93.1614 212.139 103 212.139V198.497C94.3596 198.497 85.9955 197.363 78.0445 195.241L74.5262 208.422ZM103 212.139C120.723 212.139 137.485 207.949 152.324 200.5L146.205 188.308C133.223 194.824 118.552 198.497 103 198.497V212.139ZM99.5895 201.225H149.265V187.583H99.5895V201.225ZM94.6303 199.088L94.6304 199.088L104.549 189.721L104.548 189.72L94.6303 199.088ZM92.7682 173.258V194.404H106.411V173.258H92.7682ZM92.7682 168.483V173.258H106.411V168.483H92.7682ZM87.3112 163.026C90.325 163.026 92.7682 165.47 92.7682 168.483H106.411C106.411 157.935 97.8595 149.384 87.3112 149.384V163.026ZM76.2853 163.026H87.3112V149.384H76.2853V163.026ZM182.72 177.958C201.369 158.344 212.821 131.829 212.821 102.659H199.179C199.179 128.187 189.171 151.374 172.833 168.558L182.72 177.958ZM212.821 102.659C212.821 42.1734 163.631 -6.82119 103 -6.82119V6.82119C156.139 6.82119 199.179 49.7505 199.179 102.659H212.821ZM103 -6.82119C97.1403 -6.82119 91.3832 -6.36308 85.7639 -5.47961L87.8828 7.99723C92.8036 7.22356 97.8523 6.82119 103 6.82119V-6.82119ZM81.2692 5.21868C87.6811 14.212 92.0861 28.173 92.0861 44.2766H105.728C105.728 25.9377 100.757 9.05159 92.3775 -2.70105L81.2692 5.21868ZM92.0861 44.2766C92.0861 55.6372 89.8889 66.0068 86.2876 74.3162C82.6531 82.702 77.7914 88.5524 72.7757 91.5621L79.795 103.26C87.979 98.3493 94.4283 89.8393 98.8049 79.7413C103.215 69.567 105.728 57.3296 105.728 44.2766H92.0861ZM69.4641 97.4111V135.06H83.1065V97.4111H69.4641ZM87.3112 128.238H76.2853V141.881H87.3112V128.238ZM92.7682 122.781C92.7682 125.795 90.325 128.238 87.3112 128.238V141.881C97.8595 141.881 106.411 133.33 106.411 122.781H92.7682ZM92.7682 118.007V122.781H106.411V118.007H92.7682ZM92.7682 109.139V118.007H106.411V109.139H92.7682ZM111.868 90.0397C101.319 90.0397 92.7682 98.5908 92.7682 109.139H106.411C106.411 106.125 108.854 103.682 111.868 103.682V90.0397ZM122.099 90.0397H111.868V103.682H122.099V90.0397ZM182.467 90.0397H122.099V103.682H182.467V90.0397ZM199.861 107.434C199.861 97.8273 192.073 90.0397 182.467 90.0397V103.682C184.539 103.682 186.219 105.362 186.219 107.434H199.861ZM182.467 124.828C192.073 124.828 199.861 117.04 199.861 107.434H186.219C186.219 109.506 184.539 111.185 182.467 111.185V124.828ZM130.626 124.828H182.467V111.185H130.626V124.828ZM128.921 126.533C128.921 125.591 129.684 124.828 130.626 124.828V111.185C122.149 111.185 115.278 118.057 115.278 126.533H128.921ZM130.626 128.238C129.684 128.238 128.921 127.475 128.921 126.533H115.278C115.278 135.009 122.149 141.881 130.626 141.881V128.238ZM182.467 128.238H130.626V141.881H182.467V128.238ZM199.861 145.632C199.861 136.026 192.073 128.238 182.467 128.238V141.881C184.539 141.881 186.218 143.56 186.218 145.632H199.861ZM182.467 163.026C192.073 163.026 199.861 155.239 199.861 145.632H186.218C186.218 147.704 184.539 149.384 182.467 149.384V163.026ZM130.626 163.026H182.467V149.384H130.626V163.026ZM128.921 164.732C128.921 163.79 129.684 163.026 130.626 163.026V149.384C122.15 149.384 115.278 156.255 115.278 164.732H128.921ZM130.626 166.437C129.684 166.437 128.921 165.674 128.921 164.732H115.278C115.278 173.208 122.15 180.08 130.626 180.08V166.437ZM177.777 166.437H130.626V180.08H177.777V166.437Z" fill="#D84A05" mask="url(#path-1-inside-1_198_16)"/>
</svg>
