<svg width="79" height="12" viewBox="0 0 79 12" fill="none" xmlns="http://www.w3.org/2000/svg">
<g clip-path="url(#clip0_118_440)">
<path d="M8.09061 6.43134L4.94061 9.59072C4.90311 9.62822 4.86248 9.65484 4.81873 9.67059C4.77498 9.68634 4.72811 9.69409 4.67811 9.69384C4.62811 9.69384 4.58123 9.68597 4.53748 9.67022C4.49373 9.65447 4.45311 9.62797 4.41561 9.59072L1.25623 6.43134C1.16873 6.34384 1.12498 6.23447 1.12498 6.10322C1.12498 5.97197 1.17186 5.85947 1.26561 5.76572C1.35936 5.67197 1.46873 5.62509 1.59373 5.62509C1.71873 5.62509 1.82811 5.67197 1.92186 5.76572L4.67811 8.52197L7.43436 5.76572C7.52186 5.67822 7.62973 5.63447 7.75798 5.63447C7.88623 5.63447 7.99711 5.68134 8.09061 5.77509C8.18436 5.86884 8.23123 5.97822 8.23123 6.10322C8.23123 6.22822 8.18436 6.33759 8.09061 6.43134Z" fill="black"/>
<path d="M8.09062 3.8625L4.94062 7.02187C4.90312 7.05937 4.8625 7.08599 4.81875 7.10174C4.775 7.11749 4.72812 7.12524 4.67812 7.12499C4.62812 7.12499 4.58125 7.11712 4.5375 7.10137C4.49375 7.08562 4.45312 7.05912 4.41562 7.02187L1.25625 3.8625C1.16875 3.775 1.125 3.66562 1.125 3.53437C1.125 3.40312 1.17187 3.29062 1.26562 3.19687C1.35937 3.10312 1.46875 3.05625 1.59375 3.05625C1.71875 3.05625 1.82812 3.10312 1.92187 3.19687L4.67812 5.95312L7.43437 3.19687C7.52187 3.10937 7.62975 3.06562 7.758 3.06562C7.88625 3.06562 7.99712 3.1125 8.09062 3.20625C8.18437 3.3 8.23125 3.40937 8.23125 3.53437C8.23125 3.65937 8.18437 3.76875 8.09062 3.8625Z" fill="black"/>
</g>
<path d="M18.6195 3.81319C18.579 3.471 18.4146 3.20536 18.1265 3.01625C17.8383 2.82715 17.4849 2.7326 17.0662 2.7326C16.76 2.7326 16.4921 2.78213 16.2625 2.88118C16.0351 2.98023 15.8572 3.11643 15.7289 3.28978C15.6029 3.46312 15.5398 3.6601 15.5398 3.88072C15.5398 4.06532 15.5837 4.22403 15.6715 4.35686C15.7616 4.48743 15.8764 4.59661 16.016 4.68441C16.1555 4.76996 16.3019 4.84087 16.4549 4.89715C16.608 4.95118 16.7487 4.99508 16.8771 5.02885L17.5794 5.21795C17.7595 5.26522 17.9599 5.33051 18.1805 5.41381C18.4034 5.4971 18.6161 5.61079 18.8187 5.75486C19.0236 5.89669 19.1924 6.07904 19.3253 6.30191C19.4581 6.52478 19.5245 6.79831 19.5245 7.12248C19.5245 7.49618 19.4266 7.83387 19.2307 8.13553C19.0371 8.43719 18.7534 8.67695 18.3797 8.8548C18.0083 9.03264 17.5569 9.12157 17.0256 9.12157C16.5304 9.12157 16.1015 9.04165 15.7391 8.88181C15.3789 8.72197 15.0952 8.4991 14.8881 8.2132C14.6832 7.92729 14.5673 7.59524 14.5403 7.21703H15.4048C15.4273 7.47817 15.5151 7.69429 15.6681 7.86538C15.8235 8.03423 16.0193 8.16029 16.2557 8.24359C16.4943 8.32463 16.751 8.36516 17.0256 8.36516C17.3453 8.36516 17.6323 8.31338 17.8867 8.20982C18.1411 8.10401 18.3426 7.95768 18.4912 7.77083C18.6398 7.58173 18.714 7.36111 18.714 7.10897C18.714 6.87935 18.6499 6.6925 18.5216 6.54842C18.3933 6.40434 18.2244 6.28728 18.015 6.19723C17.8057 6.10718 17.5794 6.02839 17.3363 5.96085L16.4853 5.71772C15.945 5.56239 15.5173 5.34064 15.2021 5.05248C14.887 4.76433 14.7294 4.38725 14.7294 3.92125C14.7294 3.53404 14.8341 3.19635 15.0434 2.9082C15.255 2.61779 15.5387 2.39267 15.8944 2.23283C16.2523 2.07074 16.6519 1.9897 17.0932 1.9897C17.5389 1.9897 17.9351 2.06962 18.2818 2.22945C18.6285 2.38704 18.9032 2.60316 19.1058 2.8778C19.3106 3.15245 19.4187 3.46425 19.4299 3.81319H18.6195ZM22.968 9.10806C22.4682 9.10806 22.0371 8.99775 21.6747 8.77713C21.3145 8.55426 21.0365 8.24359 20.8406 7.84512C20.647 7.44441 20.5502 6.9784 20.5502 6.44712C20.5502 5.91583 20.647 5.44757 20.8406 5.04235C21.0365 4.63488 21.3089 4.31746 21.6578 4.09009C22.009 3.86046 22.4187 3.74565 22.887 3.74565C23.1571 3.74565 23.4239 3.79067 23.6873 3.88072C23.9507 3.97077 24.1904 4.1171 24.4065 4.31971C24.6227 4.52007 24.7949 4.78571 24.9232 5.11664C25.0515 5.44757 25.1157 5.85504 25.1157 6.33906V6.67674H21.1175V5.98787H24.3052C24.3052 5.69521 24.2467 5.43407 24.1296 5.20444C24.0148 4.97482 23.8505 4.79359 23.6366 4.66077C23.425 4.52795 23.1751 4.46154 22.887 4.46154C22.5695 4.46154 22.2949 4.54033 22.063 4.69792C21.8334 4.85325 21.6567 5.05586 21.5329 5.30575C21.409 5.55563 21.3471 5.82353 21.3471 6.10943V6.56868C21.3471 6.96039 21.4147 7.29245 21.5497 7.56485C21.6871 7.83499 21.8773 8.04098 22.1204 8.18281C22.3636 8.32238 22.6461 8.39217 22.968 8.39217C23.1774 8.39217 23.3665 8.3629 23.5353 8.30437C23.7064 8.24359 23.8539 8.15354 23.9777 8.03423C24.1015 7.91266 24.1972 7.76183 24.2647 7.58173L25.0346 7.79785C24.9536 8.05899 24.8174 8.28861 24.626 8.48672C24.4347 8.68258 24.1983 8.83566 23.9169 8.94597C23.6355 9.05403 23.3192 9.10806 22.968 9.10806ZM28.5026 9.10806C28.0029 9.10806 27.5718 8.99775 27.2093 8.77713C26.8491 8.55426 26.5711 8.24359 26.3752 7.84512C26.1816 7.44441 26.0848 6.9784 26.0848 6.44712C26.0848 5.91583 26.1816 5.44757 26.3752 5.04235C26.5711 4.63488 26.8435 4.31746 27.1924 4.09009C27.5436 3.86046 27.9533 3.74565 28.4216 3.74565C28.6917 3.74565 28.9585 3.79067 29.2219 3.88072C29.4853 3.97077 29.7251 4.1171 29.9412 4.31971C30.1573 4.52007 30.3295 4.78571 30.4578 5.11664C30.5861 5.44757 30.6503 5.85504 30.6503 6.33906V6.67674H26.6521V5.98787H29.8399C29.8399 5.69521 29.7813 5.43407 29.6643 5.20444C29.5495 4.97482 29.3851 4.79359 29.1713 4.66077C28.9596 4.52795 28.7098 4.46154 28.4216 4.46154C28.1042 4.46154 27.8295 4.54033 27.5976 4.69792C27.368 4.85325 27.1913 5.05586 27.0675 5.30575C26.9437 5.55563 26.8818 5.82353 26.8818 6.10943V6.56868C26.8818 6.96039 26.9493 7.29245 27.0844 7.56485C27.2217 7.83499 27.4119 8.04098 27.6551 8.18281C27.8982 8.32238 28.1807 8.39217 28.5026 8.39217C28.712 8.39217 28.9011 8.3629 29.0699 8.30437C29.241 8.24359 29.3885 8.15354 29.5123 8.03423C29.6361 7.91266 29.7318 7.76183 29.7993 7.58173L30.5693 7.79785C30.4882 8.05899 30.352 8.28861 30.1607 8.48672C29.9693 8.68258 29.7329 8.83566 29.4515 8.94597C29.1701 9.05403 28.8538 9.10806 28.5026 9.10806ZM36.7793 9H34.6451V2.08425H36.8738C37.5447 2.08425 38.1187 2.2227 38.596 2.4996C39.0732 2.77425 39.4391 3.16934 39.6935 3.68487C39.9478 4.19815 40.075 4.81273 40.075 5.52862C40.075 6.24901 39.9467 6.86922 39.6901 7.38925C39.4334 7.90703 39.0597 8.3055 38.569 8.58465C38.0782 8.86155 37.4816 9 36.7793 9ZM35.4825 8.2571H36.7252C37.297 8.2571 37.7709 8.14679 38.1469 7.92617C38.5228 7.70555 38.8031 7.3915 38.9877 6.98403C39.1723 6.57656 39.2646 6.09142 39.2646 5.52862C39.2646 4.97031 39.1734 4.48968 38.9911 4.08671C38.8087 3.68149 38.5363 3.37082 38.1739 3.1547C37.8114 2.93634 37.3601 2.82715 36.8198 2.82715H35.4825V8.2571ZM43.5464 9.10806C43.0467 9.10806 42.6155 8.99775 42.2531 8.77713C41.8929 8.55426 41.6149 8.24359 41.419 7.84512C41.2254 7.44441 41.1286 6.9784 41.1286 6.44712C41.1286 5.91583 41.2254 5.44757 41.419 5.04235C41.6149 4.63488 41.8873 4.31746 42.2362 4.09009C42.5874 3.86046 42.9971 3.74565 43.4654 3.74565C43.7355 3.74565 44.0023 3.79067 44.2657 3.88072C44.5291 3.97077 44.7688 4.1171 44.985 4.31971C45.2011 4.52007 45.3733 4.78571 45.5016 5.11664C45.6299 5.44757 45.6941 5.85504 45.6941 6.33906V6.67674H41.6959V5.98787H44.8836C44.8836 5.69521 44.8251 5.43407 44.7081 5.20444C44.5932 4.97482 44.4289 4.79359 44.215 4.66077C44.0034 4.52795 43.7535 4.46154 43.4654 4.46154C43.148 4.46154 42.8733 4.54033 42.6414 4.69792C42.4118 4.85325 42.2351 5.05586 42.1113 5.30575C41.9875 5.55563 41.9255 5.82353 41.9255 6.10943V6.56868C41.9255 6.96039 41.9931 7.29245 42.1282 7.56485C42.2655 7.83499 42.4557 8.04098 42.6988 8.18281C42.942 8.32238 43.2245 8.39217 43.5464 8.39217C43.7558 8.39217 43.9449 8.3629 44.1137 8.30437C44.2848 8.24359 44.4323 8.15354 44.5561 8.03423C44.6799 7.91266 44.7756 7.76183 44.8431 7.58173L45.613 7.79785C45.532 8.05899 45.3958 8.28861 45.2044 8.48672C45.0131 8.68258 44.7767 8.83566 44.4953 8.94597C44.2139 9.05403 43.8976 9.10806 43.5464 9.10806ZM49.1621 3.81319V4.48855H46.4741V3.81319H49.1621ZM47.2576 2.57051H48.0545V7.51419C48.0545 7.73932 48.0871 7.90816 48.1524 8.02072C48.22 8.13103 48.3055 8.20532 48.4091 8.24359C48.5149 8.27961 48.6263 8.29762 48.7434 8.29762C48.8312 8.29762 48.9032 8.29312 48.9595 8.28411C49.0158 8.27286 49.0608 8.26385 49.0946 8.2571L49.2566 8.97299C49.2026 8.99325 49.1272 9.01351 49.0304 9.03377C48.9336 9.05628 48.8109 9.06754 48.6623 9.06754C48.4372 9.06754 48.2166 9.01914 48.0005 8.92233C47.7866 8.82553 47.6088 8.67808 47.4669 8.47997C47.3273 8.28186 47.2576 8.03197 47.2576 7.73031V2.57051ZM51.8872 9.12157C51.5585 9.12157 51.2602 9.05966 50.9923 8.93584C50.7244 8.80977 50.5117 8.62855 50.3541 8.39217C50.1965 8.15354 50.1177 7.86538 50.1177 7.5277C50.1177 7.23054 50.1763 6.98966 50.2933 6.80506C50.4104 6.61821 50.5669 6.47188 50.7627 6.36607C50.9586 6.26026 51.1747 6.18147 51.4111 6.12969C51.6497 6.07566 51.8894 6.03289 52.1303 6.00137C52.4455 5.96085 52.701 5.93046 52.8969 5.9102C53.095 5.88769 53.2391 5.85054 53.3291 5.79876C53.4214 5.74699 53.4676 5.65694 53.4676 5.52862V5.5016C53.4676 5.16842 53.3764 4.90953 53.194 4.72493C53.0139 4.54033 52.7404 4.44803 52.3735 4.44803C51.993 4.44803 51.6947 4.53133 51.4786 4.69792C51.2625 4.86451 51.1105 5.04235 51.0227 5.23146L50.2663 4.96131C50.4014 4.64614 50.5815 4.40076 50.8066 4.22516C51.034 4.04731 51.2816 3.9235 51.5495 3.85371C51.8197 3.78167 52.0853 3.74565 52.3464 3.74565C52.513 3.74565 52.7044 3.76591 52.9205 3.80643C53.1389 3.8447 53.3494 3.92462 53.552 4.04619C53.7568 4.16775 53.9268 4.35123 54.0619 4.59661C54.1969 4.84199 54.2645 5.17067 54.2645 5.58265V9H53.4676V8.29762H53.427C53.373 8.41018 53.283 8.53062 53.1569 8.65894C53.0308 8.78726 52.8631 8.89644 52.6537 8.98649C52.4444 9.07654 52.1889 9.12157 51.8872 9.12157ZM52.0088 8.40568C52.3239 8.40568 52.5896 8.34377 52.8057 8.21995C53.0241 8.09613 53.1884 7.9363 53.2987 7.74044C53.4113 7.54459 53.4676 7.3386 53.4676 7.12248V6.39309C53.4338 6.43361 53.3595 6.47075 53.2447 6.50452C53.1321 6.53604 53.0016 6.56418 52.853 6.58894C52.7066 6.61145 52.5637 6.63172 52.4241 6.64973C52.2868 6.66548 52.1754 6.67899 52.0898 6.69025C51.8827 6.71726 51.6891 6.76116 51.509 6.82194C51.3311 6.88048 51.1871 6.9694 51.0768 7.08871C50.9687 7.20578 50.9147 7.36561 50.9147 7.56822C50.9147 7.84512 51.0171 8.05449 51.222 8.19631C51.4291 8.33589 51.6913 8.40568 52.0088 8.40568ZM55.7191 9V3.81319H56.516V9H55.7191ZM56.1243 2.94872C55.9689 2.94872 55.835 2.89581 55.7224 2.79001C55.6121 2.6842 55.557 2.55701 55.557 2.40843C55.557 2.25984 55.6121 2.13265 55.7224 2.02684C55.835 1.92104 55.9689 1.86813 56.1243 1.86813C56.2796 1.86813 56.4124 1.92104 56.5227 2.02684C56.6353 2.13265 56.6916 2.25984 56.6916 2.40843C56.6916 2.55701 56.6353 2.6842 56.5227 2.79001C56.4124 2.89581 56.2796 2.94872 56.1243 2.94872ZM58.7726 2.08425V9H57.9756V2.08425H58.7726ZM63.9062 4.97482L63.1903 5.17743C63.1453 5.05811 63.0789 4.94217 62.9911 4.82961C62.9055 4.7148 62.7885 4.62025 62.6399 4.54596C62.4913 4.47167 62.3011 4.43452 62.0692 4.43452C61.7518 4.43452 61.4872 4.50769 61.2756 4.65402C61.0663 4.7981 60.9616 4.98157 60.9616 5.20444C60.9616 5.40255 61.0336 5.55901 61.1777 5.67382C61.3218 5.78863 61.5469 5.88431 61.8531 5.96085L62.623 6.14995C63.0867 6.26252 63.4323 6.43473 63.6597 6.66661C63.887 6.89623 64.0007 7.19227 64.0007 7.55472C64.0007 7.85188 63.9152 8.11752 63.7441 8.35165C63.5753 8.58578 63.3389 8.77038 63.035 8.90545C62.731 9.04052 62.3776 9.10806 61.9746 9.10806C61.4456 9.10806 61.0077 8.99325 60.661 8.76362C60.3144 8.534 60.0949 8.19857 60.0026 7.75733L60.759 7.56822C60.831 7.84737 60.9672 8.05674 61.1676 8.19631C61.3702 8.33589 61.6347 8.40568 61.9611 8.40568C62.3326 8.40568 62.6275 8.32688 62.8459 8.1693C63.0665 8.00946 63.1768 7.81811 63.1768 7.59524C63.1768 7.41514 63.1138 7.26431 62.9877 7.14274C62.8616 7.01893 62.668 6.92663 62.4069 6.86584L61.5424 6.66323C61.0674 6.55067 60.7185 6.3762 60.4956 6.13982C60.275 5.90119 60.1647 5.60291 60.1647 5.24496C60.1647 4.9523 60.2468 4.69341 60.4112 4.46829C60.5778 4.24317 60.804 4.06645 61.0899 3.93813C61.3781 3.80981 61.7045 3.74565 62.0692 3.74565C62.5825 3.74565 62.9854 3.85821 63.2781 4.08333C63.573 4.30846 63.7824 4.60562 63.9062 4.97482Z" fill="black"/>
<g clip-path="url(#clip1_118_440)">
<path d="M78.0906 6.43134L74.9406 9.59072C74.9031 9.62822 74.8625 9.65484 74.8187 9.67059C74.775 9.68634 74.7281 9.69409 74.6781 9.69384C74.6281 9.69384 74.5812 9.68597 74.5375 9.67022C74.4937 9.65447 74.4531 9.62797 74.4156 9.59072L71.2562 6.43134C71.1687 6.34384 71.125 6.23447 71.125 6.10322C71.125 5.97197 71.1719 5.85947 71.2656 5.76572C71.3594 5.67197 71.4687 5.62509 71.5937 5.62509C71.7187 5.62509 71.8281 5.67197 71.9219 5.76572L74.6781 8.52197L77.4344 5.76572C77.5219 5.67822 77.6297 5.63447 77.758 5.63447C77.8862 5.63447 77.9971 5.68134 78.0906 5.77509C78.1844 5.86884 78.2312 5.97822 78.2312 6.10322C78.2312 6.22822 78.1844 6.33759 78.0906 6.43134Z" fill="black"/>
<path d="M78.0906 3.8625L74.9406 7.02187C74.9031 7.05937 74.8625 7.08599 74.8187 7.10174C74.775 7.11749 74.7281 7.12524 74.6781 7.12499C74.6281 7.12499 74.5812 7.11712 74.5375 7.10137C74.4937 7.08562 74.4531 7.05912 74.4156 7.02187L71.2562 3.8625C71.1687 3.775 71.125 3.66562 71.125 3.53437C71.125 3.40312 71.1719 3.29062 71.2656 3.19687C71.3594 3.10312 71.4687 3.05625 71.5937 3.05625C71.7187 3.05625 71.8281 3.10312 71.9219 3.19687L74.6781 5.95312L77.4344 3.19687C77.5219 3.10937 77.6297 3.06562 77.758 3.06562C77.8862 3.06562 77.9971 3.1125 78.0906 3.20625C78.1844 3.3 78.2312 3.40937 78.2312 3.53437C78.2312 3.65937 78.1844 3.76875 78.0906 3.8625Z" fill="black"/>
</g>
<defs>
<clipPath id="clip0_118_440">
<rect width="9" height="9" fill="white" transform="matrix(0 -1 1 0 0 12)"/>
</clipPath>
<clipPath id="clip1_118_440">
<rect width="9" height="9" fill="white" transform="matrix(0 -1 1 0 70 12)"/>
</clipPath>
</defs>
</svg>
